<?xml version="1.0" standalone="no"?>
<!DOCTYPE svg PUBLIC "-//W3C//DTD SVG 20010904//EN"
 "http://www.w3.org/TR/2001/REC-SVG-20010904/DTD/svg10.dtd">
<svg version="1.0" xmlns="http://www.w3.org/2000/svg"
 width="5100.000000pt" height="1152.000000pt" viewBox="0 0 5100.000000 1152.000000"
 preserveAspectRatio="xMidYMid meet">
<metadata>
Created by potrace 1.11, written by Peter Selinger 2001-2013
</metadata>
<g transform="translate(0.000000,1152.000000) scale(0.100000,-0.100000)"
fill="#000000" stroke="none">
<path d="M42359 10908 c-68 -44 -149 -128 -149 -154 0 -8 -10 -14 -22 -14 -34
-1 -216 -137 -262 -197 -23 -28 -77 -103 -121 -167 -44 -64 -108 -156 -142
-204 -34 -48 -64 -101 -67 -119 -13 -66 -214 -436 -247 -453 -32 -17 -296 33
-398 76 -59 25 -199 52 -371 74 -127 15 -174 26 -216 46 -57 28 -53 28 -197 3
-63 -10 -100 -10 -186 -1 -177 20 -340 14 -716 -24 -257 -26 -348 -43 -539
-99 -102 -29 -190 -57 -196 -60 -6 -3 -47 -10 -93 -15 -45 -5 -125 -22 -177
-39 -284 -90 -317 -89 -452 15 -59 46 -76 52 -97 32 -10 -11 -16 -8 -32 11
-10 13 -19 29 -19 37 0 16 -243 232 -277 245 -14 5 -29 7 -33 4 -5 -3 -23 8
-40 25 -41 40 -71 54 -170 79 -47 11 -139 47 -204 78 -86 42 -120 54 -124 45
-2 -7 -15 -17 -28 -22 -38 -15 -32 -55 14 -93 69 -59 164 -162 240 -262 41
-55 105 -128 142 -162 57 -53 72 -73 98 -140 23 -57 30 -88 26 -113 -5 -31 3
-48 70 -150 42 -63 76 -118 76 -123 0 -5 -18 -27 -40 -50 -21 -23 -74 -85
-117 -137 -43 -52 -106 -115 -140 -140 -56 -41 -62 -48 -61 -80 3 -65 -33
-100 -83 -82 -22 9 -29 2 -85 -82 -36 -54 -63 -107 -67 -129 -8 -51 -23 -67
-62 -67 -18 0 -38 -6 -44 -13 -6 -8 -91 -174 -189 -369 -220 -437 -338 -725
-357 -873 -4 -27 -18 -81 -32 -120 -21 -58 -26 -99 -34 -245 -10 -199 -23
-320 -44 -421 -24 -112 -22 -118 43 -154 1 -1 -5 -19 -13 -39 -13 -31 -14 -47
-4 -94 6 -31 19 -97 28 -146 9 -49 22 -91 29 -94 7 -2 12 -15 12 -28 0 -14 11
-51 25 -84 35 -83 95 -341 95 -407 0 -52 2 -57 44 -97 48 -45 117 -173 155
-287 19 -59 25 -67 51 -73 23 -4 35 -17 54 -55 71 -139 262 -401 407 -558 46
-50 78 -102 157 -260 55 -109 110 -229 122 -268 30 -96 36 -234 21 -494 -11
-183 -10 -246 2 -413 9 -108 13 -207 10 -220 -4 -12 -19 -46 -35 -75 -33 -59
-31 -81 9 -113 34 -26 64 -25 91 3 26 28 28 64 5 90 -15 16 -18 45 -21 195 -3
147 0 193 17 272 14 70 18 117 14 175 -5 76 31 587 43 606 3 5 12 9 21 9 30 0
169 -95 222 -152 29 -33 70 -67 90 -78 21 -10 48 -34 60 -52 13 -18 57 -53 98
-78 96 -58 170 -124 230 -206 29 -40 63 -74 86 -86 29 -14 55 -44 104 -121
108 -166 117 -187 117 -280 1 -66 -4 -90 -21 -122 -58 -107 -65 -127 -60 -174
8 -76 78 -119 143 -88 74 36 88 118 35 210 -30 53 -31 58 -31 179 0 112 2 128
21 152 36 46 53 49 107 22 27 -14 61 -41 76 -60 15 -20 46 -46 69 -58 23 -11
60 -36 81 -54 22 -19 50 -34 62 -34 16 0 37 -17 67 -54 24 -29 61 -69 82 -87
22 -20 50 -60 66 -96 22 -49 33 -63 50 -63 16 0 20 -4 14 -18 -11 -28 -34
-413 -36 -587 0 -88 -4 -216 -8 -285 -4 -69 -6 -127 -5 -129 2 -2 21 11 42 28
22 17 50 31 62 31 37 0 59 19 86 75 23 50 28 55 59 55 20 0 35 -6 39 -15 3 -8
11 -138 17 -287 9 -218 9 -292 -1 -366 -12 -90 -12 -94 8 -114 42 -43 73 15
47 90 -12 34 -13 105 -5 439 6 278 13 416 23 458 32 135 53 194 104 279 29 49
57 103 63 121 6 18 34 52 65 79 62 53 174 192 215 267 l27 50 20 -27 20 -27
12 34 c12 33 13 33 26 14 33 -46 30 -46 132 2 54 26 114 58 133 72 29 22 46
26 113 27 55 1 83 7 96 18 9 8 47 23 83 33 79 21 94 13 102 -50 3 -23 15 -118
27 -212 29 -229 24 -545 -11 -670 -36 -127 -36 -139 -5 -164 15 -11 45 -26 67
-33 35 -10 41 -9 61 11 18 18 22 33 22 89 -1 45 -7 78 -19 101 -38 72 -44 464
-9 666 8 50 16 119 17 155 3 82 37 166 64 155 70 -30 62 -31 182 37 74 42 131
67 160 71 24 3 49 12 55 21 13 17 113 86 126 86 4 0 13 -9 19 -20 14 -25 21
-25 55 2 l28 22 -29 22 c-15 13 -25 26 -22 29 3 4 41 -4 84 -17 53 -17 83 -32
96 -49 35 -48 50 -259 55 -813 l5 -508 -28 -55 c-27 -54 -27 -57 -14 -117 7
-33 16 -87 20 -118 6 -59 23 -90 39 -72 5 5 16 34 26 64 9 30 30 79 46 107 35
64 36 81 4 141 l-25 47 0 500 c0 374 4 533 15 630 8 72 15 170 15 218 0 100
21 157 68 181 41 21 60 47 71 94 11 49 28 72 88 114 50 33 71 28 103 -25 24
-39 25 -74 3 -143 -16 -51 -16 -56 5 -132 27 -97 27 -134 2 -191 -26 -57 -25
-75 6 -100 37 -29 78 -27 103 5 31 40 28 81 -9 102 -36 21 -37 30 -5 152 26
101 30 161 15 225 -11 46 -1 118 36 269 27 105 45 142 75 151 12 4 37 44 67
108 36 76 65 120 110 169 34 36 78 92 97 124 52 87 153 227 213 295 31 36 52
68 52 82 0 18 14 34 58 62 140 93 159 123 105 164 -27 20 -27 21 -8 33 38 22
85 79 96 119 l12 40 23 -28 c12 -15 24 -26 27 -23 7 8 47 198 47 224 0 12 9
31 20 41 11 10 20 30 20 45 0 16 10 35 24 48 14 11 32 43 40 69 8 26 31 92 50
145 20 54 43 139 52 190 11 64 25 107 45 138 44 72 50 96 59 259 8 131 7 158
-6 183 -9 17 -13 41 -10 54 4 15 1 33 -9 47 -12 18 -15 60 -15 243 l0 221 -45
106 c-24 59 -49 134 -55 168 -6 34 -31 115 -56 181 -24 65 -44 125 -44 132 0
8 -34 83 -76 167 -42 85 -101 210 -131 279 -86 199 -240 459 -361 607 -57 71
-132 169 -168 218 -35 50 -83 104 -106 120 -23 17 -46 44 -51 60 -12 39 -64
93 -157 165 -41 32 -111 91 -156 132 -44 41 -100 88 -125 105 -24 17 -59 49
-76 71 -18 22 -52 54 -75 71 -69 50 -108 115 -116 199 -8 69 -8 71 16 77 23 6
23 7 8 24 -24 26 -20 44 14 63 23 13 30 24 30 49 0 32 67 301 95 378 8 24 44
94 80 156 37 63 69 131 73 157 5 25 18 59 29 74 26 37 46 100 39 120 -8 21 6
45 91 150 67 84 73 95 73 138 0 25 2 46 4 46 3 0 16 -4 30 -10 29 -11 34 -1
38 80 3 39 0 45 -17 48 -11 1 -50 -17 -86 -40z m-2259 -1557 c60 -7 112 -20
171 -45 97 -40 163 -54 173 -37 16 25 85 8 269 -65 313 -124 322 -131 321
-228 0 -43 -8 -79 -27 -123 -23 -53 -25 -66 -15 -83 11 -17 9 -23 -22 -49
l-35 -29 13 -47 c10 -39 10 -52 -2 -76 -8 -16 -18 -43 -21 -61 -4 -18 -25 -67
-47 -108 -27 -53 -45 -107 -59 -180 -12 -58 -30 -117 -40 -132 -12 -17 -22
-52 -26 -95 -3 -37 -14 -84 -25 -104 -10 -19 -31 -85 -47 -147 -15 -62 -40
-129 -53 -150 -14 -20 -31 -66 -38 -102 -18 -92 -67 -209 -105 -250 -41 -44
-62 -85 -90 -177 -22 -70 -22 -73 -4 -78 29 -10 23 -25 -31 -75 -48 -44 -50
-48 -50 -101 0 -61 -7 -76 -41 -93 -20 -10 -25 -22 -32 -81 -5 -39 -9 -84 -10
-101 -1 -24 -7 -33 -28 -41 -22 -9 -28 -18 -32 -54 -9 -76 -25 -135 -47 -172
-19 -31 -21 -46 -15 -94 6 -57 5 -58 -24 -75 -38 -21 -47 -56 -31 -123 14 -57
9 -75 -19 -75 -10 0 -24 -6 -30 -14 -10 -11 -7 -19 10 -35 l23 -21 -22 -39
c-12 -21 -22 -47 -22 -57 0 -11 -9 -32 -20 -49 -11 -16 -22 -50 -25 -75 -12
-86 -17 -102 -47 -136 -21 -23 -29 -41 -25 -55 4 -13 -3 -33 -16 -51 -19 -25
-22 -41 -20 -105 3 -91 -7 -116 -81 -208 -62 -77 -89 -139 -106 -242 -7 -37
-19 -94 -27 -125 -14 -51 -14 -59 1 -79 23 -33 20 -73 -7 -106 -22 -27 -48
-124 -62 -231 -7 -52 -40 -122 -58 -122 -25 0 -47 139 -28 169 6 9 4 29 -5 53
-7 21 -16 62 -20 91 -4 29 -31 106 -59 172 -52 119 -80 225 -120 460 -8 49
-26 112 -39 140 -13 27 -26 77 -29 110 -4 33 -16 87 -27 120 -12 33 -30 101
-40 151 -10 50 -35 142 -56 204 -20 63 -43 154 -50 204 -8 50 -39 177 -69 283
-31 105 -77 303 -104 440 -57 288 -93 434 -126 512 -12 31 -46 146 -75 256
-28 110 -65 238 -81 285 -17 47 -43 121 -59 165 -15 44 -42 114 -59 157 -22
53 -31 93 -31 131 0 49 -3 58 -29 79 -24 20 -35 46 -72 183 -39 146 -43 171
-44 280 l0 120 41 20 c39 19 41 21 28 41 -13 18 -12 23 6 39 17 16 25 17 40 7
28 -17 51 -15 74 7 12 11 52 31 90 45 58 22 74 25 100 15 26 -9 42 -7 101 16
127 48 193 50 210 6 4 -9 9 -59 12 -111 5 -95 -2 -130 -39 -220 -21 -49 -8
-88 50 -151 l48 -52 33 52 c46 71 50 121 17 204 -22 56 -26 80 -26 172 0 72 5
115 14 134 19 37 85 95 138 122 36 18 47 20 74 10 26 -9 38 -8 76 9 50 22 307
59 423 61 39 1 84 5 100 9 43 11 117 11 215 1z m1589 -798 c47 -41 56 -45 73
-34 27 17 42 2 64 -60 14 -39 23 -49 40 -49 37 0 54 -11 54 -36 0 -18 8 -25
38 -33 44 -12 130 -96 161 -158 44 -88 69 -286 78 -618 l6 -230 -33 -64 c-27
-54 -31 -73 -28 -116 9 -107 74 -147 135 -82 61 63 67 115 23 209 -29 60 -30
69 -30 193 0 72 5 186 10 254 14 174 32 188 97 73 20 -37 58 -99 83 -138 25
-39 68 -124 95 -190 27 -65 66 -159 88 -209 115 -263 146 -350 147 -403 0 -39
8 -67 30 -109 34 -63 37 -84 14 -118 -12 -18 -13 -28 -5 -44 15 -28 14 -31
-14 -31 -23 0 -25 -3 -25 -48 0 -38 7 -59 30 -93 36 -53 37 -73 7 -113 -22
-29 -23 -37 -16 -101 4 -38 8 -78 8 -87 1 -11 9 -18 21 -18 33 0 34 -25 6 -95
-32 -79 -32 -92 -4 -122 l22 -23 -23 -31 c-20 -27 -22 -37 -16 -103 5 -50 4
-76 -4 -80 -6 -4 -11 -30 -11 -57 0 -157 -87 -381 -272 -698 -72 -124 -149
-251 -171 -281 -78 -107 -232 -286 -317 -367 -47 -46 -96 -95 -110 -109 -14
-15 -60 -61 -104 -103 -43 -42 -116 -113 -162 -158 -73 -71 -119 -107 -283
-224 -20 -14 -58 -34 -86 -46 -27 -11 -72 -34 -100 -52 -28 -18 -113 -52 -195
-77 -80 -25 -177 -57 -217 -70 -39 -13 -93 -27 -120 -30 -26 -3 -77 -15 -112
-25 -93 -28 -182 -26 -229 6 -44 30 -75 31 -127 5 -53 -27 -58 -26 -104 17
-22 21 -56 51 -76 67 -33 27 -36 33 -31 65 3 20 10 65 14 101 5 36 21 89 36
118 l27 54 -30 -7 c-31 -7 -31 -6 -20 22 8 21 7 38 -2 67 -12 35 -11 40 7 53
16 12 18 24 16 73 -3 48 1 67 18 95 12 19 26 65 31 102 5 38 18 94 29 126 13
37 20 83 20 131 0 63 7 93 44 194 50 135 76 233 76 283 0 19 11 58 25 87 28
61 31 96 10 132 -22 39 -18 57 13 63 26 5 29 12 56 123 19 76 36 124 47 134
11 8 23 38 29 67 5 29 23 80 41 114 27 54 29 65 18 85 -9 19 -10 32 -1 63 7
21 12 69 12 107 0 60 4 75 30 112 31 46 31 46 109 337 33 121 64 215 87 260
52 100 81 182 118 335 18 74 44 158 58 185 14 28 33 73 41 101 8 28 28 75 45
105 16 30 35 72 42 94 7 22 25 51 39 65 15 14 43 66 63 115 29 73 35 99 31
135 -4 40 -2 49 23 76 16 16 39 37 52 46 17 12 30 41 51 121 18 72 39 123 63
159 52 78 77 131 84 177 4 26 14 46 25 52 11 5 19 16 19 23 0 7 9 25 20 39 13
16 20 40 20 67 0 33 6 48 29 71 41 40 67 37 130 -18z m-4021 -93 c6 -11 30
-29 52 -40 54 -28 77 -67 155 -265 37 -93 91 -222 120 -285 30 -64 57 -129 61
-145 4 -17 15 -47 26 -68 13 -26 17 -48 13 -68 -6 -25 -3 -30 19 -39 23 -8 25
-13 20 -57 -5 -45 -3 -51 36 -98 40 -47 42 -52 38 -102 -5 -54 -1 -62 20 -41
8 8 14 5 22 -16 14 -37 13 -48 -6 -74 -14 -21 -14 -27 0 -70 9 -25 30 -61 47
-78 26 -27 29 -35 20 -52 -19 -36 -5 -162 19 -162 5 0 24 -15 43 -32 52 -50
97 -198 251 -823 82 -329 114 -480 151 -695 19 -107 50 -265 69 -350 19 -85
48 -243 65 -350 17 -107 42 -251 56 -319 14 -68 25 -145 25 -170 0 -25 7 -64
14 -86 11 -29 13 -69 9 -150 -4 -88 -2 -119 11 -155 23 -60 28 -146 10 -161
-8 -6 -14 -26 -14 -43 0 -18 -6 -40 -13 -49 -11 -16 -19 -15 -102 19 -164 66
-260 121 -362 211 -53 46 -123 98 -156 115 -39 19 -89 59 -141 112 -45 45
-124 122 -176 171 -53 50 -126 126 -163 170 -38 44 -89 92 -115 107 -61 36
-236 218 -326 338 -39 52 -102 129 -141 170 -83 89 -240 337 -355 563 -81 157
-208 490 -235 615 -8 37 -21 92 -30 122 -17 62 -39 368 -29 414 6 29 12 42 50
101 16 25 16 25 -14 36 l-31 11 5 136 c8 228 30 314 129 512 29 58 58 123 65
145 23 71 108 231 175 330 36 53 78 119 93 147 22 41 36 54 67 65 21 7 44 18
52 24 27 23 124 170 143 219 34 86 67 144 91 159 27 16 118 49 139 50 8 1 21
-8 28 -19z"/>
<path d="M17695 9819 c-436 -42 -915 -179 -1295 -369 -135 -68 -411 -234 -521
-313 -187 -135 -452 -375 -609 -552 -110 -123 -245 -302 -334 -440 -90 -140
-98 -154 -170 -287 -119 -222 -262 -591 -311 -808 -47 -201 -57 -253 -74 -377
-30 -213 -41 -353 -41 -538 0 -611 152 -1220 436 -1747 317 -586 786 -1080
1359 -1429 95 -58 374 -199 490 -247 399 -168 861 -265 1325 -278 1016 -29
1993 359 2710 1076 102 102 215 225 261 285 5 5 21 26 36 45 437 542 710 1226
783 1959 13 133 13 539 0 672 -75 754 -365 1454 -839 2024 -154 186 -474 489
-644 610 -82 59 -262 178 -328 218 -441 264 -1018 449 -1549 497 -135 12 -555
11 -685 -1z m165 -452 l0 -94 -92 -6 c-165 -11 -518 -79 -518 -99 0 -5 18 -80
41 -166 23 -86 42 -163 43 -170 0 -9 -37 -25 -104 -46 -292 -89 -554 -221
-840 -423 -45 -31 -191 -155 -256 -216 l-64 -59 -132 131 -133 131 -18 -23
c-10 -12 -39 -43 -64 -69 -58 -61 -187 -220 -238 -293 -77 -110 -61 -104 -148
-55 -75 43 -76 44 -62 69 21 42 140 197 250 326 385 452 922 810 1485 990 261
83 566 143 833 164 15 1 17 -10 17 -92z m519 78 c698 -78 1311 -339 1824 -777
227 -193 485 -482 611 -682 18 -29 18 -29 -5 -47 -13 -10 -27 -19 -32 -19 -4
0 -25 -11 -47 -25 -22 -14 -43 -25 -47 -25 -5 0 -19 16 -33 36 -105 148 -190
253 -331 406 l-34 38 -132 -132 -132 -131 -93 88 c-184 173 -395 317 -643 440
-166 82 -326 146 -453 181 -34 9 -65 20 -68 25 -4 7 47 223 75 318 6 19 10 35
8 36 -25 19 -395 83 -524 92 l-93 6 0 94 c0 51 3 93 8 93 4 0 67 -7 141 -15z
m-66 -1110 c162 -21 148 -5 120 -148 -13 -67 -37 -194 -54 -282 -40 -208 -85
-445 -110 -569 -23 -118 -23 -116 -4 -116 28 0 210 -62 270 -93 99 -49 196
-118 276 -194 42 -40 80 -73 84 -73 7 0 76 57 175 146 196 176 656 564 664
561 24 -8 212 -273 258 -362 8 -16 29 -57 46 -90 49 -96 103 -238 94 -247 -7
-7 -147 -57 -487 -173 -38 -13 -162 -56 -275 -96 -113 -39 -220 -76 -237 -82
-18 -6 -33 -15 -33 -21 0 -6 12 -56 26 -111 22 -85 27 -122 27 -245 1 -127 -2
-159 -27 -258 -16 -63 -24 -117 -20 -122 5 -4 59 -24 119 -45 61 -21 200 -69
310 -107 110 -39 225 -78 255 -88 111 -37 343 -119 346 -123 9 -8 -40 -130
-99 -247 -71 -140 -167 -291 -250 -393 l-55 -67 -189 162 c-210 181 -608 523
-635 546 -16 13 -22 10 -70 -41 -123 -129 -295 -231 -479 -286 -56 -17 -104
-32 -106 -34 -2 -2 6 -48 16 -103 11 -54 33 -171 50 -259 17 -88 46 -245 66
-350 20 -104 45 -230 55 -280 10 -49 17 -91 16 -92 -1 -2 -47 -10 -102 -18
-137 -21 -479 -21 -610 0 -54 9 -100 17 -101 19 -4 4 38 245 62 356 8 36 30
153 50 260 20 107 49 257 64 332 l29 138 -42 11 c-165 43 -258 83 -376 161
-41 28 -110 84 -152 126 -83 81 -81 81 -128 31 -8 -9 -78 -70 -155 -135 -77
-65 -142 -121 -145 -124 -3 -4 -106 -94 -230 -200 -124 -106 -233 -199 -242
-208 -16 -14 -20 -12 -40 13 -123 152 -211 291 -294 462 -48 97 -98 223 -90
223 1 0 101 34 222 76 120 42 244 84 274 94 46 16 370 128 506 176 l41 15 -24
97 c-18 71 -26 135 -30 237 -4 123 -2 155 20 260 14 66 28 127 31 135 5 12
-16 22 -91 48 -162 55 -444 152 -513 177 -36 13 -139 49 -230 80 -90 32 -175
61 -187 66 -21 8 -22 10 -9 47 54 153 162 350 306 557 42 61 89 107 102 99 7
-4 191 -161 408 -349 217 -187 401 -344 408 -349 8 -5 39 17 88 63 140 131
315 229 489 274 50 13 84 26 81 33 -5 12 -38 182 -91 459 -20 105 -47 244 -60
310 -46 233 -56 295 -51 304 3 4 47 14 98 20 51 7 100 14 108 16 47 9 370 3
463 -10z m-3110 -779 c23 -15 22 -27 -12 -94 -63 -125 -187 -469 -178 -495 3
-9 92 -36 280 -84 60 -15 68 -20 64 -38 -72 -307 -91 -487 -84 -789 5 -239 28
-418 82 -626 6 -25 3 -26 -117 -62 -68 -20 -147 -41 -176 -48 -53 -12 -53 -13
-47 -44 20 -94 121 -364 184 -490 l29 -60 -44 -27 c-84 -54 -105 -62 -120 -47
-20 20 -121 258 -170 403 -76 221 -129 458 -166 745 -16 126 -16 548 1 670 58
434 142 737 290 1053 l51 109 57 -33 c32 -17 66 -37 76 -43z m5869 -29 c147
-321 230 -607 283 -977 32 -224 29 -680 -6 -876 -62 -357 -106 -519 -210 -784
-47 -122 -109 -250 -120 -250 -5 0 -23 8 -41 19 -81 46 -108 64 -108 72 0 5
13 35 29 66 64 124 181 444 181 491 0 13 -9 22 -27 26 -16 4 -94 25 -174 48
l-146 41 18 81 c62 272 86 555 69 812 -13 199 -23 276 -59 437 -19 87 -24 130
-17 133 10 3 226 63 307 84 l36 10 -23 77 c-46 156 -111 325 -180 467 -11 23
-15 41 -9 43 6 1 39 21 75 43 36 22 67 40 70 40 3 0 26 -46 52 -103z m-5626
-3169 c90 -132 225 -299 325 -402 l38 -39 126 124 c69 68 129 125 133 127 5 1
51 -36 103 -84 271 -248 573 -430 929 -562 58 -21 135 -46 173 -56 37 -10 67
-19 67 -20 0 0 -8 -31 -19 -67 -43 -149 -72 -282 -64 -289 25 -23 474 -99 586
-100 15 0 17 -11 17 -90 l0 -90 -33 0 c-106 0 -426 53 -612 100 -302 78 -543
176 -830 338 -88 49 -277 173 -342 224 -23 18 -66 52 -97 76 -170 130 -401
372 -569 593 -127 169 -125 165 -87 187 18 9 51 29 73 44 23 14 45 27 48 27 4
1 19 -18 35 -41z m5306 -1 c37 -21 70 -42 73 -47 3 -5 -8 -28 -25 -52 -17 -24
-38 -54 -47 -68 -72 -107 -298 -364 -419 -477 -242 -227 -480 -395 -769 -542
-247 -127 -452 -203 -720 -270 -140 -34 -402 -78 -527 -87 l-88 -7 0 92 c0 75
3 91 15 91 82 0 465 59 553 85 43 13 52 20 47 33 -9 23 -85 320 -85 332 0 5
19 14 43 20 244 61 571 215 816 384 40 28 83 58 95 66 36 24 124 98 217 182
47 43 89 78 92 78 4 0 33 -26 64 -58 32 -32 90 -88 130 -126 l71 -68 44 48
c23 26 52 57 64 68 48 49 182 220 244 313 19 29 37 51 40 50 3 -1 35 -19 72
-40z"/>
<path d="M17971 7059 c-50 -36 -81 -96 -81 -159 0 -25 13 -83 29 -130 16 -47
28 -86 27 -87 -1 -1 -41 29 -89 67 -47 39 -88 70 -89 70 -2 0 -27 -27 -56 -59
l-52 -59 43 -25 c137 -81 217 -258 205 -456 -7 -123 -48 -196 -138 -249 -157
-93 -383 63 -455 312 -14 46 -16 83 -12 160 5 111 22 171 92 325 24 53 41 98
39 100 -8 8 -120 -96 -171 -160 -29 -35 -75 -109 -103 -164 -191 -383 -111
-853 194 -1142 126 -120 260 -194 435 -240 136 -36 356 -38 481 -5 294 78 552
305 663 584 47 116 59 177 64 323 4 115 1 157 -15 236 -35 172 -116 335 -224
454 -43 47 -138 123 -138 110 0 -3 20 -45 44 -93 71 -141 91 -218 91 -347 0
-89 -5 -123 -24 -179 -50 -145 -172 -272 -286 -296 -120 -25 -234 44 -271 165
-28 90 -25 251 6 330 32 84 82 157 151 218 l58 52 -49 55 -48 55 -76 -63 c-42
-34 -76 -59 -76 -56 0 3 7 34 16 68 22 84 21 167 -3 213 -22 42 -94 103 -122
103 -10 0 -37 -14 -60 -31z"/>
<path d="M657 9350 c-96 -30 -162 -90 -211 -190 l-31 -65 0 -2985 0 -2985 32
-67 c37 -78 92 -137 165 -175 l53 -28 2995 0 2995 0 67 33 c77 38 130 92 167
171 l26 56 3 2975 c2 3274 7 3024 -59 3124 -42 63 -108 111 -188 136 -63 20
-88 20 -3010 19 -2835 0 -2948 -1 -3004 -19z m5838 -380 c15 -14 33 -37 41
-52 12 -23 14 -439 14 -2808 0 -2578 -1 -2785 -17 -2817 -9 -20 -30 -44 -47
-54 -30 -18 -109 -19 -2814 -19 -3035 0 -2829 -4 -2869 56 -17 27 -18 135 -21
2824 l-2 2797 23 34 c12 19 38 42 57 52 33 16 184 17 2822 15 l2786 -3 27 -25z"/>
<path d="M1251 8654 c-162 -43 -293 -168 -341 -323 -19 -58 -20 -94 -20 -481
0 -389 1 -422 20 -482 88 -285 410 -423 679 -292 85 42 172 123 213 200 55
102 58 132 58 574 0 236 -5 423 -11 449 -38 165 -183 311 -354 356 -73 19
-173 18 -244 -1z"/>
<path d="M2381 8654 c-231 -62 -380 -292 -342 -527 17 -105 59 -187 133 -261
95 -95 195 -135 333 -136 351 0 574 361 419 678 -99 202 -326 305 -543 246z"/>
<path d="M3537 8659 c-122 -29 -224 -130 -261 -259 -15 -50 -16 -277 -14
-2335 l3 -2280 27 -57 c37 -79 98 -142 177 -181 61 -30 73 -32 166 -32 89 0
106 3 157 28 111 55 185 153 208 278 7 36 9 833 8 2310 l-3 2254 -33 67 c-46
94 -131 171 -218 198 -69 21 -152 24 -217 9z"/>
<path d="M4643 8655 c-183 -50 -317 -199 -346 -385 -36 -233 115 -466 338
-524 134 -35 280 -11 394 65 75 50 120 104 163 195 28 60 33 82 36 166 7 156
-37 269 -143 371 -115 110 -287 153 -442 112z"/>
<path d="M5773 8656 c-189 -46 -333 -207 -363 -403 -8 -47 -10 -206 -8 -450 4
-352 5 -382 25 -440 44 -130 133 -230 260 -290 69 -33 85 -37 182 -41 90 -3
116 -1 171 18 162 54 282 182 325 347 23 90 21 822 -3 914 -66 252 -331 407
-589 345z"/>
<path d="M7813 9356 c-134 -42 -226 -148 -252 -291 -15 -83 -16 -5827 0 -5911
23 -126 115 -243 225 -284 l55 -20 2982 2 2982 3 57 28 c75 37 134 98 172 177
l31 65 3 2945 c2 2163 0 2961 -8 3005 -23 117 -97 211 -208 263 l-57 27 -2970
2 c-2437 1 -2978 -1 -3012 -11z m5815 -376 c19 -12 41 -38 52 -63 19 -41 20
-102 20 -2802 0 -1788 -4 -2773 -10 -2796 -5 -19 -24 -48 -41 -65 l-30 -29
-2789 -3 c-2215 -2 -2796 0 -2827 10 -29 10 -43 23 -58 53 -20 40 -20 60 -20
2825 0 2767 0 2785 20 2819 11 18 36 42 55 52 34 18 122 19 2815 19 2770 0
2780 0 2813 -20z"/>
<path d="M12779 8727 c-139 -39 -241 -155 -268 -301 -14 -78 -16 -4469 -1
-4544 46 -246 310 -376 537 -265 67 33 136 106 171 181 l27 57 3 2275 c2 1657
0 2289 -8 2327 -23 105 -127 222 -231 258 -61 22 -175 28 -230 12z"/>
<path d="M8609 8526 c-230 -66 -376 -288 -342 -520 33 -234 229 -406 463 -406
184 0 345 100 426 266 35 70 39 85 42 175 4 79 0 111 -17 167 -42 138 -147
252 -279 303 -71 27 -224 35 -293 15z"/>
<path d="M10465 6899 c-84 -12 -195 -70 -258 -133 -60 -60 -110 -147 -132
-231 -66 -253 95 -523 350 -590 48 -12 131 -15 452 -15 413 0 459 4 550 46
306 144 372 565 125 796 -58 54 -119 91 -192 114 -48 15 -104 18 -445 20 -214
1 -417 -2 -450 -7z"/>
<path d="M8603 6876 c-269 -65 -423 -350 -332 -615 66 -192 236 -311 444 -311
188 0 343 96 425 263 85 176 48 399 -90 537 -31 30 -78 67 -106 82 -98 53
-232 70 -341 44z"/>
<path d="M8591 5204 c-120 -32 -239 -124 -304 -234 -55 -95 -58 -129 -55 -597
3 -418 4 -429 26 -484 107 -266 416 -388 667 -265 89 44 143 90 194 167 79
118 81 135 81 609 0 387 -1 423 -20 481 -74 242 -343 389 -589 323z"/>
<path d="M22305 9363 c-87 -19 -171 -76 -219 -147 -72 -106 -66 162 -66 -3108
l0 -2948 21 -63 c37 -114 133 -208 240 -237 24 -7 1094 -9 3011 -8 l2973 3 67
33 c77 38 130 92 167 171 l26 56 3 2975 c2 3274 7 3024 -59 3124 -42 63 -108
111 -188 136 -63 20 -87 20 -3010 19 -1620 -1 -2955 -3 -2966 -6z m5800 -393
c15 -14 33 -37 41 -52 12 -23 14 -439 14 -2808 0 -3085 6 -2826 -65 -2870 -32
-20 -43 -20 -2814 -20 -3034 0 -2828 -4 -2868 56 -17 27 -18 135 -21 2824 l-2
2797 23 34 c12 19 38 42 57 52 33 16 184 17 2822 15 l2786 -3 27 -25z"/>
<path d="M22861 8654 c-164 -44 -294 -167 -342 -325 -19 -62 -20 -89 -17 -505
l3 -439 37 -78 c93 -195 299 -306 513 -277 141 20 291 123 357 246 55 102 58
132 58 574 0 236 -5 423 -11 449 -38 165 -183 311 -354 356 -73 19 -173 18
-244 -1z"/>
<path d="M23991 8654 c-230 -62 -382 -294 -343 -526 54 -325 396 -494 692
-343 101 52 181 148 220 266 18 54 21 81 18 170 -3 99 -6 110 -41 183 -102
206 -327 309 -546 250z"/>
<path d="M25147 8660 c-124 -32 -224 -131 -261 -260 -15 -50 -16 -277 -14
-2335 l3 -2280 27 -57 c37 -79 98 -142 177 -181 61 -30 73 -32 166 -32 89 0
106 3 157 28 110 54 185 155 208 279 7 35 9 828 8 2309 l-3 2254 -33 67 c-40
82 -129 168 -199 193 -58 20 -183 28 -236 15z"/>
<path d="M26253 8655 c-250 -68 -402 -323 -338 -568 56 -216 236 -357 455
-357 194 0 353 104 436 285 22 47 28 78 32 155 7 153 -28 250 -129 356 -118
122 -294 172 -456 129z"/>
<path d="M27383 8656 c-129 -32 -261 -136 -316 -249 -54 -112 -59 -162 -55
-597 4 -378 5 -398 26 -454 48 -130 135 -225 259 -283 69 -33 85 -37 182 -41
90 -3 116 -1 171 18 168 56 298 201 330 369 6 31 10 216 9 440 0 331 -3 395
-17 452 -66 252 -331 407 -589 345z"/>
<path d="M29419 9354 c-103 -31 -197 -123 -235 -228 -18 -49 -19 -151 -22
-2981 -2 -2152 0 -2946 8 -2990 25 -128 116 -243 226 -285 l55 -20 2982 2
2982 3 48 22 c62 29 143 106 172 163 13 25 28 73 35 105 8 44 10 835 8 3000
l-3 2940 -23 57 c-32 80 -99 150 -180 190 l-67 33 -2970 2 c-2551 1 -2977 0
-3016 -13z m5819 -374 c19 -12 41 -38 52 -63 19 -41 20 -102 20 -2802 0 -1788
-4 -2773 -10 -2796 -5 -19 -24 -48 -41 -65 l-30 -29 -2789 -3 c-2215 -2 -2796
0 -2826 10 -26 9 -45 24 -58 48 l-21 35 0 2790 c0 2772 0 2790 20 2824 11 18
36 42 55 52 34 18 122 19 2815 19 2770 0 2780 0 2813 -20z"/>
<path d="M31695 8800 c-235 -41 -395 -230 -395 -465 0 -235 166 -429 398 -465
225 -35 443 97 519 313 27 79 24 243 -6 320 -31 79 -104 173 -171 218 -94 65
-238 98 -345 79z"/>
<path d="M33240 8799 c-273 -47 -455 -333 -385 -604 46 -176 200 -322 374
-355 31 -6 219 -10 440 -10 315 0 398 3 446 15 169 45 302 173 350 339 13 45
16 84 13 162 -4 91 -8 109 -41 178 -60 126 -160 215 -290 259 -58 20 -85 21
-457 23 -217 1 -420 -2 -450 -7z"/>
<path d="M30197 8680 c-103 -26 -183 -93 -234 -198 l-38 -76 0 -2300 0 -2301
27 -57 c37 -79 98 -142 177 -181 61 -30 73 -32 166 -32 89 0 106 3 157 28 111
54 184 151 208 272 8 44 10 660 8 2315 l-3 2255 -33 67 c-40 82 -129 168 -199
193 -58 20 -183 28 -236 15z"/>
<path d="M33141 4404 c-211 -57 -361 -251 -361 -469 0 -216 125 -392 331 -467
63 -23 69 -23 489 -23 418 0 426 0 488 23 156 56 265 168 312 320 23 75 26
193 6 267 -45 170 -181 305 -351 350 -84 21 -833 21 -914 -1z"/>
<path d="M31590 4380 c-242 -43 -405 -253 -387 -500 25 -360 430 -555 734
-353 243 161 275 515 64 723 -112 111 -258 157 -411 130z"/>
<path d="M44393 9351 c-73 -27 -137 -75 -177 -135 -72 -106 -66 162 -66 -3107
0 -2921 0 -2947 20 -3010 36 -114 117 -198 226 -233 45 -15 318 -16 3024 -14
l2975 3 67 33 c77 38 130 92 167 171 l26 56 3 2975 c2 3274 7 3024 -59 3124
-42 63 -108 111 -188 136 -63 20 -88 20 -3015 20 -2861 -1 -2953 -1 -3003 -19z
m5842 -381 c15 -14 33 -37 41 -52 12 -23 14 -439 14 -2808 0 -3085 6 -2826
-65 -2870 -32 -20 -43 -20 -2814 -20 -3034 0 -2828 -4 -2868 56 -17 27 -18
135 -21 2824 l-2 2797 23 34 c12 19 38 42 57 52 33 16 184 17 2822 15 l2786
-3 27 -25z"/>
<path d="M49491 8654 c-197 -53 -338 -215 -361 -414 -13 -110 -13 -670 0 -779
23 -202 163 -366 355 -417 75 -20 201 -18 276 6 159 49 281 177 324 341 22 80
21 830 0 912 -68 261 -337 420 -594 351z"/>
<path d="M45733 8020 c-61 -12 -120 -46 -178 -101 -127 -120 -155 -286 -74
-439 43 -81 3221 -3257 3291 -3288 182 -83 404 -8 491 165 57 114 59 221 6
333 -29 60 -145 179 -1633 1667 -1274 1274 -1611 1606 -1651 1626 -49 24 -147
48 -189 46 -12 -1 -40 -5 -63 -9z"/>
<path d="M45101 6854 c-231 -62 -380 -290 -343 -526 50 -323 403 -497 693
-342 82 44 154 121 197 211 37 77 37 79 37 204 0 124 0 125 -38 201 -42 87
-119 170 -194 210 -102 56 -240 72 -352 42z"/>
<path d="M49480 6271 c-88 -28 -140 -60 -202 -122 -292 -292 -81 -798 332
-799 291 0 498 236 468 534 -13 135 -113 283 -234 348 -107 58 -256 74 -364
39z"/>
<path d="M45090 5116 c-154 -43 -278 -162 -330 -317 -28 -82 -36 -305 -23
-691 l9 -266 38 -77 c66 -134 189 -231 335 -265 32 -8 88 -11 142 -8 75 5 100
11 164 41 93 44 181 125 224 206 58 110 61 135 61 576 0 239 -5 418 -11 445
-37 162 -175 306 -338 354 -65 19 -206 20 -271 2z"/>
</g>
</svg>
