<?xml version="1.0" standalone="no"?>
<!DOCTYPE svg PUBLIC "-//W3C//DTD SVG 20010904//EN"
 "http://www.w3.org/TR/2001/REC-SVG-20010904/DTD/svg10.dtd">
<svg version="1.0" xmlns="http://www.w3.org/2000/svg"
 width="3859.000000pt" height="1056.000000pt" viewBox="0 0 3859.000000 1056.000000"
 preserveAspectRatio="xMidYMid meet">
<metadata>
Created by potrace 1.11, written by Peter Selinger 2001-2013
</metadata>
<g transform="translate(0.000000,1056.000000) scale(0.100000,-0.100000)"
fill="#000000" stroke="none">
<path d="M13408 10112 c-54 -35 -148 -132 -148 -153 0 -5 -7 -9 -15 -9 -20 0
-193 -120 -231 -162 -17 -18 -66 -85 -109 -148 -42 -63 -91 -133 -109 -154
-49 -62 -126 -188 -126 -207 0 -18 -160 -330 -200 -391 -24 -36 -28 -38 -78
-38 -57 0 -226 37 -318 70 -85 30 -219 57 -379 76 -107 12 -151 22 -189 41
-42 21 -58 24 -105 19 -133 -15 -234 -17 -346 -7 -140 13 -325 3 -675 -35
-228 -25 -319 -44 -535 -110 -66 -20 -147 -41 -180 -46 -72 -11 -190 -39 -305
-74 -166 -50 -225 -42 -330 46 -49 41 -77 49 -97 29 -9 -9 -17 -3 -32 22 -12
19 -21 37 -21 40 0 4 -55 54 -122 113 -89 77 -131 108 -157 112 -20 4 -42 15
-49 26 -19 27 -65 48 -166 75 -50 13 -139 47 -199 75 -68 33 -111 48 -115 41
-4 -5 -17 -15 -29 -22 -35 -18 -28 -49 20 -90 72 -62 146 -142 224 -246 42
-55 104 -126 138 -157 50 -46 68 -71 94 -133 23 -56 30 -85 26 -107 -7 -31 21
-86 106 -207 39 -54 40 -77 6 -98 -7 -4 -39 -42 -72 -83 -75 -97 -149 -174
-203 -212 -36 -25 -42 -34 -40 -61 1 -18 -4 -43 -11 -55 -11 -20 -19 -23 -53
-20 l-40 4 -58 -86 c-36 -54 -60 -101 -65 -128 -7 -45 -26 -62 -68 -62 -14 0
-29 -6 -35 -13 -31 -37 -373 -745 -427 -882 -80 -205 -84 -220 -95 -302 -5
-37 -20 -101 -35 -141 -22 -64 -27 -97 -35 -270 -8 -171 -19 -264 -46 -399 -9
-48 2 -82 31 -89 24 -6 24 -6 8 -46 -13 -34 -14 -49 -4 -97 6 -31 18 -91 26
-134 7 -44 21 -87 29 -96 9 -10 16 -27 16 -38 0 -11 9 -40 20 -65 28 -64 90
-331 90 -390 0 -45 4 -54 40 -89 44 -44 115 -177 149 -280 19 -59 25 -67 51
-73 23 -4 35 -17 54 -55 65 -128 276 -417 406 -557 63 -67 232 -403 260 -518
23 -92 26 -257 9 -479 -8 -110 -7 -182 6 -350 l16 -212 -32 -61 c-37 -74 -35
-101 10 -131 43 -29 47 -29 76 3 30 32 31 58 6 90 -15 19 -19 44 -22 116 -4
155 1 248 18 328 10 47 15 113 14 177 -2 91 22 468 35 551 4 24 10 32 25 32
34 0 160 -83 203 -133 23 -27 60 -60 84 -74 23 -14 55 -40 70 -58 15 -18 68
-60 117 -93 86 -56 144 -111 228 -215 21 -26 49 -50 62 -53 17 -4 46 -39 96
-117 104 -160 112 -182 107 -286 -3 -79 -6 -90 -36 -132 -24 -34 -35 -60 -39
-100 -5 -49 -3 -58 21 -86 52 -62 142 -49 173 24 18 45 12 85 -28 159 -29 57
-30 58 -23 173 6 111 8 117 37 148 30 32 30 32 66 17 20 -8 59 -37 86 -63 28
-27 66 -57 85 -66 19 -10 52 -33 73 -51 20 -19 44 -34 53 -34 29 0 179 -165
205 -225 19 -44 29 -55 48 -55 18 0 22 -4 16 -17 -13 -33 -24 -217 -35 -563
-5 -190 -13 -357 -16 -373 -7 -34 6 -34 44 -2 17 14 41 25 54 25 34 0 56 19
86 75 21 39 33 51 54 53 22 3 30 -2 38 -22 15 -40 32 -521 21 -599 -5 -36 -12
-71 -16 -77 -9 -15 27 -70 47 -70 25 0 33 43 18 104 -9 39 -10 140 -2 441 10
387 10 391 39 496 18 64 45 131 67 167 20 33 47 84 61 113 14 32 49 78 85 114
75 74 150 165 195 240 31 52 34 55 45 36 15 -28 27 -26 37 6 l10 28 17 -28
c10 -15 24 -27 31 -27 25 0 225 102 235 119 7 14 23 17 87 16 61 -1 83 2 103
16 34 25 131 49 152 38 11 -6 19 -27 23 -66 3 -32 13 -108 21 -170 12 -85 15
-176 12 -375 -4 -239 -6 -269 -27 -331 -12 -38 -21 -78 -19 -89 4 -26 82 -69
118 -65 55 5 69 104 28 198 -22 52 -23 63 -22 319 0 183 4 284 14 325 7 33 16
96 19 140 7 78 31 155 49 155 5 0 23 -7 40 -16 32 -15 33 -15 148 50 81 46
127 66 151 66 22 0 42 8 56 23 56 58 137 92 137 57 0 -18 36 -10 58 13 l22 24
-25 13 c-33 18 -32 34 3 25 96 -23 134 -39 148 -60 32 -48 45 -259 51 -777 5
-485 5 -499 -15 -532 -30 -50 -34 -85 -17 -146 8 -30 15 -73 15 -96 0 -44 23
-85 38 -69 5 6 17 35 27 65 10 30 31 79 46 109 16 30 29 59 29 65 0 6 -12 33
-26 60 l-26 48 0 482 c0 310 4 518 12 586 6 58 13 152 14 210 3 124 15 155 81
200 35 24 46 38 51 68 9 52 29 82 75 115 51 35 71 34 104 -5 29 -34 29 -31 9
-190 -4 -32 -1 -64 10 -95 20 -58 20 -123 1 -170 -24 -57 -20 -90 15 -108 38
-20 63 -19 82 3 37 41 33 97 -8 112 -30 12 -30 14 2 147 25 100 26 114 16 188
-12 84 -7 127 34 290 22 89 39 123 68 137 16 7 36 38 62 96 27 60 57 107 102
156 34 39 79 98 99 131 57 95 143 213 200 275 29 31 56 70 59 86 4 22 25 43
90 88 99 69 109 89 67 127 l-30 26 28 17 c39 23 77 75 86 116 l6 33 24 -27
c13 -16 25 -27 27 -25 7 8 46 191 46 214 0 13 8 31 18 41 9 10 18 29 19 43 1
14 12 34 24 43 30 26 116 269 138 393 7 40 29 104 51 150 37 74 40 88 45 190
3 61 8 124 11 141 3 18 -1 47 -11 70 -9 21 -13 49 -10 62 3 13 -1 32 -10 45
-12 18 -15 59 -15 233 l0 211 -44 106 c-25 58 -48 127 -51 154 -4 26 -26 100
-50 163 -23 63 -45 128 -49 145 -4 16 -39 93 -78 170 -39 77 -93 192 -120 255
-58 135 -225 433 -283 505 -140 172 -207 258 -249 318 -27 37 -61 74 -78 83
-17 9 -37 32 -48 57 -18 43 -80 107 -160 167 -116 88 -465 405 -491 447 -11
17 -23 61 -28 98 -7 65 -7 67 17 76 23 9 24 11 8 28 -22 25 -20 34 14 59 23
18 30 30 29 55 -2 33 70 311 96 373 8 19 39 76 69 127 29 51 59 112 66 137 7
25 25 70 41 101 18 35 29 72 29 97 0 36 10 53 80 141 71 89 80 106 80 142 0
39 1 40 29 34 26 -6 29 -4 35 32 3 21 6 50 6 66 0 38 -31 35 -102 -11z m-2020
-1537 c107 -43 142 -50 186 -35 28 9 45 9 74 0 79 -26 389 -153 429 -176 70
-41 79 -115 28 -234 -14 -34 -20 -59 -14 -64 16 -18 10 -42 -15 -56 -33 -17
-38 -35 -24 -81 9 -33 9 -45 -5 -75 -9 -19 -17 -40 -17 -46 0 -7 -20 -55 -44
-107 -28 -60 -51 -130 -62 -186 -10 -49 -26 -101 -36 -115 -11 -16 -21 -52
-25 -95 -3 -38 -14 -83 -24 -100 -10 -16 -29 -77 -44 -135 -14 -57 -36 -121
-49 -140 -13 -20 -31 -68 -40 -108 -24 -108 -64 -198 -110 -252 -30 -35 -49
-73 -70 -135 -15 -48 -26 -88 -24 -89 1 -2 12 -8 22 -13 18 -10 15 -15 -32
-61 -29 -27 -53 -58 -54 -68 -1 -11 -2 -36 -4 -57 -1 -29 -10 -46 -32 -65 -26
-23 -31 -37 -37 -92 -4 -36 -7 -77 -7 -92 -1 -20 -6 -28 -18 -28 -25 0 -43
-26 -38 -55 3 -14 -1 -33 -8 -42 -7 -10 -14 -31 -14 -46 0 -15 -12 -51 -26
-79 -24 -48 -26 -66 -8 -112 4 -10 -7 -27 -31 -49 -36 -33 -38 -37 -32 -83 13
-100 13 -99 -10 -102 -37 -5 -47 -28 -24 -51 25 -25 26 -34 6 -51 -8 -7 -17
-28 -21 -49 -4 -20 -15 -46 -24 -59 -10 -12 -21 -50 -25 -85 -8 -67 -16 -87
-51 -129 -13 -17 -20 -35 -17 -47 3 -12 -4 -31 -16 -47 -18 -22 -21 -40 -21
-113 0 -94 1 -93 -79 -191 -59 -72 -78 -119 -102 -246 -11 -58 -24 -115 -28
-127 -6 -15 -3 -33 10 -57 20 -37 17 -63 -11 -95 -20 -22 -50 -126 -50 -172 0
-42 -27 -127 -49 -155 l-19 -23 -13 30 c-7 17 -13 71 -15 120 -1 50 -7 106
-13 125 -6 19 -11 46 -11 60 0 14 -23 74 -50 134 -49 107 -83 237 -120 464 -6
40 -23 94 -36 120 -13 26 -24 64 -24 84 0 20 -11 72 -25 115 -13 43 -33 120
-44 171 -11 51 -36 142 -56 202 -19 61 -40 142 -45 182 -12 84 -16 100 -76
308 -24 85 -69 279 -99 430 -52 262 -66 317 -134 525 -16 50 -50 168 -75 263
-25 95 -57 201 -72 235 -14 34 -34 89 -43 122 -10 33 -30 87 -46 120 -17 39
-29 84 -32 128 -5 56 -10 71 -30 87 -19 14 -34 52 -65 162 -39 134 -42 151
-42 273 l-1 130 38 19 c28 13 36 21 28 29 -33 33 6 67 53 46 23 -11 29 -9 49
9 38 36 145 71 200 65 35 -4 60 0 97 16 70 30 138 42 167 28 31 -14 38 -43 37
-162 0 -81 -4 -109 -22 -148 -26 -57 -28 -87 -8 -125 20 -38 82 -96 95 -88 6
4 23 28 38 53 34 59 35 121 3 181 -32 61 -40 212 -16 277 30 77 139 152 208
141 25 -4 48 -1 67 9 35 18 288 55 381 56 36 0 83 4 105 9 22 5 98 7 169 4
117 -4 136 -8 214 -39z m1373 -730 c43 -40 52 -44 70 -35 30 17 42 8 64 -49
13 -34 25 -51 36 -51 30 0 49 -12 49 -29 0 -22 19 -41 40 -41 27 0 96 -55 128
-102 64 -93 85 -217 104 -599 l11 -246 -31 -68 c-40 -84 -43 -146 -9 -196 12
-19 32 -35 44 -37 49 -7 113 71 113 138 0 17 -12 57 -27 88 -34 71 -39 150
-24 378 16 229 30 247 97 126 21 -37 57 -96 80 -132 24 -36 80 -153 125 -260
45 -107 105 -253 135 -324 40 -96 54 -141 54 -178 0 -34 9 -66 30 -108 34 -67
37 -96 14 -121 -12 -13 -13 -22 -5 -38 16 -28 14 -31 -15 -31 -26 0 -26 -1
-22 -50 3 -31 15 -64 32 -88 31 -46 33 -71 6 -105 -21 -26 -24 -58 -14 -144 6
-43 10 -52 28 -55 27 -4 26 -32 -5 -115 l-24 -62 24 -25 c24 -25 24 -25 5 -53
-14 -21 -19 -48 -20 -103 -2 -102 -20 -241 -39 -307 -36 -124 -119 -300 -235
-498 -164 -282 -291 -450 -470 -622 -47 -45 -94 -92 -105 -104 -11 -12 -55
-56 -98 -98 -43 -42 -113 -110 -155 -151 -94 -92 -271 -222 -349 -256 -32 -14
-83 -41 -113 -59 -30 -18 -98 -46 -150 -63 -248 -77 -330 -101 -385 -111 -33
-6 -85 -18 -115 -26 -69 -20 -138 -15 -178 13 -35 26 -85 28 -126 7 -43 -22
-66 -18 -102 18 -18 17 -49 45 -69 61 -35 28 -37 32 -30 70 4 23 10 66 14 96
3 30 19 79 34 108 l28 54 -30 -7 -30 -6 11 32 c8 24 8 37 -1 50 -15 25 -14 44
4 59 10 9 15 31 15 73 0 41 6 69 19 91 11 17 22 58 27 91 4 33 15 84 25 114
12 33 19 82 19 126 0 60 7 91 46 196 50 136 74 225 74 278 0 18 12 60 27 93
24 54 25 63 14 92 -26 62 -25 73 6 84 28 9 31 16 53 118 16 74 29 114 42 124
11 9 25 44 34 80 8 36 26 84 41 108 22 39 24 47 12 68 -10 20 -10 32 -1 58 7
18 12 64 12 102 0 61 4 76 29 115 20 29 43 95 69 194 76 285 85 310 127 395
49 99 75 173 111 325 14 60 39 135 54 165 15 30 30 69 34 85 4 17 24 64 45
105 21 41 41 88 45 104 4 16 18 37 31 47 12 11 39 58 60 106 30 74 35 95 30
132 -6 42 -5 44 45 93 48 46 54 57 76 139 25 95 36 120 88 203 40 65 56 101
56 130 0 13 11 35 24 49 14 15 27 36 31 47 3 11 11 20 16 20 5 0 9 20 9 44 0
33 7 52 26 75 37 44 67 41 125 -14z m-3809 -129 c45 -22 74 -75 163 -301 37
-93 82 -199 100 -235 18 -36 40 -90 50 -120 10 -30 25 -65 33 -78 9 -14 13
-35 9 -56 -5 -28 -2 -35 19 -44 21 -10 23 -16 18 -54 -6 -40 -3 -47 36 -93 40
-48 41 -52 36 -103 -4 -47 -3 -52 10 -41 13 10 17 10 25 -2 12 -20 11 -73 -2
-86 -18 -18 8 -99 41 -132 26 -25 27 -30 22 -103 l-5 -76 50 -49 c68 -66 84
-111 197 -553 114 -447 155 -629 206 -915 22 -121 53 -278 69 -350 16 -71 44
-220 61 -330 17 -110 40 -240 51 -290 26 -115 39 -223 47 -405 5 -91 12 -154
21 -169 7 -13 11 -35 8 -50 -3 -15 -2 -33 3 -41 5 -8 1 -27 -11 -49 -10 -20
-19 -48 -19 -63 0 -36 -17 -36 -101 -2 -147 59 -273 134 -359 210 -47 42 -111
89 -143 105 -36 18 -89 61 -140 112 -45 45 -118 116 -161 157 -44 41 -112 113
-153 160 -41 47 -95 97 -121 112 -59 35 -212 194 -310 323 -41 55 -105 132
-141 170 -82 88 -250 360 -355 575 -76 155 -172 408 -201 530 -8 36 -22 88
-30 117 -18 60 -34 221 -35 342 0 76 3 90 30 138 17 29 30 54 30 57 0 2 -13 9
-30 16 -30 12 -30 13 -25 79 2 36 7 104 10 151 8 121 39 230 97 345 27 55 66
140 85 190 43 112 118 252 183 341 28 38 62 93 76 121 22 44 32 54 63 63 61
16 144 125 206 272 20 47 46 94 56 104 11 10 50 28 87 40 l67 21 21 -22 c11
-12 37 -30 56 -39z"/>
<path d="M26350 8610 c-855 -121 -1635 -545 -2199 -1195 -476 -549 -757 -1183
-847 -1915 -25 -200 -26 -628 -1 -825 68 -546 240 -1031 526 -1484 179 -284
409 -555 644 -758 56 -48 104 -90 107 -93 49 -52 349 -257 507 -346 103 -59
335 -174 349 -174 3 0 29 -11 58 -24 143 -66 456 -158 676 -200 268 -51 376
-60 675 -60 234 0 306 3 441 22 697 96 1281 344 1814 771 129 104 407 382 516
516 419 520 671 1100 764 1760 29 211 29 753 0 965 -65 461 -201 866 -428
1265 -157 276 -332 509 -548 731 -91 93 -123 123 -254 238 -86 75 -306 233
-435 313 -424 262 -909 433 -1410 498 -176 22 -783 20 -955 -5z m318 -417 l-3
-88 -130 -12 c-117 -10 -343 -49 -420 -71 -38 -11 -38 -19 9 -200 21 -79 35
-146 32 -150 -3 -3 -71 -27 -150 -53 -79 -26 -159 -54 -178 -62 -354 -161
-584 -309 -816 -529 l-64 -59 -56 52 c-31 29 -69 65 -83 79 -14 14 -47 45 -73
69 l-46 45 -29 -30 c-67 -69 -199 -227 -268 -321 -41 -57 -79 -103 -85 -103
-15 0 -138 74 -138 83 0 5 24 43 54 85 514 725 1316 1212 2186 1327 63 8 126
16 140 19 14 2 47 4 73 5 l48 1 -3 -87z m647 57 c327 -48 631 -140 912 -276
525 -253 936 -607 1281 -1101 l23 -32 -70 -40 c-38 -23 -74 -41 -79 -41 -6 0
-29 28 -53 63 -88 129 -312 391 -330 385 -5 -2 -62 -56 -128 -120 -65 -65
-121 -118 -123 -118 -3 0 -34 27 -69 61 -133 126 -296 248 -464 347 -216 128
-375 196 -655 281 -32 10 -31 22 19 206 32 119 35 141 23 149 -29 17 -309 67
-439 78 l-133 12 0 89 0 90 78 -7 c42 -4 136 -16 207 -26z m-175 -1051 c47 -6
89 -15 93 -19 5 -4 -1 -52 -12 -106 -18 -87 -38 -192 -122 -634 -11 -58 -29
-149 -40 -202 -10 -53 -19 -99 -19 -102 0 -2 19 -7 42 -11 172 -29 388 -151
530 -298 l48 -49 67 58 c38 32 88 77 113 99 25 22 70 61 100 86 101 86 224
192 285 244 197 172 236 205 243 205 12 -1 125 -149 179 -235 28 -44 73 -123
101 -176 49 -96 116 -258 109 -265 -3 -3 -330 -119 -422 -149 -22 -7 -152 -52
-290 -100 -137 -48 -258 -89 -267 -92 -23 -7 -23 -8 4 -106 19 -70 22 -108 23
-262 0 -159 -3 -189 -24 -263 -13 -47 -20 -87 -15 -92 5 -4 45 -20 89 -35 82
-28 117 -40 550 -190 138 -48 273 -94 300 -104 62 -21 62 -27 -5 -175 -82
-181 -208 -386 -298 -485 l-37 -41 -66 57 c-36 32 -92 81 -124 108 -33 28 -80
68 -105 91 -25 22 -92 80 -150 130 -58 49 -119 101 -135 116 -92 79 -192 165
-208 177 -15 12 -25 6 -95 -60 -86 -82 -154 -131 -260 -184 -78 -39 -205 -85
-237 -85 -44 -1 -46 -10 -25 -116 26 -132 92 -475 125 -649 14 -77 33 -170 41
-207 8 -37 14 -71 14 -77 0 -22 -149 -36 -395 -36 -295 0 -398 13 -390 48 7
31 49 248 80 412 14 77 34 183 45 235 28 145 58 301 65 342 5 35 4 38 -22 44
-190 42 -370 138 -519 277 -74 69 -74 69 -97 50 -13 -10 -103 -88 -202 -173
-157 -136 -315 -273 -480 -415 -28 -24 -62 -53 -77 -64 l-26 -21 -50 62 c-67
84 -160 226 -210 320 -59 110 -134 290 -125 298 4 4 51 22 103 39 52 18 138
47 190 66 52 18 226 78 385 134 160 55 297 102 306 106 13 5 12 17 -10 98 -21
80 -24 114 -25 262 0 152 3 180 26 265 14 52 25 95 24 96 0 0 -64 22 -141 49
-77 26 -189 65 -250 86 -60 20 -222 76 -359 124 -138 47 -251 87 -253 89 -14
13 137 326 213 442 44 68 161 221 175 229 5 4 73 -49 152 -117 278 -240 334
-288 495 -428 l164 -142 76 75 c140 136 340 244 505 273 38 6 39 7 32 43 -7
45 -70 373 -135 711 -65 337 -64 303 -10 312 167 28 459 31 640 7z m-3032
-741 c12 -6 22 -15 22 -19 0 -4 -18 -46 -40 -93 -65 -140 -179 -452 -168 -461
5 -4 261 -74 296 -81 18 -4 35 -10 38 -15 2 -4 -3 -39 -11 -76 -95 -401 -97
-842 -5 -1225 11 -46 20 -88 20 -94 0 -5 -46 -23 -102 -38 -217 -58 -240 -66
-234 -82 3 -8 15 -47 27 -87 28 -92 101 -281 146 -376 19 -40 31 -77 26 -81
-22 -22 -137 -80 -144 -73 -16 16 -106 227 -153 355 -84 234 -147 519 -176
802 -18 170 -8 532 19 711 49 323 136 620 256 880 20 44 41 90 46 103 l9 23
52 -31 c29 -17 63 -36 76 -42z m5670 -75 c186 -424 271 -828 272 -1286 0 -348
-41 -631 -137 -947 -46 -149 -72 -218 -136 -360 -18 -41 -40 -90 -48 -107 -7
-18 -17 -33 -21 -33 -7 0 -148 80 -148 84 0 1 9 20 19 42 60 124 108 244 151
374 47 145 47 136 -8 154 -26 8 -101 29 -167 47 -66 17 -121 32 -123 34 -2 1
6 38 17 81 96 387 94 908 -5 1263 -8 29 -14 55 -11 57 4 4 131 41 255 74 45
12 82 26 82 31 0 36 -104 316 -180 484 -17 38 -28 71 -23 72 4 2 33 18 63 37
30 19 62 35 71 35 12 1 34 -38 77 -136z m-5447 -2985 c37 -70 218 -291 348
-425 12 -13 31 2 140 110 l126 126 70 -66 c271 -254 606 -457 955 -576 58 -20
124 -41 148 -47 23 -6 42 -16 42 -21 0 -6 -18 -80 -40 -165 -22 -85 -40 -158
-40 -163 0 -18 228 -64 423 -86 77 -8 145 -15 153 -15 11 0 14 -19 14 -85 l0
-85 -61 0 c-75 0 -304 33 -455 65 -469 101 -931 323 -1319 631 -134 107 -383
354 -486 484 -76 96 -166 221 -175 245 -5 11 16 26 111 81 29 17 33 16 46 -8z
m5181 -52 c19 -12 18 -14 -86 -156 -416 -570 -1067 -1014 -1741 -1189 -209
-54 -487 -101 -599 -101 l-56 0 0 85 c0 61 3 85 13 85 90 1 431 54 530 83 47
13 47 9 -7 211 -39 145 -38 155 6 156 76 1 522 196 692 304 119 74 297 211
392 299 l91 85 126 -125 127 -125 28 29 c70 72 185 208 266 316 l88 118 56
-33 c31 -17 64 -36 74 -42z"/>
<path d="M26769 5975 c-85 -63 -100 -150 -50 -293 l29 -83 -42 34 c-22 18 -62
50 -88 71 l-48 38 -47 -52 c-27 -29 -49 -56 -51 -59 -1 -4 13 -15 32 -25 86
-46 159 -150 187 -266 19 -80 17 -235 -4 -284 -42 -95 -126 -156 -217 -156
-139 0 -303 168 -341 348 -16 78 -6 212 21 292 12 36 40 104 62 153 23 48 39
90 35 93 -9 9 -147 -127 -193 -192 -217 -304 -223 -738 -15 -1057 179 -274
508 -434 851 -414 188 11 365 80 517 202 293 234 412 599 318 971 -45 177
-138 332 -262 436 -37 31 -69 56 -70 54 -2 -2 19 -50 46 -107 61 -127 81 -206
81 -325 0 -150 -45 -261 -147 -360 -56 -55 -110 -83 -171 -91 -101 -12 -189
41 -233 140 -33 73 -34 254 -2 339 32 86 108 184 187 241 19 14 18 17 -31 67
l-50 53 -75 -61 -75 -61 19 67 c37 134 17 224 -64 282 -50 37 -64 37 -109 5z"/>
<path d="M32113 8279 c-71 -27 -155 -106 -190 -177 l-28 -57 0 -2870 0 -2870
29 -62 c37 -81 112 -153 189 -182 l58 -21 2862 2 2862 3 59 29 c75 37 131 93
165 165 l26 56 0 2875 0 2875 -26 56 c-34 72 -96 134 -168 168 l-56 26 -2865
2 c-2852 2 -2865 2 -2917 -18z m5551 -352 c15 -10 36 -37 47 -60 18 -41 19
-113 19 -2694 0 -2418 -1 -2656 -16 -2693 -9 -22 -29 -49 -44 -60 -28 -20 -50
-20 -2717 -20 -2129 0 -2693 3 -2713 13 -14 7 -33 28 -42 47 -17 33 -18 184
-18 2717 l0 2682 31 36 c17 19 45 39 63 44 17 4 1227 8 2696 7 2564 -1 2667
-2 2694 -19z"/>
<path d="M34348 7641 c-81 -26 -135 -61 -196 -125 -236 -249 -128 -665 199
-767 55 -17 96 -19 457 -19 231 0 415 5 441 11 205 47 351 234 353 450 1 210
-127 389 -323 450 -56 17 -95 19 -467 18 -365 0 -413 -2 -464 -18z"/>
<path d="M32947 7590 c-145 -25 -258 -139 -287 -289 -7 -35 -10 -788 -10
-2195 0 -2330 -3 -2210 54 -2296 37 -56 97 -109 156 -138 48 -24 67 -27 150
-27 82 0 103 4 150 26 82 39 135 90 172 167 l33 67 0 2215 0 2215 -29 58 c-33
64 -102 134 -163 166 -33 16 -153 44 -173 40 -3 -1 -27 -5 -53 -9z"/>
<path d="M36165 6586 c-130 -31 -242 -121 -301 -241 -68 -137 -58 -315 25
-443 194 -299 641 -268 794 55 30 65 32 74 32 189 0 118 -1 121 -37 195 -97
197 -305 296 -513 245z"/>
<path d="M35190 5250 c-25 -5 -78 -26 -118 -46 -228 -112 -326 -384 -219 -608
36 -75 31 -70 429 -494 196 -210 261 -246 438 -246 126 0 188 20 283 92 183
140 238 383 133 590 -37 72 -515 583 -604 644 -86 60 -237 90 -342 68z"/>
<path d="M36745 3680 c-148 -31 -264 -122 -328 -258 -30 -64 -32 -73 -32 -188
0 -119 0 -121 38 -196 111 -226 372 -317 603 -209 158 74 254 228 254 406 0
178 -96 332 -253 405 -97 46 -189 59 -282 40z"/>
<path d="M16079 8274 c-66 -20 -137 -72 -176 -128 -68 -99 -63 146 -63 -2987
l0 -2838 22 -58 c27 -73 102 -154 177 -190 l56 -28 2875 0 2875 0 62 29 c81
37 153 112 182 189 l21 58 -2 2857 -3 2857 -28 57 c-36 74 -96 134 -165 166
l-57 27 -2865 2 c-2461 1 -2872 0 -2911 -13z m5608 -357 c69 -37 63 205 61
-2766 l-3 -2691 -26 -25 c-20 -20 -42 -28 -95 -36 -43 -6 -1070 -8 -2699 -7
-2557 3 -2631 4 -2661 22 -17 10 -39 32 -48 47 -16 27 -17 213 -16 2710 0
2499 2 2682 17 2706 10 14 35 34 58 44 39 18 136 19 2710 16 2531 -2 2672 -3
2702 -20z"/>
<path d="M17468 7469 c-107 -25 -153 -61 -436 -343 -150 -149 -286 -291 -302
-316 -140 -218 -73 -507 151 -651 142 -91 347 -91 490 -1 58 37 525 496 584
574 200 266 65 647 -260 734 -56 15 -170 17 -227 3z"/>
<path d="M20384 6982 c-28 -10 -73 -34 -100 -54 -27 -20 -736 -724 -1575
-1565 -1484 -1485 -1527 -1530 -1549 -1588 -23 -65 -29 -174 -11 -233 28 -92
113 -186 209 -230 76 -35 181 -36 267 -2 55 21 91 54 470 426 225 221 928 921
1561 1556 1294 1297 1198 1188 1198 1348 0 72 -4 94 -28 146 -35 77 -103 145
-181 181 -78 36 -185 42 -261 15z"/>
<path d="M18050 6382 c-211 -70 -348 -293 -310 -505 27 -146 122 -270 259
-336 74 -35 79 -36 191 -36 109 0 119 2 183 32 95 45 178 127 225 222 36 73
37 77 37 190 0 110 -2 120 -32 184 -45 95 -127 178 -221 225 -70 34 -83 37
-176 39 -77 2 -114 -1 -156 -15z"/>
<path d="M19690 4776 c-149 -42 -274 -163 -320 -313 -50 -163 -3 -331 126
-453 181 -169 433 -171 612 -5 195 181 202 464 17 650 -115 114 -287 162 -435
121z"/>
<path d="M20770 4189 c-25 -5 -74 -23 -110 -40 -57 -28 -102 -69 -351 -318
-252 -252 -290 -294 -317 -351 -113 -240 -15 -516 223 -630 127 -61 268 -59
405 6 70 33 94 54 356 317 238 238 286 292 312 345 173 353 -131 747 -518 671z"/>
<path d="M498 8256 c-32 -13 -73 -36 -92 -52 -50 -43 -103 -128 -116 -187 -8
-38 -10 -830 -8 -2892 l3 -2840 29 -62 c37 -81 112 -153 189 -182 l58 -21
2862 2 2862 3 57 28 c74 36 134 96 166 165 l27 57 0 2875 0 2875 -26 56 c-34
72 -96 134 -168 168 l-56 26 -2865 2 -2865 3 -57 -24z m5628 -353 c63 -45 59
162 59 -2758 0 -2534 -1 -2672 -18 -2702 -37 -69 205 -63 -2771 -61 l-2696 3
-27 28 -28 27 -5 2678 c-3 1472 -2 2691 2 2707 5 17 16 40 26 53 41 54 -113
51 2762 49 l2665 -2 31 -22z"/>
<path d="M5332 7668 c-110 -17 -208 -93 -259 -203 l-28 -60 0 -2215 0 -2215
23 -47 c36 -71 93 -131 164 -169 60 -32 68 -34 163 -34 120 1 168 19 246 92
58 54 91 114 108 191 8 38 11 649 11 2202 0 2085 -1 2150 -19 2209 -55 176
-223 278 -409 249z"/>
<path d="M1314 7476 c-210 -48 -354 -227 -354 -441 0 -337 350 -554 655 -405
308 150 335 584 48 782 -92 63 -236 89 -349 64z"/>
<path d="M3085 5910 c-233 -41 -395 -229 -395 -460 0 -135 48 -247 148 -342
66 -63 116 -91 199 -113 85 -22 802 -22 888 0 163 43 295 182 335 354 17 71 8
190 -19 262 -49 129 -161 238 -289 281 -64 21 -84 22 -442 24 -206 1 -397 -2
-425 -6z"/>
<path d="M1285 5886 c-225 -56 -375 -283 -337 -509 39 -226 220 -380 447 -380
175 0 330 95 405 246 171 348 -140 736 -515 643z"/>
<path d="M1301 4289 c-133 -26 -266 -130 -329 -258 l-37 -75 -3 -425 c-3 -409
-2 -429 18 -491 41 -128 147 -240 277 -291 49 -20 76 -24 173 -24 112 0 117 1
190 36 128 62 206 149 250 278 20 61 21 77 18 489 l-3 427 -32 68 c-93 196
-312 307 -522 266z"/>
</g>
</svg>
