M48
;DRILL file {Pcbnew (2013-dec-23)-stable} date Sat 29 Mar 2014 16:06:08 CDT
;FORMAT={-:-/ absolute / inch / decimal}
FMAT,2
INCH,TZ
T1C0.020
T2C0.022
T3C0.028
T4C0.031
T5C0.038
T6C0.039
%
G90
G05
M72
T1
X1.11Y1.665
X1.17Y0.945
X1.235Y1.665
X1.235Y1.565
X1.235Y1.24
X1.235Y0.64
X1.36Y1.915
X1.385Y0.255
X1.51Y1.915
X1.51Y1.8
X1.51Y1.75
X1.535Y1.665
X1.56Y1.49
X1.64Y0.975
X1.685Y1.875
X1.685Y1.015
X1.7Y1.675
X1.71Y1.54
X1.71Y0.265
X1.71Y0.215
X1.76Y1.39
X1.76Y1.315
X1.785Y1.915
X1.8Y0.925
X1.85Y1.985
X1.86Y1.64
X1.885Y2.02
X1.935Y0.74
X1.96Y1.39
X1.985Y0.74
X2.005Y1.065
X2.01Y1.39
X2.035Y0.74
X2.05Y1.985
X2.06Y1.39
X2.07Y1.765
X2.084Y1.065
X2.085Y0.84
X2.085Y0.79
X2.085Y0.74
X2.09Y2.02
X2.095Y1.535
X2.125Y1.985
X2.125Y1.925
X2.125Y1.45
X2.185Y0.92
X2.185Y0.875
X2.205Y1.46
X2.205Y1.1
X2.205Y1.045
X2.26Y1.46
X2.26Y1.415
X2.26Y1.365
X2.29Y0.875
X2.325Y1.46
X2.34Y0.92
X2.375Y1.195
X2.375Y1.15
X2.435Y0.325
X2.485Y0.75
X2.485Y0.325
X2.56Y0.325
X2.677Y1.655
X2.685Y0.7
X2.685Y0.65
X2.685Y0.55
X2.685Y0.5
X2.685Y0.45
X2.69Y1.895
X2.705Y1.75
X2.735Y0.325
X2.75Y1.75
T4
X0.485Y1.9044
X0.485Y1.8256
X0.575Y2.09
X0.675Y2.09
X0.775Y2.09
X0.795Y1.75
X0.795Y1.45
X0.875Y2.09
X0.935Y0.19
X0.975Y2.09
X0.985Y1.89
X0.985Y0.39
X1.035Y0.19
X1.075Y2.09
X1.085Y1.89
X1.085Y0.39
X1.135Y0.19
X1.175Y2.09
X1.185Y0.39
X1.235Y0.19
X1.275Y2.09
X1.285Y0.39
X1.335Y0.19
X1.375Y2.09
X1.385Y0.39
X1.435Y0.19
X1.475Y2.09
X1.485Y0.39
X1.535Y0.19
X1.585Y0.39
X1.635Y2.09
X1.635Y0.19
X1.685Y0.39
X1.735Y2.09
X1.785Y0.39
X1.835Y2.09
X1.835Y0.19
X1.885Y0.39
X1.935Y2.09
X1.935Y0.19
X1.985Y0.39
X2.035Y2.09
X2.035Y0.19
X2.085Y0.39
X2.135Y2.09
X2.135Y0.19
X2.185Y1.89
X2.185Y0.39
X2.235Y2.09
X2.235Y0.19
X2.285Y1.89
X2.285Y0.39
X2.335Y2.09
X2.335Y0.19
X2.535Y0.9794
X2.535Y0.9006
T5
X-0.06Y0.41
X-0.06Y-0.41
X0.Y0.
X0.06Y0.41
X0.06Y-0.41
X3.26Y0.41
X3.26Y-0.41
X3.32Y0.
X3.38Y0.41
X3.38Y-0.41
T6
X-0.2016Y1.268
X-0.2016Y1.012
X-0.0284Y1.268
X-0.0264Y1.012
X0.3984Y1.268
X0.3984Y1.012
X0.497Y0.4116
X0.497Y0.2364
X0.5716Y1.268
X0.5736Y1.012
X0.753Y0.4116
X0.753Y0.2384
X1.66Y0.815
X1.66Y0.715
X1.76Y0.815
X1.76Y0.715
X1.86Y0.815
X1.86Y0.715
X2.7484Y1.268
X2.7484Y1.012
X2.9216Y1.268
X2.9236Y1.012
X3.0484Y1.568
X3.0484Y1.312
X3.0484Y0.968
X3.0484Y0.712
X3.2216Y1.568
X3.2216Y0.968
X3.2236Y1.312
X3.2236Y0.712
X3.3484Y1.268
X3.3484Y1.012
X3.5216Y1.268
X3.5236Y1.012
T2
X2.5683Y2.0486G85X2.5683Y2.0093
G05
X2.8517Y2.0486G85X2.8517Y2.0093
G05
T3
X2.5801Y2.1469G85X2.5801Y2.1
G05
X2.8399Y2.1469G85X2.8399Y2.1
G05
T6
X0.1376Y1.84G85X0.0903Y1.84
G05
X0.1376Y1.6039G85X0.0903Y1.6039
G05
X0.299Y1.7455G85X0.299Y1.6983
G05
T0
M30
