G04 (created by PCBNEW (2013-dec-23)-stable) date Wed 26 Feb 2014 13:08:31 CST*
%MOIN*%
G04 Gerber Fmt 3.4, Leading zero omitted, Abs format*
%FSLAX34Y34*%
G01*
G70*
G90*
G04 APERTURE LIST*
%ADD10C,0.005*%
%ADD11C,0.006*%
%ADD12C,0.00787402*%
%ADD13C,0.011811*%
G04 APERTURE END LIST*
G54D10*
G54D11*
X66250Y-38500D02*
X66750Y-39000D01*
X48000Y-38500D02*
X47500Y-39000D01*
X48000Y-38500D02*
X66250Y-38500D01*
X79250Y-46250D02*
X78000Y-47500D01*
X66750Y-46250D02*
X66750Y-39000D01*
X68000Y-47500D02*
X66750Y-46250D01*
X78000Y-47500D02*
X68000Y-47500D01*
X79250Y-16750D02*
X79250Y-46250D01*
X36250Y-47500D02*
X35000Y-46250D01*
X47500Y-46250D02*
X47500Y-39000D01*
X46250Y-47500D02*
X47500Y-46250D01*
X36250Y-47500D02*
X46250Y-47500D01*
X35000Y-16750D02*
X35000Y-46250D01*
X79250Y-16750D02*
X79000Y-16500D01*
X35000Y-16750D02*
X35250Y-16500D01*
X79000Y-16500D02*
X35250Y-16500D01*
G54D12*
X36015Y-24015D02*
X37984Y-25984D01*
X37984Y-24015D02*
X36015Y-25984D01*
X40265Y-44015D02*
X42234Y-45984D01*
X42234Y-44015D02*
X40265Y-45984D01*
X72015Y-44015D02*
X73984Y-45984D01*
X73984Y-44015D02*
X72015Y-45984D01*
X75015Y-32015D02*
X76984Y-33984D01*
X76984Y-32015D02*
X75015Y-33984D01*
G54D13*
X36038Y-49307D02*
X36038Y-48126D01*
X36319Y-48126D01*
X36488Y-48182D01*
X36601Y-48294D01*
X36657Y-48407D01*
X36713Y-48632D01*
X36713Y-48801D01*
X36657Y-49026D01*
X36601Y-49138D01*
X36488Y-49251D01*
X36319Y-49307D01*
X36038Y-49307D01*
X37219Y-49307D02*
X37219Y-48519D01*
X37219Y-48744D02*
X37275Y-48632D01*
X37332Y-48576D01*
X37444Y-48519D01*
X37557Y-48519D01*
X37950Y-49307D02*
X37950Y-48519D01*
X37950Y-48126D02*
X37894Y-48182D01*
X37950Y-48238D01*
X38007Y-48182D01*
X37950Y-48126D01*
X37950Y-48238D01*
X38682Y-49307D02*
X38569Y-49251D01*
X38513Y-49138D01*
X38513Y-48126D01*
X39300Y-49307D02*
X39188Y-49251D01*
X39131Y-49138D01*
X39131Y-48126D01*
X40650Y-49307D02*
X40650Y-48126D01*
X41044Y-48969D01*
X41437Y-48126D01*
X41437Y-49307D01*
X42506Y-49307D02*
X42506Y-48688D01*
X42450Y-48576D01*
X42337Y-48519D01*
X42112Y-48519D01*
X42000Y-48576D01*
X42506Y-49251D02*
X42394Y-49307D01*
X42112Y-49307D01*
X42000Y-49251D01*
X41944Y-49138D01*
X41944Y-49026D01*
X42000Y-48913D01*
X42112Y-48857D01*
X42394Y-48857D01*
X42506Y-48801D01*
X43068Y-48519D02*
X43068Y-49700D01*
X43068Y-48576D02*
X43181Y-48519D01*
X43406Y-48519D01*
X43518Y-48576D01*
X43575Y-48632D01*
X43631Y-48744D01*
X43631Y-49082D01*
X43575Y-49194D01*
X43518Y-49251D01*
X43406Y-49307D01*
X43181Y-49307D01*
X43068Y-49251D01*
X44137Y-49194D02*
X44193Y-49251D01*
X44137Y-49307D01*
X44081Y-49251D01*
X44137Y-49194D01*
X44137Y-49307D01*
X44137Y-48576D02*
X44193Y-48632D01*
X44137Y-48688D01*
X44081Y-48632D01*
X44137Y-48576D01*
X44137Y-48688D01*
X33000Y-50325D02*
X34969Y-52294D01*
X34969Y-50325D02*
X33000Y-52294D01*
X36601Y-50606D02*
X36038Y-50606D01*
X35982Y-51168D01*
X36038Y-51112D01*
X36151Y-51056D01*
X36432Y-51056D01*
X36544Y-51112D01*
X36601Y-51168D01*
X36657Y-51281D01*
X36657Y-51562D01*
X36601Y-51675D01*
X36544Y-51731D01*
X36432Y-51787D01*
X36151Y-51787D01*
X36038Y-51731D01*
X35982Y-51675D01*
X37163Y-51675D02*
X37219Y-51731D01*
X37163Y-51787D01*
X37107Y-51731D01*
X37163Y-51675D01*
X37163Y-51787D01*
X37950Y-50606D02*
X38063Y-50606D01*
X38175Y-50662D01*
X38232Y-50718D01*
X38288Y-50831D01*
X38344Y-51056D01*
X38344Y-51337D01*
X38288Y-51562D01*
X38232Y-51675D01*
X38175Y-51731D01*
X38063Y-51787D01*
X37950Y-51787D01*
X37838Y-51731D01*
X37782Y-51675D01*
X37725Y-51562D01*
X37669Y-51337D01*
X37669Y-51056D01*
X37725Y-50831D01*
X37782Y-50718D01*
X37838Y-50662D01*
X37950Y-50606D01*
X39075Y-50606D02*
X39188Y-50606D01*
X39300Y-50662D01*
X39356Y-50718D01*
X39413Y-50831D01*
X39469Y-51056D01*
X39469Y-51337D01*
X39413Y-51562D01*
X39356Y-51675D01*
X39300Y-51731D01*
X39188Y-51787D01*
X39075Y-51787D01*
X38963Y-51731D01*
X38907Y-51675D01*
X38850Y-51562D01*
X38794Y-51337D01*
X38794Y-51056D01*
X38850Y-50831D01*
X38907Y-50718D01*
X38963Y-50662D01*
X39075Y-50606D01*
X39975Y-51787D02*
X39975Y-51000D01*
X39975Y-51112D02*
X40031Y-51056D01*
X40144Y-51000D01*
X40313Y-51000D01*
X40425Y-51056D01*
X40481Y-51168D01*
X40481Y-51787D01*
X40481Y-51168D02*
X40538Y-51056D01*
X40650Y-51000D01*
X40819Y-51000D01*
X40931Y-51056D01*
X40987Y-51168D01*
X40987Y-51787D01*
X41550Y-51787D02*
X41550Y-51000D01*
X41550Y-51112D02*
X41606Y-51056D01*
X41719Y-51000D01*
X41887Y-51000D01*
X42000Y-51056D01*
X42056Y-51168D01*
X42056Y-51787D01*
X42056Y-51168D02*
X42112Y-51056D01*
X42225Y-51000D01*
X42394Y-51000D01*
X42506Y-51056D01*
X42562Y-51168D01*
X42562Y-51787D01*
X44868Y-50550D02*
X43856Y-52068D01*
X46387Y-50606D02*
X46499Y-50606D01*
X46612Y-50662D01*
X46668Y-50718D01*
X46724Y-50831D01*
X46781Y-51056D01*
X46781Y-51337D01*
X46724Y-51562D01*
X46668Y-51675D01*
X46612Y-51731D01*
X46499Y-51787D01*
X46387Y-51787D01*
X46274Y-51731D01*
X46218Y-51675D01*
X46162Y-51562D01*
X46106Y-51337D01*
X46106Y-51056D01*
X46162Y-50831D01*
X46218Y-50718D01*
X46274Y-50662D01*
X46387Y-50606D01*
X47287Y-51675D02*
X47343Y-51731D01*
X47287Y-51787D01*
X47230Y-51731D01*
X47287Y-51675D01*
X47287Y-51787D01*
X48468Y-51787D02*
X47793Y-51787D01*
X48130Y-51787D02*
X48130Y-50606D01*
X48018Y-50775D01*
X47905Y-50887D01*
X47793Y-50943D01*
X49030Y-51787D02*
X49255Y-51787D01*
X49368Y-51731D01*
X49424Y-51675D01*
X49536Y-51506D01*
X49593Y-51281D01*
X49593Y-50831D01*
X49536Y-50718D01*
X49480Y-50662D01*
X49368Y-50606D01*
X49143Y-50606D01*
X49030Y-50662D01*
X48974Y-50718D01*
X48918Y-50831D01*
X48918Y-51112D01*
X48974Y-51225D01*
X49030Y-51281D01*
X49143Y-51337D01*
X49368Y-51337D01*
X49480Y-51281D01*
X49536Y-51225D01*
X49593Y-51112D01*
X49986Y-50606D02*
X50774Y-50606D01*
X50268Y-51787D01*
X51167Y-50606D02*
X51167Y-50831D01*
X51617Y-50606D02*
X51617Y-50831D01*
X53361Y-52237D02*
X53305Y-52181D01*
X53192Y-52012D01*
X53136Y-51900D01*
X53080Y-51731D01*
X53023Y-51450D01*
X53023Y-51225D01*
X53080Y-50943D01*
X53136Y-50775D01*
X53192Y-50662D01*
X53305Y-50494D01*
X53361Y-50437D01*
X54317Y-51000D02*
X54317Y-51787D01*
X54036Y-50550D02*
X53755Y-51393D01*
X54486Y-51393D01*
X55836Y-51787D02*
X55836Y-50606D01*
X56342Y-51787D02*
X56342Y-51168D01*
X56286Y-51056D01*
X56173Y-51000D01*
X56004Y-51000D01*
X55892Y-51056D01*
X55836Y-51112D01*
X57073Y-51787D02*
X56961Y-51731D01*
X56904Y-51675D01*
X56848Y-51562D01*
X56848Y-51225D01*
X56904Y-51112D01*
X56961Y-51056D01*
X57073Y-51000D01*
X57242Y-51000D01*
X57354Y-51056D01*
X57410Y-51112D01*
X57467Y-51225D01*
X57467Y-51562D01*
X57410Y-51675D01*
X57354Y-51731D01*
X57242Y-51787D01*
X57073Y-51787D01*
X58142Y-51787D02*
X58029Y-51731D01*
X57973Y-51618D01*
X57973Y-50606D01*
X59041Y-51731D02*
X58929Y-51787D01*
X58704Y-51787D01*
X58592Y-51731D01*
X58535Y-51618D01*
X58535Y-51168D01*
X58592Y-51056D01*
X58704Y-51000D01*
X58929Y-51000D01*
X59041Y-51056D01*
X59098Y-51168D01*
X59098Y-51281D01*
X58535Y-51393D01*
X59548Y-51731D02*
X59660Y-51787D01*
X59885Y-51787D01*
X59998Y-51731D01*
X60054Y-51618D01*
X60054Y-51562D01*
X59998Y-51450D01*
X59885Y-51393D01*
X59716Y-51393D01*
X59604Y-51337D01*
X59548Y-51225D01*
X59548Y-51168D01*
X59604Y-51056D01*
X59716Y-51000D01*
X59885Y-51000D01*
X59998Y-51056D01*
X60448Y-52237D02*
X60504Y-52181D01*
X60616Y-52012D01*
X60673Y-51900D01*
X60729Y-51731D01*
X60785Y-51450D01*
X60785Y-51225D01*
X60729Y-50943D01*
X60673Y-50775D01*
X60616Y-50662D01*
X60504Y-50494D01*
X60448Y-50437D01*
M02*
