G04 (created by PCBNEW (2013-dec-23)-stable) date Wed 26 Feb 2014 13:22:31 CST*
%MOIN*%
G04 Gerber Fmt 3.4, Leading zero omitted, Abs format*
%FSLAX34Y34*%
G01*
G70*
G90*
G04 APERTURE LIST*
%ADD10C,0.00590551*%
%ADD11C,0.006*%
%ADD12R,0.0141732X0.0478346*%
%ADD13R,0.0225X0.0405*%
%ADD14R,0.0405X0.0225*%
%ADD15R,0.0144X0.054*%
%ADD16R,0.054X0.0144*%
%ADD17R,0.018X0.027*%
%ADD18R,0.018X0.0405*%
%ADD19R,0.054X0.072*%
%ADD20R,0.0442913X0.0531496*%
%ADD21R,0.0531496X0.0442913*%
%ADD22R,0.0855X0.0855*%
G04 APERTURE END LIST*
G54D10*
X4000Y-4000D02*
X106000Y-4000D01*
X106000Y-81000D01*
X4000Y-81000D01*
X4000Y-4000D01*
X4700Y-4700D02*
X105300Y-4700D01*
X105300Y-80300D01*
X4700Y-80300D01*
X4700Y-4700D01*
X24400Y-4000D02*
X24400Y-4700D01*
X14342Y-4552D02*
X14057Y-4552D01*
X14200Y-4552D02*
X14200Y-4052D01*
X14152Y-4123D01*
X14104Y-4171D01*
X14057Y-4195D01*
X24400Y-81000D02*
X24400Y-80300D01*
X14342Y-80852D02*
X14057Y-80852D01*
X14200Y-80852D02*
X14200Y-80352D01*
X14152Y-80423D01*
X14104Y-80471D01*
X14057Y-80495D01*
X44800Y-4000D02*
X44800Y-4700D01*
X34457Y-4100D02*
X34480Y-4076D01*
X34528Y-4052D01*
X34647Y-4052D01*
X34695Y-4076D01*
X34719Y-4100D01*
X34742Y-4147D01*
X34742Y-4195D01*
X34719Y-4266D01*
X34433Y-4552D01*
X34742Y-4552D01*
X44800Y-81000D02*
X44800Y-80300D01*
X34457Y-80400D02*
X34480Y-80376D01*
X34528Y-80352D01*
X34647Y-80352D01*
X34695Y-80376D01*
X34719Y-80400D01*
X34742Y-80447D01*
X34742Y-80495D01*
X34719Y-80566D01*
X34433Y-80852D01*
X34742Y-80852D01*
X65200Y-4000D02*
X65200Y-4700D01*
X54833Y-4052D02*
X55142Y-4052D01*
X54976Y-4242D01*
X55047Y-4242D01*
X55095Y-4266D01*
X55119Y-4290D01*
X55142Y-4338D01*
X55142Y-4457D01*
X55119Y-4504D01*
X55095Y-4528D01*
X55047Y-4552D01*
X54904Y-4552D01*
X54857Y-4528D01*
X54833Y-4504D01*
X65200Y-81000D02*
X65200Y-80300D01*
X54833Y-80352D02*
X55142Y-80352D01*
X54976Y-80542D01*
X55047Y-80542D01*
X55095Y-80566D01*
X55119Y-80590D01*
X55142Y-80638D01*
X55142Y-80757D01*
X55119Y-80804D01*
X55095Y-80828D01*
X55047Y-80852D01*
X54904Y-80852D01*
X54857Y-80828D01*
X54833Y-80804D01*
X85600Y-4000D02*
X85600Y-4700D01*
X75495Y-4219D02*
X75495Y-4552D01*
X75376Y-4028D02*
X75257Y-4385D01*
X75566Y-4385D01*
X85600Y-81000D02*
X85600Y-80300D01*
X75495Y-80519D02*
X75495Y-80852D01*
X75376Y-80328D02*
X75257Y-80685D01*
X75566Y-80685D01*
X95919Y-4052D02*
X95680Y-4052D01*
X95657Y-4290D01*
X95680Y-4266D01*
X95728Y-4242D01*
X95847Y-4242D01*
X95895Y-4266D01*
X95919Y-4290D01*
X95942Y-4338D01*
X95942Y-4457D01*
X95919Y-4504D01*
X95895Y-4528D01*
X95847Y-4552D01*
X95728Y-4552D01*
X95680Y-4528D01*
X95657Y-4504D01*
X95919Y-80352D02*
X95680Y-80352D01*
X95657Y-80590D01*
X95680Y-80566D01*
X95728Y-80542D01*
X95847Y-80542D01*
X95895Y-80566D01*
X95919Y-80590D01*
X95942Y-80638D01*
X95942Y-80757D01*
X95919Y-80804D01*
X95895Y-80828D01*
X95847Y-80852D01*
X95728Y-80852D01*
X95680Y-80828D01*
X95657Y-80804D01*
X4000Y-29660D02*
X4700Y-29660D01*
X4230Y-16889D02*
X4469Y-16889D01*
X4183Y-17032D02*
X4350Y-16532D01*
X4516Y-17032D01*
X106000Y-29660D02*
X105300Y-29660D01*
X105530Y-16889D02*
X105769Y-16889D01*
X105483Y-17032D02*
X105650Y-16532D01*
X105816Y-17032D01*
X4000Y-55320D02*
X4700Y-55320D01*
X4385Y-42430D02*
X4457Y-42454D01*
X4480Y-42478D01*
X4504Y-42525D01*
X4504Y-42597D01*
X4480Y-42644D01*
X4457Y-42668D01*
X4409Y-42692D01*
X4219Y-42692D01*
X4219Y-42192D01*
X4385Y-42192D01*
X4433Y-42216D01*
X4457Y-42240D01*
X4480Y-42287D01*
X4480Y-42335D01*
X4457Y-42382D01*
X4433Y-42406D01*
X4385Y-42430D01*
X4219Y-42430D01*
X106000Y-55320D02*
X105300Y-55320D01*
X105685Y-42430D02*
X105757Y-42454D01*
X105780Y-42478D01*
X105804Y-42525D01*
X105804Y-42597D01*
X105780Y-42644D01*
X105757Y-42668D01*
X105709Y-42692D01*
X105519Y-42692D01*
X105519Y-42192D01*
X105685Y-42192D01*
X105733Y-42216D01*
X105757Y-42240D01*
X105780Y-42287D01*
X105780Y-42335D01*
X105757Y-42382D01*
X105733Y-42406D01*
X105685Y-42430D01*
X105519Y-42430D01*
X4504Y-68304D02*
X4480Y-68328D01*
X4409Y-68352D01*
X4361Y-68352D01*
X4290Y-68328D01*
X4242Y-68280D01*
X4219Y-68233D01*
X4195Y-68138D01*
X4195Y-68066D01*
X4219Y-67971D01*
X4242Y-67923D01*
X4290Y-67876D01*
X4361Y-67852D01*
X4409Y-67852D01*
X4480Y-67876D01*
X4504Y-67900D01*
X105804Y-68304D02*
X105780Y-68328D01*
X105709Y-68352D01*
X105661Y-68352D01*
X105590Y-68328D01*
X105542Y-68280D01*
X105519Y-68233D01*
X105495Y-68138D01*
X105495Y-68066D01*
X105519Y-67971D01*
X105542Y-67923D01*
X105590Y-67876D01*
X105661Y-67852D01*
X105709Y-67852D01*
X105780Y-67876D01*
X105804Y-67900D01*
X72450Y-78742D02*
X72525Y-78142D01*
X72667Y-78142D01*
X72750Y-78171D01*
X72800Y-78228D01*
X72821Y-78285D01*
X72835Y-78400D01*
X72825Y-78485D01*
X72782Y-78600D01*
X72746Y-78657D01*
X72682Y-78714D01*
X72592Y-78742D01*
X72450Y-78742D01*
X73307Y-78742D02*
X73346Y-78428D01*
X73325Y-78371D01*
X73271Y-78342D01*
X73157Y-78342D01*
X73096Y-78371D01*
X73310Y-78714D02*
X73250Y-78742D01*
X73107Y-78742D01*
X73053Y-78714D01*
X73032Y-78657D01*
X73039Y-78600D01*
X73075Y-78542D01*
X73135Y-78514D01*
X73278Y-78514D01*
X73339Y-78485D01*
X73557Y-78342D02*
X73785Y-78342D01*
X73667Y-78142D02*
X73603Y-78657D01*
X73625Y-78714D01*
X73678Y-78742D01*
X73735Y-78742D01*
X74167Y-78714D02*
X74107Y-78742D01*
X73992Y-78742D01*
X73939Y-78714D01*
X73917Y-78657D01*
X73946Y-78428D01*
X73982Y-78371D01*
X74042Y-78342D01*
X74157Y-78342D01*
X74210Y-78371D01*
X74232Y-78428D01*
X74225Y-78485D01*
X73932Y-78542D01*
X74457Y-78685D02*
X74482Y-78714D01*
X74450Y-78742D01*
X74425Y-78714D01*
X74457Y-78685D01*
X74450Y-78742D01*
X74496Y-78371D02*
X74521Y-78400D01*
X74489Y-78428D01*
X74464Y-78400D01*
X74496Y-78371D01*
X74489Y-78428D01*
X75232Y-78200D02*
X75264Y-78171D01*
X75325Y-78142D01*
X75467Y-78142D01*
X75521Y-78171D01*
X75546Y-78200D01*
X75567Y-78257D01*
X75560Y-78314D01*
X75521Y-78400D01*
X75135Y-78742D01*
X75507Y-78742D01*
X76096Y-78142D02*
X75982Y-78142D01*
X75921Y-78171D01*
X75889Y-78200D01*
X75821Y-78285D01*
X75778Y-78400D01*
X75750Y-78628D01*
X75771Y-78685D01*
X75796Y-78714D01*
X75850Y-78742D01*
X75964Y-78742D01*
X76025Y-78714D01*
X76057Y-78685D01*
X76092Y-78628D01*
X76110Y-78485D01*
X76089Y-78428D01*
X76064Y-78400D01*
X76010Y-78371D01*
X75896Y-78371D01*
X75835Y-78400D01*
X75803Y-78428D01*
X75767Y-78485D01*
X76757Y-78342D02*
X76985Y-78342D01*
X76792Y-78742D02*
X76857Y-78228D01*
X76892Y-78171D01*
X76953Y-78142D01*
X77010Y-78142D01*
X77367Y-78714D02*
X77307Y-78742D01*
X77192Y-78742D01*
X77139Y-78714D01*
X77117Y-78657D01*
X77146Y-78428D01*
X77182Y-78371D01*
X77242Y-78342D01*
X77357Y-78342D01*
X77410Y-78371D01*
X77432Y-78428D01*
X77425Y-78485D01*
X77132Y-78542D01*
X77650Y-78742D02*
X77725Y-78142D01*
X77696Y-78371D02*
X77757Y-78342D01*
X77871Y-78342D01*
X77925Y-78371D01*
X77950Y-78400D01*
X77971Y-78457D01*
X77950Y-78628D01*
X77914Y-78685D01*
X77882Y-78714D01*
X77821Y-78742D01*
X77707Y-78742D01*
X77653Y-78714D01*
X78689Y-78200D02*
X78721Y-78171D01*
X78782Y-78142D01*
X78925Y-78142D01*
X78978Y-78171D01*
X79003Y-78200D01*
X79025Y-78257D01*
X79017Y-78314D01*
X78978Y-78400D01*
X78592Y-78742D01*
X78964Y-78742D01*
X79410Y-78142D02*
X79467Y-78142D01*
X79521Y-78171D01*
X79546Y-78200D01*
X79567Y-78257D01*
X79582Y-78371D01*
X79564Y-78514D01*
X79521Y-78628D01*
X79485Y-78685D01*
X79453Y-78714D01*
X79392Y-78742D01*
X79335Y-78742D01*
X79282Y-78714D01*
X79257Y-78685D01*
X79235Y-78628D01*
X79221Y-78514D01*
X79239Y-78371D01*
X79282Y-78257D01*
X79317Y-78200D01*
X79350Y-78171D01*
X79410Y-78142D01*
X80107Y-78742D02*
X79764Y-78742D01*
X79935Y-78742D02*
X80010Y-78142D01*
X79942Y-78228D01*
X79878Y-78285D01*
X79817Y-78314D01*
X80671Y-78342D02*
X80621Y-78742D01*
X80557Y-78114D02*
X80360Y-78542D01*
X80732Y-78542D01*
X64042Y-79942D02*
X64042Y-79342D01*
X64385Y-79942D02*
X64128Y-79600D01*
X64385Y-79342D02*
X64042Y-79685D01*
X64642Y-79942D02*
X64642Y-79542D01*
X64642Y-79342D02*
X64614Y-79371D01*
X64642Y-79400D01*
X64671Y-79371D01*
X64642Y-79342D01*
X64642Y-79400D01*
X65271Y-79885D02*
X65242Y-79914D01*
X65157Y-79942D01*
X65100Y-79942D01*
X65014Y-79914D01*
X64957Y-79857D01*
X64928Y-79800D01*
X64900Y-79685D01*
X64900Y-79600D01*
X64928Y-79485D01*
X64957Y-79428D01*
X65014Y-79371D01*
X65100Y-79342D01*
X65157Y-79342D01*
X65242Y-79371D01*
X65271Y-79400D01*
X65785Y-79942D02*
X65785Y-79628D01*
X65757Y-79571D01*
X65700Y-79542D01*
X65585Y-79542D01*
X65528Y-79571D01*
X65785Y-79914D02*
X65728Y-79942D01*
X65585Y-79942D01*
X65528Y-79914D01*
X65500Y-79857D01*
X65500Y-79800D01*
X65528Y-79742D01*
X65585Y-79714D01*
X65728Y-79714D01*
X65785Y-79685D01*
X66328Y-79942D02*
X66328Y-79342D01*
X66328Y-79914D02*
X66271Y-79942D01*
X66157Y-79942D01*
X66100Y-79914D01*
X66071Y-79885D01*
X66042Y-79828D01*
X66042Y-79657D01*
X66071Y-79600D01*
X66100Y-79571D01*
X66157Y-79542D01*
X66271Y-79542D01*
X66328Y-79571D01*
X67071Y-79628D02*
X67271Y-79628D01*
X67357Y-79942D02*
X67071Y-79942D01*
X67071Y-79342D01*
X67357Y-79342D01*
X67614Y-79885D02*
X67642Y-79914D01*
X67614Y-79942D01*
X67585Y-79914D01*
X67614Y-79885D01*
X67614Y-79942D01*
X67899Y-79942D02*
X67899Y-79342D01*
X68042Y-79342D01*
X68128Y-79371D01*
X68185Y-79428D01*
X68214Y-79485D01*
X68242Y-79600D01*
X68242Y-79685D01*
X68214Y-79800D01*
X68185Y-79857D01*
X68128Y-79914D01*
X68042Y-79942D01*
X67899Y-79942D01*
X68499Y-79885D02*
X68528Y-79914D01*
X68499Y-79942D01*
X68471Y-79914D01*
X68499Y-79885D01*
X68499Y-79942D01*
X68757Y-79771D02*
X69042Y-79771D01*
X68699Y-79942D02*
X68899Y-79342D01*
X69099Y-79942D01*
X69299Y-79885D02*
X69328Y-79914D01*
X69299Y-79942D01*
X69271Y-79914D01*
X69299Y-79885D01*
X69299Y-79942D01*
X97592Y-78742D02*
X97428Y-78457D01*
X97250Y-78742D02*
X97325Y-78142D01*
X97553Y-78142D01*
X97607Y-78171D01*
X97632Y-78200D01*
X97653Y-78257D01*
X97642Y-78342D01*
X97607Y-78400D01*
X97575Y-78428D01*
X97514Y-78457D01*
X97285Y-78457D01*
X98082Y-78714D02*
X98021Y-78742D01*
X97907Y-78742D01*
X97853Y-78714D01*
X97832Y-78657D01*
X97860Y-78428D01*
X97896Y-78371D01*
X97957Y-78342D01*
X98071Y-78342D01*
X98125Y-78371D01*
X98146Y-78428D01*
X98139Y-78485D01*
X97846Y-78542D01*
X98357Y-78342D02*
X98450Y-78742D01*
X98642Y-78342D01*
X98828Y-78685D02*
X98853Y-78714D01*
X98821Y-78742D01*
X98796Y-78714D01*
X98828Y-78685D01*
X98821Y-78742D01*
X98867Y-78371D02*
X98892Y-78400D01*
X98860Y-78428D01*
X98835Y-78400D01*
X98867Y-78371D01*
X98860Y-78428D01*
X99553Y-78142D02*
X99896Y-78142D01*
X99650Y-78742D02*
X99725Y-78142D01*
X100335Y-78742D02*
X99992Y-78742D01*
X100164Y-78742D02*
X100239Y-78142D01*
X100171Y-78228D01*
X100107Y-78285D01*
X100046Y-78314D01*
X64014Y-78714D02*
X64100Y-78742D01*
X64242Y-78742D01*
X64300Y-78714D01*
X64328Y-78685D01*
X64357Y-78628D01*
X64357Y-78571D01*
X64328Y-78514D01*
X64300Y-78485D01*
X64242Y-78457D01*
X64128Y-78428D01*
X64071Y-78400D01*
X64042Y-78371D01*
X64014Y-78314D01*
X64014Y-78257D01*
X64042Y-78200D01*
X64071Y-78171D01*
X64128Y-78142D01*
X64271Y-78142D01*
X64357Y-78171D01*
X64614Y-78742D02*
X64614Y-78342D01*
X64614Y-78142D02*
X64585Y-78171D01*
X64614Y-78200D01*
X64642Y-78171D01*
X64614Y-78142D01*
X64614Y-78200D01*
X64842Y-78342D02*
X65157Y-78342D01*
X64842Y-78742D01*
X65157Y-78742D01*
X65614Y-78714D02*
X65557Y-78742D01*
X65442Y-78742D01*
X65385Y-78714D01*
X65357Y-78657D01*
X65357Y-78428D01*
X65385Y-78371D01*
X65442Y-78342D01*
X65557Y-78342D01*
X65614Y-78371D01*
X65642Y-78428D01*
X65642Y-78485D01*
X65357Y-78542D01*
X65900Y-78685D02*
X65928Y-78714D01*
X65900Y-78742D01*
X65871Y-78714D01*
X65900Y-78685D01*
X65900Y-78742D01*
X65900Y-78371D02*
X65928Y-78400D01*
X65900Y-78428D01*
X65871Y-78400D01*
X65900Y-78371D01*
X65900Y-78428D01*
X66614Y-78571D02*
X66900Y-78571D01*
X66557Y-78742D02*
X66757Y-78142D01*
X66957Y-78742D01*
X97242Y-79942D02*
X97242Y-79342D01*
X97785Y-79942D02*
X97785Y-79342D01*
X97785Y-79914D02*
X97728Y-79942D01*
X97614Y-79942D01*
X97557Y-79914D01*
X97528Y-79885D01*
X97500Y-79828D01*
X97500Y-79657D01*
X97528Y-79600D01*
X97557Y-79571D01*
X97614Y-79542D01*
X97728Y-79542D01*
X97785Y-79571D01*
X98071Y-79885D02*
X98100Y-79914D01*
X98071Y-79942D01*
X98042Y-79914D01*
X98071Y-79885D01*
X98071Y-79942D01*
X98071Y-79571D02*
X98100Y-79600D01*
X98071Y-79628D01*
X98042Y-79600D01*
X98071Y-79571D01*
X98071Y-79628D01*
X99128Y-79942D02*
X98785Y-79942D01*
X98957Y-79942D02*
X98957Y-79342D01*
X98899Y-79428D01*
X98842Y-79485D01*
X98785Y-79514D01*
X99814Y-79314D02*
X99300Y-80085D01*
X100328Y-79942D02*
X99985Y-79942D01*
X100157Y-79942D02*
X100157Y-79342D01*
X100099Y-79428D01*
X100042Y-79485D01*
X99985Y-79514D01*
X64039Y-76942D02*
X64382Y-76942D01*
X64135Y-77542D02*
X64210Y-76942D01*
X64507Y-77542D02*
X64557Y-77142D01*
X64582Y-76942D02*
X64550Y-76971D01*
X64575Y-77000D01*
X64607Y-76971D01*
X64582Y-76942D01*
X64575Y-77000D01*
X64757Y-77142D02*
X64985Y-77142D01*
X64867Y-76942D02*
X64803Y-77457D01*
X64825Y-77514D01*
X64878Y-77542D01*
X64935Y-77542D01*
X65221Y-77542D02*
X65167Y-77514D01*
X65146Y-77457D01*
X65210Y-76942D01*
X65682Y-77514D02*
X65621Y-77542D01*
X65507Y-77542D01*
X65453Y-77514D01*
X65432Y-77457D01*
X65460Y-77228D01*
X65496Y-77171D01*
X65557Y-77142D01*
X65671Y-77142D01*
X65725Y-77171D01*
X65746Y-77228D01*
X65739Y-77285D01*
X65446Y-77342D01*
X65971Y-77485D02*
X65996Y-77514D01*
X65964Y-77542D01*
X65939Y-77514D01*
X65971Y-77485D01*
X65964Y-77542D01*
X66010Y-77171D02*
X66035Y-77200D01*
X66003Y-77228D01*
X65978Y-77200D01*
X66010Y-77171D01*
X66003Y-77228D01*
X66946Y-77228D02*
X67028Y-77257D01*
X67053Y-77285D01*
X67075Y-77342D01*
X67064Y-77428D01*
X67028Y-77485D01*
X66996Y-77514D01*
X66935Y-77542D01*
X66707Y-77542D01*
X66782Y-76942D01*
X66982Y-76942D01*
X67035Y-76971D01*
X67060Y-77000D01*
X67082Y-77057D01*
X67075Y-77114D01*
X67039Y-77171D01*
X67007Y-77200D01*
X66946Y-77228D01*
X66746Y-77228D01*
X67496Y-76942D02*
X67610Y-76942D01*
X67664Y-76971D01*
X67714Y-77028D01*
X67728Y-77142D01*
X67703Y-77342D01*
X67660Y-77457D01*
X67596Y-77514D01*
X67535Y-77542D01*
X67421Y-77542D01*
X67367Y-77514D01*
X67317Y-77457D01*
X67303Y-77342D01*
X67328Y-77142D01*
X67371Y-77028D01*
X67435Y-76971D01*
X67496Y-76942D01*
X67928Y-77371D02*
X68214Y-77371D01*
X67850Y-77542D02*
X68125Y-76942D01*
X68250Y-77542D01*
X68792Y-77542D02*
X68628Y-77257D01*
X68450Y-77542D02*
X68525Y-76942D01*
X68753Y-76942D01*
X68807Y-76971D01*
X68832Y-77000D01*
X68853Y-77057D01*
X68842Y-77142D01*
X68807Y-77200D01*
X68775Y-77228D01*
X68714Y-77257D01*
X68485Y-77257D01*
X69050Y-77542D02*
X69125Y-76942D01*
X69267Y-76942D01*
X69350Y-76971D01*
X69400Y-77028D01*
X69421Y-77085D01*
X69435Y-77200D01*
X69425Y-77285D01*
X69382Y-77400D01*
X69346Y-77457D01*
X69282Y-77514D01*
X69192Y-77542D01*
X69050Y-77542D01*
X69682Y-77514D02*
X69678Y-77542D01*
X69642Y-77600D01*
X69610Y-77628D01*
X70392Y-77542D02*
X70467Y-76942D01*
X70696Y-76942D01*
X70749Y-76971D01*
X70775Y-77000D01*
X70796Y-77057D01*
X70785Y-77142D01*
X70750Y-77200D01*
X70717Y-77228D01*
X70657Y-77257D01*
X70428Y-77257D01*
X71342Y-77485D02*
X71310Y-77514D01*
X71221Y-77542D01*
X71164Y-77542D01*
X71082Y-77514D01*
X71032Y-77457D01*
X71010Y-77400D01*
X70996Y-77285D01*
X71007Y-77200D01*
X71050Y-77085D01*
X71085Y-77028D01*
X71149Y-76971D01*
X71239Y-76942D01*
X71296Y-76942D01*
X71378Y-76971D01*
X71403Y-77000D01*
X71625Y-77514D02*
X71621Y-77542D01*
X71585Y-77600D01*
X71553Y-77628D01*
X72325Y-76942D02*
X72667Y-76942D01*
X72421Y-77542D02*
X72496Y-76942D01*
X72792Y-77542D02*
X72867Y-76942D01*
X72832Y-77228D02*
X73175Y-77228D01*
X73135Y-77542D02*
X73210Y-76942D01*
X73610Y-76942D02*
X73725Y-76942D01*
X73778Y-76971D01*
X73828Y-77028D01*
X73842Y-77142D01*
X73817Y-77342D01*
X73774Y-77457D01*
X73710Y-77514D01*
X73650Y-77542D01*
X73535Y-77542D01*
X73482Y-77514D01*
X73432Y-77457D01*
X73417Y-77342D01*
X73442Y-77142D01*
X73485Y-77028D01*
X73549Y-76971D01*
X73610Y-76942D01*
X74039Y-76942D02*
X74382Y-76942D01*
X74135Y-77542D02*
X74210Y-76942D01*
X74507Y-77542D02*
X74582Y-76942D01*
X74849Y-77542D02*
X74635Y-77200D01*
X74924Y-76942D02*
X74539Y-77285D01*
X75296Y-76942D02*
X75410Y-76942D01*
X75464Y-76971D01*
X75514Y-77028D01*
X75528Y-77142D01*
X75503Y-77342D01*
X75460Y-77457D01*
X75396Y-77514D01*
X75335Y-77542D01*
X75221Y-77542D01*
X75167Y-77514D01*
X75117Y-77457D01*
X75103Y-77342D01*
X75128Y-77142D01*
X75171Y-77028D01*
X75235Y-76971D01*
X75296Y-76942D01*
X75735Y-77542D02*
X75810Y-76942D01*
X76078Y-77542D01*
X76153Y-76942D01*
X77010Y-76942D02*
X77124Y-76942D01*
X77178Y-76971D01*
X77228Y-77028D01*
X77242Y-77142D01*
X77217Y-77342D01*
X77174Y-77457D01*
X77110Y-77514D01*
X77049Y-77542D01*
X76935Y-77542D01*
X76882Y-77514D01*
X76832Y-77457D01*
X76817Y-77342D01*
X76842Y-77142D01*
X76885Y-77028D01*
X76949Y-76971D01*
X77010Y-76942D01*
X77467Y-76942D02*
X77792Y-77542D01*
X77867Y-76942D02*
X77392Y-77542D01*
X78382Y-76942D02*
X78096Y-76942D01*
X78032Y-77228D01*
X78064Y-77200D01*
X78124Y-77171D01*
X78267Y-77171D01*
X78321Y-77200D01*
X78346Y-77228D01*
X78367Y-77285D01*
X78349Y-77428D01*
X78314Y-77485D01*
X78282Y-77514D01*
X78221Y-77542D01*
X78078Y-77542D01*
X78024Y-77514D01*
X77999Y-77485D01*
X64242Y-74828D02*
X64042Y-74828D01*
X64042Y-75142D02*
X64042Y-74542D01*
X64328Y-74542D01*
X64557Y-75142D02*
X64557Y-74742D01*
X64557Y-74542D02*
X64528Y-74571D01*
X64557Y-74600D01*
X64585Y-74571D01*
X64557Y-74542D01*
X64557Y-74600D01*
X64928Y-75142D02*
X64871Y-75114D01*
X64842Y-75057D01*
X64842Y-74542D01*
X65385Y-75114D02*
X65328Y-75142D01*
X65214Y-75142D01*
X65157Y-75114D01*
X65128Y-75057D01*
X65128Y-74828D01*
X65157Y-74771D01*
X65214Y-74742D01*
X65328Y-74742D01*
X65385Y-74771D01*
X65414Y-74828D01*
X65414Y-74885D01*
X65128Y-74942D01*
X65671Y-75085D02*
X65700Y-75114D01*
X65671Y-75142D01*
X65642Y-75114D01*
X65671Y-75085D01*
X65671Y-75142D01*
X65671Y-74771D02*
X65700Y-74800D01*
X65671Y-74828D01*
X65642Y-74800D01*
X65671Y-74771D01*
X65671Y-74828D01*
X66328Y-74742D02*
X66557Y-74742D01*
X66414Y-74542D02*
X66414Y-75057D01*
X66442Y-75114D01*
X66500Y-75142D01*
X66557Y-75142D01*
X66757Y-75142D02*
X66757Y-74542D01*
X67014Y-75142D02*
X67014Y-74828D01*
X66985Y-74771D01*
X66928Y-74742D01*
X66842Y-74742D01*
X66785Y-74771D01*
X66757Y-74800D01*
X67385Y-75142D02*
X67328Y-75114D01*
X67300Y-75085D01*
X67271Y-75028D01*
X67271Y-74857D01*
X67300Y-74800D01*
X67328Y-74771D01*
X67385Y-74742D01*
X67471Y-74742D01*
X67528Y-74771D01*
X67557Y-74800D01*
X67585Y-74857D01*
X67585Y-75028D01*
X67557Y-75085D01*
X67528Y-75114D01*
X67471Y-75142D01*
X67385Y-75142D01*
X67757Y-74742D02*
X67985Y-74742D01*
X67842Y-74542D02*
X67842Y-75057D01*
X67871Y-75114D01*
X67928Y-75142D01*
X67985Y-75142D01*
X68442Y-75114D02*
X68385Y-75142D01*
X68271Y-75142D01*
X68214Y-75114D01*
X68185Y-75085D01*
X68157Y-75028D01*
X68157Y-74857D01*
X68185Y-74800D01*
X68214Y-74771D01*
X68271Y-74742D01*
X68385Y-74742D01*
X68442Y-74771D01*
X68785Y-75142D02*
X68728Y-75114D01*
X68700Y-75085D01*
X68671Y-75028D01*
X68671Y-74857D01*
X68700Y-74800D01*
X68728Y-74771D01*
X68785Y-74742D01*
X68871Y-74742D01*
X68928Y-74771D01*
X68957Y-74800D01*
X68985Y-74857D01*
X68985Y-75028D01*
X68957Y-75085D01*
X68928Y-75114D01*
X68871Y-75142D01*
X68785Y-75142D01*
X69242Y-74742D02*
X69242Y-75142D01*
X69242Y-74800D02*
X69271Y-74771D01*
X69328Y-74742D01*
X69414Y-74742D01*
X69471Y-74771D01*
X69500Y-74828D01*
X69500Y-75142D01*
X69642Y-75200D02*
X70100Y-75200D01*
X70357Y-74542D02*
X70414Y-74542D01*
X70471Y-74571D01*
X70500Y-74600D01*
X70528Y-74657D01*
X70557Y-74771D01*
X70557Y-74914D01*
X70528Y-75028D01*
X70500Y-75085D01*
X70471Y-75114D01*
X70414Y-75142D01*
X70357Y-75142D01*
X70300Y-75114D01*
X70271Y-75085D01*
X70242Y-75028D01*
X70214Y-74914D01*
X70214Y-74771D01*
X70242Y-74657D01*
X70271Y-74600D01*
X70300Y-74571D01*
X70357Y-74542D01*
X70757Y-75142D02*
X71071Y-74742D01*
X70757Y-74742D02*
X71071Y-75142D01*
X71585Y-74542D02*
X71300Y-74542D01*
X71271Y-74828D01*
X71300Y-74800D01*
X71357Y-74771D01*
X71500Y-74771D01*
X71557Y-74800D01*
X71585Y-74828D01*
X71614Y-74885D01*
X71614Y-75028D01*
X71585Y-75085D01*
X71557Y-75114D01*
X71500Y-75142D01*
X71357Y-75142D01*
X71300Y-75114D01*
X71271Y-75085D01*
X71871Y-75085D02*
X71900Y-75114D01*
X71871Y-75142D01*
X71842Y-75114D01*
X71871Y-75085D01*
X71871Y-75142D01*
X72157Y-75142D02*
X72157Y-74542D01*
X72157Y-74771D02*
X72214Y-74742D01*
X72328Y-74742D01*
X72385Y-74771D01*
X72414Y-74800D01*
X72442Y-74857D01*
X72442Y-75028D01*
X72414Y-75085D01*
X72385Y-75114D01*
X72328Y-75142D01*
X72214Y-75142D01*
X72157Y-75114D01*
X72700Y-75142D02*
X72700Y-74742D01*
X72700Y-74857D02*
X72728Y-74800D01*
X72757Y-74771D01*
X72814Y-74742D01*
X72871Y-74742D01*
X73328Y-75142D02*
X73328Y-74542D01*
X73328Y-75114D02*
X73271Y-75142D01*
X73157Y-75142D01*
X73100Y-75114D01*
X73071Y-75085D01*
X73042Y-75028D01*
X73042Y-74857D01*
X73071Y-74800D01*
X73100Y-74771D01*
X73157Y-74742D01*
X73271Y-74742D01*
X73328Y-74771D01*
X64014Y-76314D02*
X64100Y-76342D01*
X64242Y-76342D01*
X64300Y-76314D01*
X64328Y-76285D01*
X64357Y-76228D01*
X64357Y-76171D01*
X64328Y-76114D01*
X64300Y-76085D01*
X64242Y-76057D01*
X64128Y-76028D01*
X64071Y-76000D01*
X64042Y-75971D01*
X64014Y-75914D01*
X64014Y-75857D01*
X64042Y-75800D01*
X64071Y-75771D01*
X64128Y-75742D01*
X64271Y-75742D01*
X64357Y-75771D01*
X64614Y-76342D02*
X64614Y-75742D01*
X64871Y-76342D02*
X64871Y-76028D01*
X64842Y-75971D01*
X64785Y-75942D01*
X64700Y-75942D01*
X64642Y-75971D01*
X64614Y-76000D01*
X65385Y-76314D02*
X65328Y-76342D01*
X65214Y-76342D01*
X65157Y-76314D01*
X65128Y-76257D01*
X65128Y-76028D01*
X65157Y-75971D01*
X65214Y-75942D01*
X65328Y-75942D01*
X65385Y-75971D01*
X65414Y-76028D01*
X65414Y-76085D01*
X65128Y-76142D01*
X65900Y-76314D02*
X65842Y-76342D01*
X65728Y-76342D01*
X65671Y-76314D01*
X65642Y-76257D01*
X65642Y-76028D01*
X65671Y-75971D01*
X65728Y-75942D01*
X65842Y-75942D01*
X65900Y-75971D01*
X65928Y-76028D01*
X65928Y-76085D01*
X65642Y-76142D01*
X66100Y-75942D02*
X66328Y-75942D01*
X66185Y-75742D02*
X66185Y-76257D01*
X66214Y-76314D01*
X66271Y-76342D01*
X66328Y-76342D01*
X66528Y-76285D02*
X66557Y-76314D01*
X66528Y-76342D01*
X66500Y-76314D01*
X66528Y-76285D01*
X66528Y-76342D01*
X66528Y-75971D02*
X66557Y-76000D01*
X66528Y-76028D01*
X66500Y-76000D01*
X66528Y-75971D01*
X66528Y-76028D01*
X64067Y-73342D02*
X64135Y-73942D01*
X64303Y-73514D01*
X64364Y-73942D01*
X64582Y-73342D01*
X64821Y-73942D02*
X64767Y-73914D01*
X64742Y-73885D01*
X64721Y-73828D01*
X64742Y-73657D01*
X64778Y-73600D01*
X64810Y-73571D01*
X64871Y-73542D01*
X64957Y-73542D01*
X65010Y-73571D01*
X65035Y-73600D01*
X65057Y-73657D01*
X65035Y-73828D01*
X65000Y-73885D01*
X64967Y-73914D01*
X64907Y-73942D01*
X64821Y-73942D01*
X65278Y-73942D02*
X65328Y-73542D01*
X65314Y-73657D02*
X65350Y-73600D01*
X65382Y-73571D01*
X65442Y-73542D01*
X65500Y-73542D01*
X65650Y-73942D02*
X65725Y-73342D01*
X65735Y-73714D02*
X65878Y-73942D01*
X65928Y-73542D02*
X65671Y-73771D01*
X66110Y-73914D02*
X66164Y-73942D01*
X66278Y-73942D01*
X66339Y-73914D01*
X66375Y-73857D01*
X66378Y-73828D01*
X66357Y-73771D01*
X66303Y-73742D01*
X66217Y-73742D01*
X66164Y-73714D01*
X66142Y-73657D01*
X66146Y-73628D01*
X66182Y-73571D01*
X66242Y-73542D01*
X66328Y-73542D01*
X66382Y-73571D01*
X66621Y-73942D02*
X66696Y-73342D01*
X66878Y-73942D02*
X66917Y-73628D01*
X66896Y-73571D01*
X66842Y-73542D01*
X66757Y-73542D01*
X66696Y-73571D01*
X66664Y-73600D01*
X67249Y-73942D02*
X67196Y-73914D01*
X67171Y-73885D01*
X67150Y-73828D01*
X67171Y-73657D01*
X67207Y-73600D01*
X67239Y-73571D01*
X67299Y-73542D01*
X67385Y-73542D01*
X67439Y-73571D01*
X67464Y-73600D01*
X67485Y-73657D01*
X67464Y-73828D01*
X67428Y-73885D01*
X67396Y-73914D01*
X67335Y-73942D01*
X67249Y-73942D01*
X67757Y-73542D02*
X67682Y-74142D01*
X67753Y-73571D02*
X67814Y-73542D01*
X67928Y-73542D01*
X67982Y-73571D01*
X68007Y-73600D01*
X68028Y-73657D01*
X68007Y-73828D01*
X67971Y-73885D01*
X67939Y-73914D01*
X67878Y-73942D01*
X67764Y-73942D01*
X67710Y-73914D01*
X68835Y-73600D02*
X68782Y-73571D01*
X68757Y-73542D01*
X68735Y-73485D01*
X68739Y-73457D01*
X68774Y-73400D01*
X68807Y-73371D01*
X68867Y-73342D01*
X68982Y-73342D01*
X69035Y-73371D01*
X69060Y-73400D01*
X69082Y-73457D01*
X69078Y-73485D01*
X69042Y-73542D01*
X69010Y-73571D01*
X68949Y-73600D01*
X68835Y-73600D01*
X68775Y-73628D01*
X68742Y-73657D01*
X68707Y-73714D01*
X68692Y-73828D01*
X68714Y-73885D01*
X68739Y-73914D01*
X68792Y-73942D01*
X68907Y-73942D01*
X68967Y-73914D01*
X68999Y-73885D01*
X69035Y-73828D01*
X69049Y-73714D01*
X69028Y-73657D01*
X69003Y-73628D01*
X68949Y-73600D01*
X69407Y-73600D02*
X69353Y-73571D01*
X69328Y-73542D01*
X69307Y-73485D01*
X69310Y-73457D01*
X69346Y-73400D01*
X69378Y-73371D01*
X69439Y-73342D01*
X69553Y-73342D01*
X69607Y-73371D01*
X69632Y-73400D01*
X69653Y-73457D01*
X69650Y-73485D01*
X69614Y-73542D01*
X69582Y-73571D01*
X69521Y-73600D01*
X69407Y-73600D01*
X69346Y-73628D01*
X69314Y-73657D01*
X69278Y-73714D01*
X69264Y-73828D01*
X69285Y-73885D01*
X69310Y-73914D01*
X69364Y-73942D01*
X69478Y-73942D01*
X69539Y-73914D01*
X69571Y-73885D01*
X69607Y-73828D01*
X69621Y-73714D01*
X69599Y-73657D01*
X69575Y-73628D01*
X69521Y-73600D01*
X64042Y-72742D02*
X64042Y-72142D01*
X64185Y-72142D01*
X64271Y-72171D01*
X64328Y-72228D01*
X64357Y-72285D01*
X64385Y-72400D01*
X64385Y-72485D01*
X64357Y-72600D01*
X64328Y-72657D01*
X64271Y-72714D01*
X64185Y-72742D01*
X64042Y-72742D01*
X64642Y-72742D02*
X64642Y-72342D01*
X64642Y-72457D02*
X64671Y-72400D01*
X64700Y-72371D01*
X64757Y-72342D01*
X64814Y-72342D01*
X65271Y-72742D02*
X65271Y-72428D01*
X65242Y-72371D01*
X65185Y-72342D01*
X65071Y-72342D01*
X65014Y-72371D01*
X65271Y-72714D02*
X65214Y-72742D01*
X65071Y-72742D01*
X65014Y-72714D01*
X64985Y-72657D01*
X64985Y-72600D01*
X65014Y-72542D01*
X65071Y-72514D01*
X65214Y-72514D01*
X65271Y-72485D01*
X65500Y-72342D02*
X65614Y-72742D01*
X65728Y-72457D01*
X65842Y-72742D01*
X65957Y-72342D01*
X66185Y-72342D02*
X66185Y-72742D01*
X66185Y-72400D02*
X66214Y-72371D01*
X66271Y-72342D01*
X66357Y-72342D01*
X66414Y-72371D01*
X66442Y-72428D01*
X66442Y-72742D01*
X66728Y-72685D02*
X66757Y-72714D01*
X66728Y-72742D01*
X66700Y-72714D01*
X66728Y-72685D01*
X66728Y-72742D01*
X66728Y-72371D02*
X66757Y-72400D01*
X66728Y-72428D01*
X66700Y-72400D01*
X66728Y-72371D01*
X66728Y-72428D01*
X67471Y-72742D02*
X67471Y-72142D01*
X67700Y-72142D01*
X67757Y-72171D01*
X67785Y-72200D01*
X67814Y-72257D01*
X67814Y-72342D01*
X67785Y-72400D01*
X67757Y-72428D01*
X67700Y-72457D01*
X67471Y-72457D01*
X68328Y-72742D02*
X68328Y-72428D01*
X68300Y-72371D01*
X68242Y-72342D01*
X68128Y-72342D01*
X68071Y-72371D01*
X68328Y-72714D02*
X68271Y-72742D01*
X68128Y-72742D01*
X68071Y-72714D01*
X68042Y-72657D01*
X68042Y-72600D01*
X68071Y-72542D01*
X68128Y-72514D01*
X68271Y-72514D01*
X68328Y-72485D01*
X68871Y-72342D02*
X68871Y-72742D01*
X68614Y-72342D02*
X68614Y-72657D01*
X68642Y-72714D01*
X68699Y-72742D01*
X68785Y-72742D01*
X68842Y-72714D01*
X68871Y-72685D01*
X69242Y-72742D02*
X69185Y-72714D01*
X69157Y-72657D01*
X69157Y-72142D01*
X70271Y-72742D02*
X70071Y-72457D01*
X69928Y-72742D02*
X69928Y-72142D01*
X70157Y-72142D01*
X70214Y-72171D01*
X70242Y-72200D01*
X70271Y-72257D01*
X70271Y-72342D01*
X70242Y-72400D01*
X70214Y-72428D01*
X70157Y-72457D01*
X69928Y-72457D01*
X70757Y-72714D02*
X70700Y-72742D01*
X70585Y-72742D01*
X70528Y-72714D01*
X70500Y-72657D01*
X70500Y-72428D01*
X70528Y-72371D01*
X70585Y-72342D01*
X70700Y-72342D01*
X70757Y-72371D01*
X70785Y-72428D01*
X70785Y-72485D01*
X70500Y-72542D01*
X71042Y-72742D02*
X71042Y-72342D01*
X71042Y-72142D02*
X71014Y-72171D01*
X71042Y-72200D01*
X71071Y-72171D01*
X71042Y-72142D01*
X71042Y-72200D01*
X71585Y-72714D02*
X71528Y-72742D01*
X71414Y-72742D01*
X71357Y-72714D01*
X71328Y-72685D01*
X71300Y-72628D01*
X71300Y-72457D01*
X71328Y-72400D01*
X71357Y-72371D01*
X71414Y-72342D01*
X71528Y-72342D01*
X71585Y-72371D01*
X71842Y-72742D02*
X71842Y-72142D01*
X72100Y-72742D02*
X72100Y-72428D01*
X72071Y-72371D01*
X72014Y-72342D01*
X71928Y-72342D01*
X71871Y-72371D01*
X71842Y-72400D01*
X64042Y-71542D02*
X64042Y-70942D01*
X64185Y-70942D01*
X64271Y-70971D01*
X64328Y-71028D01*
X64357Y-71085D01*
X64385Y-71200D01*
X64385Y-71285D01*
X64357Y-71400D01*
X64328Y-71457D01*
X64271Y-71514D01*
X64185Y-71542D01*
X64042Y-71542D01*
X64871Y-71514D02*
X64814Y-71542D01*
X64700Y-71542D01*
X64642Y-71514D01*
X64614Y-71457D01*
X64614Y-71228D01*
X64642Y-71171D01*
X64700Y-71142D01*
X64814Y-71142D01*
X64871Y-71171D01*
X64900Y-71228D01*
X64900Y-71285D01*
X64614Y-71342D01*
X65128Y-71514D02*
X65185Y-71542D01*
X65300Y-71542D01*
X65357Y-71514D01*
X65385Y-71457D01*
X65385Y-71428D01*
X65357Y-71371D01*
X65300Y-71342D01*
X65214Y-71342D01*
X65157Y-71314D01*
X65128Y-71257D01*
X65128Y-71228D01*
X65157Y-71171D01*
X65214Y-71142D01*
X65300Y-71142D01*
X65357Y-71171D01*
X65642Y-71542D02*
X65642Y-71142D01*
X65642Y-70942D02*
X65614Y-70971D01*
X65642Y-71000D01*
X65671Y-70971D01*
X65642Y-70942D01*
X65642Y-71000D01*
X66185Y-71142D02*
X66185Y-71628D01*
X66157Y-71685D01*
X66128Y-71714D01*
X66071Y-71742D01*
X65985Y-71742D01*
X65928Y-71714D01*
X66185Y-71514D02*
X66128Y-71542D01*
X66014Y-71542D01*
X65957Y-71514D01*
X65928Y-71485D01*
X65900Y-71428D01*
X65900Y-71257D01*
X65928Y-71200D01*
X65957Y-71171D01*
X66014Y-71142D01*
X66128Y-71142D01*
X66185Y-71171D01*
X66471Y-71142D02*
X66471Y-71542D01*
X66471Y-71200D02*
X66500Y-71171D01*
X66557Y-71142D01*
X66642Y-71142D01*
X66700Y-71171D01*
X66728Y-71228D01*
X66728Y-71542D01*
X67242Y-71514D02*
X67185Y-71542D01*
X67071Y-71542D01*
X67014Y-71514D01*
X66985Y-71457D01*
X66985Y-71228D01*
X67014Y-71171D01*
X67071Y-71142D01*
X67185Y-71142D01*
X67242Y-71171D01*
X67271Y-71228D01*
X67271Y-71285D01*
X66985Y-71342D01*
X67785Y-71542D02*
X67785Y-70942D01*
X67785Y-71514D02*
X67728Y-71542D01*
X67614Y-71542D01*
X67557Y-71514D01*
X67528Y-71485D01*
X67500Y-71428D01*
X67500Y-71257D01*
X67528Y-71200D01*
X67557Y-71171D01*
X67614Y-71142D01*
X67728Y-71142D01*
X67785Y-71171D01*
X68071Y-71485D02*
X68100Y-71514D01*
X68071Y-71542D01*
X68042Y-71514D01*
X68071Y-71485D01*
X68071Y-71542D01*
X68071Y-71171D02*
X68100Y-71200D01*
X68071Y-71228D01*
X68042Y-71200D01*
X68071Y-71171D01*
X68071Y-71228D01*
X68814Y-71542D02*
X68814Y-70942D01*
X69042Y-70942D01*
X69099Y-70971D01*
X69128Y-71000D01*
X69157Y-71057D01*
X69157Y-71142D01*
X69128Y-71200D01*
X69099Y-71228D01*
X69042Y-71257D01*
X68814Y-71257D01*
X69671Y-71542D02*
X69671Y-71228D01*
X69642Y-71171D01*
X69585Y-71142D01*
X69471Y-71142D01*
X69414Y-71171D01*
X69671Y-71514D02*
X69614Y-71542D01*
X69471Y-71542D01*
X69414Y-71514D01*
X69385Y-71457D01*
X69385Y-71400D01*
X69414Y-71342D01*
X69471Y-71314D01*
X69614Y-71314D01*
X69671Y-71285D01*
X70214Y-71142D02*
X70214Y-71542D01*
X69957Y-71142D02*
X69957Y-71457D01*
X69985Y-71514D01*
X70042Y-71542D01*
X70128Y-71542D01*
X70185Y-71514D01*
X70214Y-71485D01*
X70585Y-71542D02*
X70528Y-71514D01*
X70499Y-71457D01*
X70499Y-70942D01*
X71614Y-71542D02*
X71414Y-71257D01*
X71271Y-71542D02*
X71271Y-70942D01*
X71500Y-70942D01*
X71557Y-70971D01*
X71585Y-71000D01*
X71614Y-71057D01*
X71614Y-71142D01*
X71585Y-71200D01*
X71557Y-71228D01*
X71500Y-71257D01*
X71271Y-71257D01*
X72100Y-71514D02*
X72042Y-71542D01*
X71928Y-71542D01*
X71871Y-71514D01*
X71842Y-71457D01*
X71842Y-71228D01*
X71871Y-71171D01*
X71928Y-71142D01*
X72042Y-71142D01*
X72100Y-71171D01*
X72128Y-71228D01*
X72128Y-71285D01*
X71842Y-71342D01*
X72385Y-71542D02*
X72385Y-71142D01*
X72385Y-70942D02*
X72357Y-70971D01*
X72385Y-71000D01*
X72414Y-70971D01*
X72385Y-70942D01*
X72385Y-71000D01*
X72928Y-71514D02*
X72871Y-71542D01*
X72757Y-71542D01*
X72700Y-71514D01*
X72671Y-71485D01*
X72642Y-71428D01*
X72642Y-71257D01*
X72671Y-71200D01*
X72700Y-71171D01*
X72757Y-71142D01*
X72871Y-71142D01*
X72928Y-71171D01*
X73185Y-71542D02*
X73185Y-70942D01*
X73442Y-71542D02*
X73442Y-71228D01*
X73414Y-71171D01*
X73357Y-71142D01*
X73271Y-71142D01*
X73214Y-71171D01*
X73185Y-71200D01*
X64042Y-70342D02*
X64042Y-69742D01*
X64271Y-69742D01*
X64328Y-69771D01*
X64357Y-69800D01*
X64385Y-69857D01*
X64385Y-69942D01*
X64357Y-70000D01*
X64328Y-70028D01*
X64271Y-70057D01*
X64042Y-70057D01*
X64642Y-70342D02*
X64642Y-69942D01*
X64642Y-70057D02*
X64671Y-70000D01*
X64700Y-69971D01*
X64757Y-69942D01*
X64814Y-69942D01*
X65100Y-70342D02*
X65042Y-70314D01*
X65014Y-70285D01*
X64985Y-70228D01*
X64985Y-70057D01*
X65014Y-70000D01*
X65042Y-69971D01*
X65100Y-69942D01*
X65185Y-69942D01*
X65242Y-69971D01*
X65271Y-70000D01*
X65300Y-70057D01*
X65300Y-70228D01*
X65271Y-70285D01*
X65242Y-70314D01*
X65185Y-70342D01*
X65100Y-70342D01*
X65557Y-69942D02*
X65557Y-70457D01*
X65528Y-70514D01*
X65471Y-70542D01*
X65442Y-70542D01*
X65557Y-69742D02*
X65528Y-69771D01*
X65557Y-69800D01*
X65585Y-69771D01*
X65557Y-69742D01*
X65557Y-69800D01*
X66071Y-70314D02*
X66014Y-70342D01*
X65900Y-70342D01*
X65842Y-70314D01*
X65814Y-70257D01*
X65814Y-70028D01*
X65842Y-69971D01*
X65900Y-69942D01*
X66014Y-69942D01*
X66071Y-69971D01*
X66100Y-70028D01*
X66100Y-70085D01*
X65814Y-70142D01*
X66614Y-70314D02*
X66557Y-70342D01*
X66442Y-70342D01*
X66385Y-70314D01*
X66357Y-70285D01*
X66328Y-70228D01*
X66328Y-70057D01*
X66357Y-70000D01*
X66385Y-69971D01*
X66442Y-69942D01*
X66557Y-69942D01*
X66614Y-69971D01*
X66785Y-69942D02*
X67014Y-69942D01*
X66871Y-69742D02*
X66871Y-70257D01*
X66900Y-70314D01*
X66957Y-70342D01*
X67014Y-70342D01*
X67671Y-70342D02*
X67671Y-69742D01*
X67871Y-70171D01*
X68071Y-69742D01*
X68071Y-70342D01*
X68614Y-69942D02*
X68614Y-70428D01*
X68585Y-70485D01*
X68557Y-70514D01*
X68500Y-70542D01*
X68414Y-70542D01*
X68357Y-70514D01*
X68614Y-70314D02*
X68557Y-70342D01*
X68442Y-70342D01*
X68385Y-70314D01*
X68357Y-70285D01*
X68328Y-70228D01*
X68328Y-70057D01*
X68357Y-70000D01*
X68385Y-69971D01*
X68442Y-69942D01*
X68557Y-69942D01*
X68614Y-69971D01*
X68900Y-70342D02*
X68900Y-69942D01*
X68900Y-70057D02*
X68928Y-70000D01*
X68957Y-69971D01*
X69014Y-69942D01*
X69071Y-69942D01*
X69271Y-70285D02*
X69300Y-70314D01*
X69271Y-70342D01*
X69242Y-70314D01*
X69271Y-70285D01*
X69271Y-70342D01*
X69271Y-69971D02*
X69300Y-70000D01*
X69271Y-70028D01*
X69242Y-70000D01*
X69271Y-69971D01*
X69271Y-70028D01*
X70357Y-70342D02*
X70157Y-70057D01*
X70014Y-70342D02*
X70014Y-69742D01*
X70242Y-69742D01*
X70300Y-69771D01*
X70328Y-69800D01*
X70357Y-69857D01*
X70357Y-69942D01*
X70328Y-70000D01*
X70300Y-70028D01*
X70242Y-70057D01*
X70014Y-70057D01*
X70614Y-70285D02*
X70642Y-70314D01*
X70614Y-70342D01*
X70585Y-70314D01*
X70614Y-70285D01*
X70614Y-70342D01*
X71700Y-70342D02*
X71500Y-70057D01*
X71357Y-70342D02*
X71357Y-69742D01*
X71585Y-69742D01*
X71642Y-69771D01*
X71671Y-69800D01*
X71700Y-69857D01*
X71700Y-69942D01*
X71671Y-70000D01*
X71642Y-70028D01*
X71585Y-70057D01*
X71357Y-70057D01*
X71957Y-70342D02*
X71957Y-69942D01*
X71957Y-69742D02*
X71928Y-69771D01*
X71957Y-69800D01*
X71985Y-69771D01*
X71957Y-69742D01*
X71957Y-69800D01*
X72214Y-70314D02*
X72271Y-70342D01*
X72385Y-70342D01*
X72442Y-70314D01*
X72471Y-70257D01*
X72471Y-70228D01*
X72442Y-70171D01*
X72385Y-70142D01*
X72300Y-70142D01*
X72242Y-70114D01*
X72214Y-70057D01*
X72214Y-70028D01*
X72242Y-69971D01*
X72300Y-69942D01*
X72385Y-69942D01*
X72442Y-69971D01*
X72642Y-69942D02*
X72871Y-69942D01*
X72728Y-69742D02*
X72728Y-70257D01*
X72757Y-70314D01*
X72814Y-70342D01*
X72871Y-70342D01*
X73071Y-70342D02*
X73071Y-69942D01*
X73071Y-69742D02*
X73042Y-69771D01*
X73071Y-69800D01*
X73100Y-69771D01*
X73071Y-69742D01*
X73071Y-69800D01*
X73614Y-70314D02*
X73557Y-70342D01*
X73442Y-70342D01*
X73385Y-70314D01*
X73357Y-70285D01*
X73328Y-70228D01*
X73328Y-70057D01*
X73357Y-70000D01*
X73385Y-69971D01*
X73442Y-69942D01*
X73557Y-69942D01*
X73614Y-69971D01*
X73871Y-70342D02*
X73871Y-69742D01*
X74128Y-70342D02*
X74128Y-70028D01*
X74100Y-69971D01*
X74042Y-69942D01*
X73957Y-69942D01*
X73900Y-69971D01*
X73871Y-70000D01*
X64328Y-69142D02*
X64042Y-69142D01*
X64042Y-68542D01*
X64528Y-69142D02*
X64528Y-68542D01*
X65157Y-69085D02*
X65128Y-69114D01*
X65042Y-69142D01*
X64985Y-69142D01*
X64899Y-69114D01*
X64842Y-69057D01*
X64814Y-69000D01*
X64785Y-68885D01*
X64785Y-68800D01*
X64814Y-68685D01*
X64842Y-68628D01*
X64899Y-68571D01*
X64985Y-68542D01*
X65042Y-68542D01*
X65128Y-68571D01*
X65157Y-68600D01*
X65414Y-68828D02*
X65614Y-68828D01*
X65699Y-69142D02*
X65414Y-69142D01*
X65414Y-68542D01*
X65699Y-68542D01*
X65957Y-69142D02*
X65957Y-68542D01*
X66299Y-69142D01*
X66299Y-68542D01*
X66557Y-69114D02*
X66642Y-69142D01*
X66785Y-69142D01*
X66842Y-69114D01*
X66871Y-69085D01*
X66899Y-69028D01*
X66899Y-68971D01*
X66871Y-68914D01*
X66842Y-68885D01*
X66785Y-68857D01*
X66671Y-68828D01*
X66614Y-68800D01*
X66585Y-68771D01*
X66557Y-68714D01*
X66557Y-68657D01*
X66585Y-68600D01*
X66614Y-68571D01*
X66671Y-68542D01*
X66814Y-68542D01*
X66899Y-68571D01*
X67157Y-68828D02*
X67357Y-68828D01*
X67442Y-69142D02*
X67157Y-69142D01*
X67157Y-68542D01*
X67442Y-68542D01*
X67699Y-69085D02*
X67728Y-69114D01*
X67699Y-69142D01*
X67671Y-69114D01*
X67699Y-69085D01*
X67699Y-69142D01*
X67699Y-68771D02*
X67728Y-68800D01*
X67699Y-68828D01*
X67671Y-68800D01*
X67699Y-68771D01*
X67699Y-68828D01*
X68785Y-69085D02*
X68757Y-69114D01*
X68671Y-69142D01*
X68614Y-69142D01*
X68528Y-69114D01*
X68471Y-69057D01*
X68442Y-69000D01*
X68414Y-68885D01*
X68414Y-68800D01*
X68442Y-68685D01*
X68471Y-68628D01*
X68528Y-68571D01*
X68614Y-68542D01*
X68671Y-68542D01*
X68757Y-68571D01*
X68785Y-68600D01*
X69385Y-69085D02*
X69357Y-69114D01*
X69271Y-69142D01*
X69214Y-69142D01*
X69128Y-69114D01*
X69071Y-69057D01*
X69042Y-69000D01*
X69014Y-68885D01*
X69014Y-68800D01*
X69042Y-68685D01*
X69071Y-68628D01*
X69128Y-68571D01*
X69214Y-68542D01*
X69271Y-68542D01*
X69357Y-68571D01*
X69385Y-68600D01*
X69642Y-68914D02*
X70099Y-68914D01*
X70585Y-68828D02*
X70671Y-68857D01*
X70699Y-68885D01*
X70728Y-68942D01*
X70728Y-69028D01*
X70699Y-69085D01*
X70671Y-69114D01*
X70614Y-69142D01*
X70385Y-69142D01*
X70385Y-68542D01*
X70585Y-68542D01*
X70642Y-68571D01*
X70671Y-68600D01*
X70699Y-68657D01*
X70699Y-68714D01*
X70671Y-68771D01*
X70642Y-68800D01*
X70585Y-68828D01*
X70385Y-68828D01*
X71099Y-68857D02*
X71099Y-69142D01*
X70899Y-68542D02*
X71099Y-68857D01*
X71299Y-68542D01*
X71499Y-68914D02*
X71957Y-68914D01*
X72214Y-69114D02*
X72299Y-69142D01*
X72442Y-69142D01*
X72499Y-69114D01*
X72528Y-69085D01*
X72557Y-69028D01*
X72557Y-68971D01*
X72528Y-68914D01*
X72499Y-68885D01*
X72442Y-68857D01*
X72328Y-68828D01*
X72271Y-68800D01*
X72242Y-68771D01*
X72214Y-68714D01*
X72214Y-68657D01*
X72242Y-68600D01*
X72271Y-68571D01*
X72328Y-68542D01*
X72471Y-68542D01*
X72557Y-68571D01*
X72785Y-68971D02*
X73071Y-68971D01*
X72728Y-69142D02*
X72928Y-68542D01*
X73128Y-69142D01*
X73328Y-68914D02*
X73785Y-68914D01*
X74014Y-68542D02*
X74385Y-68542D01*
X74185Y-68771D01*
X74271Y-68771D01*
X74328Y-68800D01*
X74357Y-68828D01*
X74385Y-68885D01*
X74385Y-69028D01*
X74357Y-69085D01*
X74328Y-69114D01*
X74271Y-69142D01*
X74100Y-69142D01*
X74042Y-69114D01*
X74014Y-69085D01*
X74642Y-69085D02*
X74671Y-69114D01*
X74642Y-69142D01*
X74614Y-69114D01*
X74642Y-69085D01*
X74642Y-69142D01*
X75042Y-68542D02*
X75100Y-68542D01*
X75157Y-68571D01*
X75185Y-68600D01*
X75214Y-68657D01*
X75242Y-68771D01*
X75242Y-68914D01*
X75214Y-69028D01*
X75185Y-69085D01*
X75157Y-69114D01*
X75100Y-69142D01*
X75042Y-69142D01*
X74985Y-69114D01*
X74957Y-69085D01*
X74928Y-69028D01*
X74900Y-68914D01*
X74900Y-68771D01*
X74928Y-68657D01*
X74957Y-68600D01*
X74985Y-68571D01*
X75042Y-68542D01*
X63300Y-68300D02*
X63300Y-80300D01*
X63300Y-74300D02*
X105300Y-74300D01*
X63300Y-68300D02*
X105300Y-68300D01*
X63300Y-76700D02*
X105300Y-76700D01*
X96500Y-77900D02*
X96500Y-80300D01*
X63300Y-79100D02*
X105300Y-79100D01*
X63300Y-77900D02*
X105300Y-77900D01*
X69900Y-77900D02*
X69900Y-79100D01*
G54D11*
X66250Y-38500D02*
X66750Y-39000D01*
X48000Y-38500D02*
X47500Y-39000D01*
X48000Y-38500D02*
X66250Y-38500D01*
X79250Y-46250D02*
X78000Y-47500D01*
X66750Y-46250D02*
X66750Y-39000D01*
X68000Y-47500D02*
X66750Y-46250D01*
X78000Y-47500D02*
X68000Y-47500D01*
X79250Y-16750D02*
X79250Y-46250D01*
X36250Y-47500D02*
X35000Y-46250D01*
X47500Y-46250D02*
X47500Y-39000D01*
X46250Y-47500D02*
X47500Y-46250D01*
X36250Y-47500D02*
X46250Y-47500D01*
X35000Y-16750D02*
X35000Y-46250D01*
X34500Y-12750D02*
G75*
G03X34500Y-12750I-1000J0D01*
G74*
G01*
X32000Y-12750D02*
X35000Y-12750D01*
X33500Y-11250D02*
X33500Y-14250D01*
X81500Y-49000D02*
G75*
G03X81500Y-49000I-1000J0D01*
G74*
G01*
X79000Y-49000D02*
X82000Y-49000D01*
X80500Y-47500D02*
X80500Y-50500D01*
X79250Y-16750D02*
X79000Y-16500D01*
X35000Y-16750D02*
X35250Y-16500D01*
X79000Y-16500D02*
X35250Y-16500D01*
G54D12*
X68261Y-18258D03*
X68005Y-18258D03*
X67750Y-18258D03*
X67494Y-18258D03*
X67238Y-18258D03*
G54D13*
X55300Y-29750D03*
X55900Y-29750D03*
X57550Y-21250D03*
X56950Y-21250D03*
X58200Y-21250D03*
X58800Y-21250D03*
X57500Y-23050D03*
X56900Y-23050D03*
X58200Y-22250D03*
X58800Y-22250D03*
X52650Y-33450D03*
X52050Y-33450D03*
X56300Y-22250D03*
X55700Y-22250D03*
G54D14*
X56000Y-30650D03*
X56000Y-31250D03*
G54D13*
X61950Y-29900D03*
X61350Y-29900D03*
G54D14*
X63500Y-33600D03*
X63500Y-33000D03*
X50225Y-25025D03*
X50225Y-24425D03*
G54D15*
X59850Y-28400D03*
X60165Y-28400D03*
X60480Y-28400D03*
X60795Y-28400D03*
X61110Y-28400D03*
X61425Y-28400D03*
X59535Y-28400D03*
X59220Y-28400D03*
X58905Y-28400D03*
X58590Y-28400D03*
X58275Y-28400D03*
X59850Y-23900D03*
X60165Y-23900D03*
X60480Y-23900D03*
X60795Y-23900D03*
X61110Y-23900D03*
X61425Y-23900D03*
X59535Y-23900D03*
X59220Y-23900D03*
X58905Y-23900D03*
X58590Y-23900D03*
X58275Y-23900D03*
G54D16*
X62100Y-26150D03*
X57600Y-26150D03*
X62100Y-25835D03*
X57600Y-25835D03*
X57600Y-25520D03*
X62100Y-25520D03*
X62100Y-25205D03*
X57600Y-25205D03*
X57600Y-24890D03*
X62100Y-24890D03*
X62100Y-24575D03*
X57600Y-24575D03*
X57600Y-26465D03*
X62100Y-26465D03*
X62100Y-26780D03*
X57600Y-26780D03*
X57600Y-27095D03*
X62100Y-27095D03*
X62100Y-27410D03*
X57600Y-27410D03*
X57600Y-27725D03*
X62100Y-27725D03*
G54D17*
X51850Y-23975D03*
X51100Y-23975D03*
X51850Y-24975D03*
X51475Y-23975D03*
X51100Y-24975D03*
X51850Y-26975D03*
X51100Y-26975D03*
X51850Y-27975D03*
X51475Y-26975D03*
X51100Y-27975D03*
G54D18*
X68600Y-31400D03*
X68100Y-31400D03*
X67600Y-31400D03*
X67100Y-31400D03*
X66600Y-31400D03*
X66100Y-31400D03*
X65600Y-31400D03*
X65100Y-31400D03*
X65100Y-33400D03*
X65600Y-33400D03*
X66100Y-33400D03*
X66600Y-33400D03*
X67100Y-33400D03*
X67600Y-33400D03*
X68100Y-33400D03*
X68600Y-33400D03*
G54D19*
X55050Y-28700D03*
X56350Y-28700D03*
X51625Y-28975D03*
X50325Y-28975D03*
X51625Y-25975D03*
X50325Y-25975D03*
G54D13*
X61900Y-33500D03*
X62500Y-33500D03*
X60700Y-33500D03*
X61300Y-33500D03*
X63200Y-25750D03*
X63800Y-25750D03*
X63800Y-25050D03*
X64400Y-25050D03*
G54D14*
X50225Y-28025D03*
X50225Y-27425D03*
G54D13*
X67650Y-19950D03*
X67050Y-19950D03*
X68200Y-20350D03*
X68800Y-20350D03*
X63800Y-26550D03*
X63200Y-26550D03*
X66350Y-19250D03*
X66950Y-19250D03*
X63800Y-27250D03*
X63200Y-27250D03*
G54D14*
X56150Y-24250D03*
X56150Y-24850D03*
G54D20*
X46100Y-21750D03*
X47399Y-21750D03*
G54D21*
X67750Y-35850D03*
X67750Y-37149D03*
X69000Y-35850D03*
X69000Y-37149D03*
G54D22*
X60375Y-22250D03*
X62425Y-22250D03*
X62425Y-20850D03*
X60375Y-20850D03*
G54D19*
X68600Y-19450D03*
X69900Y-19450D03*
G54D13*
X57650Y-29100D03*
X58250Y-29100D03*
G54D14*
X64250Y-21950D03*
X64250Y-22550D03*
X65000Y-21950D03*
X65000Y-22550D03*
G54D19*
X51625Y-22975D03*
X50325Y-22975D03*
G54D13*
X56700Y-33500D03*
X57300Y-33500D03*
X52050Y-32850D03*
X52650Y-32850D03*
X56950Y-22250D03*
X57550Y-22250D03*
X61080Y-23260D03*
X60480Y-23260D03*
G54D14*
X56900Y-24850D03*
X56900Y-24250D03*
M02*
