M48
;DRILL file {Pcbnew (2013-dec-23)-stable} date Wed 26 Feb 2014 13:06:31 CST
;FORMAT={-:-/ absolute / inch / decimal}
FMAT,2
INCH,TZ
T1C0.020
T2C0.022
T3C0.028
T4C0.030
T5C0.032
T6C0.032
T7C0.035
T8C0.037
T9C0.038
T10C0.039
T11C0.040
%
G90
G05
M72
T1
X5.17Y-3.215
X5.23Y-2.175
X5.235Y-2.895
X5.295Y-3.56
X5.305Y-2.325
X5.315Y-2.6
X5.325Y-2.175
X5.34Y-3.345
X5.4Y-3.52
X5.43Y-1.915
X5.5Y-3.52
X5.535Y-2.28
X5.575Y-1.915
X5.6Y-2.17
X5.61Y-2.385
X5.645Y-2.28
X5.665Y-3.265
X5.705Y-2.855
X5.715Y-2.4
X5.735Y-3.58
X5.75Y-3.535
X5.765Y-2.815
X5.79Y-2.035
X5.79Y-2.42
X5.81Y-2.28
X5.82Y-2.5
X5.845Y-2.035
X5.88Y-2.915
X5.915Y-1.855
X5.92Y-2.28
X5.95Y-1.82
X6.015Y-3.19
X6.03Y-2.45
X6.065Y-3.19
X6.07Y-2.775
X6.075Y-2.005
X6.1Y-2.47
X6.115Y-1.855
X6.13Y-3.055
X6.13Y-3.1
X6.13Y-3.145
X6.13Y-3.19
X6.145Y-2.455
X6.15Y-1.82
X6.15Y-2.775
X6.16Y-2.305
X6.19Y-1.855
X6.19Y-1.915
X6.19Y-2.39
X6.235Y-2.915
X6.235Y-2.96
X6.27Y-2.38
X6.27Y-2.645
X6.27Y-2.74
X6.27Y-2.795
X6.325Y-2.38
X6.325Y-2.425
X6.325Y-2.475
X6.355Y-2.96
X6.39Y-2.38
X6.405Y-2.915
X6.44Y-2.6
X6.44Y-2.645
X6.44Y-2.69
X6.44Y-3.26
X6.46Y-3.485
X6.52Y-3.485
X6.595Y-3.485
X6.66Y-3.26
X6.675Y-3.485
X6.742Y-2.185
X6.755Y-1.945
X6.76Y-3.08
X6.76Y-3.195
X6.76Y-3.26
X6.77Y-2.09
X6.815Y-2.09
T4
X5.05Y-1.95
X5.05Y-3.45
X5.15Y-1.95
X5.15Y-3.45
X5.25Y-3.45
X5.35Y-3.45
X5.45Y-3.45
X5.55Y-3.45
X5.65Y-3.45
X5.75Y-3.45
X5.85Y-3.45
X5.95Y-3.45
X6.05Y-3.45
X6.15Y-3.45
X6.25Y-1.95
X6.25Y-3.45
X6.35Y-1.95
X6.35Y-3.45
T5
X4.1356Y-1.95
X4.2144Y-1.95
X6.6Y-2.8106
X6.6Y-2.8894
T6
X4.64Y-1.75
X4.74Y-1.75
X4.84Y-1.75
X4.86Y-2.09
X4.86Y-2.39
X4.94Y-1.75
X5.Y-3.65
X5.04Y-1.75
X5.1Y-3.65
X5.14Y-1.75
X5.2Y-3.65
X5.24Y-1.75
X5.3Y-3.65
X5.34Y-1.75
X5.4Y-3.65
X5.44Y-1.75
X5.5Y-3.65
X5.54Y-1.75
X5.6Y-3.65
X5.7Y-3.65
T7
X5.7Y-1.75
X5.8Y-1.75
X5.9Y-1.75
X5.9Y-3.65
X6.Y-1.75
X6.Y-3.65
X6.1Y-1.75
X6.1Y-3.65
X6.2Y-1.75
X6.2Y-3.65
X6.3Y-1.75
X6.3Y-3.65
X6.4Y-1.75
X6.4Y-3.65
T8
X4.005Y-4.25
X7.445Y-3.43
T9
X4.005Y-3.43
X4.065Y-3.84
X4.125Y-3.43
X4.125Y-4.25
X7.325Y-3.43
X7.325Y-4.25
X7.385Y-3.84
X7.445Y-4.25
T11
X3.8634Y-2.572
X3.8634Y-2.828
X4.0366Y-2.572
X4.0386Y-2.828
X4.4634Y-2.572
X4.4634Y-2.828
X4.547Y-3.4384
X4.547Y-3.6136
X4.6366Y-2.572
X4.6386Y-2.828
X4.803Y-3.4384
X4.803Y-3.6116
X5.725Y-3.025
X5.725Y-3.125
X5.825Y-3.025
X5.825Y-3.125
X5.925Y-3.025
X5.925Y-3.125
X6.8134Y-2.572
X6.8134Y-2.828
X6.9866Y-2.572
X6.9886Y-2.828
X7.1134Y-2.272
X7.1134Y-2.528
X7.1134Y-2.872
X7.1134Y-3.128
X7.2866Y-2.272
X7.2866Y-2.872
X7.2886Y-2.528
X7.2886Y-3.128
X7.4134Y-2.572
X7.4134Y-2.828
X7.5866Y-2.572
X7.5886Y-2.828
T2
X6.6333Y-1.7914G85X6.6333Y-1.8307
G05
X6.9167Y-1.7914G85X6.9167Y-1.8307
G05
T3
X6.6451Y-1.6931G85X6.6451Y-1.74
G05
X6.9049Y-1.6931G85X6.9049Y-1.74
G05
T10
X3.7576Y-1.99G85X3.7103Y-1.99
G05
X3.7576Y-2.2261G85X3.7103Y-2.2261
G05
X3.919Y-2.0845G85X3.919Y-2.1317
G05
T0
M30
