G04 (created by PCBNEW (2013-dec-23)-stable) date Sat 29 Mar 2014 16:16:08 CDT*
%MOIN*%
G04 Gerber Fmt 3.4, Leading zero omitted, Abs format*
%FSLAX34Y34*%
G01*
G70*
G90*
G04 APERTURE LIST*
%ADD10C,0.005*%
%ADD11C,0.006*%
%ADD12C,0.00787402*%
%ADD13C,0.011811*%
G04 APERTURE END LIST*
G54D10*
G54D11*
X38600Y15650D02*
G75*
G03X32350Y21900I-6250J0D01*
G74*
G01*
X600Y21900D02*
G75*
G03X-5650Y15650I0J-6250D01*
G74*
G01*
X600Y-9100D02*
G75*
G03X6850Y-2850I0J6250D01*
G74*
G01*
X-5650Y-2850D02*
G75*
G03X600Y-9100I6250J0D01*
G74*
G01*
X32350Y-9100D02*
G75*
G03X38600Y-2850I0J6250D01*
G74*
G01*
X26100Y-2850D02*
G75*
G03X32350Y-9100I6250J0D01*
G74*
G01*
X6850Y-2850D02*
X26100Y-2850D01*
X38600Y15650D02*
X38600Y-2850D01*
X-5650Y15650D02*
X-5650Y-3100D01*
X32350Y21900D02*
X600Y21900D01*
G54D12*
X11000Y16750D02*
X11200Y16550D01*
X11200Y16750D02*
X11000Y16550D01*
X11600Y9550D02*
X11800Y9350D01*
X11800Y9550D02*
X11600Y9350D01*
X12250Y16750D02*
X12450Y16550D01*
X12450Y16750D02*
X12250Y16550D01*
X12250Y15750D02*
X12450Y15550D01*
X12450Y15750D02*
X12250Y15550D01*
X12250Y12500D02*
X12450Y12300D01*
X12450Y12500D02*
X12250Y12300D01*
X12250Y6500D02*
X12450Y6300D01*
X12450Y6500D02*
X12250Y6300D01*
X13500Y19250D02*
X13700Y19050D01*
X13700Y19250D02*
X13500Y19050D01*
X13750Y2650D02*
X13950Y2450D01*
X13950Y2650D02*
X13750Y2450D01*
X15000Y19250D02*
X15200Y19050D01*
X15200Y19250D02*
X15000Y19050D01*
X15000Y18100D02*
X15200Y17900D01*
X15200Y18100D02*
X15000Y17900D01*
X15000Y17600D02*
X15200Y17400D01*
X15200Y17600D02*
X15000Y17400D01*
X15250Y16750D02*
X15450Y16550D01*
X15450Y16750D02*
X15250Y16550D01*
X15500Y15000D02*
X15700Y14800D01*
X15700Y15000D02*
X15500Y14800D01*
X16300Y9850D02*
X16500Y9650D01*
X16500Y9850D02*
X16300Y9650D01*
X16750Y18850D02*
X16950Y18650D01*
X16950Y18850D02*
X16750Y18650D01*
X16750Y10250D02*
X16950Y10050D01*
X16950Y10250D02*
X16750Y10050D01*
X16900Y16850D02*
X17100Y16650D01*
X17100Y16850D02*
X16900Y16650D01*
X17000Y15500D02*
X17200Y15300D01*
X17200Y15500D02*
X17000Y15300D01*
X17000Y2750D02*
X17200Y2550D01*
X17200Y2750D02*
X17000Y2550D01*
X17000Y2250D02*
X17200Y2050D01*
X17200Y2250D02*
X17000Y2050D01*
X17500Y14000D02*
X17700Y13800D01*
X17700Y14000D02*
X17500Y13800D01*
X17500Y13250D02*
X17700Y13050D01*
X17700Y13250D02*
X17500Y13050D01*
X17750Y19250D02*
X17950Y19050D01*
X17950Y19250D02*
X17750Y19050D01*
X17900Y9350D02*
X18100Y9150D01*
X18100Y9350D02*
X17900Y9150D01*
X18400Y19950D02*
X18600Y19750D01*
X18600Y19950D02*
X18400Y19750D01*
X18500Y16500D02*
X18700Y16300D01*
X18700Y16500D02*
X18500Y16300D01*
X18750Y20300D02*
X18950Y20100D01*
X18950Y20300D02*
X18750Y20100D01*
X19250Y7500D02*
X19450Y7300D01*
X19450Y7500D02*
X19250Y7300D01*
X19500Y14000D02*
X19700Y13800D01*
X19700Y14000D02*
X19500Y13800D01*
X19750Y7500D02*
X19950Y7300D01*
X19950Y7500D02*
X19750Y7300D01*
X19950Y10750D02*
X20150Y10550D01*
X20150Y10750D02*
X19950Y10550D01*
X20000Y14000D02*
X20200Y13800D01*
X20200Y14000D02*
X20000Y13800D01*
X20250Y7500D02*
X20450Y7300D01*
X20450Y7500D02*
X20250Y7300D01*
X20400Y19950D02*
X20600Y19750D01*
X20600Y19950D02*
X20400Y19750D01*
X20500Y14000D02*
X20700Y13800D01*
X20700Y14000D02*
X20500Y13800D01*
X20600Y17750D02*
X20800Y17550D01*
X20800Y17750D02*
X20600Y17550D01*
X20740Y10750D02*
X20940Y10550D01*
X20940Y10750D02*
X20740Y10550D01*
X20750Y8500D02*
X20950Y8300D01*
X20950Y8500D02*
X20750Y8300D01*
X20750Y8000D02*
X20950Y7800D01*
X20950Y8000D02*
X20750Y7800D01*
X20750Y7500D02*
X20950Y7300D01*
X20950Y7500D02*
X20750Y7300D01*
X20800Y20300D02*
X21000Y20100D01*
X21000Y20300D02*
X20800Y20100D01*
X20850Y15450D02*
X21050Y15250D01*
X21050Y15450D02*
X20850Y15250D01*
X21150Y19950D02*
X21350Y19750D01*
X21350Y19950D02*
X21150Y19750D01*
X21150Y19350D02*
X21350Y19150D01*
X21350Y19350D02*
X21150Y19150D01*
X21150Y14600D02*
X21350Y14400D01*
X21350Y14600D02*
X21150Y14400D01*
X21750Y9300D02*
X21950Y9100D01*
X21950Y9300D02*
X21750Y9100D01*
X21750Y8850D02*
X21950Y8650D01*
X21950Y8850D02*
X21750Y8650D01*
X21950Y14700D02*
X22150Y14500D01*
X22150Y14700D02*
X21950Y14500D01*
X21950Y11100D02*
X22150Y10900D01*
X22150Y11100D02*
X21950Y10900D01*
X21950Y10550D02*
X22150Y10350D01*
X22150Y10550D02*
X21950Y10350D01*
X22500Y14700D02*
X22700Y14500D01*
X22700Y14700D02*
X22500Y14500D01*
X22500Y14250D02*
X22700Y14050D01*
X22700Y14250D02*
X22500Y14050D01*
X22500Y13750D02*
X22700Y13550D01*
X22700Y13750D02*
X22500Y13550D01*
X22800Y8850D02*
X23000Y8650D01*
X23000Y8850D02*
X22800Y8650D01*
X23150Y14700D02*
X23350Y14500D01*
X23350Y14700D02*
X23150Y14500D01*
X23300Y9300D02*
X23500Y9100D01*
X23500Y9300D02*
X23300Y9100D01*
X23650Y12050D02*
X23850Y11850D01*
X23850Y12050D02*
X23650Y11850D01*
X23650Y11600D02*
X23850Y11400D01*
X23850Y11600D02*
X23650Y11400D01*
X24250Y3350D02*
X24450Y3150D01*
X24450Y3350D02*
X24250Y3150D01*
X24750Y7600D02*
X24950Y7400D01*
X24950Y7600D02*
X24750Y7400D01*
X24750Y3350D02*
X24950Y3150D01*
X24950Y3350D02*
X24750Y3150D01*
X25500Y3350D02*
X25700Y3150D01*
X25700Y3350D02*
X25500Y3150D01*
X26670Y16650D02*
X26870Y16450D01*
X26870Y16650D02*
X26670Y16450D01*
X26750Y7100D02*
X26950Y6900D01*
X26950Y7100D02*
X26750Y6900D01*
X26750Y6600D02*
X26950Y6400D01*
X26950Y6600D02*
X26750Y6400D01*
X26750Y5600D02*
X26950Y5400D01*
X26950Y5600D02*
X26750Y5400D01*
X26750Y5100D02*
X26950Y4900D01*
X26950Y5100D02*
X26750Y4900D01*
X26750Y4600D02*
X26950Y4400D01*
X26950Y4600D02*
X26750Y4400D01*
X26800Y19050D02*
X27000Y18850D01*
X27000Y19050D02*
X26800Y18850D01*
X26950Y17600D02*
X27150Y17400D01*
X27150Y17600D02*
X26950Y17400D01*
X27250Y3350D02*
X27450Y3150D01*
X27450Y3350D02*
X27250Y3150D01*
X27400Y17600D02*
X27600Y17400D01*
X27600Y17600D02*
X27400Y17400D01*
X25792Y20289D02*
G75*
G03X25792Y20289I-110J0D01*
G74*
G01*
X25611Y20486D02*
X25611Y20092D01*
X25753Y20486D02*
X25753Y20092D01*
X25611Y20092D02*
G75*
G03X25753Y20092I70J0D01*
G74*
G01*
X25753Y20486D02*
G75*
G03X25611Y20486I-70J0D01*
G74*
G01*
X28627Y20289D02*
G75*
G03X28627Y20289I-110J0D01*
G74*
G01*
X28446Y20486D02*
X28446Y20092D01*
X28588Y20486D02*
X28588Y20092D01*
X28446Y20092D02*
G75*
G03X28588Y20092I70J0D01*
G74*
G01*
X28588Y20486D02*
G75*
G03X28446Y20486I-70J0D01*
G74*
G01*
X25800Y21374D02*
X25800Y21094D01*
X25661Y21234D02*
X25940Y21234D01*
X25700Y21468D02*
X25700Y21000D01*
X25901Y21468D02*
X25901Y21000D01*
X25700Y21000D02*
G75*
G03X25901Y21000I100J0D01*
G74*
G01*
X25901Y21468D02*
G75*
G03X25700Y21468I-100J0D01*
G74*
G01*
X28399Y21374D02*
X28399Y21094D01*
X28259Y21234D02*
X28538Y21234D01*
X28298Y21468D02*
X28298Y21000D01*
X28499Y21468D02*
X28499Y21000D01*
X28298Y21000D02*
G75*
G03X28499Y21000I100J0D01*
G74*
G01*
X28499Y21468D02*
G75*
G03X28298Y21468I-100J0D01*
G74*
G01*
X4961Y18932D02*
X4961Y19155D01*
X4738Y19155D01*
X4738Y18932D01*
X4961Y18932D01*
X4961Y18144D02*
X4961Y18367D01*
X4738Y18367D01*
X4738Y18144D01*
X4961Y18144D01*
X5861Y20788D02*
X5861Y21011D01*
X5638Y21011D01*
X5638Y20788D01*
X5861Y20788D01*
X6861Y20788D02*
X6861Y21011D01*
X6638Y21011D01*
X6638Y20788D01*
X6861Y20788D01*
X7861Y20788D02*
X7861Y21011D01*
X7638Y21011D01*
X7638Y20788D01*
X7861Y20788D01*
X8061Y17388D02*
X8061Y17611D01*
X7838Y17611D01*
X7838Y17388D01*
X8061Y17388D01*
X8061Y14388D02*
X8061Y14611D01*
X7838Y14611D01*
X7838Y14388D01*
X8061Y14388D01*
X8861Y20788D02*
X8861Y21011D01*
X8638Y21011D01*
X8638Y20788D01*
X8861Y20788D01*
X9461Y1788D02*
X9461Y2011D01*
X9238Y2011D01*
X9238Y1788D01*
X9461Y1788D01*
X9861Y20788D02*
X9861Y21011D01*
X9638Y21011D01*
X9638Y20788D01*
X9861Y20788D01*
X9961Y18788D02*
X9961Y19011D01*
X9738Y19011D01*
X9738Y18788D01*
X9961Y18788D01*
X9961Y3788D02*
X9961Y4011D01*
X9738Y4011D01*
X9738Y3788D01*
X9961Y3788D01*
X10461Y1788D02*
X10461Y2011D01*
X10238Y2011D01*
X10238Y1788D01*
X10461Y1788D01*
X10861Y20788D02*
X10861Y21011D01*
X10638Y21011D01*
X10638Y20788D01*
X10861Y20788D01*
X10961Y18788D02*
X10961Y19011D01*
X10738Y19011D01*
X10738Y18788D01*
X10961Y18788D01*
X10961Y3788D02*
X10961Y4011D01*
X10738Y4011D01*
X10738Y3788D01*
X10961Y3788D01*
X11461Y1788D02*
X11461Y2011D01*
X11238Y2011D01*
X11238Y1788D01*
X11461Y1788D01*
X11861Y20788D02*
X11861Y21011D01*
X11638Y21011D01*
X11638Y20788D01*
X11861Y20788D01*
X11961Y3788D02*
X11961Y4011D01*
X11738Y4011D01*
X11738Y3788D01*
X11961Y3788D01*
X12461Y1788D02*
X12461Y2011D01*
X12238Y2011D01*
X12238Y1788D01*
X12461Y1788D01*
X12861Y20788D02*
X12861Y21011D01*
X12638Y21011D01*
X12638Y20788D01*
X12861Y20788D01*
X12961Y3788D02*
X12961Y4011D01*
X12738Y4011D01*
X12738Y3788D01*
X12961Y3788D01*
X13461Y1788D02*
X13461Y2011D01*
X13238Y2011D01*
X13238Y1788D01*
X13461Y1788D01*
X13861Y20788D02*
X13861Y21011D01*
X13638Y21011D01*
X13638Y20788D01*
X13861Y20788D01*
X13961Y3788D02*
X13961Y4011D01*
X13738Y4011D01*
X13738Y3788D01*
X13961Y3788D01*
X14461Y1788D02*
X14461Y2011D01*
X14238Y2011D01*
X14238Y1788D01*
X14461Y1788D01*
X14861Y20788D02*
X14861Y21011D01*
X14638Y21011D01*
X14638Y20788D01*
X14861Y20788D01*
X14961Y3788D02*
X14961Y4011D01*
X14738Y4011D01*
X14738Y3788D01*
X14961Y3788D01*
X15461Y1788D02*
X15461Y2011D01*
X15238Y2011D01*
X15238Y1788D01*
X15461Y1788D01*
X15961Y3788D02*
X15961Y4011D01*
X15738Y4011D01*
X15738Y3788D01*
X15961Y3788D01*
X16461Y20788D02*
X16461Y21011D01*
X16238Y21011D01*
X16238Y20788D01*
X16461Y20788D01*
X16461Y1788D02*
X16461Y2011D01*
X16238Y2011D01*
X16238Y1788D01*
X16461Y1788D01*
X16961Y3788D02*
X16961Y4011D01*
X16738Y4011D01*
X16738Y3788D01*
X16961Y3788D01*
X17461Y20788D02*
X17461Y21011D01*
X17238Y21011D01*
X17238Y20788D01*
X17461Y20788D01*
X17961Y3788D02*
X17961Y4011D01*
X17738Y4011D01*
X17738Y3788D01*
X17961Y3788D01*
X18461Y20788D02*
X18461Y21011D01*
X18238Y21011D01*
X18238Y20788D01*
X18461Y20788D01*
X18461Y1788D02*
X18461Y2011D01*
X18238Y2011D01*
X18238Y1788D01*
X18461Y1788D01*
X18961Y3788D02*
X18961Y4011D01*
X18738Y4011D01*
X18738Y3788D01*
X18961Y3788D01*
X19461Y20788D02*
X19461Y21011D01*
X19238Y21011D01*
X19238Y20788D01*
X19461Y20788D01*
X19461Y1788D02*
X19461Y2011D01*
X19238Y2011D01*
X19238Y1788D01*
X19461Y1788D01*
X19961Y3788D02*
X19961Y4011D01*
X19738Y4011D01*
X19738Y3788D01*
X19961Y3788D01*
X20461Y20788D02*
X20461Y21011D01*
X20238Y21011D01*
X20238Y20788D01*
X20461Y20788D01*
X20461Y1788D02*
X20461Y2011D01*
X20238Y2011D01*
X20238Y1788D01*
X20461Y1788D01*
X20961Y3788D02*
X20961Y4011D01*
X20738Y4011D01*
X20738Y3788D01*
X20961Y3788D01*
X21461Y20788D02*
X21461Y21011D01*
X21238Y21011D01*
X21238Y20788D01*
X21461Y20788D01*
X21461Y1788D02*
X21461Y2011D01*
X21238Y2011D01*
X21238Y1788D01*
X21461Y1788D01*
X21961Y18788D02*
X21961Y19011D01*
X21738Y19011D01*
X21738Y18788D01*
X21961Y18788D01*
X21961Y3788D02*
X21961Y4011D01*
X21738Y4011D01*
X21738Y3788D01*
X21961Y3788D01*
X22461Y20788D02*
X22461Y21011D01*
X22238Y21011D01*
X22238Y20788D01*
X22461Y20788D01*
X22461Y1788D02*
X22461Y2011D01*
X22238Y2011D01*
X22238Y1788D01*
X22461Y1788D01*
X22961Y18788D02*
X22961Y19011D01*
X22738Y19011D01*
X22738Y18788D01*
X22961Y18788D01*
X22961Y3788D02*
X22961Y4011D01*
X22738Y4011D01*
X22738Y3788D01*
X22961Y3788D01*
X23461Y20788D02*
X23461Y21011D01*
X23238Y21011D01*
X23238Y20788D01*
X23461Y20788D01*
X23461Y1788D02*
X23461Y2011D01*
X23238Y2011D01*
X23238Y1788D01*
X23461Y1788D01*
X25461Y9682D02*
X25461Y9905D01*
X25238Y9905D01*
X25238Y9682D01*
X25461Y9682D01*
X25461Y8894D02*
X25461Y9117D01*
X25238Y9117D01*
X25238Y8894D01*
X25461Y8894D01*
X-600Y3909D02*
X-409Y4100D01*
X-600Y4290D01*
X-790Y4100D01*
X-600Y3909D01*
X-600Y-4290D02*
X-409Y-4100D01*
X-600Y-3909D01*
X-790Y-4100D01*
X-600Y-4290D01*
X0Y-190D02*
X190Y0D01*
X0Y190D01*
X-190Y0D01*
X0Y-190D01*
X600Y3909D02*
X790Y4100D01*
X600Y4290D01*
X409Y4100D01*
X600Y3909D01*
X600Y-4290D02*
X790Y-4100D01*
X600Y-3909D01*
X409Y-4100D01*
X600Y-4290D01*
X32600Y3909D02*
X32790Y4100D01*
X32600Y4290D01*
X32409Y4100D01*
X32600Y3909D01*
X32600Y-4290D02*
X32790Y-4100D01*
X32600Y-3909D01*
X32409Y-4100D01*
X32600Y-4290D01*
X33200Y-190D02*
X33390Y0D01*
X33200Y190D01*
X33009Y0D01*
X33200Y-190D01*
X33800Y3909D02*
X33990Y4100D01*
X33800Y4290D01*
X33609Y4100D01*
X33800Y3909D01*
X33800Y-4290D02*
X33990Y-4100D01*
X33800Y-3909D01*
X33609Y-4100D01*
X33800Y-4290D01*
X-2212Y12876D02*
X-1819Y12482D01*
X-1819Y12876D02*
X-2212Y12482D01*
X-1819Y12679D02*
G75*
G03X-1819Y12679I-196J0D01*
G74*
G01*
X-2212Y10317D02*
X-1819Y9923D01*
X-1819Y10317D02*
X-2212Y9923D01*
X-1819Y10120D02*
G75*
G03X-1819Y10120I-196J0D01*
G74*
G01*
X-480Y12876D02*
X-87Y12482D01*
X-87Y12876D02*
X-480Y12482D01*
X-87Y12679D02*
G75*
G03X-87Y12679I-196J0D01*
G74*
G01*
X-461Y10317D02*
X-67Y9923D01*
X-67Y10317D02*
X-461Y9923D01*
X-67Y10120D02*
G75*
G03X-67Y10120I-196J0D01*
G74*
G01*
X942Y18596D02*
X1336Y18203D01*
X1336Y18596D02*
X942Y18203D01*
X1336Y18400D02*
G75*
G03X1336Y18400I-196J0D01*
G74*
G01*
X1375Y18557D02*
X903Y18557D01*
X1375Y18242D02*
X903Y18242D01*
X903Y18557D02*
G75*
G03X903Y18242I0J-157D01*
G74*
G01*
X1375Y18242D02*
G75*
G03X1375Y18557I0J157D01*
G74*
G01*
X942Y16236D02*
X1336Y15842D01*
X1336Y16236D02*
X942Y15842D01*
X1336Y16039D02*
G75*
G03X1336Y16039I-196J0D01*
G74*
G01*
X1375Y16196D02*
X903Y16196D01*
X1375Y15881D02*
X903Y15881D01*
X903Y16196D02*
G75*
G03X903Y15881I0J-157D01*
G74*
G01*
X1375Y15881D02*
G75*
G03X1375Y16196I0J157D01*
G74*
G01*
X2792Y17415D02*
X3186Y17022D01*
X3186Y17415D02*
X2792Y17022D01*
X3186Y17218D02*
G75*
G03X3186Y17218I-196J0D01*
G74*
G01*
X2832Y17455D02*
X2832Y16982D01*
X3147Y17455D02*
X3147Y16982D01*
X2832Y16982D02*
G75*
G03X3147Y16982I157J0D01*
G74*
G01*
X3147Y17455D02*
G75*
G03X2832Y17455I-157J0D01*
G74*
G01*
X3787Y12876D02*
X4180Y12482D01*
X4180Y12876D02*
X3787Y12482D01*
X4180Y12679D02*
G75*
G03X4180Y12679I-196J0D01*
G74*
G01*
X3787Y10317D02*
X4180Y9923D01*
X4180Y10317D02*
X3787Y9923D01*
X4180Y10120D02*
G75*
G03X4180Y10120I-196J0D01*
G74*
G01*
X4773Y4312D02*
X5167Y3919D01*
X5167Y4312D02*
X4773Y3919D01*
X5167Y4116D02*
G75*
G03X5167Y4116I-196J0D01*
G74*
G01*
X4773Y2561D02*
X5167Y2167D01*
X5167Y2561D02*
X4773Y2167D01*
X5167Y2364D02*
G75*
G03X5167Y2364I-196J0D01*
G74*
G01*
X5519Y12876D02*
X5912Y12482D01*
X5912Y12876D02*
X5519Y12482D01*
X5912Y12679D02*
G75*
G03X5912Y12679I-196J0D01*
G74*
G01*
X5538Y10317D02*
X5932Y9923D01*
X5932Y10317D02*
X5538Y9923D01*
X5932Y10120D02*
G75*
G03X5932Y10120I-196J0D01*
G74*
G01*
X7332Y4312D02*
X7726Y3919D01*
X7726Y4312D02*
X7332Y3919D01*
X7726Y4116D02*
G75*
G03X7726Y4116I-196J0D01*
G74*
G01*
X7332Y2580D02*
X7726Y2187D01*
X7726Y2580D02*
X7332Y2187D01*
X7726Y2383D02*
G75*
G03X7726Y2383I-196J0D01*
G74*
G01*
X16403Y8346D02*
X16796Y7953D01*
X16796Y8346D02*
X16403Y7953D01*
X16796Y8150D02*
G75*
G03X16796Y8150I-196J0D01*
G74*
G01*
X16403Y7346D02*
X16796Y6953D01*
X16796Y7346D02*
X16403Y6953D01*
X16796Y7150D02*
G75*
G03X16796Y7150I-196J0D01*
G74*
G01*
X17403Y8346D02*
X17796Y7953D01*
X17796Y8346D02*
X17403Y7953D01*
X17796Y8150D02*
G75*
G03X17796Y8150I-196J0D01*
G74*
G01*
X17403Y7346D02*
X17796Y6953D01*
X17796Y7346D02*
X17403Y6953D01*
X17796Y7150D02*
G75*
G03X17796Y7150I-196J0D01*
G74*
G01*
X18403Y8346D02*
X18796Y7953D01*
X18796Y8346D02*
X18403Y7953D01*
X18796Y8150D02*
G75*
G03X18796Y8150I-196J0D01*
G74*
G01*
X18403Y7346D02*
X18796Y6953D01*
X18796Y7346D02*
X18403Y6953D01*
X18796Y7150D02*
G75*
G03X18796Y7150I-196J0D01*
G74*
G01*
X27287Y12876D02*
X27680Y12482D01*
X27680Y12876D02*
X27287Y12482D01*
X27680Y12679D02*
G75*
G03X27680Y12679I-196J0D01*
G74*
G01*
X27287Y10317D02*
X27680Y9923D01*
X27680Y10317D02*
X27287Y9923D01*
X27680Y10120D02*
G75*
G03X27680Y10120I-196J0D01*
G74*
G01*
X29019Y12876D02*
X29412Y12482D01*
X29412Y12876D02*
X29019Y12482D01*
X29412Y12679D02*
G75*
G03X29412Y12679I-196J0D01*
G74*
G01*
X29038Y10317D02*
X29432Y9923D01*
X29432Y10317D02*
X29038Y9923D01*
X29432Y10120D02*
G75*
G03X29432Y10120I-196J0D01*
G74*
G01*
X30287Y15876D02*
X30680Y15482D01*
X30680Y15876D02*
X30287Y15482D01*
X30680Y15679D02*
G75*
G03X30680Y15679I-196J0D01*
G74*
G01*
X30287Y13317D02*
X30680Y12923D01*
X30680Y13317D02*
X30287Y12923D01*
X30680Y13120D02*
G75*
G03X30680Y13120I-196J0D01*
G74*
G01*
X30287Y9876D02*
X30680Y9482D01*
X30680Y9876D02*
X30287Y9482D01*
X30680Y9679D02*
G75*
G03X30680Y9679I-196J0D01*
G74*
G01*
X30287Y7317D02*
X30680Y6923D01*
X30680Y7317D02*
X30287Y6923D01*
X30680Y7120D02*
G75*
G03X30680Y7120I-196J0D01*
G74*
G01*
X32019Y15876D02*
X32412Y15482D01*
X32412Y15876D02*
X32019Y15482D01*
X32412Y15679D02*
G75*
G03X32412Y15679I-196J0D01*
G74*
G01*
X32019Y9876D02*
X32412Y9482D01*
X32412Y9876D02*
X32019Y9482D01*
X32412Y9679D02*
G75*
G03X32412Y9679I-196J0D01*
G74*
G01*
X32038Y13317D02*
X32432Y12923D01*
X32432Y13317D02*
X32038Y12923D01*
X32432Y13120D02*
G75*
G03X32432Y13120I-196J0D01*
G74*
G01*
X32038Y7317D02*
X32432Y6923D01*
X32432Y7317D02*
X32038Y6923D01*
X32432Y7120D02*
G75*
G03X32432Y7120I-196J0D01*
G74*
G01*
X33287Y12876D02*
X33680Y12482D01*
X33680Y12876D02*
X33287Y12482D01*
X33680Y12679D02*
G75*
G03X33680Y12679I-196J0D01*
G74*
G01*
X33287Y10317D02*
X33680Y9923D01*
X33680Y10317D02*
X33287Y9923D01*
X33680Y10120D02*
G75*
G03X33680Y10120I-196J0D01*
G74*
G01*
X35019Y12876D02*
X35412Y12482D01*
X35412Y12876D02*
X35019Y12482D01*
X35412Y12679D02*
G75*
G03X35412Y12679I-196J0D01*
G74*
G01*
X35038Y10317D02*
X35432Y9923D01*
X35432Y10317D02*
X35038Y9923D01*
X35432Y10120D02*
G75*
G03X35432Y10120I-196J0D01*
G74*
G01*
G54D13*
X-4611Y-10907D02*
X-4611Y-9726D01*
X-4330Y-9726D01*
X-4161Y-9782D01*
X-4048Y-9894D01*
X-3992Y-10007D01*
X-3936Y-10232D01*
X-3936Y-10401D01*
X-3992Y-10626D01*
X-4048Y-10738D01*
X-4161Y-10851D01*
X-4330Y-10907D01*
X-4611Y-10907D01*
X-3430Y-10907D02*
X-3430Y-10119D01*
X-3430Y-10344D02*
X-3374Y-10232D01*
X-3317Y-10176D01*
X-3205Y-10119D01*
X-3092Y-10119D01*
X-2699Y-10907D02*
X-2699Y-10119D01*
X-2699Y-9726D02*
X-2755Y-9782D01*
X-2699Y-9838D01*
X-2642Y-9782D01*
X-2699Y-9726D01*
X-2699Y-9838D01*
X-1967Y-10907D02*
X-2080Y-10851D01*
X-2136Y-10738D01*
X-2136Y-9726D01*
X-1349Y-10907D02*
X-1461Y-10851D01*
X-1518Y-10738D01*
X-1518Y-9726D01*
X0Y-10907D02*
X0Y-9726D01*
X394Y-10569D01*
X787Y-9726D01*
X787Y-10907D01*
X1856Y-10907D02*
X1856Y-10288D01*
X1800Y-10176D01*
X1687Y-10119D01*
X1462Y-10119D01*
X1350Y-10176D01*
X1856Y-10851D02*
X1744Y-10907D01*
X1462Y-10907D01*
X1350Y-10851D01*
X1294Y-10738D01*
X1294Y-10626D01*
X1350Y-10513D01*
X1462Y-10457D01*
X1744Y-10457D01*
X1856Y-10401D01*
X2418Y-10119D02*
X2418Y-11300D01*
X2418Y-10176D02*
X2531Y-10119D01*
X2756Y-10119D01*
X2868Y-10176D01*
X2925Y-10232D01*
X2981Y-10344D01*
X2981Y-10682D01*
X2925Y-10794D01*
X2868Y-10851D01*
X2756Y-10907D01*
X2531Y-10907D01*
X2418Y-10851D01*
X3487Y-10794D02*
X3543Y-10851D01*
X3487Y-10907D01*
X3431Y-10851D01*
X3487Y-10794D01*
X3487Y-10907D01*
X3487Y-10176D02*
X3543Y-10232D01*
X3487Y-10288D01*
X3431Y-10232D01*
X3487Y-10176D01*
X3487Y-10288D01*
X-5880Y-12809D02*
X-5680Y-13009D01*
X-5680Y-12809D02*
X-5880Y-13009D01*
X-4386Y-12206D02*
X-4273Y-12206D01*
X-4161Y-12262D01*
X-4105Y-12318D01*
X-4048Y-12431D01*
X-3992Y-12656D01*
X-3992Y-12937D01*
X-4048Y-13162D01*
X-4105Y-13275D01*
X-4161Y-13331D01*
X-4273Y-13387D01*
X-4386Y-13387D01*
X-4498Y-13331D01*
X-4555Y-13275D01*
X-4611Y-13162D01*
X-4667Y-12937D01*
X-4667Y-12656D01*
X-4611Y-12431D01*
X-4555Y-12318D01*
X-4498Y-12262D01*
X-4386Y-12206D01*
X-3486Y-13275D02*
X-3430Y-13331D01*
X-3486Y-13387D01*
X-3542Y-13331D01*
X-3486Y-13275D01*
X-3486Y-13387D01*
X-2361Y-12206D02*
X-2924Y-12206D01*
X-2980Y-12768D01*
X-2924Y-12712D01*
X-2811Y-12656D01*
X-2530Y-12656D01*
X-2417Y-12712D01*
X-2361Y-12768D01*
X-2305Y-12881D01*
X-2305Y-13162D01*
X-2361Y-13275D01*
X-2417Y-13331D01*
X-2530Y-13387D01*
X-2811Y-13387D01*
X-2924Y-13331D01*
X-2980Y-13275D01*
X-1180Y-13387D02*
X-1855Y-13387D01*
X-1518Y-13387D02*
X-1518Y-12206D01*
X-1630Y-12375D01*
X-1742Y-12487D01*
X-1855Y-12543D01*
X-674Y-13387D02*
X-674Y-12600D01*
X-674Y-12712D02*
X-618Y-12656D01*
X-505Y-12600D01*
X-336Y-12600D01*
X-224Y-12656D01*
X-168Y-12768D01*
X-168Y-13387D01*
X-168Y-12768D02*
X-111Y-12656D01*
X0Y-12600D01*
X169Y-12600D01*
X281Y-12656D01*
X337Y-12768D01*
X337Y-13387D01*
X900Y-13387D02*
X900Y-12600D01*
X900Y-12712D02*
X956Y-12656D01*
X1069Y-12600D01*
X1237Y-12600D01*
X1350Y-12656D01*
X1406Y-12768D01*
X1406Y-13387D01*
X1406Y-12768D02*
X1462Y-12656D01*
X1575Y-12600D01*
X1744Y-12600D01*
X1856Y-12656D01*
X1912Y-12768D01*
X1912Y-13387D01*
X4218Y-12150D02*
X3206Y-13668D01*
X5737Y-12206D02*
X5849Y-12206D01*
X5962Y-12262D01*
X6018Y-12318D01*
X6074Y-12431D01*
X6131Y-12656D01*
X6131Y-12937D01*
X6074Y-13162D01*
X6018Y-13275D01*
X5962Y-13331D01*
X5849Y-13387D01*
X5737Y-13387D01*
X5624Y-13331D01*
X5568Y-13275D01*
X5512Y-13162D01*
X5456Y-12937D01*
X5456Y-12656D01*
X5512Y-12431D01*
X5568Y-12318D01*
X5624Y-12262D01*
X5737Y-12206D01*
X6637Y-13275D02*
X6693Y-13331D01*
X6637Y-13387D01*
X6580Y-13331D01*
X6637Y-13275D01*
X6637Y-13387D01*
X7424Y-12206D02*
X7537Y-12206D01*
X7649Y-12262D01*
X7705Y-12318D01*
X7762Y-12431D01*
X7818Y-12656D01*
X7818Y-12937D01*
X7762Y-13162D01*
X7705Y-13275D01*
X7649Y-13331D01*
X7537Y-13387D01*
X7424Y-13387D01*
X7312Y-13331D01*
X7255Y-13275D01*
X7199Y-13162D01*
X7143Y-12937D01*
X7143Y-12656D01*
X7199Y-12431D01*
X7255Y-12318D01*
X7312Y-12262D01*
X7424Y-12206D01*
X8268Y-12318D02*
X8324Y-12262D01*
X8436Y-12206D01*
X8718Y-12206D01*
X8830Y-12262D01*
X8886Y-12318D01*
X8943Y-12431D01*
X8943Y-12543D01*
X8886Y-12712D01*
X8212Y-13387D01*
X8943Y-13387D01*
X9674Y-12206D02*
X9786Y-12206D01*
X9899Y-12262D01*
X9955Y-12318D01*
X10011Y-12431D01*
X10068Y-12656D01*
X10068Y-12937D01*
X10011Y-13162D01*
X9955Y-13275D01*
X9899Y-13331D01*
X9786Y-13387D01*
X9674Y-13387D01*
X9561Y-13331D01*
X9505Y-13275D01*
X9449Y-13162D01*
X9393Y-12937D01*
X9393Y-12656D01*
X9449Y-12431D01*
X9505Y-12318D01*
X9561Y-12262D01*
X9674Y-12206D01*
X10517Y-12206D02*
X10517Y-12431D01*
X10967Y-12206D02*
X10967Y-12431D01*
X12711Y-13837D02*
X12655Y-13781D01*
X12542Y-13612D01*
X12486Y-13500D01*
X12430Y-13331D01*
X12373Y-13050D01*
X12373Y-12825D01*
X12430Y-12543D01*
X12486Y-12375D01*
X12542Y-12262D01*
X12655Y-12094D01*
X12711Y-12037D01*
X13048Y-12206D02*
X13836Y-12206D01*
X13330Y-13387D01*
X14230Y-12318D02*
X14286Y-12262D01*
X14398Y-12206D01*
X14679Y-12206D01*
X14792Y-12262D01*
X14848Y-12318D01*
X14904Y-12431D01*
X14904Y-12543D01*
X14848Y-12712D01*
X14173Y-13387D01*
X14904Y-13387D01*
X16311Y-13387D02*
X16311Y-12206D01*
X16817Y-13387D02*
X16817Y-12768D01*
X16760Y-12656D01*
X16648Y-12600D01*
X16479Y-12600D01*
X16367Y-12656D01*
X16311Y-12712D01*
X17548Y-13387D02*
X17435Y-13331D01*
X17379Y-13275D01*
X17323Y-13162D01*
X17323Y-12825D01*
X17379Y-12712D01*
X17435Y-12656D01*
X17548Y-12600D01*
X17717Y-12600D01*
X17829Y-12656D01*
X17885Y-12712D01*
X17942Y-12825D01*
X17942Y-13162D01*
X17885Y-13275D01*
X17829Y-13331D01*
X17717Y-13387D01*
X17548Y-13387D01*
X18616Y-13387D02*
X18504Y-13331D01*
X18448Y-13218D01*
X18448Y-12206D01*
X19516Y-13331D02*
X19404Y-13387D01*
X19179Y-13387D01*
X19066Y-13331D01*
X19010Y-13218D01*
X19010Y-12768D01*
X19066Y-12656D01*
X19179Y-12600D01*
X19404Y-12600D01*
X19516Y-12656D01*
X19573Y-12768D01*
X19573Y-12881D01*
X19010Y-12993D01*
X20023Y-13331D02*
X20135Y-13387D01*
X20360Y-13387D01*
X20472Y-13331D01*
X20529Y-13218D01*
X20529Y-13162D01*
X20472Y-13050D01*
X20360Y-12993D01*
X20191Y-12993D01*
X20079Y-12937D01*
X20023Y-12825D01*
X20023Y-12768D01*
X20079Y-12656D01*
X20191Y-12600D01*
X20360Y-12600D01*
X20472Y-12656D01*
X20922Y-13837D02*
X20979Y-13781D01*
X21091Y-13612D01*
X21147Y-13500D01*
X21204Y-13331D01*
X21260Y-13050D01*
X21260Y-12825D01*
X21204Y-12543D01*
X21147Y-12375D01*
X21091Y-12262D01*
X20979Y-12094D01*
X20922Y-12037D01*
G54D12*
X-5680Y-14468D02*
G75*
G03X-5680Y-14468I-110J0D01*
G74*
G01*
G54D13*
X-4386Y-13765D02*
X-4273Y-13765D01*
X-4161Y-13821D01*
X-4105Y-13878D01*
X-4048Y-13990D01*
X-3992Y-14215D01*
X-3992Y-14496D01*
X-4048Y-14721D01*
X-4105Y-14834D01*
X-4161Y-14890D01*
X-4273Y-14946D01*
X-4386Y-14946D01*
X-4498Y-14890D01*
X-4555Y-14834D01*
X-4611Y-14721D01*
X-4667Y-14496D01*
X-4667Y-14215D01*
X-4611Y-13990D01*
X-4555Y-13878D01*
X-4498Y-13821D01*
X-4386Y-13765D01*
X-3486Y-14834D02*
X-3430Y-14890D01*
X-3486Y-14946D01*
X-3542Y-14890D01*
X-3486Y-14834D01*
X-3486Y-14946D01*
X-2361Y-13765D02*
X-2924Y-13765D01*
X-2980Y-14327D01*
X-2924Y-14271D01*
X-2811Y-14215D01*
X-2530Y-14215D01*
X-2417Y-14271D01*
X-2361Y-14327D01*
X-2305Y-14440D01*
X-2305Y-14721D01*
X-2361Y-14834D01*
X-2417Y-14890D01*
X-2530Y-14946D01*
X-2811Y-14946D01*
X-2924Y-14890D01*
X-2980Y-14834D01*
X-1293Y-13765D02*
X-1518Y-13765D01*
X-1630Y-13821D01*
X-1686Y-13878D01*
X-1799Y-14046D01*
X-1855Y-14271D01*
X-1855Y-14721D01*
X-1799Y-14834D01*
X-1742Y-14890D01*
X-1630Y-14946D01*
X-1405Y-14946D01*
X-1293Y-14890D01*
X-1236Y-14834D01*
X-1180Y-14721D01*
X-1180Y-14440D01*
X-1236Y-14327D01*
X-1293Y-14271D01*
X-1405Y-14215D01*
X-1630Y-14215D01*
X-1742Y-14271D01*
X-1799Y-14327D01*
X-1855Y-14440D01*
X-674Y-14946D02*
X-674Y-14159D01*
X-674Y-14271D02*
X-618Y-14215D01*
X-505Y-14159D01*
X-336Y-14159D01*
X-224Y-14215D01*
X-168Y-14327D01*
X-168Y-14946D01*
X-168Y-14327D02*
X-111Y-14215D01*
X0Y-14159D01*
X169Y-14159D01*
X281Y-14215D01*
X337Y-14327D01*
X337Y-14946D01*
X900Y-14946D02*
X900Y-14159D01*
X900Y-14271D02*
X956Y-14215D01*
X1069Y-14159D01*
X1237Y-14159D01*
X1350Y-14215D01*
X1406Y-14327D01*
X1406Y-14946D01*
X1406Y-14327D02*
X1462Y-14215D01*
X1575Y-14159D01*
X1744Y-14159D01*
X1856Y-14215D01*
X1912Y-14327D01*
X1912Y-14946D01*
X4218Y-13709D02*
X3206Y-15227D01*
X5737Y-13765D02*
X5849Y-13765D01*
X5962Y-13821D01*
X6018Y-13878D01*
X6074Y-13990D01*
X6131Y-14215D01*
X6131Y-14496D01*
X6074Y-14721D01*
X6018Y-14834D01*
X5962Y-14890D01*
X5849Y-14946D01*
X5737Y-14946D01*
X5624Y-14890D01*
X5568Y-14834D01*
X5512Y-14721D01*
X5456Y-14496D01*
X5456Y-14215D01*
X5512Y-13990D01*
X5568Y-13878D01*
X5624Y-13821D01*
X5737Y-13765D01*
X6637Y-14834D02*
X6693Y-14890D01*
X6637Y-14946D01*
X6580Y-14890D01*
X6637Y-14834D01*
X6637Y-14946D01*
X7424Y-13765D02*
X7537Y-13765D01*
X7649Y-13821D01*
X7705Y-13878D01*
X7762Y-13990D01*
X7818Y-14215D01*
X7818Y-14496D01*
X7762Y-14721D01*
X7705Y-14834D01*
X7649Y-14890D01*
X7537Y-14946D01*
X7424Y-14946D01*
X7312Y-14890D01*
X7255Y-14834D01*
X7199Y-14721D01*
X7143Y-14496D01*
X7143Y-14215D01*
X7199Y-13990D01*
X7255Y-13878D01*
X7312Y-13821D01*
X7424Y-13765D01*
X8268Y-13878D02*
X8324Y-13821D01*
X8436Y-13765D01*
X8718Y-13765D01*
X8830Y-13821D01*
X8886Y-13878D01*
X8943Y-13990D01*
X8943Y-14103D01*
X8886Y-14271D01*
X8212Y-14946D01*
X8943Y-14946D01*
X9393Y-13878D02*
X9449Y-13821D01*
X9561Y-13765D01*
X9843Y-13765D01*
X9955Y-13821D01*
X10011Y-13878D01*
X10068Y-13990D01*
X10068Y-14103D01*
X10011Y-14271D01*
X9336Y-14946D01*
X10068Y-14946D01*
X10517Y-13765D02*
X10517Y-13990D01*
X10967Y-13765D02*
X10967Y-13990D01*
X12711Y-15396D02*
X12655Y-15340D01*
X12542Y-15171D01*
X12486Y-15059D01*
X12430Y-14890D01*
X12373Y-14609D01*
X12373Y-14384D01*
X12430Y-14103D01*
X12486Y-13934D01*
X12542Y-13821D01*
X12655Y-13653D01*
X12711Y-13596D01*
X13386Y-13765D02*
X13498Y-13765D01*
X13611Y-13821D01*
X13667Y-13878D01*
X13723Y-13990D01*
X13780Y-14215D01*
X13780Y-14496D01*
X13723Y-14721D01*
X13667Y-14834D01*
X13611Y-14890D01*
X13498Y-14946D01*
X13386Y-14946D01*
X13273Y-14890D01*
X13217Y-14834D01*
X13161Y-14721D01*
X13105Y-14496D01*
X13105Y-14215D01*
X13161Y-13990D01*
X13217Y-13878D01*
X13273Y-13821D01*
X13386Y-13765D01*
X15186Y-14946D02*
X15186Y-13765D01*
X15692Y-14946D02*
X15692Y-14327D01*
X15636Y-14215D01*
X15523Y-14159D01*
X15354Y-14159D01*
X15242Y-14215D01*
X15186Y-14271D01*
X16423Y-14946D02*
X16311Y-14890D01*
X16254Y-14834D01*
X16198Y-14721D01*
X16198Y-14384D01*
X16254Y-14271D01*
X16311Y-14215D01*
X16423Y-14159D01*
X16592Y-14159D01*
X16704Y-14215D01*
X16760Y-14271D01*
X16817Y-14384D01*
X16817Y-14721D01*
X16760Y-14834D01*
X16704Y-14890D01*
X16592Y-14946D01*
X16423Y-14946D01*
X17492Y-14946D02*
X17379Y-14890D01*
X17323Y-14777D01*
X17323Y-13765D01*
X18391Y-14890D02*
X18279Y-14946D01*
X18054Y-14946D01*
X17942Y-14890D01*
X17885Y-14777D01*
X17885Y-14327D01*
X17942Y-14215D01*
X18054Y-14159D01*
X18279Y-14159D01*
X18391Y-14215D01*
X18448Y-14327D01*
X18448Y-14440D01*
X17885Y-14552D01*
X18898Y-14890D02*
X19010Y-14946D01*
X19235Y-14946D01*
X19348Y-14890D01*
X19404Y-14777D01*
X19404Y-14721D01*
X19348Y-14609D01*
X19235Y-14552D01*
X19066Y-14552D01*
X18954Y-14496D01*
X18898Y-14384D01*
X18898Y-14327D01*
X18954Y-14215D01*
X19066Y-14159D01*
X19235Y-14159D01*
X19348Y-14215D01*
X20810Y-14496D02*
X21710Y-14496D01*
X21260Y-14946D02*
X21260Y-14046D01*
X23116Y-13878D02*
X23172Y-13821D01*
X23285Y-13765D01*
X23566Y-13765D01*
X23678Y-13821D01*
X23735Y-13878D01*
X23791Y-13990D01*
X23791Y-14103D01*
X23735Y-14271D01*
X23060Y-14946D01*
X23791Y-14946D01*
X25141Y-14890D02*
X25253Y-14946D01*
X25478Y-14946D01*
X25591Y-14890D01*
X25647Y-14777D01*
X25647Y-14721D01*
X25591Y-14609D01*
X25478Y-14552D01*
X25309Y-14552D01*
X25197Y-14496D01*
X25141Y-14384D01*
X25141Y-14327D01*
X25197Y-14215D01*
X25309Y-14159D01*
X25478Y-14159D01*
X25591Y-14215D01*
X26322Y-14946D02*
X26209Y-14890D01*
X26153Y-14777D01*
X26153Y-13765D01*
X26940Y-14946D02*
X26828Y-14890D01*
X26772Y-14834D01*
X26715Y-14721D01*
X26715Y-14384D01*
X26772Y-14271D01*
X26828Y-14215D01*
X26940Y-14159D01*
X27109Y-14159D01*
X27222Y-14215D01*
X27278Y-14271D01*
X27334Y-14384D01*
X27334Y-14721D01*
X27278Y-14834D01*
X27222Y-14890D01*
X27109Y-14946D01*
X26940Y-14946D01*
X27672Y-14159D02*
X28122Y-14159D01*
X27840Y-13765D02*
X27840Y-14777D01*
X27897Y-14890D01*
X28009Y-14946D01*
X28122Y-14946D01*
X28459Y-14890D02*
X28571Y-14946D01*
X28796Y-14946D01*
X28909Y-14890D01*
X28965Y-14777D01*
X28965Y-14721D01*
X28909Y-14609D01*
X28796Y-14552D01*
X28628Y-14552D01*
X28515Y-14496D01*
X28459Y-14384D01*
X28459Y-14327D01*
X28515Y-14215D01*
X28628Y-14159D01*
X28796Y-14159D01*
X28909Y-14215D01*
X29359Y-15396D02*
X29415Y-15340D01*
X29528Y-15171D01*
X29584Y-15059D01*
X29640Y-14890D01*
X29696Y-14609D01*
X29696Y-14384D01*
X29640Y-14103D01*
X29584Y-13934D01*
X29528Y-13821D01*
X29415Y-13653D01*
X29359Y-13596D01*
X-5819Y-15887D02*
X-5819Y-16167D01*
X-5959Y-16027D02*
X-5680Y-16027D01*
X-4386Y-15324D02*
X-4273Y-15324D01*
X-4161Y-15380D01*
X-4105Y-15437D01*
X-4048Y-15549D01*
X-3992Y-15774D01*
X-3992Y-16055D01*
X-4048Y-16280D01*
X-4105Y-16393D01*
X-4161Y-16449D01*
X-4273Y-16505D01*
X-4386Y-16505D01*
X-4498Y-16449D01*
X-4555Y-16393D01*
X-4611Y-16280D01*
X-4667Y-16055D01*
X-4667Y-15774D01*
X-4611Y-15549D01*
X-4555Y-15437D01*
X-4498Y-15380D01*
X-4386Y-15324D01*
X-3486Y-16393D02*
X-3430Y-16449D01*
X-3486Y-16505D01*
X-3542Y-16449D01*
X-3486Y-16393D01*
X-3486Y-16505D01*
X-3036Y-15324D02*
X-2249Y-15324D01*
X-2755Y-16505D01*
X-1180Y-16505D02*
X-1855Y-16505D01*
X-1518Y-16505D02*
X-1518Y-15324D01*
X-1630Y-15493D01*
X-1742Y-15605D01*
X-1855Y-15662D01*
X-674Y-16505D02*
X-674Y-15718D01*
X-674Y-15830D02*
X-618Y-15774D01*
X-505Y-15718D01*
X-336Y-15718D01*
X-224Y-15774D01*
X-168Y-15887D01*
X-168Y-16505D01*
X-168Y-15887D02*
X-111Y-15774D01*
X0Y-15718D01*
X169Y-15718D01*
X281Y-15774D01*
X337Y-15887D01*
X337Y-16505D01*
X900Y-16505D02*
X900Y-15718D01*
X900Y-15830D02*
X956Y-15774D01*
X1069Y-15718D01*
X1237Y-15718D01*
X1350Y-15774D01*
X1406Y-15887D01*
X1406Y-16505D01*
X1406Y-15887D02*
X1462Y-15774D01*
X1575Y-15718D01*
X1744Y-15718D01*
X1856Y-15774D01*
X1912Y-15887D01*
X1912Y-16505D01*
X4218Y-15268D02*
X3206Y-16786D01*
X5737Y-15324D02*
X5849Y-15324D01*
X5962Y-15380D01*
X6018Y-15437D01*
X6074Y-15549D01*
X6131Y-15774D01*
X6131Y-16055D01*
X6074Y-16280D01*
X6018Y-16393D01*
X5962Y-16449D01*
X5849Y-16505D01*
X5737Y-16505D01*
X5624Y-16449D01*
X5568Y-16393D01*
X5512Y-16280D01*
X5456Y-16055D01*
X5456Y-15774D01*
X5512Y-15549D01*
X5568Y-15437D01*
X5624Y-15380D01*
X5737Y-15324D01*
X6637Y-16393D02*
X6693Y-16449D01*
X6637Y-16505D01*
X6580Y-16449D01*
X6637Y-16393D01*
X6637Y-16505D01*
X7424Y-15324D02*
X7537Y-15324D01*
X7649Y-15380D01*
X7705Y-15437D01*
X7762Y-15549D01*
X7818Y-15774D01*
X7818Y-16055D01*
X7762Y-16280D01*
X7705Y-16393D01*
X7649Y-16449D01*
X7537Y-16505D01*
X7424Y-16505D01*
X7312Y-16449D01*
X7255Y-16393D01*
X7199Y-16280D01*
X7143Y-16055D01*
X7143Y-15774D01*
X7199Y-15549D01*
X7255Y-15437D01*
X7312Y-15380D01*
X7424Y-15324D01*
X8268Y-15437D02*
X8324Y-15380D01*
X8436Y-15324D01*
X8718Y-15324D01*
X8830Y-15380D01*
X8886Y-15437D01*
X8943Y-15549D01*
X8943Y-15662D01*
X8886Y-15830D01*
X8212Y-16505D01*
X8943Y-16505D01*
X9618Y-15830D02*
X9505Y-15774D01*
X9449Y-15718D01*
X9393Y-15605D01*
X9393Y-15549D01*
X9449Y-15437D01*
X9505Y-15380D01*
X9618Y-15324D01*
X9843Y-15324D01*
X9955Y-15380D01*
X10011Y-15437D01*
X10068Y-15549D01*
X10068Y-15605D01*
X10011Y-15718D01*
X9955Y-15774D01*
X9843Y-15830D01*
X9618Y-15830D01*
X9505Y-15887D01*
X9449Y-15943D01*
X9393Y-16055D01*
X9393Y-16280D01*
X9449Y-16393D01*
X9505Y-16449D01*
X9618Y-16505D01*
X9843Y-16505D01*
X9955Y-16449D01*
X10011Y-16393D01*
X10068Y-16280D01*
X10068Y-16055D01*
X10011Y-15943D01*
X9955Y-15887D01*
X9843Y-15830D01*
X10517Y-15324D02*
X10517Y-15549D01*
X10967Y-15324D02*
X10967Y-15549D01*
X12711Y-16955D02*
X12655Y-16899D01*
X12542Y-16730D01*
X12486Y-16618D01*
X12430Y-16449D01*
X12373Y-16168D01*
X12373Y-15943D01*
X12430Y-15662D01*
X12486Y-15493D01*
X12542Y-15380D01*
X12655Y-15212D01*
X12711Y-15155D01*
X13386Y-15324D02*
X13498Y-15324D01*
X13611Y-15380D01*
X13667Y-15437D01*
X13723Y-15549D01*
X13780Y-15774D01*
X13780Y-16055D01*
X13723Y-16280D01*
X13667Y-16393D01*
X13611Y-16449D01*
X13498Y-16505D01*
X13386Y-16505D01*
X13273Y-16449D01*
X13217Y-16393D01*
X13161Y-16280D01*
X13105Y-16055D01*
X13105Y-15774D01*
X13161Y-15549D01*
X13217Y-15437D01*
X13273Y-15380D01*
X13386Y-15324D01*
X15186Y-16505D02*
X15186Y-15324D01*
X15692Y-16505D02*
X15692Y-15887D01*
X15636Y-15774D01*
X15523Y-15718D01*
X15354Y-15718D01*
X15242Y-15774D01*
X15186Y-15830D01*
X16423Y-16505D02*
X16311Y-16449D01*
X16254Y-16393D01*
X16198Y-16280D01*
X16198Y-15943D01*
X16254Y-15830D01*
X16311Y-15774D01*
X16423Y-15718D01*
X16592Y-15718D01*
X16704Y-15774D01*
X16760Y-15830D01*
X16817Y-15943D01*
X16817Y-16280D01*
X16760Y-16393D01*
X16704Y-16449D01*
X16592Y-16505D01*
X16423Y-16505D01*
X17492Y-16505D02*
X17379Y-16449D01*
X17323Y-16336D01*
X17323Y-15324D01*
X18391Y-16449D02*
X18279Y-16505D01*
X18054Y-16505D01*
X17942Y-16449D01*
X17885Y-16336D01*
X17885Y-15887D01*
X17942Y-15774D01*
X18054Y-15718D01*
X18279Y-15718D01*
X18391Y-15774D01*
X18448Y-15887D01*
X18448Y-15999D01*
X17885Y-16112D01*
X18898Y-16449D02*
X19010Y-16505D01*
X19235Y-16505D01*
X19348Y-16449D01*
X19404Y-16336D01*
X19404Y-16280D01*
X19348Y-16168D01*
X19235Y-16112D01*
X19066Y-16112D01*
X18954Y-16055D01*
X18898Y-15943D01*
X18898Y-15887D01*
X18954Y-15774D01*
X19066Y-15718D01*
X19235Y-15718D01*
X19348Y-15774D01*
X20810Y-16055D02*
X21710Y-16055D01*
X21260Y-16505D02*
X21260Y-15605D01*
X23116Y-15437D02*
X23172Y-15380D01*
X23285Y-15324D01*
X23566Y-15324D01*
X23678Y-15380D01*
X23735Y-15437D01*
X23791Y-15549D01*
X23791Y-15662D01*
X23735Y-15830D01*
X23060Y-16505D01*
X23791Y-16505D01*
X25141Y-16449D02*
X25253Y-16505D01*
X25478Y-16505D01*
X25591Y-16449D01*
X25647Y-16336D01*
X25647Y-16280D01*
X25591Y-16168D01*
X25478Y-16112D01*
X25309Y-16112D01*
X25197Y-16055D01*
X25141Y-15943D01*
X25141Y-15887D01*
X25197Y-15774D01*
X25309Y-15718D01*
X25478Y-15718D01*
X25591Y-15774D01*
X26322Y-16505D02*
X26209Y-16449D01*
X26153Y-16336D01*
X26153Y-15324D01*
X26940Y-16505D02*
X26828Y-16449D01*
X26772Y-16393D01*
X26715Y-16280D01*
X26715Y-15943D01*
X26772Y-15830D01*
X26828Y-15774D01*
X26940Y-15718D01*
X27109Y-15718D01*
X27222Y-15774D01*
X27278Y-15830D01*
X27334Y-15943D01*
X27334Y-16280D01*
X27278Y-16393D01*
X27222Y-16449D01*
X27109Y-16505D01*
X26940Y-16505D01*
X27672Y-15718D02*
X28122Y-15718D01*
X27840Y-15324D02*
X27840Y-16336D01*
X27897Y-16449D01*
X28009Y-16505D01*
X28122Y-16505D01*
X28459Y-16449D02*
X28571Y-16505D01*
X28796Y-16505D01*
X28909Y-16449D01*
X28965Y-16336D01*
X28965Y-16280D01*
X28909Y-16168D01*
X28796Y-16112D01*
X28628Y-16112D01*
X28515Y-16055D01*
X28459Y-15943D01*
X28459Y-15887D01*
X28515Y-15774D01*
X28628Y-15718D01*
X28796Y-15718D01*
X28909Y-15774D01*
X29359Y-16955D02*
X29415Y-16899D01*
X29528Y-16730D01*
X29584Y-16618D01*
X29640Y-16449D01*
X29696Y-16168D01*
X29696Y-15943D01*
X29640Y-15662D01*
X29584Y-15493D01*
X29528Y-15380D01*
X29415Y-15212D01*
X29359Y-15155D01*
G54D12*
X-5726Y-17698D02*
X-5726Y-17475D01*
X-5948Y-17475D01*
X-5948Y-17698D01*
X-5726Y-17698D01*
G54D13*
X-4386Y-16883D02*
X-4273Y-16883D01*
X-4161Y-16939D01*
X-4105Y-16996D01*
X-4048Y-17108D01*
X-3992Y-17333D01*
X-3992Y-17614D01*
X-4048Y-17839D01*
X-4105Y-17952D01*
X-4161Y-18008D01*
X-4273Y-18064D01*
X-4386Y-18064D01*
X-4498Y-18008D01*
X-4555Y-17952D01*
X-4611Y-17839D01*
X-4667Y-17614D01*
X-4667Y-17333D01*
X-4611Y-17108D01*
X-4555Y-16996D01*
X-4498Y-16939D01*
X-4386Y-16883D01*
X-3486Y-17952D02*
X-3430Y-18008D01*
X-3486Y-18064D01*
X-3542Y-18008D01*
X-3486Y-17952D01*
X-3486Y-18064D01*
X-2755Y-17389D02*
X-2867Y-17333D01*
X-2924Y-17277D01*
X-2980Y-17164D01*
X-2980Y-17108D01*
X-2924Y-16996D01*
X-2867Y-16939D01*
X-2755Y-16883D01*
X-2530Y-16883D01*
X-2417Y-16939D01*
X-2361Y-16996D01*
X-2305Y-17108D01*
X-2305Y-17164D01*
X-2361Y-17277D01*
X-2417Y-17333D01*
X-2530Y-17389D01*
X-2755Y-17389D01*
X-2867Y-17446D01*
X-2924Y-17502D01*
X-2980Y-17614D01*
X-2980Y-17839D01*
X-2924Y-17952D01*
X-2867Y-18008D01*
X-2755Y-18064D01*
X-2530Y-18064D01*
X-2417Y-18008D01*
X-2361Y-17952D01*
X-2305Y-17839D01*
X-2305Y-17614D01*
X-2361Y-17502D01*
X-2417Y-17446D01*
X-2530Y-17389D01*
X-1574Y-16883D02*
X-1461Y-16883D01*
X-1349Y-16939D01*
X-1293Y-16996D01*
X-1236Y-17108D01*
X-1180Y-17333D01*
X-1180Y-17614D01*
X-1236Y-17839D01*
X-1293Y-17952D01*
X-1349Y-18008D01*
X-1461Y-18064D01*
X-1574Y-18064D01*
X-1686Y-18008D01*
X-1742Y-17952D01*
X-1799Y-17839D01*
X-1855Y-17614D01*
X-1855Y-17333D01*
X-1799Y-17108D01*
X-1742Y-16996D01*
X-1686Y-16939D01*
X-1574Y-16883D01*
X-674Y-18064D02*
X-674Y-17277D01*
X-674Y-17389D02*
X-618Y-17333D01*
X-505Y-17277D01*
X-336Y-17277D01*
X-224Y-17333D01*
X-168Y-17446D01*
X-168Y-18064D01*
X-168Y-17446D02*
X-111Y-17333D01*
X0Y-17277D01*
X169Y-17277D01*
X281Y-17333D01*
X337Y-17446D01*
X337Y-18064D01*
X900Y-18064D02*
X900Y-17277D01*
X900Y-17389D02*
X956Y-17333D01*
X1069Y-17277D01*
X1237Y-17277D01*
X1350Y-17333D01*
X1406Y-17446D01*
X1406Y-18064D01*
X1406Y-17446D02*
X1462Y-17333D01*
X1575Y-17277D01*
X1744Y-17277D01*
X1856Y-17333D01*
X1912Y-17446D01*
X1912Y-18064D01*
X4218Y-16827D02*
X3206Y-18345D01*
X5737Y-16883D02*
X5849Y-16883D01*
X5962Y-16939D01*
X6018Y-16996D01*
X6074Y-17108D01*
X6131Y-17333D01*
X6131Y-17614D01*
X6074Y-17839D01*
X6018Y-17952D01*
X5962Y-18008D01*
X5849Y-18064D01*
X5737Y-18064D01*
X5624Y-18008D01*
X5568Y-17952D01*
X5512Y-17839D01*
X5456Y-17614D01*
X5456Y-17333D01*
X5512Y-17108D01*
X5568Y-16996D01*
X5624Y-16939D01*
X5737Y-16883D01*
X6637Y-17952D02*
X6693Y-18008D01*
X6637Y-18064D01*
X6580Y-18008D01*
X6637Y-17952D01*
X6637Y-18064D01*
X7424Y-16883D02*
X7537Y-16883D01*
X7649Y-16939D01*
X7705Y-16996D01*
X7762Y-17108D01*
X7818Y-17333D01*
X7818Y-17614D01*
X7762Y-17839D01*
X7705Y-17952D01*
X7649Y-18008D01*
X7537Y-18064D01*
X7424Y-18064D01*
X7312Y-18008D01*
X7255Y-17952D01*
X7199Y-17839D01*
X7143Y-17614D01*
X7143Y-17333D01*
X7199Y-17108D01*
X7255Y-16996D01*
X7312Y-16939D01*
X7424Y-16883D01*
X8212Y-16883D02*
X8943Y-16883D01*
X8549Y-17333D01*
X8718Y-17333D01*
X8830Y-17389D01*
X8886Y-17446D01*
X8943Y-17558D01*
X8943Y-17839D01*
X8886Y-17952D01*
X8830Y-18008D01*
X8718Y-18064D01*
X8380Y-18064D01*
X8268Y-18008D01*
X8212Y-17952D01*
X10068Y-18064D02*
X9393Y-18064D01*
X9730Y-18064D02*
X9730Y-16883D01*
X9618Y-17052D01*
X9505Y-17164D01*
X9393Y-17221D01*
X10517Y-16883D02*
X10517Y-17108D01*
X10967Y-16883D02*
X10967Y-17108D01*
X12711Y-18514D02*
X12655Y-18458D01*
X12542Y-18289D01*
X12486Y-18177D01*
X12430Y-18008D01*
X12373Y-17727D01*
X12373Y-17502D01*
X12430Y-17221D01*
X12486Y-17052D01*
X12542Y-16939D01*
X12655Y-16771D01*
X12711Y-16714D01*
X13723Y-16883D02*
X13161Y-16883D01*
X13105Y-17446D01*
X13161Y-17389D01*
X13273Y-17333D01*
X13555Y-17333D01*
X13667Y-17389D01*
X13723Y-17446D01*
X13780Y-17558D01*
X13780Y-17839D01*
X13723Y-17952D01*
X13667Y-18008D01*
X13555Y-18064D01*
X13273Y-18064D01*
X13161Y-18008D01*
X13105Y-17952D01*
X14792Y-16883D02*
X14567Y-16883D01*
X14454Y-16939D01*
X14398Y-16996D01*
X14286Y-17164D01*
X14230Y-17389D01*
X14230Y-17839D01*
X14286Y-17952D01*
X14342Y-18008D01*
X14454Y-18064D01*
X14679Y-18064D01*
X14792Y-18008D01*
X14848Y-17952D01*
X14904Y-17839D01*
X14904Y-17558D01*
X14848Y-17446D01*
X14792Y-17389D01*
X14679Y-17333D01*
X14454Y-17333D01*
X14342Y-17389D01*
X14286Y-17446D01*
X14230Y-17558D01*
X16311Y-18064D02*
X16311Y-16883D01*
X16817Y-18064D02*
X16817Y-17446D01*
X16760Y-17333D01*
X16648Y-17277D01*
X16479Y-17277D01*
X16367Y-17333D01*
X16311Y-17389D01*
X17548Y-18064D02*
X17435Y-18008D01*
X17379Y-17952D01*
X17323Y-17839D01*
X17323Y-17502D01*
X17379Y-17389D01*
X17435Y-17333D01*
X17548Y-17277D01*
X17717Y-17277D01*
X17829Y-17333D01*
X17885Y-17389D01*
X17942Y-17502D01*
X17942Y-17839D01*
X17885Y-17952D01*
X17829Y-18008D01*
X17717Y-18064D01*
X17548Y-18064D01*
X18616Y-18064D02*
X18504Y-18008D01*
X18448Y-17896D01*
X18448Y-16883D01*
X19516Y-18008D02*
X19404Y-18064D01*
X19179Y-18064D01*
X19066Y-18008D01*
X19010Y-17896D01*
X19010Y-17446D01*
X19066Y-17333D01*
X19179Y-17277D01*
X19404Y-17277D01*
X19516Y-17333D01*
X19573Y-17446D01*
X19573Y-17558D01*
X19010Y-17671D01*
X20023Y-18008D02*
X20135Y-18064D01*
X20360Y-18064D01*
X20472Y-18008D01*
X20529Y-17896D01*
X20529Y-17839D01*
X20472Y-17727D01*
X20360Y-17671D01*
X20191Y-17671D01*
X20079Y-17614D01*
X20023Y-17502D01*
X20023Y-17446D01*
X20079Y-17333D01*
X20191Y-17277D01*
X20360Y-17277D01*
X20472Y-17333D01*
X20922Y-18514D02*
X20979Y-18458D01*
X21091Y-18289D01*
X21147Y-18177D01*
X21204Y-18008D01*
X21260Y-17727D01*
X21260Y-17502D01*
X21204Y-17221D01*
X21147Y-17052D01*
X21091Y-16939D01*
X20979Y-16771D01*
X20922Y-16714D01*
G54D12*
X-5870Y-19336D02*
X-5680Y-19145D01*
X-5870Y-18954D01*
X-6061Y-19145D01*
X-5870Y-19336D01*
G54D13*
X-4386Y-18442D02*
X-4273Y-18442D01*
X-4161Y-18498D01*
X-4105Y-18555D01*
X-4048Y-18667D01*
X-3992Y-18892D01*
X-3992Y-19173D01*
X-4048Y-19398D01*
X-4105Y-19511D01*
X-4161Y-19567D01*
X-4273Y-19623D01*
X-4386Y-19623D01*
X-4498Y-19567D01*
X-4555Y-19511D01*
X-4611Y-19398D01*
X-4667Y-19173D01*
X-4667Y-18892D01*
X-4611Y-18667D01*
X-4555Y-18555D01*
X-4498Y-18498D01*
X-4386Y-18442D01*
X-3486Y-19511D02*
X-3430Y-19567D01*
X-3486Y-19623D01*
X-3542Y-19567D01*
X-3486Y-19511D01*
X-3486Y-19623D01*
X-2867Y-19623D02*
X-2642Y-19623D01*
X-2530Y-19567D01*
X-2474Y-19511D01*
X-2361Y-19342D01*
X-2305Y-19117D01*
X-2305Y-18667D01*
X-2361Y-18555D01*
X-2417Y-18498D01*
X-2530Y-18442D01*
X-2755Y-18442D01*
X-2867Y-18498D01*
X-2924Y-18555D01*
X-2980Y-18667D01*
X-2980Y-18948D01*
X-2924Y-19061D01*
X-2867Y-19117D01*
X-2755Y-19173D01*
X-2530Y-19173D01*
X-2417Y-19117D01*
X-2361Y-19061D01*
X-2305Y-18948D01*
X-1911Y-18442D02*
X-1124Y-18442D01*
X-1630Y-19623D01*
X-674Y-19623D02*
X-674Y-18836D01*
X-674Y-18948D02*
X-618Y-18892D01*
X-505Y-18836D01*
X-336Y-18836D01*
X-224Y-18892D01*
X-168Y-19005D01*
X-168Y-19623D01*
X-168Y-19005D02*
X-111Y-18892D01*
X0Y-18836D01*
X169Y-18836D01*
X281Y-18892D01*
X337Y-19005D01*
X337Y-19623D01*
X900Y-19623D02*
X900Y-18836D01*
X900Y-18948D02*
X956Y-18892D01*
X1069Y-18836D01*
X1237Y-18836D01*
X1350Y-18892D01*
X1406Y-19005D01*
X1406Y-19623D01*
X1406Y-19005D02*
X1462Y-18892D01*
X1575Y-18836D01*
X1744Y-18836D01*
X1856Y-18892D01*
X1912Y-19005D01*
X1912Y-19623D01*
X4218Y-18386D02*
X3206Y-19905D01*
X5737Y-18442D02*
X5849Y-18442D01*
X5962Y-18498D01*
X6018Y-18555D01*
X6074Y-18667D01*
X6131Y-18892D01*
X6131Y-19173D01*
X6074Y-19398D01*
X6018Y-19511D01*
X5962Y-19567D01*
X5849Y-19623D01*
X5737Y-19623D01*
X5624Y-19567D01*
X5568Y-19511D01*
X5512Y-19398D01*
X5456Y-19173D01*
X5456Y-18892D01*
X5512Y-18667D01*
X5568Y-18555D01*
X5624Y-18498D01*
X5737Y-18442D01*
X6637Y-19511D02*
X6693Y-19567D01*
X6637Y-19623D01*
X6580Y-19567D01*
X6637Y-19511D01*
X6637Y-19623D01*
X7424Y-18442D02*
X7537Y-18442D01*
X7649Y-18498D01*
X7705Y-18555D01*
X7762Y-18667D01*
X7818Y-18892D01*
X7818Y-19173D01*
X7762Y-19398D01*
X7705Y-19511D01*
X7649Y-19567D01*
X7537Y-19623D01*
X7424Y-19623D01*
X7312Y-19567D01*
X7255Y-19511D01*
X7199Y-19398D01*
X7143Y-19173D01*
X7143Y-18892D01*
X7199Y-18667D01*
X7255Y-18555D01*
X7312Y-18498D01*
X7424Y-18442D01*
X8212Y-18442D02*
X8943Y-18442D01*
X8549Y-18892D01*
X8718Y-18892D01*
X8830Y-18948D01*
X8886Y-19005D01*
X8943Y-19117D01*
X8943Y-19398D01*
X8886Y-19511D01*
X8830Y-19567D01*
X8718Y-19623D01*
X8380Y-19623D01*
X8268Y-19567D01*
X8212Y-19511D01*
X9618Y-18948D02*
X9505Y-18892D01*
X9449Y-18836D01*
X9393Y-18723D01*
X9393Y-18667D01*
X9449Y-18555D01*
X9505Y-18498D01*
X9618Y-18442D01*
X9843Y-18442D01*
X9955Y-18498D01*
X10011Y-18555D01*
X10068Y-18667D01*
X10068Y-18723D01*
X10011Y-18836D01*
X9955Y-18892D01*
X9843Y-18948D01*
X9618Y-18948D01*
X9505Y-19005D01*
X9449Y-19061D01*
X9393Y-19173D01*
X9393Y-19398D01*
X9449Y-19511D01*
X9505Y-19567D01*
X9618Y-19623D01*
X9843Y-19623D01*
X9955Y-19567D01*
X10011Y-19511D01*
X10068Y-19398D01*
X10068Y-19173D01*
X10011Y-19061D01*
X9955Y-19005D01*
X9843Y-18948D01*
X10517Y-18442D02*
X10517Y-18667D01*
X10967Y-18442D02*
X10967Y-18667D01*
X12711Y-20073D02*
X12655Y-20017D01*
X12542Y-19848D01*
X12486Y-19736D01*
X12430Y-19567D01*
X12373Y-19286D01*
X12373Y-19061D01*
X12430Y-18780D01*
X12486Y-18611D01*
X12542Y-18498D01*
X12655Y-18330D01*
X12711Y-18273D01*
X13780Y-19623D02*
X13105Y-19623D01*
X13442Y-19623D02*
X13442Y-18442D01*
X13330Y-18611D01*
X13217Y-18723D01*
X13105Y-18780D01*
X14511Y-18442D02*
X14623Y-18442D01*
X14736Y-18498D01*
X14792Y-18555D01*
X14848Y-18667D01*
X14904Y-18892D01*
X14904Y-19173D01*
X14848Y-19398D01*
X14792Y-19511D01*
X14736Y-19567D01*
X14623Y-19623D01*
X14511Y-19623D01*
X14398Y-19567D01*
X14342Y-19511D01*
X14286Y-19398D01*
X14230Y-19173D01*
X14230Y-18892D01*
X14286Y-18667D01*
X14342Y-18555D01*
X14398Y-18498D01*
X14511Y-18442D01*
X16311Y-19623D02*
X16311Y-18442D01*
X16817Y-19623D02*
X16817Y-19005D01*
X16760Y-18892D01*
X16648Y-18836D01*
X16479Y-18836D01*
X16367Y-18892D01*
X16311Y-18948D01*
X17548Y-19623D02*
X17435Y-19567D01*
X17379Y-19511D01*
X17323Y-19398D01*
X17323Y-19061D01*
X17379Y-18948D01*
X17435Y-18892D01*
X17548Y-18836D01*
X17717Y-18836D01*
X17829Y-18892D01*
X17885Y-18948D01*
X17942Y-19061D01*
X17942Y-19398D01*
X17885Y-19511D01*
X17829Y-19567D01*
X17717Y-19623D01*
X17548Y-19623D01*
X18616Y-19623D02*
X18504Y-19567D01*
X18448Y-19455D01*
X18448Y-18442D01*
X19516Y-19567D02*
X19404Y-19623D01*
X19179Y-19623D01*
X19066Y-19567D01*
X19010Y-19455D01*
X19010Y-19005D01*
X19066Y-18892D01*
X19179Y-18836D01*
X19404Y-18836D01*
X19516Y-18892D01*
X19573Y-19005D01*
X19573Y-19117D01*
X19010Y-19230D01*
X20023Y-19567D02*
X20135Y-19623D01*
X20360Y-19623D01*
X20472Y-19567D01*
X20529Y-19455D01*
X20529Y-19398D01*
X20472Y-19286D01*
X20360Y-19230D01*
X20191Y-19230D01*
X20079Y-19173D01*
X20023Y-19061D01*
X20023Y-19005D01*
X20079Y-18892D01*
X20191Y-18836D01*
X20360Y-18836D01*
X20472Y-18892D01*
X20922Y-20073D02*
X20979Y-20017D01*
X21091Y-19848D01*
X21147Y-19736D01*
X21204Y-19567D01*
X21260Y-19286D01*
X21260Y-19061D01*
X21204Y-18780D01*
X21147Y-18611D01*
X21091Y-18498D01*
X20979Y-18330D01*
X20922Y-18273D01*
X-6073Y-20507D02*
X-5680Y-20901D01*
X-5680Y-20507D02*
X-6073Y-20901D01*
G54D12*
X-5680Y-20704D02*
G75*
G03X-5680Y-20704I-196J0D01*
G74*
G01*
G54D13*
X-3992Y-21182D02*
X-4667Y-21182D01*
X-4330Y-21182D02*
X-4330Y-20001D01*
X-4442Y-20170D01*
X-4555Y-20282D01*
X-4667Y-20339D01*
X-3486Y-21070D02*
X-3430Y-21126D01*
X-3486Y-21182D01*
X-3542Y-21126D01*
X-3486Y-21070D01*
X-3486Y-21182D01*
X-2699Y-20001D02*
X-2586Y-20001D01*
X-2474Y-20058D01*
X-2417Y-20114D01*
X-2361Y-20226D01*
X-2305Y-20451D01*
X-2305Y-20732D01*
X-2361Y-20957D01*
X-2417Y-21070D01*
X-2474Y-21126D01*
X-2586Y-21182D01*
X-2699Y-21182D01*
X-2811Y-21126D01*
X-2867Y-21070D01*
X-2924Y-20957D01*
X-2980Y-20732D01*
X-2980Y-20451D01*
X-2924Y-20226D01*
X-2867Y-20114D01*
X-2811Y-20058D01*
X-2699Y-20001D01*
X-1574Y-20001D02*
X-1461Y-20001D01*
X-1349Y-20058D01*
X-1293Y-20114D01*
X-1236Y-20226D01*
X-1180Y-20451D01*
X-1180Y-20732D01*
X-1236Y-20957D01*
X-1293Y-21070D01*
X-1349Y-21126D01*
X-1461Y-21182D01*
X-1574Y-21182D01*
X-1686Y-21126D01*
X-1742Y-21070D01*
X-1799Y-20957D01*
X-1855Y-20732D01*
X-1855Y-20451D01*
X-1799Y-20226D01*
X-1742Y-20114D01*
X-1686Y-20058D01*
X-1574Y-20001D01*
X-674Y-21182D02*
X-674Y-20395D01*
X-674Y-20507D02*
X-618Y-20451D01*
X-505Y-20395D01*
X-336Y-20395D01*
X-224Y-20451D01*
X-168Y-20564D01*
X-168Y-21182D01*
X-168Y-20564D02*
X-111Y-20451D01*
X0Y-20395D01*
X169Y-20395D01*
X281Y-20451D01*
X337Y-20564D01*
X337Y-21182D01*
X900Y-21182D02*
X900Y-20395D01*
X900Y-20507D02*
X956Y-20451D01*
X1069Y-20395D01*
X1237Y-20395D01*
X1350Y-20451D01*
X1406Y-20564D01*
X1406Y-21182D01*
X1406Y-20564D02*
X1462Y-20451D01*
X1575Y-20395D01*
X1744Y-20395D01*
X1856Y-20451D01*
X1912Y-20564D01*
X1912Y-21182D01*
X4218Y-19945D02*
X3206Y-21464D01*
X5737Y-20001D02*
X5849Y-20001D01*
X5962Y-20058D01*
X6018Y-20114D01*
X6074Y-20226D01*
X6131Y-20451D01*
X6131Y-20732D01*
X6074Y-20957D01*
X6018Y-21070D01*
X5962Y-21126D01*
X5849Y-21182D01*
X5737Y-21182D01*
X5624Y-21126D01*
X5568Y-21070D01*
X5512Y-20957D01*
X5456Y-20732D01*
X5456Y-20451D01*
X5512Y-20226D01*
X5568Y-20114D01*
X5624Y-20058D01*
X5737Y-20001D01*
X6637Y-21070D02*
X6693Y-21126D01*
X6637Y-21182D01*
X6580Y-21126D01*
X6637Y-21070D01*
X6637Y-21182D01*
X7424Y-20001D02*
X7537Y-20001D01*
X7649Y-20058D01*
X7705Y-20114D01*
X7762Y-20226D01*
X7818Y-20451D01*
X7818Y-20732D01*
X7762Y-20957D01*
X7705Y-21070D01*
X7649Y-21126D01*
X7537Y-21182D01*
X7424Y-21182D01*
X7312Y-21126D01*
X7255Y-21070D01*
X7199Y-20957D01*
X7143Y-20732D01*
X7143Y-20451D01*
X7199Y-20226D01*
X7255Y-20114D01*
X7312Y-20058D01*
X7424Y-20001D01*
X8212Y-20001D02*
X8943Y-20001D01*
X8549Y-20451D01*
X8718Y-20451D01*
X8830Y-20507D01*
X8886Y-20564D01*
X8943Y-20676D01*
X8943Y-20957D01*
X8886Y-21070D01*
X8830Y-21126D01*
X8718Y-21182D01*
X8380Y-21182D01*
X8268Y-21126D01*
X8212Y-21070D01*
X9505Y-21182D02*
X9730Y-21182D01*
X9843Y-21126D01*
X9899Y-21070D01*
X10011Y-20901D01*
X10068Y-20676D01*
X10068Y-20226D01*
X10011Y-20114D01*
X9955Y-20058D01*
X9843Y-20001D01*
X9618Y-20001D01*
X9505Y-20058D01*
X9449Y-20114D01*
X9393Y-20226D01*
X9393Y-20507D01*
X9449Y-20620D01*
X9505Y-20676D01*
X9618Y-20732D01*
X9843Y-20732D01*
X9955Y-20676D01*
X10011Y-20620D01*
X10068Y-20507D01*
X10517Y-20001D02*
X10517Y-20226D01*
X10967Y-20001D02*
X10967Y-20226D01*
X12711Y-21632D02*
X12655Y-21576D01*
X12542Y-21407D01*
X12486Y-21295D01*
X12430Y-21126D01*
X12373Y-20845D01*
X12373Y-20620D01*
X12430Y-20339D01*
X12486Y-20170D01*
X12542Y-20058D01*
X12655Y-19889D01*
X12711Y-19833D01*
X13048Y-20001D02*
X13780Y-20001D01*
X13386Y-20451D01*
X13555Y-20451D01*
X13667Y-20507D01*
X13723Y-20564D01*
X13780Y-20676D01*
X13780Y-20957D01*
X13723Y-21070D01*
X13667Y-21126D01*
X13555Y-21182D01*
X13217Y-21182D01*
X13105Y-21126D01*
X13048Y-21070D01*
X14792Y-20395D02*
X14792Y-21182D01*
X14511Y-19945D02*
X14230Y-20789D01*
X14961Y-20789D01*
X16311Y-21182D02*
X16311Y-20001D01*
X16817Y-21182D02*
X16817Y-20564D01*
X16760Y-20451D01*
X16648Y-20395D01*
X16479Y-20395D01*
X16367Y-20451D01*
X16311Y-20507D01*
X17548Y-21182D02*
X17435Y-21126D01*
X17379Y-21070D01*
X17323Y-20957D01*
X17323Y-20620D01*
X17379Y-20507D01*
X17435Y-20451D01*
X17548Y-20395D01*
X17717Y-20395D01*
X17829Y-20451D01*
X17885Y-20507D01*
X17942Y-20620D01*
X17942Y-20957D01*
X17885Y-21070D01*
X17829Y-21126D01*
X17717Y-21182D01*
X17548Y-21182D01*
X18616Y-21182D02*
X18504Y-21126D01*
X18448Y-21014D01*
X18448Y-20001D01*
X19516Y-21126D02*
X19404Y-21182D01*
X19179Y-21182D01*
X19066Y-21126D01*
X19010Y-21014D01*
X19010Y-20564D01*
X19066Y-20451D01*
X19179Y-20395D01*
X19404Y-20395D01*
X19516Y-20451D01*
X19573Y-20564D01*
X19573Y-20676D01*
X19010Y-20789D01*
X20023Y-21126D02*
X20135Y-21182D01*
X20360Y-21182D01*
X20472Y-21126D01*
X20529Y-21014D01*
X20529Y-20957D01*
X20472Y-20845D01*
X20360Y-20789D01*
X20191Y-20789D01*
X20079Y-20732D01*
X20023Y-20620D01*
X20023Y-20564D01*
X20079Y-20451D01*
X20191Y-20395D01*
X20360Y-20395D01*
X20472Y-20451D01*
X21935Y-20732D02*
X22835Y-20732D01*
X22385Y-21182D02*
X22385Y-20282D01*
X24185Y-20001D02*
X24916Y-20001D01*
X24522Y-20451D01*
X24691Y-20451D01*
X24803Y-20507D01*
X24859Y-20564D01*
X24916Y-20676D01*
X24916Y-20957D01*
X24859Y-21070D01*
X24803Y-21126D01*
X24691Y-21182D01*
X24353Y-21182D01*
X24241Y-21126D01*
X24185Y-21070D01*
X26266Y-21126D02*
X26378Y-21182D01*
X26603Y-21182D01*
X26715Y-21126D01*
X26772Y-21014D01*
X26772Y-20957D01*
X26715Y-20845D01*
X26603Y-20789D01*
X26434Y-20789D01*
X26322Y-20732D01*
X26266Y-20620D01*
X26266Y-20564D01*
X26322Y-20451D01*
X26434Y-20395D01*
X26603Y-20395D01*
X26715Y-20451D01*
X27447Y-21182D02*
X27334Y-21126D01*
X27278Y-21014D01*
X27278Y-20001D01*
X28065Y-21182D02*
X27953Y-21126D01*
X27897Y-21070D01*
X27840Y-20957D01*
X27840Y-20620D01*
X27897Y-20507D01*
X27953Y-20451D01*
X28065Y-20395D01*
X28234Y-20395D01*
X28346Y-20451D01*
X28403Y-20507D01*
X28459Y-20620D01*
X28459Y-20957D01*
X28403Y-21070D01*
X28346Y-21126D01*
X28234Y-21182D01*
X28065Y-21182D01*
X28796Y-20395D02*
X29246Y-20395D01*
X28965Y-20001D02*
X28965Y-21014D01*
X29021Y-21126D01*
X29134Y-21182D01*
X29246Y-21182D01*
X29584Y-21126D02*
X29696Y-21182D01*
X29921Y-21182D01*
X30034Y-21126D01*
X30090Y-21014D01*
X30090Y-20957D01*
X30034Y-20845D01*
X29921Y-20789D01*
X29753Y-20789D01*
X29640Y-20732D01*
X29584Y-20620D01*
X29584Y-20564D01*
X29640Y-20451D01*
X29753Y-20395D01*
X29921Y-20395D01*
X30034Y-20451D01*
X30484Y-21632D02*
X30540Y-21576D01*
X30652Y-21407D01*
X30709Y-21295D01*
X30765Y-21126D01*
X30821Y-20845D01*
X30821Y-20620D01*
X30765Y-20339D01*
X30709Y-20170D01*
X30652Y-20058D01*
X30540Y-19889D01*
X30484Y-19833D01*
M02*
