G04 (created by PCBNEW (2013-dec-23)-stable) date Sat 29 Mar 2014 16:15:46 CDT*
%MOIN*%
G04 Gerber Fmt 3.4, Leading zero omitted, Abs format*
%FSLAX34Y34*%
G01*
G70*
G90*
G04 APERTURE LIST*
%ADD10C,0.00590551*%
%ADD11C,0.006*%
%ADD12R,0.0531496X0.0637795*%
%ADD13R,0.0141732X0.0478346*%
%ADD14O,0.0506693X0.0928346*%
%ADD15O,0.0446457X0.0800787*%
%ADD16R,0.0225X0.0405*%
%ADD17R,0.0405X0.0225*%
%ADD18R,0.0144X0.054*%
%ADD19R,0.054X0.0144*%
%ADD20R,0.018X0.027*%
%ADD21R,0.054X0.072*%
%ADD22R,0.0442913X0.0531496*%
%ADD23R,0.0531496X0.0442913*%
%ADD24R,0.0855X0.0855*%
%ADD25R,0.0531496X0.0212598*%
G04 APERTURE END LIST*
G54D10*
X-36650Y31000D02*
X65350Y31000D01*
X65350Y-46000D01*
X-36650Y-46000D01*
X-36650Y31000D01*
X-35950Y30300D02*
X64650Y30300D01*
X64650Y-45300D01*
X-35950Y-45300D01*
X-35950Y30300D01*
X-16250Y31000D02*
X-16250Y30300D01*
X-26307Y30447D02*
X-26592Y30447D01*
X-26450Y30447D02*
X-26450Y30947D01*
X-26497Y30876D01*
X-26545Y30828D01*
X-26592Y30804D01*
X-16250Y-46000D02*
X-16250Y-45300D01*
X-26307Y-45852D02*
X-26592Y-45852D01*
X-26450Y-45852D02*
X-26450Y-45352D01*
X-26497Y-45423D01*
X-26545Y-45471D01*
X-26592Y-45495D01*
X4150Y31000D02*
X4150Y30300D01*
X-6192Y30900D02*
X-6169Y30923D01*
X-6121Y30947D01*
X-6002Y30947D01*
X-5954Y30923D01*
X-5930Y30900D01*
X-5907Y30852D01*
X-5907Y30804D01*
X-5930Y30733D01*
X-6216Y30447D01*
X-5907Y30447D01*
X4150Y-46000D02*
X4150Y-45300D01*
X-6192Y-45400D02*
X-6169Y-45376D01*
X-6121Y-45352D01*
X-6002Y-45352D01*
X-5954Y-45376D01*
X-5930Y-45400D01*
X-5907Y-45447D01*
X-5907Y-45495D01*
X-5930Y-45566D01*
X-6216Y-45852D01*
X-5907Y-45852D01*
X24550Y31000D02*
X24550Y30300D01*
X14183Y30947D02*
X14492Y30947D01*
X14326Y30757D01*
X14397Y30757D01*
X14445Y30733D01*
X14469Y30709D01*
X14492Y30661D01*
X14492Y30542D01*
X14469Y30495D01*
X14445Y30471D01*
X14397Y30447D01*
X14254Y30447D01*
X14207Y30471D01*
X14183Y30495D01*
X24550Y-46000D02*
X24550Y-45300D01*
X14183Y-45352D02*
X14492Y-45352D01*
X14326Y-45542D01*
X14397Y-45542D01*
X14445Y-45566D01*
X14469Y-45590D01*
X14492Y-45638D01*
X14492Y-45757D01*
X14469Y-45804D01*
X14445Y-45828D01*
X14397Y-45852D01*
X14254Y-45852D01*
X14207Y-45828D01*
X14183Y-45804D01*
X44950Y31000D02*
X44950Y30300D01*
X34845Y30780D02*
X34845Y30447D01*
X34726Y30971D02*
X34607Y30614D01*
X34916Y30614D01*
X44950Y-46000D02*
X44950Y-45300D01*
X34845Y-45519D02*
X34845Y-45852D01*
X34726Y-45328D02*
X34607Y-45685D01*
X34916Y-45685D01*
X55269Y30947D02*
X55030Y30947D01*
X55007Y30709D01*
X55030Y30733D01*
X55078Y30757D01*
X55197Y30757D01*
X55245Y30733D01*
X55269Y30709D01*
X55292Y30661D01*
X55292Y30542D01*
X55269Y30495D01*
X55245Y30471D01*
X55197Y30447D01*
X55078Y30447D01*
X55030Y30471D01*
X55007Y30495D01*
X55269Y-45352D02*
X55030Y-45352D01*
X55007Y-45590D01*
X55030Y-45566D01*
X55078Y-45542D01*
X55197Y-45542D01*
X55245Y-45566D01*
X55269Y-45590D01*
X55292Y-45638D01*
X55292Y-45757D01*
X55269Y-45804D01*
X55245Y-45828D01*
X55197Y-45852D01*
X55078Y-45852D01*
X55030Y-45828D01*
X55007Y-45804D01*
X-36650Y5340D02*
X-35950Y5340D01*
X-36419Y18110D02*
X-36180Y18110D01*
X-36466Y17967D02*
X-36299Y18467D01*
X-36133Y17967D01*
X65350Y5340D02*
X64650Y5340D01*
X64880Y18110D02*
X65119Y18110D01*
X64833Y17967D02*
X65000Y18467D01*
X65166Y17967D01*
X-36650Y-20320D02*
X-35950Y-20320D01*
X-36264Y-7430D02*
X-36192Y-7454D01*
X-36169Y-7478D01*
X-36145Y-7525D01*
X-36145Y-7597D01*
X-36169Y-7644D01*
X-36192Y-7668D01*
X-36240Y-7692D01*
X-36430Y-7692D01*
X-36430Y-7192D01*
X-36264Y-7192D01*
X-36216Y-7216D01*
X-36192Y-7240D01*
X-36169Y-7287D01*
X-36169Y-7335D01*
X-36192Y-7382D01*
X-36216Y-7406D01*
X-36264Y-7430D01*
X-36430Y-7430D01*
X65350Y-20320D02*
X64650Y-20320D01*
X65035Y-7430D02*
X65107Y-7454D01*
X65130Y-7478D01*
X65154Y-7525D01*
X65154Y-7597D01*
X65130Y-7644D01*
X65107Y-7668D01*
X65059Y-7692D01*
X64869Y-7692D01*
X64869Y-7192D01*
X65035Y-7192D01*
X65083Y-7216D01*
X65107Y-7240D01*
X65130Y-7287D01*
X65130Y-7335D01*
X65107Y-7382D01*
X65083Y-7406D01*
X65035Y-7430D01*
X64869Y-7430D01*
X-36145Y-33304D02*
X-36169Y-33328D01*
X-36240Y-33352D01*
X-36288Y-33352D01*
X-36359Y-33328D01*
X-36407Y-33280D01*
X-36430Y-33233D01*
X-36454Y-33138D01*
X-36454Y-33066D01*
X-36430Y-32971D01*
X-36407Y-32923D01*
X-36359Y-32876D01*
X-36288Y-32852D01*
X-36240Y-32852D01*
X-36169Y-32876D01*
X-36145Y-32900D01*
X65154Y-33304D02*
X65130Y-33328D01*
X65059Y-33352D01*
X65011Y-33352D01*
X64940Y-33328D01*
X64892Y-33280D01*
X64869Y-33233D01*
X64845Y-33138D01*
X64845Y-33066D01*
X64869Y-32971D01*
X64892Y-32923D01*
X64940Y-32876D01*
X65011Y-32852D01*
X65059Y-32852D01*
X65130Y-32876D01*
X65154Y-32900D01*
X31800Y-43742D02*
X31875Y-43142D01*
X32017Y-43142D01*
X32100Y-43171D01*
X32150Y-43228D01*
X32171Y-43285D01*
X32185Y-43400D01*
X32175Y-43485D01*
X32132Y-43600D01*
X32096Y-43657D01*
X32032Y-43714D01*
X31942Y-43742D01*
X31800Y-43742D01*
X32657Y-43742D02*
X32696Y-43428D01*
X32675Y-43371D01*
X32621Y-43342D01*
X32507Y-43342D01*
X32446Y-43371D01*
X32660Y-43714D02*
X32600Y-43742D01*
X32457Y-43742D01*
X32403Y-43714D01*
X32382Y-43657D01*
X32389Y-43600D01*
X32425Y-43542D01*
X32485Y-43514D01*
X32628Y-43514D01*
X32689Y-43485D01*
X32907Y-43342D02*
X33135Y-43342D01*
X33017Y-43142D02*
X32953Y-43657D01*
X32975Y-43714D01*
X33028Y-43742D01*
X33085Y-43742D01*
X33517Y-43714D02*
X33457Y-43742D01*
X33342Y-43742D01*
X33289Y-43714D01*
X33267Y-43657D01*
X33296Y-43428D01*
X33332Y-43371D01*
X33392Y-43342D01*
X33507Y-43342D01*
X33560Y-43371D01*
X33582Y-43428D01*
X33575Y-43485D01*
X33282Y-43542D01*
X33807Y-43685D02*
X33832Y-43714D01*
X33800Y-43742D01*
X33775Y-43714D01*
X33807Y-43685D01*
X33800Y-43742D01*
X33846Y-43371D02*
X33871Y-43400D01*
X33839Y-43428D01*
X33814Y-43400D01*
X33846Y-43371D01*
X33839Y-43428D01*
X34582Y-43200D02*
X34614Y-43171D01*
X34675Y-43142D01*
X34817Y-43142D01*
X34871Y-43171D01*
X34896Y-43200D01*
X34917Y-43257D01*
X34910Y-43314D01*
X34871Y-43400D01*
X34485Y-43742D01*
X34857Y-43742D01*
X35142Y-43742D02*
X35257Y-43742D01*
X35317Y-43714D01*
X35350Y-43685D01*
X35417Y-43600D01*
X35460Y-43485D01*
X35489Y-43257D01*
X35467Y-43200D01*
X35442Y-43171D01*
X35389Y-43142D01*
X35275Y-43142D01*
X35214Y-43171D01*
X35182Y-43200D01*
X35146Y-43257D01*
X35128Y-43400D01*
X35150Y-43457D01*
X35175Y-43485D01*
X35228Y-43514D01*
X35342Y-43514D01*
X35403Y-43485D01*
X35435Y-43457D01*
X35471Y-43400D01*
X36142Y-43742D02*
X36192Y-43342D01*
X36185Y-43400D02*
X36217Y-43371D01*
X36278Y-43342D01*
X36364Y-43342D01*
X36417Y-43371D01*
X36439Y-43428D01*
X36400Y-43742D01*
X36439Y-43428D02*
X36475Y-43371D01*
X36535Y-43342D01*
X36621Y-43342D01*
X36675Y-43371D01*
X36696Y-43428D01*
X36657Y-43742D01*
X37200Y-43742D02*
X37239Y-43428D01*
X37217Y-43371D01*
X37164Y-43342D01*
X37050Y-43342D01*
X36989Y-43371D01*
X37203Y-43714D02*
X37142Y-43742D01*
X37000Y-43742D01*
X36946Y-43714D01*
X36925Y-43657D01*
X36932Y-43600D01*
X36967Y-43542D01*
X37028Y-43514D01*
X37171Y-43514D01*
X37232Y-43485D01*
X37485Y-43742D02*
X37535Y-43342D01*
X37521Y-43457D02*
X37557Y-43400D01*
X37589Y-43371D01*
X37650Y-43342D01*
X37707Y-43342D01*
X38353Y-43200D02*
X38385Y-43171D01*
X38446Y-43142D01*
X38589Y-43142D01*
X38642Y-43171D01*
X38667Y-43200D01*
X38689Y-43257D01*
X38682Y-43314D01*
X38642Y-43400D01*
X38257Y-43742D01*
X38628Y-43742D01*
X39075Y-43142D02*
X39132Y-43142D01*
X39185Y-43171D01*
X39210Y-43200D01*
X39232Y-43257D01*
X39246Y-43371D01*
X39228Y-43514D01*
X39185Y-43628D01*
X39150Y-43685D01*
X39117Y-43714D01*
X39057Y-43742D01*
X39000Y-43742D01*
X38946Y-43714D01*
X38921Y-43685D01*
X38900Y-43628D01*
X38885Y-43514D01*
X38903Y-43371D01*
X38946Y-43257D01*
X38982Y-43200D01*
X39014Y-43171D01*
X39075Y-43142D01*
X39771Y-43742D02*
X39428Y-43742D01*
X39600Y-43742D02*
X39675Y-43142D01*
X39607Y-43228D01*
X39542Y-43285D01*
X39482Y-43314D01*
X40335Y-43342D02*
X40285Y-43742D01*
X40221Y-43114D02*
X40025Y-43542D01*
X40396Y-43542D01*
X23392Y-44942D02*
X23392Y-44342D01*
X23735Y-44942D02*
X23478Y-44600D01*
X23735Y-44342D02*
X23392Y-44685D01*
X23992Y-44942D02*
X23992Y-44542D01*
X23992Y-44342D02*
X23964Y-44371D01*
X23992Y-44400D01*
X24021Y-44371D01*
X23992Y-44342D01*
X23992Y-44400D01*
X24621Y-44885D02*
X24592Y-44914D01*
X24507Y-44942D01*
X24450Y-44942D01*
X24364Y-44914D01*
X24307Y-44857D01*
X24278Y-44800D01*
X24250Y-44685D01*
X24250Y-44600D01*
X24278Y-44485D01*
X24307Y-44428D01*
X24364Y-44371D01*
X24450Y-44342D01*
X24507Y-44342D01*
X24592Y-44371D01*
X24621Y-44400D01*
X25135Y-44942D02*
X25135Y-44628D01*
X25107Y-44571D01*
X25050Y-44542D01*
X24935Y-44542D01*
X24878Y-44571D01*
X25135Y-44914D02*
X25078Y-44942D01*
X24935Y-44942D01*
X24878Y-44914D01*
X24850Y-44857D01*
X24850Y-44800D01*
X24878Y-44742D01*
X24935Y-44714D01*
X25078Y-44714D01*
X25135Y-44685D01*
X25678Y-44942D02*
X25678Y-44342D01*
X25678Y-44914D02*
X25621Y-44942D01*
X25507Y-44942D01*
X25450Y-44914D01*
X25421Y-44885D01*
X25392Y-44828D01*
X25392Y-44657D01*
X25421Y-44600D01*
X25450Y-44571D01*
X25507Y-44542D01*
X25621Y-44542D01*
X25678Y-44571D01*
X26421Y-44628D02*
X26621Y-44628D01*
X26707Y-44942D02*
X26421Y-44942D01*
X26421Y-44342D01*
X26707Y-44342D01*
X26964Y-44885D02*
X26992Y-44914D01*
X26964Y-44942D01*
X26935Y-44914D01*
X26964Y-44885D01*
X26964Y-44942D01*
X27249Y-44942D02*
X27249Y-44342D01*
X27392Y-44342D01*
X27478Y-44371D01*
X27535Y-44428D01*
X27564Y-44485D01*
X27592Y-44600D01*
X27592Y-44685D01*
X27564Y-44800D01*
X27535Y-44857D01*
X27478Y-44914D01*
X27392Y-44942D01*
X27249Y-44942D01*
X27849Y-44885D02*
X27878Y-44914D01*
X27849Y-44942D01*
X27821Y-44914D01*
X27849Y-44885D01*
X27849Y-44942D01*
X28107Y-44771D02*
X28392Y-44771D01*
X28049Y-44942D02*
X28249Y-44342D01*
X28449Y-44942D01*
X28649Y-44885D02*
X28678Y-44914D01*
X28649Y-44942D01*
X28621Y-44914D01*
X28649Y-44885D01*
X28649Y-44942D01*
X56942Y-43742D02*
X56778Y-43457D01*
X56600Y-43742D02*
X56675Y-43142D01*
X56903Y-43142D01*
X56957Y-43171D01*
X56982Y-43200D01*
X57003Y-43257D01*
X56992Y-43342D01*
X56957Y-43400D01*
X56925Y-43428D01*
X56864Y-43457D01*
X56635Y-43457D01*
X57432Y-43714D02*
X57371Y-43742D01*
X57257Y-43742D01*
X57203Y-43714D01*
X57182Y-43657D01*
X57210Y-43428D01*
X57246Y-43371D01*
X57307Y-43342D01*
X57421Y-43342D01*
X57475Y-43371D01*
X57496Y-43428D01*
X57489Y-43485D01*
X57196Y-43542D01*
X57707Y-43342D02*
X57800Y-43742D01*
X57992Y-43342D01*
X58178Y-43685D02*
X58203Y-43714D01*
X58171Y-43742D01*
X58146Y-43714D01*
X58178Y-43685D01*
X58171Y-43742D01*
X58217Y-43371D02*
X58242Y-43400D01*
X58210Y-43428D01*
X58185Y-43400D01*
X58217Y-43371D01*
X58210Y-43428D01*
X58914Y-43742D02*
X58989Y-43142D01*
X59217Y-43142D01*
X59271Y-43171D01*
X59296Y-43200D01*
X59317Y-43257D01*
X59307Y-43342D01*
X59271Y-43400D01*
X59239Y-43428D01*
X59178Y-43457D01*
X58950Y-43457D01*
X59828Y-43742D02*
X59485Y-43742D01*
X59657Y-43742D02*
X59732Y-43142D01*
X59664Y-43228D01*
X59600Y-43285D01*
X59539Y-43314D01*
X23364Y-43714D02*
X23450Y-43742D01*
X23592Y-43742D01*
X23650Y-43714D01*
X23678Y-43685D01*
X23707Y-43628D01*
X23707Y-43571D01*
X23678Y-43514D01*
X23650Y-43485D01*
X23592Y-43457D01*
X23478Y-43428D01*
X23421Y-43400D01*
X23392Y-43371D01*
X23364Y-43314D01*
X23364Y-43257D01*
X23392Y-43200D01*
X23421Y-43171D01*
X23478Y-43142D01*
X23621Y-43142D01*
X23707Y-43171D01*
X23964Y-43742D02*
X23964Y-43342D01*
X23964Y-43142D02*
X23935Y-43171D01*
X23964Y-43200D01*
X23992Y-43171D01*
X23964Y-43142D01*
X23964Y-43200D01*
X24192Y-43342D02*
X24507Y-43342D01*
X24192Y-43742D01*
X24507Y-43742D01*
X24964Y-43714D02*
X24907Y-43742D01*
X24792Y-43742D01*
X24735Y-43714D01*
X24707Y-43657D01*
X24707Y-43428D01*
X24735Y-43371D01*
X24792Y-43342D01*
X24907Y-43342D01*
X24964Y-43371D01*
X24992Y-43428D01*
X24992Y-43485D01*
X24707Y-43542D01*
X25250Y-43685D02*
X25278Y-43714D01*
X25250Y-43742D01*
X25221Y-43714D01*
X25250Y-43685D01*
X25250Y-43742D01*
X25250Y-43371D02*
X25278Y-43400D01*
X25250Y-43428D01*
X25221Y-43400D01*
X25250Y-43371D01*
X25250Y-43428D01*
X25964Y-43571D02*
X26250Y-43571D01*
X25907Y-43742D02*
X26107Y-43142D01*
X26307Y-43742D01*
X56592Y-44942D02*
X56592Y-44342D01*
X57135Y-44942D02*
X57135Y-44342D01*
X57135Y-44914D02*
X57078Y-44942D01*
X56964Y-44942D01*
X56907Y-44914D01*
X56878Y-44885D01*
X56850Y-44828D01*
X56850Y-44657D01*
X56878Y-44600D01*
X56907Y-44571D01*
X56964Y-44542D01*
X57078Y-44542D01*
X57135Y-44571D01*
X57421Y-44885D02*
X57450Y-44914D01*
X57421Y-44942D01*
X57392Y-44914D01*
X57421Y-44885D01*
X57421Y-44942D01*
X57421Y-44571D02*
X57450Y-44600D01*
X57421Y-44628D01*
X57392Y-44600D01*
X57421Y-44571D01*
X57421Y-44628D01*
X58478Y-44942D02*
X58135Y-44942D01*
X58307Y-44942D02*
X58307Y-44342D01*
X58249Y-44428D01*
X58192Y-44485D01*
X58135Y-44514D01*
X59164Y-44314D02*
X58650Y-45085D01*
X59678Y-44942D02*
X59335Y-44942D01*
X59507Y-44942D02*
X59507Y-44342D01*
X59449Y-44428D01*
X59392Y-44485D01*
X59335Y-44514D01*
X23389Y-41942D02*
X23732Y-41942D01*
X23485Y-42542D02*
X23560Y-41942D01*
X23857Y-42542D02*
X23907Y-42142D01*
X23932Y-41942D02*
X23900Y-41971D01*
X23925Y-42000D01*
X23957Y-41971D01*
X23932Y-41942D01*
X23925Y-42000D01*
X24107Y-42142D02*
X24335Y-42142D01*
X24217Y-41942D02*
X24153Y-42457D01*
X24175Y-42514D01*
X24228Y-42542D01*
X24285Y-42542D01*
X24571Y-42542D02*
X24517Y-42514D01*
X24496Y-42457D01*
X24560Y-41942D01*
X25032Y-42514D02*
X24971Y-42542D01*
X24857Y-42542D01*
X24803Y-42514D01*
X24782Y-42457D01*
X24810Y-42228D01*
X24846Y-42171D01*
X24907Y-42142D01*
X25021Y-42142D01*
X25075Y-42171D01*
X25096Y-42228D01*
X25089Y-42285D01*
X24796Y-42342D01*
X25321Y-42485D02*
X25346Y-42514D01*
X25314Y-42542D01*
X25289Y-42514D01*
X25321Y-42485D01*
X25314Y-42542D01*
X25360Y-42171D02*
X25385Y-42200D01*
X25353Y-42228D01*
X25328Y-42200D01*
X25360Y-42171D01*
X25353Y-42228D01*
X26296Y-42228D02*
X26378Y-42257D01*
X26403Y-42285D01*
X26425Y-42342D01*
X26414Y-42428D01*
X26378Y-42485D01*
X26346Y-42514D01*
X26285Y-42542D01*
X26057Y-42542D01*
X26132Y-41942D01*
X26332Y-41942D01*
X26385Y-41971D01*
X26410Y-42000D01*
X26432Y-42057D01*
X26425Y-42114D01*
X26389Y-42171D01*
X26357Y-42200D01*
X26296Y-42228D01*
X26096Y-42228D01*
X26846Y-41942D02*
X26960Y-41942D01*
X27014Y-41971D01*
X27064Y-42028D01*
X27078Y-42142D01*
X27053Y-42342D01*
X27010Y-42457D01*
X26946Y-42514D01*
X26885Y-42542D01*
X26771Y-42542D01*
X26717Y-42514D01*
X26667Y-42457D01*
X26653Y-42342D01*
X26678Y-42142D01*
X26721Y-42028D01*
X26785Y-41971D01*
X26846Y-41942D01*
X27278Y-42371D02*
X27564Y-42371D01*
X27200Y-42542D02*
X27475Y-41942D01*
X27600Y-42542D01*
X28142Y-42542D02*
X27978Y-42257D01*
X27800Y-42542D02*
X27875Y-41942D01*
X28103Y-41942D01*
X28157Y-41971D01*
X28182Y-42000D01*
X28203Y-42057D01*
X28192Y-42142D01*
X28157Y-42200D01*
X28125Y-42228D01*
X28064Y-42257D01*
X27835Y-42257D01*
X28400Y-42542D02*
X28475Y-41942D01*
X28617Y-41942D01*
X28700Y-41971D01*
X28750Y-42028D01*
X28771Y-42085D01*
X28785Y-42200D01*
X28775Y-42285D01*
X28732Y-42400D01*
X28696Y-42457D01*
X28632Y-42514D01*
X28542Y-42542D01*
X28400Y-42542D01*
X29032Y-42514D02*
X29028Y-42542D01*
X28992Y-42600D01*
X28960Y-42628D01*
X29742Y-42542D02*
X29817Y-41942D01*
X30046Y-41942D01*
X30099Y-41971D01*
X30125Y-42000D01*
X30146Y-42057D01*
X30135Y-42142D01*
X30100Y-42200D01*
X30067Y-42228D01*
X30007Y-42257D01*
X29778Y-42257D01*
X30692Y-42485D02*
X30660Y-42514D01*
X30571Y-42542D01*
X30514Y-42542D01*
X30432Y-42514D01*
X30382Y-42457D01*
X30360Y-42400D01*
X30346Y-42285D01*
X30357Y-42200D01*
X30400Y-42085D01*
X30435Y-42028D01*
X30499Y-41971D01*
X30589Y-41942D01*
X30646Y-41942D01*
X30728Y-41971D01*
X30753Y-42000D01*
X30975Y-42514D02*
X30971Y-42542D01*
X30935Y-42600D01*
X30903Y-42628D01*
X31675Y-41942D02*
X32017Y-41942D01*
X31771Y-42542D02*
X31846Y-41942D01*
X32142Y-42542D02*
X32217Y-41942D01*
X32182Y-42228D02*
X32525Y-42228D01*
X32485Y-42542D02*
X32560Y-41942D01*
X32960Y-41942D02*
X33075Y-41942D01*
X33128Y-41971D01*
X33178Y-42028D01*
X33192Y-42142D01*
X33167Y-42342D01*
X33124Y-42457D01*
X33060Y-42514D01*
X33000Y-42542D01*
X32885Y-42542D01*
X32832Y-42514D01*
X32782Y-42457D01*
X32767Y-42342D01*
X32792Y-42142D01*
X32835Y-42028D01*
X32899Y-41971D01*
X32960Y-41942D01*
X33389Y-41942D02*
X33732Y-41942D01*
X33485Y-42542D02*
X33560Y-41942D01*
X33857Y-42542D02*
X33932Y-41942D01*
X34199Y-42542D02*
X33985Y-42200D01*
X34274Y-41942D02*
X33889Y-42285D01*
X34646Y-41942D02*
X34760Y-41942D01*
X34814Y-41971D01*
X34864Y-42028D01*
X34878Y-42142D01*
X34853Y-42342D01*
X34810Y-42457D01*
X34746Y-42514D01*
X34685Y-42542D01*
X34571Y-42542D01*
X34517Y-42514D01*
X34467Y-42457D01*
X34453Y-42342D01*
X34478Y-42142D01*
X34521Y-42028D01*
X34585Y-41971D01*
X34646Y-41942D01*
X35085Y-42542D02*
X35160Y-41942D01*
X35428Y-42542D01*
X35503Y-41942D01*
X36360Y-41942D02*
X36417Y-41942D01*
X36471Y-41971D01*
X36496Y-42000D01*
X36517Y-42057D01*
X36532Y-42171D01*
X36514Y-42314D01*
X36471Y-42428D01*
X36435Y-42485D01*
X36403Y-42514D01*
X36342Y-42542D01*
X36285Y-42542D01*
X36232Y-42514D01*
X36207Y-42485D01*
X36185Y-42428D01*
X36171Y-42314D01*
X36189Y-42171D01*
X36232Y-42057D01*
X36267Y-42000D01*
X36299Y-41971D01*
X36360Y-41942D01*
X36760Y-41942D02*
X37085Y-42542D01*
X37160Y-41942D02*
X36685Y-42542D01*
X37674Y-41942D02*
X37389Y-41942D01*
X37325Y-42228D01*
X37357Y-42200D01*
X37417Y-42171D01*
X37560Y-42171D01*
X37614Y-42200D01*
X37639Y-42228D01*
X37660Y-42285D01*
X37642Y-42428D01*
X37607Y-42485D01*
X37574Y-42514D01*
X37514Y-42542D01*
X37371Y-42542D01*
X37317Y-42514D01*
X37292Y-42485D01*
X23592Y-39828D02*
X23392Y-39828D01*
X23392Y-40142D02*
X23392Y-39542D01*
X23678Y-39542D01*
X23907Y-40142D02*
X23907Y-39742D01*
X23907Y-39542D02*
X23878Y-39571D01*
X23907Y-39600D01*
X23935Y-39571D01*
X23907Y-39542D01*
X23907Y-39600D01*
X24278Y-40142D02*
X24221Y-40114D01*
X24192Y-40057D01*
X24192Y-39542D01*
X24735Y-40114D02*
X24678Y-40142D01*
X24564Y-40142D01*
X24507Y-40114D01*
X24478Y-40057D01*
X24478Y-39828D01*
X24507Y-39771D01*
X24564Y-39742D01*
X24678Y-39742D01*
X24735Y-39771D01*
X24764Y-39828D01*
X24764Y-39885D01*
X24478Y-39942D01*
X25021Y-40085D02*
X25050Y-40114D01*
X25021Y-40142D01*
X24992Y-40114D01*
X25021Y-40085D01*
X25021Y-40142D01*
X25021Y-39771D02*
X25050Y-39800D01*
X25021Y-39828D01*
X24992Y-39800D01*
X25021Y-39771D01*
X25021Y-39828D01*
X25678Y-39742D02*
X25907Y-39742D01*
X25764Y-39542D02*
X25764Y-40057D01*
X25792Y-40114D01*
X25850Y-40142D01*
X25907Y-40142D01*
X26107Y-40142D02*
X26107Y-39542D01*
X26364Y-40142D02*
X26364Y-39828D01*
X26335Y-39771D01*
X26278Y-39742D01*
X26192Y-39742D01*
X26135Y-39771D01*
X26107Y-39800D01*
X26735Y-40142D02*
X26678Y-40114D01*
X26650Y-40085D01*
X26621Y-40028D01*
X26621Y-39857D01*
X26650Y-39800D01*
X26678Y-39771D01*
X26735Y-39742D01*
X26821Y-39742D01*
X26878Y-39771D01*
X26907Y-39800D01*
X26935Y-39857D01*
X26935Y-40028D01*
X26907Y-40085D01*
X26878Y-40114D01*
X26821Y-40142D01*
X26735Y-40142D01*
X27107Y-39742D02*
X27335Y-39742D01*
X27192Y-39542D02*
X27192Y-40057D01*
X27221Y-40114D01*
X27278Y-40142D01*
X27335Y-40142D01*
X27792Y-40114D02*
X27735Y-40142D01*
X27621Y-40142D01*
X27564Y-40114D01*
X27535Y-40085D01*
X27507Y-40028D01*
X27507Y-39857D01*
X27535Y-39800D01*
X27564Y-39771D01*
X27621Y-39742D01*
X27735Y-39742D01*
X27792Y-39771D01*
X28135Y-40142D02*
X28078Y-40114D01*
X28050Y-40085D01*
X28021Y-40028D01*
X28021Y-39857D01*
X28050Y-39800D01*
X28078Y-39771D01*
X28135Y-39742D01*
X28221Y-39742D01*
X28278Y-39771D01*
X28307Y-39800D01*
X28335Y-39857D01*
X28335Y-40028D01*
X28307Y-40085D01*
X28278Y-40114D01*
X28221Y-40142D01*
X28135Y-40142D01*
X28592Y-39742D02*
X28592Y-40142D01*
X28592Y-39800D02*
X28621Y-39771D01*
X28678Y-39742D01*
X28764Y-39742D01*
X28821Y-39771D01*
X28850Y-39828D01*
X28850Y-40142D01*
X28992Y-40200D02*
X29450Y-40200D01*
X29707Y-39542D02*
X29764Y-39542D01*
X29821Y-39571D01*
X29850Y-39600D01*
X29878Y-39657D01*
X29907Y-39771D01*
X29907Y-39914D01*
X29878Y-40028D01*
X29850Y-40085D01*
X29821Y-40114D01*
X29764Y-40142D01*
X29707Y-40142D01*
X29650Y-40114D01*
X29621Y-40085D01*
X29592Y-40028D01*
X29564Y-39914D01*
X29564Y-39771D01*
X29592Y-39657D01*
X29621Y-39600D01*
X29650Y-39571D01*
X29707Y-39542D01*
X30107Y-40142D02*
X30421Y-39742D01*
X30107Y-39742D02*
X30421Y-40142D01*
X30935Y-39542D02*
X30650Y-39542D01*
X30621Y-39828D01*
X30650Y-39800D01*
X30707Y-39771D01*
X30850Y-39771D01*
X30907Y-39800D01*
X30935Y-39828D01*
X30964Y-39885D01*
X30964Y-40028D01*
X30935Y-40085D01*
X30907Y-40114D01*
X30850Y-40142D01*
X30707Y-40142D01*
X30650Y-40114D01*
X30621Y-40085D01*
X31221Y-40085D02*
X31250Y-40114D01*
X31221Y-40142D01*
X31192Y-40114D01*
X31221Y-40085D01*
X31221Y-40142D01*
X31507Y-40142D02*
X31507Y-39542D01*
X31507Y-39771D02*
X31564Y-39742D01*
X31678Y-39742D01*
X31735Y-39771D01*
X31764Y-39800D01*
X31792Y-39857D01*
X31792Y-40028D01*
X31764Y-40085D01*
X31735Y-40114D01*
X31678Y-40142D01*
X31564Y-40142D01*
X31507Y-40114D01*
X32050Y-40142D02*
X32050Y-39742D01*
X32050Y-39857D02*
X32078Y-39800D01*
X32107Y-39771D01*
X32164Y-39742D01*
X32221Y-39742D01*
X32678Y-40142D02*
X32678Y-39542D01*
X32678Y-40114D02*
X32621Y-40142D01*
X32507Y-40142D01*
X32450Y-40114D01*
X32421Y-40085D01*
X32392Y-40028D01*
X32392Y-39857D01*
X32421Y-39800D01*
X32450Y-39771D01*
X32507Y-39742D01*
X32621Y-39742D01*
X32678Y-39771D01*
X23364Y-41314D02*
X23450Y-41342D01*
X23592Y-41342D01*
X23650Y-41314D01*
X23678Y-41285D01*
X23707Y-41228D01*
X23707Y-41171D01*
X23678Y-41114D01*
X23650Y-41085D01*
X23592Y-41057D01*
X23478Y-41028D01*
X23421Y-41000D01*
X23392Y-40971D01*
X23364Y-40914D01*
X23364Y-40857D01*
X23392Y-40800D01*
X23421Y-40771D01*
X23478Y-40742D01*
X23621Y-40742D01*
X23707Y-40771D01*
X23964Y-41342D02*
X23964Y-40742D01*
X24221Y-41342D02*
X24221Y-41028D01*
X24192Y-40971D01*
X24135Y-40942D01*
X24050Y-40942D01*
X23992Y-40971D01*
X23964Y-41000D01*
X24735Y-41314D02*
X24678Y-41342D01*
X24564Y-41342D01*
X24507Y-41314D01*
X24478Y-41257D01*
X24478Y-41028D01*
X24507Y-40971D01*
X24564Y-40942D01*
X24678Y-40942D01*
X24735Y-40971D01*
X24764Y-41028D01*
X24764Y-41085D01*
X24478Y-41142D01*
X25250Y-41314D02*
X25192Y-41342D01*
X25078Y-41342D01*
X25021Y-41314D01*
X24992Y-41257D01*
X24992Y-41028D01*
X25021Y-40971D01*
X25078Y-40942D01*
X25192Y-40942D01*
X25250Y-40971D01*
X25278Y-41028D01*
X25278Y-41085D01*
X24992Y-41142D01*
X25450Y-40942D02*
X25678Y-40942D01*
X25535Y-40742D02*
X25535Y-41257D01*
X25564Y-41314D01*
X25621Y-41342D01*
X25678Y-41342D01*
X25878Y-41285D02*
X25907Y-41314D01*
X25878Y-41342D01*
X25850Y-41314D01*
X25878Y-41285D01*
X25878Y-41342D01*
X25878Y-40971D02*
X25907Y-41000D01*
X25878Y-41028D01*
X25850Y-41000D01*
X25878Y-40971D01*
X25878Y-41028D01*
X23417Y-38342D02*
X23485Y-38942D01*
X23653Y-38514D01*
X23714Y-38942D01*
X23932Y-38342D01*
X24171Y-38942D02*
X24117Y-38914D01*
X24092Y-38885D01*
X24071Y-38828D01*
X24092Y-38657D01*
X24128Y-38600D01*
X24160Y-38571D01*
X24221Y-38542D01*
X24307Y-38542D01*
X24360Y-38571D01*
X24385Y-38600D01*
X24407Y-38657D01*
X24385Y-38828D01*
X24350Y-38885D01*
X24317Y-38914D01*
X24257Y-38942D01*
X24171Y-38942D01*
X24628Y-38942D02*
X24678Y-38542D01*
X24664Y-38657D02*
X24700Y-38600D01*
X24732Y-38571D01*
X24792Y-38542D01*
X24850Y-38542D01*
X25000Y-38942D02*
X25075Y-38342D01*
X25085Y-38714D02*
X25228Y-38942D01*
X25278Y-38542D02*
X25021Y-38771D01*
X25460Y-38914D02*
X25514Y-38942D01*
X25628Y-38942D01*
X25689Y-38914D01*
X25725Y-38857D01*
X25728Y-38828D01*
X25707Y-38771D01*
X25653Y-38742D01*
X25567Y-38742D01*
X25514Y-38714D01*
X25492Y-38657D01*
X25496Y-38628D01*
X25532Y-38571D01*
X25592Y-38542D01*
X25678Y-38542D01*
X25732Y-38571D01*
X25971Y-38942D02*
X26046Y-38342D01*
X26228Y-38942D02*
X26267Y-38628D01*
X26246Y-38571D01*
X26192Y-38542D01*
X26107Y-38542D01*
X26046Y-38571D01*
X26014Y-38600D01*
X26599Y-38942D02*
X26546Y-38914D01*
X26521Y-38885D01*
X26500Y-38828D01*
X26521Y-38657D01*
X26557Y-38600D01*
X26589Y-38571D01*
X26649Y-38542D01*
X26735Y-38542D01*
X26789Y-38571D01*
X26814Y-38600D01*
X26835Y-38657D01*
X26814Y-38828D01*
X26778Y-38885D01*
X26746Y-38914D01*
X26685Y-38942D01*
X26599Y-38942D01*
X27107Y-38542D02*
X27032Y-39142D01*
X27103Y-38571D02*
X27164Y-38542D01*
X27278Y-38542D01*
X27332Y-38571D01*
X27357Y-38600D01*
X27378Y-38657D01*
X27357Y-38828D01*
X27321Y-38885D01*
X27289Y-38914D01*
X27228Y-38942D01*
X27114Y-38942D01*
X27060Y-38914D01*
X28185Y-38600D02*
X28132Y-38571D01*
X28107Y-38542D01*
X28085Y-38485D01*
X28089Y-38457D01*
X28124Y-38400D01*
X28157Y-38371D01*
X28217Y-38342D01*
X28332Y-38342D01*
X28385Y-38371D01*
X28410Y-38400D01*
X28432Y-38457D01*
X28428Y-38485D01*
X28392Y-38542D01*
X28360Y-38571D01*
X28299Y-38600D01*
X28185Y-38600D01*
X28125Y-38628D01*
X28092Y-38657D01*
X28057Y-38714D01*
X28042Y-38828D01*
X28064Y-38885D01*
X28089Y-38914D01*
X28142Y-38942D01*
X28257Y-38942D01*
X28317Y-38914D01*
X28349Y-38885D01*
X28385Y-38828D01*
X28399Y-38714D01*
X28378Y-38657D01*
X28353Y-38628D01*
X28299Y-38600D01*
X28757Y-38600D02*
X28703Y-38571D01*
X28678Y-38542D01*
X28657Y-38485D01*
X28660Y-38457D01*
X28696Y-38400D01*
X28728Y-38371D01*
X28789Y-38342D01*
X28903Y-38342D01*
X28957Y-38371D01*
X28982Y-38400D01*
X29003Y-38457D01*
X29000Y-38485D01*
X28964Y-38542D01*
X28932Y-38571D01*
X28871Y-38600D01*
X28757Y-38600D01*
X28696Y-38628D01*
X28664Y-38657D01*
X28628Y-38714D01*
X28614Y-38828D01*
X28635Y-38885D01*
X28660Y-38914D01*
X28714Y-38942D01*
X28828Y-38942D01*
X28889Y-38914D01*
X28921Y-38885D01*
X28957Y-38828D01*
X28971Y-38714D01*
X28949Y-38657D01*
X28925Y-38628D01*
X28871Y-38600D01*
X23392Y-37742D02*
X23392Y-37142D01*
X23535Y-37142D01*
X23621Y-37171D01*
X23678Y-37228D01*
X23707Y-37285D01*
X23735Y-37400D01*
X23735Y-37485D01*
X23707Y-37600D01*
X23678Y-37657D01*
X23621Y-37714D01*
X23535Y-37742D01*
X23392Y-37742D01*
X23992Y-37742D02*
X23992Y-37342D01*
X23992Y-37457D02*
X24021Y-37400D01*
X24050Y-37371D01*
X24107Y-37342D01*
X24164Y-37342D01*
X24621Y-37742D02*
X24621Y-37428D01*
X24592Y-37371D01*
X24535Y-37342D01*
X24421Y-37342D01*
X24364Y-37371D01*
X24621Y-37714D02*
X24564Y-37742D01*
X24421Y-37742D01*
X24364Y-37714D01*
X24335Y-37657D01*
X24335Y-37600D01*
X24364Y-37542D01*
X24421Y-37514D01*
X24564Y-37514D01*
X24621Y-37485D01*
X24850Y-37342D02*
X24964Y-37742D01*
X25078Y-37457D01*
X25192Y-37742D01*
X25307Y-37342D01*
X25535Y-37342D02*
X25535Y-37742D01*
X25535Y-37400D02*
X25564Y-37371D01*
X25621Y-37342D01*
X25707Y-37342D01*
X25764Y-37371D01*
X25792Y-37428D01*
X25792Y-37742D01*
X26078Y-37685D02*
X26107Y-37714D01*
X26078Y-37742D01*
X26050Y-37714D01*
X26078Y-37685D01*
X26078Y-37742D01*
X26078Y-37371D02*
X26107Y-37400D01*
X26078Y-37428D01*
X26050Y-37400D01*
X26078Y-37371D01*
X26078Y-37428D01*
X26821Y-37742D02*
X26821Y-37142D01*
X27050Y-37142D01*
X27107Y-37171D01*
X27135Y-37200D01*
X27164Y-37257D01*
X27164Y-37342D01*
X27135Y-37400D01*
X27107Y-37428D01*
X27050Y-37457D01*
X26821Y-37457D01*
X27678Y-37742D02*
X27678Y-37428D01*
X27650Y-37371D01*
X27592Y-37342D01*
X27478Y-37342D01*
X27421Y-37371D01*
X27678Y-37714D02*
X27621Y-37742D01*
X27478Y-37742D01*
X27421Y-37714D01*
X27392Y-37657D01*
X27392Y-37600D01*
X27421Y-37542D01*
X27478Y-37514D01*
X27621Y-37514D01*
X27678Y-37485D01*
X28221Y-37342D02*
X28221Y-37742D01*
X27964Y-37342D02*
X27964Y-37657D01*
X27992Y-37714D01*
X28049Y-37742D01*
X28135Y-37742D01*
X28192Y-37714D01*
X28221Y-37685D01*
X28592Y-37742D02*
X28535Y-37714D01*
X28507Y-37657D01*
X28507Y-37142D01*
X29621Y-37742D02*
X29421Y-37457D01*
X29278Y-37742D02*
X29278Y-37142D01*
X29507Y-37142D01*
X29564Y-37171D01*
X29592Y-37200D01*
X29621Y-37257D01*
X29621Y-37342D01*
X29592Y-37400D01*
X29564Y-37428D01*
X29507Y-37457D01*
X29278Y-37457D01*
X30107Y-37714D02*
X30050Y-37742D01*
X29935Y-37742D01*
X29878Y-37714D01*
X29850Y-37657D01*
X29850Y-37428D01*
X29878Y-37371D01*
X29935Y-37342D01*
X30050Y-37342D01*
X30107Y-37371D01*
X30135Y-37428D01*
X30135Y-37485D01*
X29850Y-37542D01*
X30392Y-37742D02*
X30392Y-37342D01*
X30392Y-37142D02*
X30364Y-37171D01*
X30392Y-37200D01*
X30421Y-37171D01*
X30392Y-37142D01*
X30392Y-37200D01*
X30935Y-37714D02*
X30878Y-37742D01*
X30764Y-37742D01*
X30707Y-37714D01*
X30678Y-37685D01*
X30650Y-37628D01*
X30650Y-37457D01*
X30678Y-37400D01*
X30707Y-37371D01*
X30764Y-37342D01*
X30878Y-37342D01*
X30935Y-37371D01*
X31192Y-37742D02*
X31192Y-37142D01*
X31450Y-37742D02*
X31450Y-37428D01*
X31421Y-37371D01*
X31364Y-37342D01*
X31278Y-37342D01*
X31221Y-37371D01*
X31192Y-37400D01*
X23392Y-36542D02*
X23392Y-35942D01*
X23535Y-35942D01*
X23621Y-35971D01*
X23678Y-36028D01*
X23707Y-36085D01*
X23735Y-36200D01*
X23735Y-36285D01*
X23707Y-36400D01*
X23678Y-36457D01*
X23621Y-36514D01*
X23535Y-36542D01*
X23392Y-36542D01*
X24221Y-36514D02*
X24164Y-36542D01*
X24050Y-36542D01*
X23992Y-36514D01*
X23964Y-36457D01*
X23964Y-36228D01*
X23992Y-36171D01*
X24050Y-36142D01*
X24164Y-36142D01*
X24221Y-36171D01*
X24250Y-36228D01*
X24250Y-36285D01*
X23964Y-36342D01*
X24478Y-36514D02*
X24535Y-36542D01*
X24650Y-36542D01*
X24707Y-36514D01*
X24735Y-36457D01*
X24735Y-36428D01*
X24707Y-36371D01*
X24650Y-36342D01*
X24564Y-36342D01*
X24507Y-36314D01*
X24478Y-36257D01*
X24478Y-36228D01*
X24507Y-36171D01*
X24564Y-36142D01*
X24650Y-36142D01*
X24707Y-36171D01*
X24992Y-36542D02*
X24992Y-36142D01*
X24992Y-35942D02*
X24964Y-35971D01*
X24992Y-36000D01*
X25021Y-35971D01*
X24992Y-35942D01*
X24992Y-36000D01*
X25535Y-36142D02*
X25535Y-36628D01*
X25507Y-36685D01*
X25478Y-36714D01*
X25421Y-36742D01*
X25335Y-36742D01*
X25278Y-36714D01*
X25535Y-36514D02*
X25478Y-36542D01*
X25364Y-36542D01*
X25307Y-36514D01*
X25278Y-36485D01*
X25250Y-36428D01*
X25250Y-36257D01*
X25278Y-36200D01*
X25307Y-36171D01*
X25364Y-36142D01*
X25478Y-36142D01*
X25535Y-36171D01*
X25821Y-36142D02*
X25821Y-36542D01*
X25821Y-36200D02*
X25850Y-36171D01*
X25907Y-36142D01*
X25992Y-36142D01*
X26050Y-36171D01*
X26078Y-36228D01*
X26078Y-36542D01*
X26592Y-36514D02*
X26535Y-36542D01*
X26421Y-36542D01*
X26364Y-36514D01*
X26335Y-36457D01*
X26335Y-36228D01*
X26364Y-36171D01*
X26421Y-36142D01*
X26535Y-36142D01*
X26592Y-36171D01*
X26621Y-36228D01*
X26621Y-36285D01*
X26335Y-36342D01*
X27135Y-36542D02*
X27135Y-35942D01*
X27135Y-36514D02*
X27078Y-36542D01*
X26964Y-36542D01*
X26907Y-36514D01*
X26878Y-36485D01*
X26850Y-36428D01*
X26850Y-36257D01*
X26878Y-36200D01*
X26907Y-36171D01*
X26964Y-36142D01*
X27078Y-36142D01*
X27135Y-36171D01*
X27421Y-36485D02*
X27450Y-36514D01*
X27421Y-36542D01*
X27392Y-36514D01*
X27421Y-36485D01*
X27421Y-36542D01*
X27421Y-36171D02*
X27450Y-36200D01*
X27421Y-36228D01*
X27392Y-36200D01*
X27421Y-36171D01*
X27421Y-36228D01*
X28164Y-36542D02*
X28164Y-35942D01*
X28392Y-35942D01*
X28449Y-35971D01*
X28478Y-36000D01*
X28507Y-36057D01*
X28507Y-36142D01*
X28478Y-36200D01*
X28449Y-36228D01*
X28392Y-36257D01*
X28164Y-36257D01*
X29021Y-36542D02*
X29021Y-36228D01*
X28992Y-36171D01*
X28935Y-36142D01*
X28821Y-36142D01*
X28764Y-36171D01*
X29021Y-36514D02*
X28964Y-36542D01*
X28821Y-36542D01*
X28764Y-36514D01*
X28735Y-36457D01*
X28735Y-36400D01*
X28764Y-36342D01*
X28821Y-36314D01*
X28964Y-36314D01*
X29021Y-36285D01*
X29564Y-36142D02*
X29564Y-36542D01*
X29307Y-36142D02*
X29307Y-36457D01*
X29335Y-36514D01*
X29392Y-36542D01*
X29478Y-36542D01*
X29535Y-36514D01*
X29564Y-36485D01*
X29935Y-36542D02*
X29878Y-36514D01*
X29849Y-36457D01*
X29849Y-35942D01*
X30964Y-36542D02*
X30764Y-36257D01*
X30621Y-36542D02*
X30621Y-35942D01*
X30850Y-35942D01*
X30907Y-35971D01*
X30935Y-36000D01*
X30964Y-36057D01*
X30964Y-36142D01*
X30935Y-36200D01*
X30907Y-36228D01*
X30850Y-36257D01*
X30621Y-36257D01*
X31450Y-36514D02*
X31392Y-36542D01*
X31278Y-36542D01*
X31221Y-36514D01*
X31192Y-36457D01*
X31192Y-36228D01*
X31221Y-36171D01*
X31278Y-36142D01*
X31392Y-36142D01*
X31450Y-36171D01*
X31478Y-36228D01*
X31478Y-36285D01*
X31192Y-36342D01*
X31735Y-36542D02*
X31735Y-36142D01*
X31735Y-35942D02*
X31707Y-35971D01*
X31735Y-36000D01*
X31764Y-35971D01*
X31735Y-35942D01*
X31735Y-36000D01*
X32278Y-36514D02*
X32221Y-36542D01*
X32107Y-36542D01*
X32050Y-36514D01*
X32021Y-36485D01*
X31992Y-36428D01*
X31992Y-36257D01*
X32021Y-36200D01*
X32050Y-36171D01*
X32107Y-36142D01*
X32221Y-36142D01*
X32278Y-36171D01*
X32535Y-36542D02*
X32535Y-35942D01*
X32792Y-36542D02*
X32792Y-36228D01*
X32764Y-36171D01*
X32707Y-36142D01*
X32621Y-36142D01*
X32564Y-36171D01*
X32535Y-36200D01*
X23392Y-35342D02*
X23392Y-34742D01*
X23621Y-34742D01*
X23678Y-34771D01*
X23707Y-34800D01*
X23735Y-34857D01*
X23735Y-34942D01*
X23707Y-35000D01*
X23678Y-35028D01*
X23621Y-35057D01*
X23392Y-35057D01*
X23992Y-35342D02*
X23992Y-34942D01*
X23992Y-35057D02*
X24021Y-35000D01*
X24050Y-34971D01*
X24107Y-34942D01*
X24164Y-34942D01*
X24450Y-35342D02*
X24392Y-35314D01*
X24364Y-35285D01*
X24335Y-35228D01*
X24335Y-35057D01*
X24364Y-35000D01*
X24392Y-34971D01*
X24450Y-34942D01*
X24535Y-34942D01*
X24592Y-34971D01*
X24621Y-35000D01*
X24650Y-35057D01*
X24650Y-35228D01*
X24621Y-35285D01*
X24592Y-35314D01*
X24535Y-35342D01*
X24450Y-35342D01*
X24907Y-34942D02*
X24907Y-35457D01*
X24878Y-35514D01*
X24821Y-35542D01*
X24792Y-35542D01*
X24907Y-34742D02*
X24878Y-34771D01*
X24907Y-34800D01*
X24935Y-34771D01*
X24907Y-34742D01*
X24907Y-34800D01*
X25421Y-35314D02*
X25364Y-35342D01*
X25250Y-35342D01*
X25192Y-35314D01*
X25164Y-35257D01*
X25164Y-35028D01*
X25192Y-34971D01*
X25250Y-34942D01*
X25364Y-34942D01*
X25421Y-34971D01*
X25450Y-35028D01*
X25450Y-35085D01*
X25164Y-35142D01*
X25964Y-35314D02*
X25907Y-35342D01*
X25792Y-35342D01*
X25735Y-35314D01*
X25707Y-35285D01*
X25678Y-35228D01*
X25678Y-35057D01*
X25707Y-35000D01*
X25735Y-34971D01*
X25792Y-34942D01*
X25907Y-34942D01*
X25964Y-34971D01*
X26135Y-34942D02*
X26364Y-34942D01*
X26221Y-34742D02*
X26221Y-35257D01*
X26250Y-35314D01*
X26307Y-35342D01*
X26364Y-35342D01*
X27021Y-35342D02*
X27021Y-34742D01*
X27221Y-35171D01*
X27421Y-34742D01*
X27421Y-35342D01*
X27964Y-34942D02*
X27964Y-35428D01*
X27935Y-35485D01*
X27907Y-35514D01*
X27850Y-35542D01*
X27764Y-35542D01*
X27707Y-35514D01*
X27964Y-35314D02*
X27907Y-35342D01*
X27792Y-35342D01*
X27735Y-35314D01*
X27707Y-35285D01*
X27678Y-35228D01*
X27678Y-35057D01*
X27707Y-35000D01*
X27735Y-34971D01*
X27792Y-34942D01*
X27907Y-34942D01*
X27964Y-34971D01*
X28250Y-35342D02*
X28250Y-34942D01*
X28250Y-35057D02*
X28278Y-35000D01*
X28307Y-34971D01*
X28364Y-34942D01*
X28421Y-34942D01*
X28621Y-35285D02*
X28650Y-35314D01*
X28621Y-35342D01*
X28592Y-35314D01*
X28621Y-35285D01*
X28621Y-35342D01*
X28621Y-34971D02*
X28650Y-35000D01*
X28621Y-35028D01*
X28592Y-35000D01*
X28621Y-34971D01*
X28621Y-35028D01*
X29707Y-35342D02*
X29507Y-35057D01*
X29364Y-35342D02*
X29364Y-34742D01*
X29592Y-34742D01*
X29650Y-34771D01*
X29678Y-34800D01*
X29707Y-34857D01*
X29707Y-34942D01*
X29678Y-35000D01*
X29650Y-35028D01*
X29592Y-35057D01*
X29364Y-35057D01*
X29964Y-35285D02*
X29992Y-35314D01*
X29964Y-35342D01*
X29935Y-35314D01*
X29964Y-35285D01*
X29964Y-35342D01*
X31050Y-35342D02*
X30850Y-35057D01*
X30707Y-35342D02*
X30707Y-34742D01*
X30935Y-34742D01*
X30992Y-34771D01*
X31021Y-34800D01*
X31050Y-34857D01*
X31050Y-34942D01*
X31021Y-35000D01*
X30992Y-35028D01*
X30935Y-35057D01*
X30707Y-35057D01*
X31307Y-35342D02*
X31307Y-34942D01*
X31307Y-34742D02*
X31278Y-34771D01*
X31307Y-34800D01*
X31335Y-34771D01*
X31307Y-34742D01*
X31307Y-34800D01*
X31564Y-35314D02*
X31621Y-35342D01*
X31735Y-35342D01*
X31792Y-35314D01*
X31821Y-35257D01*
X31821Y-35228D01*
X31792Y-35171D01*
X31735Y-35142D01*
X31650Y-35142D01*
X31592Y-35114D01*
X31564Y-35057D01*
X31564Y-35028D01*
X31592Y-34971D01*
X31650Y-34942D01*
X31735Y-34942D01*
X31792Y-34971D01*
X31992Y-34942D02*
X32221Y-34942D01*
X32078Y-34742D02*
X32078Y-35257D01*
X32107Y-35314D01*
X32164Y-35342D01*
X32221Y-35342D01*
X32421Y-35342D02*
X32421Y-34942D01*
X32421Y-34742D02*
X32392Y-34771D01*
X32421Y-34800D01*
X32450Y-34771D01*
X32421Y-34742D01*
X32421Y-34800D01*
X32964Y-35314D02*
X32907Y-35342D01*
X32792Y-35342D01*
X32735Y-35314D01*
X32707Y-35285D01*
X32678Y-35228D01*
X32678Y-35057D01*
X32707Y-35000D01*
X32735Y-34971D01*
X32792Y-34942D01*
X32907Y-34942D01*
X32964Y-34971D01*
X33221Y-35342D02*
X33221Y-34742D01*
X33478Y-35342D02*
X33478Y-35028D01*
X33450Y-34971D01*
X33392Y-34942D01*
X33307Y-34942D01*
X33250Y-34971D01*
X33221Y-35000D01*
X23678Y-34142D02*
X23392Y-34142D01*
X23392Y-33542D01*
X23878Y-34142D02*
X23878Y-33542D01*
X24507Y-34085D02*
X24478Y-34114D01*
X24392Y-34142D01*
X24335Y-34142D01*
X24249Y-34114D01*
X24192Y-34057D01*
X24164Y-34000D01*
X24135Y-33885D01*
X24135Y-33800D01*
X24164Y-33685D01*
X24192Y-33628D01*
X24249Y-33571D01*
X24335Y-33542D01*
X24392Y-33542D01*
X24478Y-33571D01*
X24507Y-33600D01*
X24764Y-33828D02*
X24964Y-33828D01*
X25049Y-34142D02*
X24764Y-34142D01*
X24764Y-33542D01*
X25049Y-33542D01*
X25307Y-34142D02*
X25307Y-33542D01*
X25649Y-34142D01*
X25649Y-33542D01*
X25907Y-34114D02*
X25992Y-34142D01*
X26135Y-34142D01*
X26192Y-34114D01*
X26221Y-34085D01*
X26249Y-34028D01*
X26249Y-33971D01*
X26221Y-33914D01*
X26192Y-33885D01*
X26135Y-33857D01*
X26021Y-33828D01*
X25964Y-33800D01*
X25935Y-33771D01*
X25907Y-33714D01*
X25907Y-33657D01*
X25935Y-33600D01*
X25964Y-33571D01*
X26021Y-33542D01*
X26164Y-33542D01*
X26249Y-33571D01*
X26507Y-33828D02*
X26707Y-33828D01*
X26792Y-34142D02*
X26507Y-34142D01*
X26507Y-33542D01*
X26792Y-33542D01*
X27049Y-34085D02*
X27078Y-34114D01*
X27049Y-34142D01*
X27021Y-34114D01*
X27049Y-34085D01*
X27049Y-34142D01*
X27049Y-33771D02*
X27078Y-33800D01*
X27049Y-33828D01*
X27021Y-33800D01*
X27049Y-33771D01*
X27049Y-33828D01*
X28135Y-34085D02*
X28107Y-34114D01*
X28021Y-34142D01*
X27964Y-34142D01*
X27878Y-34114D01*
X27821Y-34057D01*
X27792Y-34000D01*
X27764Y-33885D01*
X27764Y-33800D01*
X27792Y-33685D01*
X27821Y-33628D01*
X27878Y-33571D01*
X27964Y-33542D01*
X28021Y-33542D01*
X28107Y-33571D01*
X28135Y-33600D01*
X28735Y-34085D02*
X28707Y-34114D01*
X28621Y-34142D01*
X28564Y-34142D01*
X28478Y-34114D01*
X28421Y-34057D01*
X28392Y-34000D01*
X28364Y-33885D01*
X28364Y-33800D01*
X28392Y-33685D01*
X28421Y-33628D01*
X28478Y-33571D01*
X28564Y-33542D01*
X28621Y-33542D01*
X28707Y-33571D01*
X28735Y-33600D01*
X28992Y-33914D02*
X29449Y-33914D01*
X29935Y-33828D02*
X30021Y-33857D01*
X30049Y-33885D01*
X30078Y-33942D01*
X30078Y-34028D01*
X30049Y-34085D01*
X30021Y-34114D01*
X29964Y-34142D01*
X29735Y-34142D01*
X29735Y-33542D01*
X29935Y-33542D01*
X29992Y-33571D01*
X30021Y-33600D01*
X30049Y-33657D01*
X30049Y-33714D01*
X30021Y-33771D01*
X29992Y-33800D01*
X29935Y-33828D01*
X29735Y-33828D01*
X30449Y-33857D02*
X30449Y-34142D01*
X30249Y-33542D02*
X30449Y-33857D01*
X30649Y-33542D01*
X30849Y-33914D02*
X31307Y-33914D01*
X31564Y-34114D02*
X31649Y-34142D01*
X31792Y-34142D01*
X31849Y-34114D01*
X31878Y-34085D01*
X31907Y-34028D01*
X31907Y-33971D01*
X31878Y-33914D01*
X31849Y-33885D01*
X31792Y-33857D01*
X31678Y-33828D01*
X31621Y-33800D01*
X31592Y-33771D01*
X31564Y-33714D01*
X31564Y-33657D01*
X31592Y-33600D01*
X31621Y-33571D01*
X31678Y-33542D01*
X31821Y-33542D01*
X31907Y-33571D01*
X32135Y-33971D02*
X32421Y-33971D01*
X32078Y-34142D02*
X32278Y-33542D01*
X32478Y-34142D01*
X32678Y-33914D02*
X33135Y-33914D01*
X33364Y-33542D02*
X33735Y-33542D01*
X33535Y-33771D01*
X33621Y-33771D01*
X33678Y-33800D01*
X33707Y-33828D01*
X33735Y-33885D01*
X33735Y-34028D01*
X33707Y-34085D01*
X33678Y-34114D01*
X33621Y-34142D01*
X33450Y-34142D01*
X33392Y-34114D01*
X33364Y-34085D01*
X33992Y-34085D02*
X34021Y-34114D01*
X33992Y-34142D01*
X33964Y-34114D01*
X33992Y-34085D01*
X33992Y-34142D01*
X34392Y-33542D02*
X34450Y-33542D01*
X34507Y-33571D01*
X34535Y-33600D01*
X34564Y-33657D01*
X34592Y-33771D01*
X34592Y-33914D01*
X34564Y-34028D01*
X34535Y-34085D01*
X34507Y-34114D01*
X34450Y-34142D01*
X34392Y-34142D01*
X34335Y-34114D01*
X34307Y-34085D01*
X34278Y-34028D01*
X34250Y-33914D01*
X34250Y-33771D01*
X34278Y-33657D01*
X34307Y-33600D01*
X34335Y-33571D01*
X34392Y-33542D01*
X22650Y-33300D02*
X22650Y-45300D01*
X22650Y-39300D02*
X64650Y-39300D01*
X22650Y-33300D02*
X64650Y-33300D01*
X22650Y-41700D02*
X64650Y-41700D01*
X55850Y-42900D02*
X55850Y-45300D01*
X22650Y-44100D02*
X64650Y-44100D01*
X22650Y-42900D02*
X64650Y-42900D01*
X29250Y-42900D02*
X29250Y-44100D01*
G54D11*
X38600Y15650D02*
G75*
G03X32350Y21900I-6250J0D01*
G74*
G01*
X600Y21900D02*
G75*
G03X-5650Y15650I0J-6250D01*
G74*
G01*
X600Y-9100D02*
G75*
G03X6850Y-2850I0J6250D01*
G74*
G01*
X-5650Y-2850D02*
G75*
G03X600Y-9100I6250J0D01*
G74*
G01*
X32350Y-9100D02*
G75*
G03X38600Y-2850I0J6250D01*
G74*
G01*
X26100Y-2850D02*
G75*
G03X32350Y-9100I6250J0D01*
G74*
G01*
X6850Y-2850D02*
X26100Y-2850D01*
X38600Y15650D02*
X38600Y-2850D01*
X-5650Y15650D02*
X-5650Y-3100D01*
X-6650Y23400D02*
G75*
G03X-6650Y23400I-1000J0D01*
G74*
G01*
X-9150Y23400D02*
X-6150Y23400D01*
X-7650Y24900D02*
X-7650Y21900D01*
X41350Y-9000D02*
G75*
G03X41350Y-9000I-1000J0D01*
G74*
G01*
X38850Y-9000D02*
X41850Y-9000D01*
X40350Y-7500D02*
X40350Y-10500D01*
X32350Y21900D02*
X600Y21900D01*
G54D12*
X5641Y6750D03*
X7058Y6750D03*
G54D13*
X27611Y20141D03*
X27355Y20141D03*
X27100Y20141D03*
X26844Y20141D03*
X26588Y20141D03*
G54D14*
X28399Y21234D03*
X25800Y21234D03*
G54D15*
X28517Y20289D03*
X25682Y20289D03*
G54D16*
X14200Y8500D03*
X14800Y8500D03*
X16650Y17350D03*
X16050Y17350D03*
X17300Y17350D03*
X17900Y17350D03*
X16450Y16500D03*
X15850Y16500D03*
X17550Y16500D03*
X18150Y16500D03*
X11500Y6450D03*
X10900Y6450D03*
X16650Y18150D03*
X16050Y18150D03*
X14800Y7750D03*
X14200Y7750D03*
X21200Y9000D03*
X20600Y9000D03*
G54D17*
X22600Y6350D03*
X22600Y6950D03*
X9575Y13375D03*
X9575Y13975D03*
G54D18*
X19200Y10000D03*
X19515Y10000D03*
X19830Y10000D03*
X20145Y10000D03*
X20460Y10000D03*
X20775Y10000D03*
X18885Y10000D03*
X18570Y10000D03*
X18255Y10000D03*
X17940Y10000D03*
X17625Y10000D03*
X19200Y14500D03*
X19515Y14500D03*
X19830Y14500D03*
X20145Y14500D03*
X20460Y14500D03*
X20775Y14500D03*
X18885Y14500D03*
X18570Y14500D03*
X18255Y14500D03*
X17940Y14500D03*
X17625Y14500D03*
G54D19*
X21450Y12250D03*
X16950Y12250D03*
X21450Y12565D03*
X16950Y12565D03*
X16950Y12880D03*
X21450Y12880D03*
X21450Y13195D03*
X16950Y13195D03*
X16950Y13510D03*
X21450Y13510D03*
X21450Y13825D03*
X16950Y13825D03*
X16950Y11935D03*
X21450Y11935D03*
X21450Y11620D03*
X16950Y11620D03*
X16950Y11305D03*
X21450Y11305D03*
X21450Y10990D03*
X16950Y10990D03*
X16950Y10675D03*
X21450Y10675D03*
G54D20*
X11200Y14425D03*
X10450Y14425D03*
X11200Y13425D03*
X10825Y14425D03*
X10450Y13425D03*
X11200Y11425D03*
X10450Y11425D03*
X11200Y10425D03*
X10825Y11425D03*
X10450Y10425D03*
G54D21*
X14400Y9450D03*
X15700Y9450D03*
X10975Y9425D03*
X9675Y9425D03*
X10975Y12425D03*
X9675Y12425D03*
G54D16*
X21300Y6450D03*
X21900Y6450D03*
X20050Y6450D03*
X20650Y6450D03*
X22550Y12650D03*
X23150Y12650D03*
X23150Y13350D03*
X23750Y13350D03*
G54D17*
X9575Y10375D03*
X9575Y10975D03*
G54D16*
X27000Y18450D03*
X26400Y18450D03*
X27550Y18050D03*
X28150Y18050D03*
X23150Y11850D03*
X22550Y11850D03*
X25700Y19150D03*
X26300Y19150D03*
X23150Y11150D03*
X22550Y11150D03*
G54D17*
X15450Y14150D03*
X15450Y13550D03*
G54D22*
X5450Y16650D03*
X6749Y16650D03*
G54D23*
X28850Y4299D03*
X28850Y3000D03*
X30100Y4299D03*
X30100Y3000D03*
G54D24*
X19725Y16150D03*
X21775Y16150D03*
X21775Y17550D03*
X19725Y17550D03*
G54D21*
X27950Y18950D03*
X29250Y18950D03*
G54D16*
X17000Y9300D03*
X17600Y9300D03*
G54D17*
X23600Y16450D03*
X23600Y15850D03*
X24350Y16450D03*
X24350Y15850D03*
G54D21*
X10975Y15425D03*
X9675Y15425D03*
G54D16*
X14650Y6450D03*
X15250Y6450D03*
G54D17*
X28400Y5700D03*
X28400Y6300D03*
G54D16*
X17300Y18150D03*
X17900Y18150D03*
X20430Y15140D03*
X19830Y15140D03*
G54D17*
X16200Y13550D03*
X16200Y14150D03*
G54D25*
X27600Y4000D03*
X27600Y4500D03*
X27600Y5000D03*
X27600Y5500D03*
X27600Y6000D03*
X27600Y6500D03*
X27600Y7000D03*
X27600Y7500D03*
X25600Y7500D03*
X25600Y7000D03*
X25600Y6500D03*
X25600Y6000D03*
X25600Y5500D03*
X25600Y5000D03*
X25600Y4500D03*
X25600Y4000D03*
G54D17*
X4850Y7300D03*
X4850Y6700D03*
M02*
