G04 (created by PCBNEW (2013-dec-23)-stable) date Sat 29 Mar 2014 16:15:46 CDT*
%MOIN*%
G04 Gerber Fmt 3.4, Leading zero omitted, Abs format*
%FSLAX34Y34*%
G01*
G70*
G90*
G04 APERTURE LIST*
%ADD10C,0.00590551*%
%ADD11C,0.006*%
G04 APERTURE END LIST*
G54D10*
X-36650Y31000D02*
X65350Y31000D01*
X65350Y-46000D01*
X-36650Y-46000D01*
X-36650Y31000D01*
X-35950Y30300D02*
X64650Y30300D01*
X64650Y-45300D01*
X-35950Y-45300D01*
X-35950Y30300D01*
X-16250Y31000D02*
X-16250Y30300D01*
X-26307Y30447D02*
X-26592Y30447D01*
X-26450Y30447D02*
X-26450Y30947D01*
X-26497Y30876D01*
X-26545Y30828D01*
X-26592Y30804D01*
X-16250Y-46000D02*
X-16250Y-45300D01*
X-26307Y-45852D02*
X-26592Y-45852D01*
X-26450Y-45852D02*
X-26450Y-45352D01*
X-26497Y-45423D01*
X-26545Y-45471D01*
X-26592Y-45495D01*
X4150Y31000D02*
X4150Y30300D01*
X-6192Y30900D02*
X-6169Y30923D01*
X-6121Y30947D01*
X-6002Y30947D01*
X-5954Y30923D01*
X-5930Y30900D01*
X-5907Y30852D01*
X-5907Y30804D01*
X-5930Y30733D01*
X-6216Y30447D01*
X-5907Y30447D01*
X4150Y-46000D02*
X4150Y-45300D01*
X-6192Y-45400D02*
X-6169Y-45376D01*
X-6121Y-45352D01*
X-6002Y-45352D01*
X-5954Y-45376D01*
X-5930Y-45400D01*
X-5907Y-45447D01*
X-5907Y-45495D01*
X-5930Y-45566D01*
X-6216Y-45852D01*
X-5907Y-45852D01*
X24550Y31000D02*
X24550Y30300D01*
X14183Y30947D02*
X14492Y30947D01*
X14326Y30757D01*
X14397Y30757D01*
X14445Y30733D01*
X14469Y30709D01*
X14492Y30661D01*
X14492Y30542D01*
X14469Y30495D01*
X14445Y30471D01*
X14397Y30447D01*
X14254Y30447D01*
X14207Y30471D01*
X14183Y30495D01*
X24550Y-46000D02*
X24550Y-45300D01*
X14183Y-45352D02*
X14492Y-45352D01*
X14326Y-45542D01*
X14397Y-45542D01*
X14445Y-45566D01*
X14469Y-45590D01*
X14492Y-45638D01*
X14492Y-45757D01*
X14469Y-45804D01*
X14445Y-45828D01*
X14397Y-45852D01*
X14254Y-45852D01*
X14207Y-45828D01*
X14183Y-45804D01*
X44950Y31000D02*
X44950Y30300D01*
X34845Y30780D02*
X34845Y30447D01*
X34726Y30971D02*
X34607Y30614D01*
X34916Y30614D01*
X44950Y-46000D02*
X44950Y-45300D01*
X34845Y-45519D02*
X34845Y-45852D01*
X34726Y-45328D02*
X34607Y-45685D01*
X34916Y-45685D01*
X55269Y30947D02*
X55030Y30947D01*
X55007Y30709D01*
X55030Y30733D01*
X55078Y30757D01*
X55197Y30757D01*
X55245Y30733D01*
X55269Y30709D01*
X55292Y30661D01*
X55292Y30542D01*
X55269Y30495D01*
X55245Y30471D01*
X55197Y30447D01*
X55078Y30447D01*
X55030Y30471D01*
X55007Y30495D01*
X55269Y-45352D02*
X55030Y-45352D01*
X55007Y-45590D01*
X55030Y-45566D01*
X55078Y-45542D01*
X55197Y-45542D01*
X55245Y-45566D01*
X55269Y-45590D01*
X55292Y-45638D01*
X55292Y-45757D01*
X55269Y-45804D01*
X55245Y-45828D01*
X55197Y-45852D01*
X55078Y-45852D01*
X55030Y-45828D01*
X55007Y-45804D01*
X-36650Y5340D02*
X-35950Y5340D01*
X-36419Y18110D02*
X-36180Y18110D01*
X-36466Y17967D02*
X-36299Y18467D01*
X-36133Y17967D01*
X65350Y5340D02*
X64650Y5340D01*
X64880Y18110D02*
X65119Y18110D01*
X64833Y17967D02*
X65000Y18467D01*
X65166Y17967D01*
X-36650Y-20320D02*
X-35950Y-20320D01*
X-36264Y-7430D02*
X-36192Y-7454D01*
X-36169Y-7478D01*
X-36145Y-7525D01*
X-36145Y-7597D01*
X-36169Y-7644D01*
X-36192Y-7668D01*
X-36240Y-7692D01*
X-36430Y-7692D01*
X-36430Y-7192D01*
X-36264Y-7192D01*
X-36216Y-7216D01*
X-36192Y-7240D01*
X-36169Y-7287D01*
X-36169Y-7335D01*
X-36192Y-7382D01*
X-36216Y-7406D01*
X-36264Y-7430D01*
X-36430Y-7430D01*
X65350Y-20320D02*
X64650Y-20320D01*
X65035Y-7430D02*
X65107Y-7454D01*
X65130Y-7478D01*
X65154Y-7525D01*
X65154Y-7597D01*
X65130Y-7644D01*
X65107Y-7668D01*
X65059Y-7692D01*
X64869Y-7692D01*
X64869Y-7192D01*
X65035Y-7192D01*
X65083Y-7216D01*
X65107Y-7240D01*
X65130Y-7287D01*
X65130Y-7335D01*
X65107Y-7382D01*
X65083Y-7406D01*
X65035Y-7430D01*
X64869Y-7430D01*
X-36145Y-33304D02*
X-36169Y-33328D01*
X-36240Y-33352D01*
X-36288Y-33352D01*
X-36359Y-33328D01*
X-36407Y-33280D01*
X-36430Y-33233D01*
X-36454Y-33138D01*
X-36454Y-33066D01*
X-36430Y-32971D01*
X-36407Y-32923D01*
X-36359Y-32876D01*
X-36288Y-32852D01*
X-36240Y-32852D01*
X-36169Y-32876D01*
X-36145Y-32900D01*
X65154Y-33304D02*
X65130Y-33328D01*
X65059Y-33352D01*
X65011Y-33352D01*
X64940Y-33328D01*
X64892Y-33280D01*
X64869Y-33233D01*
X64845Y-33138D01*
X64845Y-33066D01*
X64869Y-32971D01*
X64892Y-32923D01*
X64940Y-32876D01*
X65011Y-32852D01*
X65059Y-32852D01*
X65130Y-32876D01*
X65154Y-32900D01*
X31800Y-43742D02*
X31875Y-43142D01*
X32017Y-43142D01*
X32100Y-43171D01*
X32150Y-43228D01*
X32171Y-43285D01*
X32185Y-43400D01*
X32175Y-43485D01*
X32132Y-43600D01*
X32096Y-43657D01*
X32032Y-43714D01*
X31942Y-43742D01*
X31800Y-43742D01*
X32657Y-43742D02*
X32696Y-43428D01*
X32675Y-43371D01*
X32621Y-43342D01*
X32507Y-43342D01*
X32446Y-43371D01*
X32660Y-43714D02*
X32600Y-43742D01*
X32457Y-43742D01*
X32403Y-43714D01*
X32382Y-43657D01*
X32389Y-43600D01*
X32425Y-43542D01*
X32485Y-43514D01*
X32628Y-43514D01*
X32689Y-43485D01*
X32907Y-43342D02*
X33135Y-43342D01*
X33017Y-43142D02*
X32953Y-43657D01*
X32975Y-43714D01*
X33028Y-43742D01*
X33085Y-43742D01*
X33517Y-43714D02*
X33457Y-43742D01*
X33342Y-43742D01*
X33289Y-43714D01*
X33267Y-43657D01*
X33296Y-43428D01*
X33332Y-43371D01*
X33392Y-43342D01*
X33507Y-43342D01*
X33560Y-43371D01*
X33582Y-43428D01*
X33575Y-43485D01*
X33282Y-43542D01*
X33807Y-43685D02*
X33832Y-43714D01*
X33800Y-43742D01*
X33775Y-43714D01*
X33807Y-43685D01*
X33800Y-43742D01*
X33846Y-43371D02*
X33871Y-43400D01*
X33839Y-43428D01*
X33814Y-43400D01*
X33846Y-43371D01*
X33839Y-43428D01*
X34582Y-43200D02*
X34614Y-43171D01*
X34675Y-43142D01*
X34817Y-43142D01*
X34871Y-43171D01*
X34896Y-43200D01*
X34917Y-43257D01*
X34910Y-43314D01*
X34871Y-43400D01*
X34485Y-43742D01*
X34857Y-43742D01*
X35142Y-43742D02*
X35257Y-43742D01*
X35317Y-43714D01*
X35350Y-43685D01*
X35417Y-43600D01*
X35460Y-43485D01*
X35489Y-43257D01*
X35467Y-43200D01*
X35442Y-43171D01*
X35389Y-43142D01*
X35275Y-43142D01*
X35214Y-43171D01*
X35182Y-43200D01*
X35146Y-43257D01*
X35128Y-43400D01*
X35150Y-43457D01*
X35175Y-43485D01*
X35228Y-43514D01*
X35342Y-43514D01*
X35403Y-43485D01*
X35435Y-43457D01*
X35471Y-43400D01*
X36142Y-43742D02*
X36192Y-43342D01*
X36185Y-43400D02*
X36217Y-43371D01*
X36278Y-43342D01*
X36364Y-43342D01*
X36417Y-43371D01*
X36439Y-43428D01*
X36400Y-43742D01*
X36439Y-43428D02*
X36475Y-43371D01*
X36535Y-43342D01*
X36621Y-43342D01*
X36675Y-43371D01*
X36696Y-43428D01*
X36657Y-43742D01*
X37200Y-43742D02*
X37239Y-43428D01*
X37217Y-43371D01*
X37164Y-43342D01*
X37050Y-43342D01*
X36989Y-43371D01*
X37203Y-43714D02*
X37142Y-43742D01*
X37000Y-43742D01*
X36946Y-43714D01*
X36925Y-43657D01*
X36932Y-43600D01*
X36967Y-43542D01*
X37028Y-43514D01*
X37171Y-43514D01*
X37232Y-43485D01*
X37485Y-43742D02*
X37535Y-43342D01*
X37521Y-43457D02*
X37557Y-43400D01*
X37589Y-43371D01*
X37650Y-43342D01*
X37707Y-43342D01*
X38353Y-43200D02*
X38385Y-43171D01*
X38446Y-43142D01*
X38589Y-43142D01*
X38642Y-43171D01*
X38667Y-43200D01*
X38689Y-43257D01*
X38682Y-43314D01*
X38642Y-43400D01*
X38257Y-43742D01*
X38628Y-43742D01*
X39075Y-43142D02*
X39132Y-43142D01*
X39185Y-43171D01*
X39210Y-43200D01*
X39232Y-43257D01*
X39246Y-43371D01*
X39228Y-43514D01*
X39185Y-43628D01*
X39150Y-43685D01*
X39117Y-43714D01*
X39057Y-43742D01*
X39000Y-43742D01*
X38946Y-43714D01*
X38921Y-43685D01*
X38900Y-43628D01*
X38885Y-43514D01*
X38903Y-43371D01*
X38946Y-43257D01*
X38982Y-43200D01*
X39014Y-43171D01*
X39075Y-43142D01*
X39771Y-43742D02*
X39428Y-43742D01*
X39600Y-43742D02*
X39675Y-43142D01*
X39607Y-43228D01*
X39542Y-43285D01*
X39482Y-43314D01*
X40335Y-43342D02*
X40285Y-43742D01*
X40221Y-43114D02*
X40025Y-43542D01*
X40396Y-43542D01*
X23392Y-44942D02*
X23392Y-44342D01*
X23735Y-44942D02*
X23478Y-44600D01*
X23735Y-44342D02*
X23392Y-44685D01*
X23992Y-44942D02*
X23992Y-44542D01*
X23992Y-44342D02*
X23964Y-44371D01*
X23992Y-44400D01*
X24021Y-44371D01*
X23992Y-44342D01*
X23992Y-44400D01*
X24621Y-44885D02*
X24592Y-44914D01*
X24507Y-44942D01*
X24450Y-44942D01*
X24364Y-44914D01*
X24307Y-44857D01*
X24278Y-44800D01*
X24250Y-44685D01*
X24250Y-44600D01*
X24278Y-44485D01*
X24307Y-44428D01*
X24364Y-44371D01*
X24450Y-44342D01*
X24507Y-44342D01*
X24592Y-44371D01*
X24621Y-44400D01*
X25135Y-44942D02*
X25135Y-44628D01*
X25107Y-44571D01*
X25050Y-44542D01*
X24935Y-44542D01*
X24878Y-44571D01*
X25135Y-44914D02*
X25078Y-44942D01*
X24935Y-44942D01*
X24878Y-44914D01*
X24850Y-44857D01*
X24850Y-44800D01*
X24878Y-44742D01*
X24935Y-44714D01*
X25078Y-44714D01*
X25135Y-44685D01*
X25678Y-44942D02*
X25678Y-44342D01*
X25678Y-44914D02*
X25621Y-44942D01*
X25507Y-44942D01*
X25450Y-44914D01*
X25421Y-44885D01*
X25392Y-44828D01*
X25392Y-44657D01*
X25421Y-44600D01*
X25450Y-44571D01*
X25507Y-44542D01*
X25621Y-44542D01*
X25678Y-44571D01*
X26421Y-44628D02*
X26621Y-44628D01*
X26707Y-44942D02*
X26421Y-44942D01*
X26421Y-44342D01*
X26707Y-44342D01*
X26964Y-44885D02*
X26992Y-44914D01*
X26964Y-44942D01*
X26935Y-44914D01*
X26964Y-44885D01*
X26964Y-44942D01*
X27249Y-44942D02*
X27249Y-44342D01*
X27392Y-44342D01*
X27478Y-44371D01*
X27535Y-44428D01*
X27564Y-44485D01*
X27592Y-44600D01*
X27592Y-44685D01*
X27564Y-44800D01*
X27535Y-44857D01*
X27478Y-44914D01*
X27392Y-44942D01*
X27249Y-44942D01*
X27849Y-44885D02*
X27878Y-44914D01*
X27849Y-44942D01*
X27821Y-44914D01*
X27849Y-44885D01*
X27849Y-44942D01*
X28107Y-44771D02*
X28392Y-44771D01*
X28049Y-44942D02*
X28249Y-44342D01*
X28449Y-44942D01*
X28649Y-44885D02*
X28678Y-44914D01*
X28649Y-44942D01*
X28621Y-44914D01*
X28649Y-44885D01*
X28649Y-44942D01*
X56942Y-43742D02*
X56778Y-43457D01*
X56600Y-43742D02*
X56675Y-43142D01*
X56903Y-43142D01*
X56957Y-43171D01*
X56982Y-43200D01*
X57003Y-43257D01*
X56992Y-43342D01*
X56957Y-43400D01*
X56925Y-43428D01*
X56864Y-43457D01*
X56635Y-43457D01*
X57432Y-43714D02*
X57371Y-43742D01*
X57257Y-43742D01*
X57203Y-43714D01*
X57182Y-43657D01*
X57210Y-43428D01*
X57246Y-43371D01*
X57307Y-43342D01*
X57421Y-43342D01*
X57475Y-43371D01*
X57496Y-43428D01*
X57489Y-43485D01*
X57196Y-43542D01*
X57707Y-43342D02*
X57800Y-43742D01*
X57992Y-43342D01*
X58178Y-43685D02*
X58203Y-43714D01*
X58171Y-43742D01*
X58146Y-43714D01*
X58178Y-43685D01*
X58171Y-43742D01*
X58217Y-43371D02*
X58242Y-43400D01*
X58210Y-43428D01*
X58185Y-43400D01*
X58217Y-43371D01*
X58210Y-43428D01*
X58914Y-43742D02*
X58989Y-43142D01*
X59217Y-43142D01*
X59271Y-43171D01*
X59296Y-43200D01*
X59317Y-43257D01*
X59307Y-43342D01*
X59271Y-43400D01*
X59239Y-43428D01*
X59178Y-43457D01*
X58950Y-43457D01*
X59828Y-43742D02*
X59485Y-43742D01*
X59657Y-43742D02*
X59732Y-43142D01*
X59664Y-43228D01*
X59600Y-43285D01*
X59539Y-43314D01*
X23364Y-43714D02*
X23450Y-43742D01*
X23592Y-43742D01*
X23650Y-43714D01*
X23678Y-43685D01*
X23707Y-43628D01*
X23707Y-43571D01*
X23678Y-43514D01*
X23650Y-43485D01*
X23592Y-43457D01*
X23478Y-43428D01*
X23421Y-43400D01*
X23392Y-43371D01*
X23364Y-43314D01*
X23364Y-43257D01*
X23392Y-43200D01*
X23421Y-43171D01*
X23478Y-43142D01*
X23621Y-43142D01*
X23707Y-43171D01*
X23964Y-43742D02*
X23964Y-43342D01*
X23964Y-43142D02*
X23935Y-43171D01*
X23964Y-43200D01*
X23992Y-43171D01*
X23964Y-43142D01*
X23964Y-43200D01*
X24192Y-43342D02*
X24507Y-43342D01*
X24192Y-43742D01*
X24507Y-43742D01*
X24964Y-43714D02*
X24907Y-43742D01*
X24792Y-43742D01*
X24735Y-43714D01*
X24707Y-43657D01*
X24707Y-43428D01*
X24735Y-43371D01*
X24792Y-43342D01*
X24907Y-43342D01*
X24964Y-43371D01*
X24992Y-43428D01*
X24992Y-43485D01*
X24707Y-43542D01*
X25250Y-43685D02*
X25278Y-43714D01*
X25250Y-43742D01*
X25221Y-43714D01*
X25250Y-43685D01*
X25250Y-43742D01*
X25250Y-43371D02*
X25278Y-43400D01*
X25250Y-43428D01*
X25221Y-43400D01*
X25250Y-43371D01*
X25250Y-43428D01*
X25964Y-43571D02*
X26250Y-43571D01*
X25907Y-43742D02*
X26107Y-43142D01*
X26307Y-43742D01*
X56592Y-44942D02*
X56592Y-44342D01*
X57135Y-44942D02*
X57135Y-44342D01*
X57135Y-44914D02*
X57078Y-44942D01*
X56964Y-44942D01*
X56907Y-44914D01*
X56878Y-44885D01*
X56850Y-44828D01*
X56850Y-44657D01*
X56878Y-44600D01*
X56907Y-44571D01*
X56964Y-44542D01*
X57078Y-44542D01*
X57135Y-44571D01*
X57421Y-44885D02*
X57450Y-44914D01*
X57421Y-44942D01*
X57392Y-44914D01*
X57421Y-44885D01*
X57421Y-44942D01*
X57421Y-44571D02*
X57450Y-44600D01*
X57421Y-44628D01*
X57392Y-44600D01*
X57421Y-44571D01*
X57421Y-44628D01*
X58478Y-44942D02*
X58135Y-44942D01*
X58307Y-44942D02*
X58307Y-44342D01*
X58249Y-44428D01*
X58192Y-44485D01*
X58135Y-44514D01*
X59164Y-44314D02*
X58650Y-45085D01*
X59678Y-44942D02*
X59335Y-44942D01*
X59507Y-44942D02*
X59507Y-44342D01*
X59449Y-44428D01*
X59392Y-44485D01*
X59335Y-44514D01*
X23389Y-41942D02*
X23732Y-41942D01*
X23485Y-42542D02*
X23560Y-41942D01*
X23857Y-42542D02*
X23907Y-42142D01*
X23932Y-41942D02*
X23900Y-41971D01*
X23925Y-42000D01*
X23957Y-41971D01*
X23932Y-41942D01*
X23925Y-42000D01*
X24107Y-42142D02*
X24335Y-42142D01*
X24217Y-41942D02*
X24153Y-42457D01*
X24175Y-42514D01*
X24228Y-42542D01*
X24285Y-42542D01*
X24571Y-42542D02*
X24517Y-42514D01*
X24496Y-42457D01*
X24560Y-41942D01*
X25032Y-42514D02*
X24971Y-42542D01*
X24857Y-42542D01*
X24803Y-42514D01*
X24782Y-42457D01*
X24810Y-42228D01*
X24846Y-42171D01*
X24907Y-42142D01*
X25021Y-42142D01*
X25075Y-42171D01*
X25096Y-42228D01*
X25089Y-42285D01*
X24796Y-42342D01*
X25321Y-42485D02*
X25346Y-42514D01*
X25314Y-42542D01*
X25289Y-42514D01*
X25321Y-42485D01*
X25314Y-42542D01*
X25360Y-42171D02*
X25385Y-42200D01*
X25353Y-42228D01*
X25328Y-42200D01*
X25360Y-42171D01*
X25353Y-42228D01*
X26296Y-42228D02*
X26378Y-42257D01*
X26403Y-42285D01*
X26425Y-42342D01*
X26414Y-42428D01*
X26378Y-42485D01*
X26346Y-42514D01*
X26285Y-42542D01*
X26057Y-42542D01*
X26132Y-41942D01*
X26332Y-41942D01*
X26385Y-41971D01*
X26410Y-42000D01*
X26432Y-42057D01*
X26425Y-42114D01*
X26389Y-42171D01*
X26357Y-42200D01*
X26296Y-42228D01*
X26096Y-42228D01*
X26846Y-41942D02*
X26960Y-41942D01*
X27014Y-41971D01*
X27064Y-42028D01*
X27078Y-42142D01*
X27053Y-42342D01*
X27010Y-42457D01*
X26946Y-42514D01*
X26885Y-42542D01*
X26771Y-42542D01*
X26717Y-42514D01*
X26667Y-42457D01*
X26653Y-42342D01*
X26678Y-42142D01*
X26721Y-42028D01*
X26785Y-41971D01*
X26846Y-41942D01*
X27278Y-42371D02*
X27564Y-42371D01*
X27200Y-42542D02*
X27475Y-41942D01*
X27600Y-42542D01*
X28142Y-42542D02*
X27978Y-42257D01*
X27800Y-42542D02*
X27875Y-41942D01*
X28103Y-41942D01*
X28157Y-41971D01*
X28182Y-42000D01*
X28203Y-42057D01*
X28192Y-42142D01*
X28157Y-42200D01*
X28125Y-42228D01*
X28064Y-42257D01*
X27835Y-42257D01*
X28400Y-42542D02*
X28475Y-41942D01*
X28617Y-41942D01*
X28700Y-41971D01*
X28750Y-42028D01*
X28771Y-42085D01*
X28785Y-42200D01*
X28775Y-42285D01*
X28732Y-42400D01*
X28696Y-42457D01*
X28632Y-42514D01*
X28542Y-42542D01*
X28400Y-42542D01*
X29032Y-42514D02*
X29028Y-42542D01*
X28992Y-42600D01*
X28960Y-42628D01*
X29742Y-42542D02*
X29817Y-41942D01*
X30046Y-41942D01*
X30099Y-41971D01*
X30125Y-42000D01*
X30146Y-42057D01*
X30135Y-42142D01*
X30100Y-42200D01*
X30067Y-42228D01*
X30007Y-42257D01*
X29778Y-42257D01*
X30692Y-42485D02*
X30660Y-42514D01*
X30571Y-42542D01*
X30514Y-42542D01*
X30432Y-42514D01*
X30382Y-42457D01*
X30360Y-42400D01*
X30346Y-42285D01*
X30357Y-42200D01*
X30400Y-42085D01*
X30435Y-42028D01*
X30499Y-41971D01*
X30589Y-41942D01*
X30646Y-41942D01*
X30728Y-41971D01*
X30753Y-42000D01*
X30975Y-42514D02*
X30971Y-42542D01*
X30935Y-42600D01*
X30903Y-42628D01*
X31675Y-41942D02*
X32017Y-41942D01*
X31771Y-42542D02*
X31846Y-41942D01*
X32142Y-42542D02*
X32217Y-41942D01*
X32182Y-42228D02*
X32525Y-42228D01*
X32485Y-42542D02*
X32560Y-41942D01*
X32960Y-41942D02*
X33075Y-41942D01*
X33128Y-41971D01*
X33178Y-42028D01*
X33192Y-42142D01*
X33167Y-42342D01*
X33124Y-42457D01*
X33060Y-42514D01*
X33000Y-42542D01*
X32885Y-42542D01*
X32832Y-42514D01*
X32782Y-42457D01*
X32767Y-42342D01*
X32792Y-42142D01*
X32835Y-42028D01*
X32899Y-41971D01*
X32960Y-41942D01*
X33389Y-41942D02*
X33732Y-41942D01*
X33485Y-42542D02*
X33560Y-41942D01*
X33857Y-42542D02*
X33932Y-41942D01*
X34199Y-42542D02*
X33985Y-42200D01*
X34274Y-41942D02*
X33889Y-42285D01*
X34646Y-41942D02*
X34760Y-41942D01*
X34814Y-41971D01*
X34864Y-42028D01*
X34878Y-42142D01*
X34853Y-42342D01*
X34810Y-42457D01*
X34746Y-42514D01*
X34685Y-42542D01*
X34571Y-42542D01*
X34517Y-42514D01*
X34467Y-42457D01*
X34453Y-42342D01*
X34478Y-42142D01*
X34521Y-42028D01*
X34585Y-41971D01*
X34646Y-41942D01*
X35085Y-42542D02*
X35160Y-41942D01*
X35428Y-42542D01*
X35503Y-41942D01*
X36360Y-41942D02*
X36417Y-41942D01*
X36471Y-41971D01*
X36496Y-42000D01*
X36517Y-42057D01*
X36532Y-42171D01*
X36514Y-42314D01*
X36471Y-42428D01*
X36435Y-42485D01*
X36403Y-42514D01*
X36342Y-42542D01*
X36285Y-42542D01*
X36232Y-42514D01*
X36207Y-42485D01*
X36185Y-42428D01*
X36171Y-42314D01*
X36189Y-42171D01*
X36232Y-42057D01*
X36267Y-42000D01*
X36299Y-41971D01*
X36360Y-41942D01*
X36760Y-41942D02*
X37085Y-42542D01*
X37160Y-41942D02*
X36685Y-42542D01*
X37674Y-41942D02*
X37389Y-41942D01*
X37325Y-42228D01*
X37357Y-42200D01*
X37417Y-42171D01*
X37560Y-42171D01*
X37614Y-42200D01*
X37639Y-42228D01*
X37660Y-42285D01*
X37642Y-42428D01*
X37607Y-42485D01*
X37574Y-42514D01*
X37514Y-42542D01*
X37371Y-42542D01*
X37317Y-42514D01*
X37292Y-42485D01*
X23592Y-39828D02*
X23392Y-39828D01*
X23392Y-40142D02*
X23392Y-39542D01*
X23678Y-39542D01*
X23907Y-40142D02*
X23907Y-39742D01*
X23907Y-39542D02*
X23878Y-39571D01*
X23907Y-39600D01*
X23935Y-39571D01*
X23907Y-39542D01*
X23907Y-39600D01*
X24278Y-40142D02*
X24221Y-40114D01*
X24192Y-40057D01*
X24192Y-39542D01*
X24735Y-40114D02*
X24678Y-40142D01*
X24564Y-40142D01*
X24507Y-40114D01*
X24478Y-40057D01*
X24478Y-39828D01*
X24507Y-39771D01*
X24564Y-39742D01*
X24678Y-39742D01*
X24735Y-39771D01*
X24764Y-39828D01*
X24764Y-39885D01*
X24478Y-39942D01*
X25021Y-40085D02*
X25050Y-40114D01*
X25021Y-40142D01*
X24992Y-40114D01*
X25021Y-40085D01*
X25021Y-40142D01*
X25021Y-39771D02*
X25050Y-39800D01*
X25021Y-39828D01*
X24992Y-39800D01*
X25021Y-39771D01*
X25021Y-39828D01*
X25678Y-39742D02*
X25907Y-39742D01*
X25764Y-39542D02*
X25764Y-40057D01*
X25792Y-40114D01*
X25850Y-40142D01*
X25907Y-40142D01*
X26107Y-40142D02*
X26107Y-39542D01*
X26364Y-40142D02*
X26364Y-39828D01*
X26335Y-39771D01*
X26278Y-39742D01*
X26192Y-39742D01*
X26135Y-39771D01*
X26107Y-39800D01*
X26735Y-40142D02*
X26678Y-40114D01*
X26650Y-40085D01*
X26621Y-40028D01*
X26621Y-39857D01*
X26650Y-39800D01*
X26678Y-39771D01*
X26735Y-39742D01*
X26821Y-39742D01*
X26878Y-39771D01*
X26907Y-39800D01*
X26935Y-39857D01*
X26935Y-40028D01*
X26907Y-40085D01*
X26878Y-40114D01*
X26821Y-40142D01*
X26735Y-40142D01*
X27107Y-39742D02*
X27335Y-39742D01*
X27192Y-39542D02*
X27192Y-40057D01*
X27221Y-40114D01*
X27278Y-40142D01*
X27335Y-40142D01*
X27792Y-40114D02*
X27735Y-40142D01*
X27621Y-40142D01*
X27564Y-40114D01*
X27535Y-40085D01*
X27507Y-40028D01*
X27507Y-39857D01*
X27535Y-39800D01*
X27564Y-39771D01*
X27621Y-39742D01*
X27735Y-39742D01*
X27792Y-39771D01*
X28135Y-40142D02*
X28078Y-40114D01*
X28050Y-40085D01*
X28021Y-40028D01*
X28021Y-39857D01*
X28050Y-39800D01*
X28078Y-39771D01*
X28135Y-39742D01*
X28221Y-39742D01*
X28278Y-39771D01*
X28307Y-39800D01*
X28335Y-39857D01*
X28335Y-40028D01*
X28307Y-40085D01*
X28278Y-40114D01*
X28221Y-40142D01*
X28135Y-40142D01*
X28592Y-39742D02*
X28592Y-40142D01*
X28592Y-39800D02*
X28621Y-39771D01*
X28678Y-39742D01*
X28764Y-39742D01*
X28821Y-39771D01*
X28850Y-39828D01*
X28850Y-40142D01*
X28992Y-40200D02*
X29450Y-40200D01*
X29707Y-39542D02*
X29764Y-39542D01*
X29821Y-39571D01*
X29850Y-39600D01*
X29878Y-39657D01*
X29907Y-39771D01*
X29907Y-39914D01*
X29878Y-40028D01*
X29850Y-40085D01*
X29821Y-40114D01*
X29764Y-40142D01*
X29707Y-40142D01*
X29650Y-40114D01*
X29621Y-40085D01*
X29592Y-40028D01*
X29564Y-39914D01*
X29564Y-39771D01*
X29592Y-39657D01*
X29621Y-39600D01*
X29650Y-39571D01*
X29707Y-39542D01*
X30107Y-40142D02*
X30421Y-39742D01*
X30107Y-39742D02*
X30421Y-40142D01*
X30935Y-39542D02*
X30650Y-39542D01*
X30621Y-39828D01*
X30650Y-39800D01*
X30707Y-39771D01*
X30850Y-39771D01*
X30907Y-39800D01*
X30935Y-39828D01*
X30964Y-39885D01*
X30964Y-40028D01*
X30935Y-40085D01*
X30907Y-40114D01*
X30850Y-40142D01*
X30707Y-40142D01*
X30650Y-40114D01*
X30621Y-40085D01*
X31221Y-40085D02*
X31250Y-40114D01*
X31221Y-40142D01*
X31192Y-40114D01*
X31221Y-40085D01*
X31221Y-40142D01*
X31507Y-40142D02*
X31507Y-39542D01*
X31507Y-39771D02*
X31564Y-39742D01*
X31678Y-39742D01*
X31735Y-39771D01*
X31764Y-39800D01*
X31792Y-39857D01*
X31792Y-40028D01*
X31764Y-40085D01*
X31735Y-40114D01*
X31678Y-40142D01*
X31564Y-40142D01*
X31507Y-40114D01*
X32050Y-40142D02*
X32050Y-39742D01*
X32050Y-39857D02*
X32078Y-39800D01*
X32107Y-39771D01*
X32164Y-39742D01*
X32221Y-39742D01*
X32678Y-40142D02*
X32678Y-39542D01*
X32678Y-40114D02*
X32621Y-40142D01*
X32507Y-40142D01*
X32450Y-40114D01*
X32421Y-40085D01*
X32392Y-40028D01*
X32392Y-39857D01*
X32421Y-39800D01*
X32450Y-39771D01*
X32507Y-39742D01*
X32621Y-39742D01*
X32678Y-39771D01*
X23364Y-41314D02*
X23450Y-41342D01*
X23592Y-41342D01*
X23650Y-41314D01*
X23678Y-41285D01*
X23707Y-41228D01*
X23707Y-41171D01*
X23678Y-41114D01*
X23650Y-41085D01*
X23592Y-41057D01*
X23478Y-41028D01*
X23421Y-41000D01*
X23392Y-40971D01*
X23364Y-40914D01*
X23364Y-40857D01*
X23392Y-40800D01*
X23421Y-40771D01*
X23478Y-40742D01*
X23621Y-40742D01*
X23707Y-40771D01*
X23964Y-41342D02*
X23964Y-40742D01*
X24221Y-41342D02*
X24221Y-41028D01*
X24192Y-40971D01*
X24135Y-40942D01*
X24050Y-40942D01*
X23992Y-40971D01*
X23964Y-41000D01*
X24735Y-41314D02*
X24678Y-41342D01*
X24564Y-41342D01*
X24507Y-41314D01*
X24478Y-41257D01*
X24478Y-41028D01*
X24507Y-40971D01*
X24564Y-40942D01*
X24678Y-40942D01*
X24735Y-40971D01*
X24764Y-41028D01*
X24764Y-41085D01*
X24478Y-41142D01*
X25250Y-41314D02*
X25192Y-41342D01*
X25078Y-41342D01*
X25021Y-41314D01*
X24992Y-41257D01*
X24992Y-41028D01*
X25021Y-40971D01*
X25078Y-40942D01*
X25192Y-40942D01*
X25250Y-40971D01*
X25278Y-41028D01*
X25278Y-41085D01*
X24992Y-41142D01*
X25450Y-40942D02*
X25678Y-40942D01*
X25535Y-40742D02*
X25535Y-41257D01*
X25564Y-41314D01*
X25621Y-41342D01*
X25678Y-41342D01*
X25878Y-41285D02*
X25907Y-41314D01*
X25878Y-41342D01*
X25850Y-41314D01*
X25878Y-41285D01*
X25878Y-41342D01*
X25878Y-40971D02*
X25907Y-41000D01*
X25878Y-41028D01*
X25850Y-41000D01*
X25878Y-40971D01*
X25878Y-41028D01*
X23417Y-38342D02*
X23485Y-38942D01*
X23653Y-38514D01*
X23714Y-38942D01*
X23932Y-38342D01*
X24171Y-38942D02*
X24117Y-38914D01*
X24092Y-38885D01*
X24071Y-38828D01*
X24092Y-38657D01*
X24128Y-38600D01*
X24160Y-38571D01*
X24221Y-38542D01*
X24307Y-38542D01*
X24360Y-38571D01*
X24385Y-38600D01*
X24407Y-38657D01*
X24385Y-38828D01*
X24350Y-38885D01*
X24317Y-38914D01*
X24257Y-38942D01*
X24171Y-38942D01*
X24628Y-38942D02*
X24678Y-38542D01*
X24664Y-38657D02*
X24700Y-38600D01*
X24732Y-38571D01*
X24792Y-38542D01*
X24850Y-38542D01*
X25000Y-38942D02*
X25075Y-38342D01*
X25085Y-38714D02*
X25228Y-38942D01*
X25278Y-38542D02*
X25021Y-38771D01*
X25460Y-38914D02*
X25514Y-38942D01*
X25628Y-38942D01*
X25689Y-38914D01*
X25725Y-38857D01*
X25728Y-38828D01*
X25707Y-38771D01*
X25653Y-38742D01*
X25567Y-38742D01*
X25514Y-38714D01*
X25492Y-38657D01*
X25496Y-38628D01*
X25532Y-38571D01*
X25592Y-38542D01*
X25678Y-38542D01*
X25732Y-38571D01*
X25971Y-38942D02*
X26046Y-38342D01*
X26228Y-38942D02*
X26267Y-38628D01*
X26246Y-38571D01*
X26192Y-38542D01*
X26107Y-38542D01*
X26046Y-38571D01*
X26014Y-38600D01*
X26599Y-38942D02*
X26546Y-38914D01*
X26521Y-38885D01*
X26500Y-38828D01*
X26521Y-38657D01*
X26557Y-38600D01*
X26589Y-38571D01*
X26649Y-38542D01*
X26735Y-38542D01*
X26789Y-38571D01*
X26814Y-38600D01*
X26835Y-38657D01*
X26814Y-38828D01*
X26778Y-38885D01*
X26746Y-38914D01*
X26685Y-38942D01*
X26599Y-38942D01*
X27107Y-38542D02*
X27032Y-39142D01*
X27103Y-38571D02*
X27164Y-38542D01*
X27278Y-38542D01*
X27332Y-38571D01*
X27357Y-38600D01*
X27378Y-38657D01*
X27357Y-38828D01*
X27321Y-38885D01*
X27289Y-38914D01*
X27228Y-38942D01*
X27114Y-38942D01*
X27060Y-38914D01*
X28185Y-38600D02*
X28132Y-38571D01*
X28107Y-38542D01*
X28085Y-38485D01*
X28089Y-38457D01*
X28124Y-38400D01*
X28157Y-38371D01*
X28217Y-38342D01*
X28332Y-38342D01*
X28385Y-38371D01*
X28410Y-38400D01*
X28432Y-38457D01*
X28428Y-38485D01*
X28392Y-38542D01*
X28360Y-38571D01*
X28299Y-38600D01*
X28185Y-38600D01*
X28125Y-38628D01*
X28092Y-38657D01*
X28057Y-38714D01*
X28042Y-38828D01*
X28064Y-38885D01*
X28089Y-38914D01*
X28142Y-38942D01*
X28257Y-38942D01*
X28317Y-38914D01*
X28349Y-38885D01*
X28385Y-38828D01*
X28399Y-38714D01*
X28378Y-38657D01*
X28353Y-38628D01*
X28299Y-38600D01*
X28757Y-38600D02*
X28703Y-38571D01*
X28678Y-38542D01*
X28657Y-38485D01*
X28660Y-38457D01*
X28696Y-38400D01*
X28728Y-38371D01*
X28789Y-38342D01*
X28903Y-38342D01*
X28957Y-38371D01*
X28982Y-38400D01*
X29003Y-38457D01*
X29000Y-38485D01*
X28964Y-38542D01*
X28932Y-38571D01*
X28871Y-38600D01*
X28757Y-38600D01*
X28696Y-38628D01*
X28664Y-38657D01*
X28628Y-38714D01*
X28614Y-38828D01*
X28635Y-38885D01*
X28660Y-38914D01*
X28714Y-38942D01*
X28828Y-38942D01*
X28889Y-38914D01*
X28921Y-38885D01*
X28957Y-38828D01*
X28971Y-38714D01*
X28949Y-38657D01*
X28925Y-38628D01*
X28871Y-38600D01*
X23392Y-37742D02*
X23392Y-37142D01*
X23535Y-37142D01*
X23621Y-37171D01*
X23678Y-37228D01*
X23707Y-37285D01*
X23735Y-37400D01*
X23735Y-37485D01*
X23707Y-37600D01*
X23678Y-37657D01*
X23621Y-37714D01*
X23535Y-37742D01*
X23392Y-37742D01*
X23992Y-37742D02*
X23992Y-37342D01*
X23992Y-37457D02*
X24021Y-37400D01*
X24050Y-37371D01*
X24107Y-37342D01*
X24164Y-37342D01*
X24621Y-37742D02*
X24621Y-37428D01*
X24592Y-37371D01*
X24535Y-37342D01*
X24421Y-37342D01*
X24364Y-37371D01*
X24621Y-37714D02*
X24564Y-37742D01*
X24421Y-37742D01*
X24364Y-37714D01*
X24335Y-37657D01*
X24335Y-37600D01*
X24364Y-37542D01*
X24421Y-37514D01*
X24564Y-37514D01*
X24621Y-37485D01*
X24850Y-37342D02*
X24964Y-37742D01*
X25078Y-37457D01*
X25192Y-37742D01*
X25307Y-37342D01*
X25535Y-37342D02*
X25535Y-37742D01*
X25535Y-37400D02*
X25564Y-37371D01*
X25621Y-37342D01*
X25707Y-37342D01*
X25764Y-37371D01*
X25792Y-37428D01*
X25792Y-37742D01*
X26078Y-37685D02*
X26107Y-37714D01*
X26078Y-37742D01*
X26050Y-37714D01*
X26078Y-37685D01*
X26078Y-37742D01*
X26078Y-37371D02*
X26107Y-37400D01*
X26078Y-37428D01*
X26050Y-37400D01*
X26078Y-37371D01*
X26078Y-37428D01*
X26821Y-37742D02*
X26821Y-37142D01*
X27050Y-37142D01*
X27107Y-37171D01*
X27135Y-37200D01*
X27164Y-37257D01*
X27164Y-37342D01*
X27135Y-37400D01*
X27107Y-37428D01*
X27050Y-37457D01*
X26821Y-37457D01*
X27678Y-37742D02*
X27678Y-37428D01*
X27650Y-37371D01*
X27592Y-37342D01*
X27478Y-37342D01*
X27421Y-37371D01*
X27678Y-37714D02*
X27621Y-37742D01*
X27478Y-37742D01*
X27421Y-37714D01*
X27392Y-37657D01*
X27392Y-37600D01*
X27421Y-37542D01*
X27478Y-37514D01*
X27621Y-37514D01*
X27678Y-37485D01*
X28221Y-37342D02*
X28221Y-37742D01*
X27964Y-37342D02*
X27964Y-37657D01*
X27992Y-37714D01*
X28049Y-37742D01*
X28135Y-37742D01*
X28192Y-37714D01*
X28221Y-37685D01*
X28592Y-37742D02*
X28535Y-37714D01*
X28507Y-37657D01*
X28507Y-37142D01*
X29621Y-37742D02*
X29421Y-37457D01*
X29278Y-37742D02*
X29278Y-37142D01*
X29507Y-37142D01*
X29564Y-37171D01*
X29592Y-37200D01*
X29621Y-37257D01*
X29621Y-37342D01*
X29592Y-37400D01*
X29564Y-37428D01*
X29507Y-37457D01*
X29278Y-37457D01*
X30107Y-37714D02*
X30050Y-37742D01*
X29935Y-37742D01*
X29878Y-37714D01*
X29850Y-37657D01*
X29850Y-37428D01*
X29878Y-37371D01*
X29935Y-37342D01*
X30050Y-37342D01*
X30107Y-37371D01*
X30135Y-37428D01*
X30135Y-37485D01*
X29850Y-37542D01*
X30392Y-37742D02*
X30392Y-37342D01*
X30392Y-37142D02*
X30364Y-37171D01*
X30392Y-37200D01*
X30421Y-37171D01*
X30392Y-37142D01*
X30392Y-37200D01*
X30935Y-37714D02*
X30878Y-37742D01*
X30764Y-37742D01*
X30707Y-37714D01*
X30678Y-37685D01*
X30650Y-37628D01*
X30650Y-37457D01*
X30678Y-37400D01*
X30707Y-37371D01*
X30764Y-37342D01*
X30878Y-37342D01*
X30935Y-37371D01*
X31192Y-37742D02*
X31192Y-37142D01*
X31450Y-37742D02*
X31450Y-37428D01*
X31421Y-37371D01*
X31364Y-37342D01*
X31278Y-37342D01*
X31221Y-37371D01*
X31192Y-37400D01*
X23392Y-36542D02*
X23392Y-35942D01*
X23535Y-35942D01*
X23621Y-35971D01*
X23678Y-36028D01*
X23707Y-36085D01*
X23735Y-36200D01*
X23735Y-36285D01*
X23707Y-36400D01*
X23678Y-36457D01*
X23621Y-36514D01*
X23535Y-36542D01*
X23392Y-36542D01*
X24221Y-36514D02*
X24164Y-36542D01*
X24050Y-36542D01*
X23992Y-36514D01*
X23964Y-36457D01*
X23964Y-36228D01*
X23992Y-36171D01*
X24050Y-36142D01*
X24164Y-36142D01*
X24221Y-36171D01*
X24250Y-36228D01*
X24250Y-36285D01*
X23964Y-36342D01*
X24478Y-36514D02*
X24535Y-36542D01*
X24650Y-36542D01*
X24707Y-36514D01*
X24735Y-36457D01*
X24735Y-36428D01*
X24707Y-36371D01*
X24650Y-36342D01*
X24564Y-36342D01*
X24507Y-36314D01*
X24478Y-36257D01*
X24478Y-36228D01*
X24507Y-36171D01*
X24564Y-36142D01*
X24650Y-36142D01*
X24707Y-36171D01*
X24992Y-36542D02*
X24992Y-36142D01*
X24992Y-35942D02*
X24964Y-35971D01*
X24992Y-36000D01*
X25021Y-35971D01*
X24992Y-35942D01*
X24992Y-36000D01*
X25535Y-36142D02*
X25535Y-36628D01*
X25507Y-36685D01*
X25478Y-36714D01*
X25421Y-36742D01*
X25335Y-36742D01*
X25278Y-36714D01*
X25535Y-36514D02*
X25478Y-36542D01*
X25364Y-36542D01*
X25307Y-36514D01*
X25278Y-36485D01*
X25250Y-36428D01*
X25250Y-36257D01*
X25278Y-36200D01*
X25307Y-36171D01*
X25364Y-36142D01*
X25478Y-36142D01*
X25535Y-36171D01*
X25821Y-36142D02*
X25821Y-36542D01*
X25821Y-36200D02*
X25850Y-36171D01*
X25907Y-36142D01*
X25992Y-36142D01*
X26050Y-36171D01*
X26078Y-36228D01*
X26078Y-36542D01*
X26592Y-36514D02*
X26535Y-36542D01*
X26421Y-36542D01*
X26364Y-36514D01*
X26335Y-36457D01*
X26335Y-36228D01*
X26364Y-36171D01*
X26421Y-36142D01*
X26535Y-36142D01*
X26592Y-36171D01*
X26621Y-36228D01*
X26621Y-36285D01*
X26335Y-36342D01*
X27135Y-36542D02*
X27135Y-35942D01*
X27135Y-36514D02*
X27078Y-36542D01*
X26964Y-36542D01*
X26907Y-36514D01*
X26878Y-36485D01*
X26850Y-36428D01*
X26850Y-36257D01*
X26878Y-36200D01*
X26907Y-36171D01*
X26964Y-36142D01*
X27078Y-36142D01*
X27135Y-36171D01*
X27421Y-36485D02*
X27450Y-36514D01*
X27421Y-36542D01*
X27392Y-36514D01*
X27421Y-36485D01*
X27421Y-36542D01*
X27421Y-36171D02*
X27450Y-36200D01*
X27421Y-36228D01*
X27392Y-36200D01*
X27421Y-36171D01*
X27421Y-36228D01*
X28164Y-36542D02*
X28164Y-35942D01*
X28392Y-35942D01*
X28449Y-35971D01*
X28478Y-36000D01*
X28507Y-36057D01*
X28507Y-36142D01*
X28478Y-36200D01*
X28449Y-36228D01*
X28392Y-36257D01*
X28164Y-36257D01*
X29021Y-36542D02*
X29021Y-36228D01*
X28992Y-36171D01*
X28935Y-36142D01*
X28821Y-36142D01*
X28764Y-36171D01*
X29021Y-36514D02*
X28964Y-36542D01*
X28821Y-36542D01*
X28764Y-36514D01*
X28735Y-36457D01*
X28735Y-36400D01*
X28764Y-36342D01*
X28821Y-36314D01*
X28964Y-36314D01*
X29021Y-36285D01*
X29564Y-36142D02*
X29564Y-36542D01*
X29307Y-36142D02*
X29307Y-36457D01*
X29335Y-36514D01*
X29392Y-36542D01*
X29478Y-36542D01*
X29535Y-36514D01*
X29564Y-36485D01*
X29935Y-36542D02*
X29878Y-36514D01*
X29849Y-36457D01*
X29849Y-35942D01*
X30964Y-36542D02*
X30764Y-36257D01*
X30621Y-36542D02*
X30621Y-35942D01*
X30850Y-35942D01*
X30907Y-35971D01*
X30935Y-36000D01*
X30964Y-36057D01*
X30964Y-36142D01*
X30935Y-36200D01*
X30907Y-36228D01*
X30850Y-36257D01*
X30621Y-36257D01*
X31450Y-36514D02*
X31392Y-36542D01*
X31278Y-36542D01*
X31221Y-36514D01*
X31192Y-36457D01*
X31192Y-36228D01*
X31221Y-36171D01*
X31278Y-36142D01*
X31392Y-36142D01*
X31450Y-36171D01*
X31478Y-36228D01*
X31478Y-36285D01*
X31192Y-36342D01*
X31735Y-36542D02*
X31735Y-36142D01*
X31735Y-35942D02*
X31707Y-35971D01*
X31735Y-36000D01*
X31764Y-35971D01*
X31735Y-35942D01*
X31735Y-36000D01*
X32278Y-36514D02*
X32221Y-36542D01*
X32107Y-36542D01*
X32050Y-36514D01*
X32021Y-36485D01*
X31992Y-36428D01*
X31992Y-36257D01*
X32021Y-36200D01*
X32050Y-36171D01*
X32107Y-36142D01*
X32221Y-36142D01*
X32278Y-36171D01*
X32535Y-36542D02*
X32535Y-35942D01*
X32792Y-36542D02*
X32792Y-36228D01*
X32764Y-36171D01*
X32707Y-36142D01*
X32621Y-36142D01*
X32564Y-36171D01*
X32535Y-36200D01*
X23392Y-35342D02*
X23392Y-34742D01*
X23621Y-34742D01*
X23678Y-34771D01*
X23707Y-34800D01*
X23735Y-34857D01*
X23735Y-34942D01*
X23707Y-35000D01*
X23678Y-35028D01*
X23621Y-35057D01*
X23392Y-35057D01*
X23992Y-35342D02*
X23992Y-34942D01*
X23992Y-35057D02*
X24021Y-35000D01*
X24050Y-34971D01*
X24107Y-34942D01*
X24164Y-34942D01*
X24450Y-35342D02*
X24392Y-35314D01*
X24364Y-35285D01*
X24335Y-35228D01*
X24335Y-35057D01*
X24364Y-35000D01*
X24392Y-34971D01*
X24450Y-34942D01*
X24535Y-34942D01*
X24592Y-34971D01*
X24621Y-35000D01*
X24650Y-35057D01*
X24650Y-35228D01*
X24621Y-35285D01*
X24592Y-35314D01*
X24535Y-35342D01*
X24450Y-35342D01*
X24907Y-34942D02*
X24907Y-35457D01*
X24878Y-35514D01*
X24821Y-35542D01*
X24792Y-35542D01*
X24907Y-34742D02*
X24878Y-34771D01*
X24907Y-34800D01*
X24935Y-34771D01*
X24907Y-34742D01*
X24907Y-34800D01*
X25421Y-35314D02*
X25364Y-35342D01*
X25250Y-35342D01*
X25192Y-35314D01*
X25164Y-35257D01*
X25164Y-35028D01*
X25192Y-34971D01*
X25250Y-34942D01*
X25364Y-34942D01*
X25421Y-34971D01*
X25450Y-35028D01*
X25450Y-35085D01*
X25164Y-35142D01*
X25964Y-35314D02*
X25907Y-35342D01*
X25792Y-35342D01*
X25735Y-35314D01*
X25707Y-35285D01*
X25678Y-35228D01*
X25678Y-35057D01*
X25707Y-35000D01*
X25735Y-34971D01*
X25792Y-34942D01*
X25907Y-34942D01*
X25964Y-34971D01*
X26135Y-34942D02*
X26364Y-34942D01*
X26221Y-34742D02*
X26221Y-35257D01*
X26250Y-35314D01*
X26307Y-35342D01*
X26364Y-35342D01*
X27021Y-35342D02*
X27021Y-34742D01*
X27221Y-35171D01*
X27421Y-34742D01*
X27421Y-35342D01*
X27964Y-34942D02*
X27964Y-35428D01*
X27935Y-35485D01*
X27907Y-35514D01*
X27850Y-35542D01*
X27764Y-35542D01*
X27707Y-35514D01*
X27964Y-35314D02*
X27907Y-35342D01*
X27792Y-35342D01*
X27735Y-35314D01*
X27707Y-35285D01*
X27678Y-35228D01*
X27678Y-35057D01*
X27707Y-35000D01*
X27735Y-34971D01*
X27792Y-34942D01*
X27907Y-34942D01*
X27964Y-34971D01*
X28250Y-35342D02*
X28250Y-34942D01*
X28250Y-35057D02*
X28278Y-35000D01*
X28307Y-34971D01*
X28364Y-34942D01*
X28421Y-34942D01*
X28621Y-35285D02*
X28650Y-35314D01*
X28621Y-35342D01*
X28592Y-35314D01*
X28621Y-35285D01*
X28621Y-35342D01*
X28621Y-34971D02*
X28650Y-35000D01*
X28621Y-35028D01*
X28592Y-35000D01*
X28621Y-34971D01*
X28621Y-35028D01*
X29707Y-35342D02*
X29507Y-35057D01*
X29364Y-35342D02*
X29364Y-34742D01*
X29592Y-34742D01*
X29650Y-34771D01*
X29678Y-34800D01*
X29707Y-34857D01*
X29707Y-34942D01*
X29678Y-35000D01*
X29650Y-35028D01*
X29592Y-35057D01*
X29364Y-35057D01*
X29964Y-35285D02*
X29992Y-35314D01*
X29964Y-35342D01*
X29935Y-35314D01*
X29964Y-35285D01*
X29964Y-35342D01*
X31050Y-35342D02*
X30850Y-35057D01*
X30707Y-35342D02*
X30707Y-34742D01*
X30935Y-34742D01*
X30992Y-34771D01*
X31021Y-34800D01*
X31050Y-34857D01*
X31050Y-34942D01*
X31021Y-35000D01*
X30992Y-35028D01*
X30935Y-35057D01*
X30707Y-35057D01*
X31307Y-35342D02*
X31307Y-34942D01*
X31307Y-34742D02*
X31278Y-34771D01*
X31307Y-34800D01*
X31335Y-34771D01*
X31307Y-34742D01*
X31307Y-34800D01*
X31564Y-35314D02*
X31621Y-35342D01*
X31735Y-35342D01*
X31792Y-35314D01*
X31821Y-35257D01*
X31821Y-35228D01*
X31792Y-35171D01*
X31735Y-35142D01*
X31650Y-35142D01*
X31592Y-35114D01*
X31564Y-35057D01*
X31564Y-35028D01*
X31592Y-34971D01*
X31650Y-34942D01*
X31735Y-34942D01*
X31792Y-34971D01*
X31992Y-34942D02*
X32221Y-34942D01*
X32078Y-34742D02*
X32078Y-35257D01*
X32107Y-35314D01*
X32164Y-35342D01*
X32221Y-35342D01*
X32421Y-35342D02*
X32421Y-34942D01*
X32421Y-34742D02*
X32392Y-34771D01*
X32421Y-34800D01*
X32450Y-34771D01*
X32421Y-34742D01*
X32421Y-34800D01*
X32964Y-35314D02*
X32907Y-35342D01*
X32792Y-35342D01*
X32735Y-35314D01*
X32707Y-35285D01*
X32678Y-35228D01*
X32678Y-35057D01*
X32707Y-35000D01*
X32735Y-34971D01*
X32792Y-34942D01*
X32907Y-34942D01*
X32964Y-34971D01*
X33221Y-35342D02*
X33221Y-34742D01*
X33478Y-35342D02*
X33478Y-35028D01*
X33450Y-34971D01*
X33392Y-34942D01*
X33307Y-34942D01*
X33250Y-34971D01*
X33221Y-35000D01*
X23678Y-34142D02*
X23392Y-34142D01*
X23392Y-33542D01*
X23878Y-34142D02*
X23878Y-33542D01*
X24507Y-34085D02*
X24478Y-34114D01*
X24392Y-34142D01*
X24335Y-34142D01*
X24249Y-34114D01*
X24192Y-34057D01*
X24164Y-34000D01*
X24135Y-33885D01*
X24135Y-33800D01*
X24164Y-33685D01*
X24192Y-33628D01*
X24249Y-33571D01*
X24335Y-33542D01*
X24392Y-33542D01*
X24478Y-33571D01*
X24507Y-33600D01*
X24764Y-33828D02*
X24964Y-33828D01*
X25049Y-34142D02*
X24764Y-34142D01*
X24764Y-33542D01*
X25049Y-33542D01*
X25307Y-34142D02*
X25307Y-33542D01*
X25649Y-34142D01*
X25649Y-33542D01*
X25907Y-34114D02*
X25992Y-34142D01*
X26135Y-34142D01*
X26192Y-34114D01*
X26221Y-34085D01*
X26249Y-34028D01*
X26249Y-33971D01*
X26221Y-33914D01*
X26192Y-33885D01*
X26135Y-33857D01*
X26021Y-33828D01*
X25964Y-33800D01*
X25935Y-33771D01*
X25907Y-33714D01*
X25907Y-33657D01*
X25935Y-33600D01*
X25964Y-33571D01*
X26021Y-33542D01*
X26164Y-33542D01*
X26249Y-33571D01*
X26507Y-33828D02*
X26707Y-33828D01*
X26792Y-34142D02*
X26507Y-34142D01*
X26507Y-33542D01*
X26792Y-33542D01*
X27049Y-34085D02*
X27078Y-34114D01*
X27049Y-34142D01*
X27021Y-34114D01*
X27049Y-34085D01*
X27049Y-34142D01*
X27049Y-33771D02*
X27078Y-33800D01*
X27049Y-33828D01*
X27021Y-33800D01*
X27049Y-33771D01*
X27049Y-33828D01*
X28135Y-34085D02*
X28107Y-34114D01*
X28021Y-34142D01*
X27964Y-34142D01*
X27878Y-34114D01*
X27821Y-34057D01*
X27792Y-34000D01*
X27764Y-33885D01*
X27764Y-33800D01*
X27792Y-33685D01*
X27821Y-33628D01*
X27878Y-33571D01*
X27964Y-33542D01*
X28021Y-33542D01*
X28107Y-33571D01*
X28135Y-33600D01*
X28735Y-34085D02*
X28707Y-34114D01*
X28621Y-34142D01*
X28564Y-34142D01*
X28478Y-34114D01*
X28421Y-34057D01*
X28392Y-34000D01*
X28364Y-33885D01*
X28364Y-33800D01*
X28392Y-33685D01*
X28421Y-33628D01*
X28478Y-33571D01*
X28564Y-33542D01*
X28621Y-33542D01*
X28707Y-33571D01*
X28735Y-33600D01*
X28992Y-33914D02*
X29449Y-33914D01*
X29935Y-33828D02*
X30021Y-33857D01*
X30049Y-33885D01*
X30078Y-33942D01*
X30078Y-34028D01*
X30049Y-34085D01*
X30021Y-34114D01*
X29964Y-34142D01*
X29735Y-34142D01*
X29735Y-33542D01*
X29935Y-33542D01*
X29992Y-33571D01*
X30021Y-33600D01*
X30049Y-33657D01*
X30049Y-33714D01*
X30021Y-33771D01*
X29992Y-33800D01*
X29935Y-33828D01*
X29735Y-33828D01*
X30449Y-33857D02*
X30449Y-34142D01*
X30249Y-33542D02*
X30449Y-33857D01*
X30649Y-33542D01*
X30849Y-33914D02*
X31307Y-33914D01*
X31564Y-34114D02*
X31649Y-34142D01*
X31792Y-34142D01*
X31849Y-34114D01*
X31878Y-34085D01*
X31907Y-34028D01*
X31907Y-33971D01*
X31878Y-33914D01*
X31849Y-33885D01*
X31792Y-33857D01*
X31678Y-33828D01*
X31621Y-33800D01*
X31592Y-33771D01*
X31564Y-33714D01*
X31564Y-33657D01*
X31592Y-33600D01*
X31621Y-33571D01*
X31678Y-33542D01*
X31821Y-33542D01*
X31907Y-33571D01*
X32135Y-33971D02*
X32421Y-33971D01*
X32078Y-34142D02*
X32278Y-33542D01*
X32478Y-34142D01*
X32678Y-33914D02*
X33135Y-33914D01*
X33364Y-33542D02*
X33735Y-33542D01*
X33535Y-33771D01*
X33621Y-33771D01*
X33678Y-33800D01*
X33707Y-33828D01*
X33735Y-33885D01*
X33735Y-34028D01*
X33707Y-34085D01*
X33678Y-34114D01*
X33621Y-34142D01*
X33450Y-34142D01*
X33392Y-34114D01*
X33364Y-34085D01*
X33992Y-34085D02*
X34021Y-34114D01*
X33992Y-34142D01*
X33964Y-34114D01*
X33992Y-34085D01*
X33992Y-34142D01*
X34392Y-33542D02*
X34450Y-33542D01*
X34507Y-33571D01*
X34535Y-33600D01*
X34564Y-33657D01*
X34592Y-33771D01*
X34592Y-33914D01*
X34564Y-34028D01*
X34535Y-34085D01*
X34507Y-34114D01*
X34450Y-34142D01*
X34392Y-34142D01*
X34335Y-34114D01*
X34307Y-34085D01*
X34278Y-34028D01*
X34250Y-33914D01*
X34250Y-33771D01*
X34278Y-33657D01*
X34307Y-33600D01*
X34335Y-33571D01*
X34392Y-33542D01*
X22650Y-33300D02*
X22650Y-45300D01*
X22650Y-39300D02*
X64650Y-39300D01*
X22650Y-33300D02*
X64650Y-33300D01*
X22650Y-41700D02*
X64650Y-41700D01*
X55850Y-42900D02*
X55850Y-45300D01*
X22650Y-44100D02*
X64650Y-44100D01*
X22650Y-42900D02*
X64650Y-42900D01*
X29250Y-42900D02*
X29250Y-44100D01*
G54D11*
X38600Y15650D02*
G75*
G03X32350Y21900I-6250J0D01*
G74*
G01*
X600Y21900D02*
G75*
G03X-5650Y15650I0J-6250D01*
G74*
G01*
X600Y-9100D02*
G75*
G03X6850Y-2850I0J6250D01*
G74*
G01*
X-5650Y-2850D02*
G75*
G03X600Y-9100I6250J0D01*
G74*
G01*
X32350Y-9100D02*
G75*
G03X38600Y-2850I0J6250D01*
G74*
G01*
X26100Y-2850D02*
G75*
G03X32350Y-9100I6250J0D01*
G74*
G01*
X6850Y-2850D02*
X26100Y-2850D01*
X38600Y15650D02*
X38600Y-2850D01*
X-5650Y15650D02*
X-5650Y-3100D01*
X-6650Y23400D02*
G75*
G03X-6650Y23400I-1000J0D01*
G74*
G01*
X-9150Y23400D02*
X-6150Y23400D01*
X-7650Y24900D02*
X-7650Y21900D01*
X41350Y-9000D02*
G75*
G03X41350Y-9000I-1000J0D01*
G74*
G01*
X38850Y-9000D02*
X41850Y-9000D01*
X40350Y-7500D02*
X40350Y-10500D01*
X32350Y21900D02*
X600Y21900D01*
G54D10*
G36*
X-1585Y12719D02*
X-1587Y12627D01*
X-1606Y12541D01*
X-1639Y12467D01*
X-1690Y12395D01*
X-1748Y12340D01*
X-1822Y12292D01*
X-1898Y12263D01*
X-1984Y12248D01*
X-2065Y12250D01*
X-2151Y12269D01*
X-2225Y12301D01*
X-2297Y12351D01*
X-2353Y12409D01*
X-2401Y12483D01*
X-2431Y12558D01*
X-2447Y12645D01*
X-2445Y12725D01*
X-2427Y12812D01*
X-2396Y12885D01*
X-2345Y12959D01*
X-2288Y13015D01*
X-2214Y13063D01*
X-2140Y13093D01*
X-2053Y13110D01*
X-1973Y13109D01*
X-1886Y13091D01*
X-1812Y13060D01*
X-1738Y13011D01*
X-1682Y12954D01*
X-1633Y12880D01*
X-1602Y12806D01*
X-1585Y12719D01*
X-1585Y12719D01*
G37*
G36*
X-1585Y10160D02*
X-1587Y10068D01*
X-1606Y9982D01*
X-1639Y9908D01*
X-1690Y9836D01*
X-1748Y9780D01*
X-1822Y9733D01*
X-1898Y9704D01*
X-1984Y9689D01*
X-2065Y9691D01*
X-2151Y9709D01*
X-2225Y9742D01*
X-2297Y9792D01*
X-2353Y9850D01*
X-2401Y9924D01*
X-2431Y9999D01*
X-2447Y10086D01*
X-2445Y10166D01*
X-2427Y10253D01*
X-2396Y10326D01*
X-2345Y10400D01*
X-2288Y10456D01*
X-2214Y10504D01*
X-2140Y10534D01*
X-2053Y10551D01*
X-1973Y10550D01*
X-1886Y10532D01*
X-1812Y10501D01*
X-1738Y10452D01*
X-1682Y10395D01*
X-1633Y10321D01*
X-1602Y10247D01*
X-1585Y10160D01*
X-1585Y10160D01*
G37*
G36*
X-119Y4145D02*
X-121Y4041D01*
X-142Y3945D01*
X-179Y3863D01*
X-235Y3783D01*
X-301Y3720D01*
X-384Y3668D01*
X-468Y3635D01*
X-564Y3618D01*
X-655Y3620D01*
X-750Y3641D01*
X-833Y3677D01*
X-914Y3733D01*
X-976Y3798D01*
X-1030Y3881D01*
X-1063Y3965D01*
X-1081Y4061D01*
X-1079Y4151D01*
X-1059Y4247D01*
X-1023Y4330D01*
X-968Y4411D01*
X-904Y4474D01*
X-821Y4528D01*
X-738Y4562D01*
X-641Y4580D01*
X-551Y4580D01*
X-455Y4560D01*
X-372Y4525D01*
X-290Y4470D01*
X-227Y4406D01*
X-172Y4324D01*
X-138Y4241D01*
X-119Y4145D01*
X-119Y4145D01*
G37*
G36*
X-119Y-4054D02*
X-121Y-4158D01*
X-142Y-4254D01*
X-179Y-4336D01*
X-235Y-4416D01*
X-301Y-4479D01*
X-384Y-4531D01*
X-468Y-4564D01*
X-564Y-4581D01*
X-655Y-4579D01*
X-750Y-4558D01*
X-833Y-4522D01*
X-914Y-4466D01*
X-976Y-4401D01*
X-1030Y-4318D01*
X-1063Y-4234D01*
X-1081Y-4138D01*
X-1079Y-4048D01*
X-1059Y-3952D01*
X-1023Y-3869D01*
X-968Y-3788D01*
X-904Y-3725D01*
X-821Y-3671D01*
X-738Y-3637D01*
X-641Y-3619D01*
X-551Y-3619D01*
X-455Y-3639D01*
X-372Y-3674D01*
X-290Y-3729D01*
X-227Y-3793D01*
X-172Y-3875D01*
X-138Y-3958D01*
X-119Y-4054D01*
X-119Y-4054D01*
G37*
G36*
X146Y12719D02*
X145Y12627D01*
X125Y12541D01*
X92Y12467D01*
X42Y12395D01*
X-16Y12340D01*
X-90Y12292D01*
X-165Y12263D01*
X-252Y12248D01*
X-333Y12250D01*
X-419Y12269D01*
X-493Y12301D01*
X-565Y12351D01*
X-621Y12409D01*
X-669Y12483D01*
X-698Y12558D01*
X-714Y12645D01*
X-713Y12725D01*
X-695Y12812D01*
X-663Y12885D01*
X-613Y12959D01*
X-556Y13015D01*
X-482Y13063D01*
X-408Y13093D01*
X-320Y13110D01*
X-240Y13109D01*
X-153Y13091D01*
X-80Y13060D01*
X-6Y13011D01*
X49Y12954D01*
X98Y12880D01*
X129Y12806D01*
X146Y12719D01*
X146Y12719D01*
G37*
G36*
X166Y10160D02*
X164Y10068D01*
X145Y9982D01*
X112Y9908D01*
X61Y9836D01*
X3Y9780D01*
X-70Y9733D01*
X-146Y9704D01*
X-232Y9689D01*
X-313Y9691D01*
X-399Y9709D01*
X-473Y9742D01*
X-545Y9792D01*
X-601Y9850D01*
X-649Y9924D01*
X-679Y9999D01*
X-695Y10086D01*
X-694Y10166D01*
X-675Y10253D01*
X-644Y10326D01*
X-593Y10400D01*
X-536Y10456D01*
X-462Y10504D01*
X-388Y10534D01*
X-301Y10551D01*
X-221Y10550D01*
X-134Y10532D01*
X-60Y10501D01*
X13Y10452D01*
X69Y10395D01*
X118Y10321D01*
X148Y10247D01*
X166Y10160D01*
X166Y10160D01*
G37*
G36*
X1080Y4145D02*
X1078Y4041D01*
X1057Y3945D01*
X1020Y3863D01*
X964Y3783D01*
X898Y3720D01*
X815Y3668D01*
X731Y3635D01*
X635Y3618D01*
X544Y3620D01*
X449Y3641D01*
X366Y3677D01*
X285Y3733D01*
X223Y3798D01*
X169Y3881D01*
X136Y3965D01*
X118Y4061D01*
X120Y4151D01*
X140Y4247D01*
X176Y4330D01*
X231Y4411D01*
X295Y4474D01*
X378Y4528D01*
X461Y4562D01*
X558Y4580D01*
X648Y4580D01*
X744Y4560D01*
X827Y4525D01*
X909Y4470D01*
X972Y4406D01*
X1027Y4324D01*
X1061Y4241D01*
X1080Y4145D01*
X1080Y4145D01*
G37*
G36*
X1080Y-4054D02*
X1078Y-4158D01*
X1057Y-4254D01*
X1020Y-4336D01*
X964Y-4416D01*
X898Y-4479D01*
X815Y-4531D01*
X731Y-4564D01*
X635Y-4581D01*
X544Y-4579D01*
X449Y-4558D01*
X366Y-4522D01*
X285Y-4466D01*
X223Y-4401D01*
X169Y-4318D01*
X136Y-4234D01*
X118Y-4138D01*
X120Y-4048D01*
X140Y-3952D01*
X176Y-3869D01*
X231Y-3788D01*
X295Y-3725D01*
X378Y-3671D01*
X461Y-3637D01*
X558Y-3619D01*
X648Y-3619D01*
X744Y-3639D01*
X827Y-3674D01*
X909Y-3729D01*
X972Y-3793D01*
X1027Y-3875D01*
X1061Y-3958D01*
X1080Y-4054D01*
X1080Y-4054D01*
G37*
G36*
X2000Y18395D02*
X1987Y18275D01*
X1951Y18159D01*
X1894Y18052D01*
X1817Y17959D01*
X1723Y17883D01*
X1616Y17826D01*
X1500Y17791D01*
X1374Y17778D01*
X903Y17778D01*
X894Y17779D01*
X890Y17779D01*
X890Y17779D01*
X769Y17793D01*
X769Y17793D01*
X769Y17793D01*
X654Y17829D01*
X548Y17888D01*
X455Y17965D01*
X379Y18060D01*
X323Y18167D01*
X289Y18283D01*
X278Y18404D01*
X291Y18524D01*
X326Y18640D01*
X384Y18747D01*
X461Y18840D01*
X555Y18916D01*
X662Y18973D01*
X778Y19008D01*
X903Y19021D01*
X1374Y19021D01*
X1383Y19020D01*
X1388Y19020D01*
X1388Y19020D01*
X1508Y19006D01*
X1508Y19006D01*
X1509Y19006D01*
X1624Y18970D01*
X1730Y18911D01*
X1823Y18834D01*
X1899Y18739D01*
X1955Y18632D01*
X1989Y18516D01*
X2000Y18395D01*
X2000Y18395D01*
G37*
G36*
X2000Y16035D02*
X1987Y15914D01*
X1951Y15799D01*
X1894Y15692D01*
X1817Y15599D01*
X1723Y15522D01*
X1616Y15465D01*
X1500Y15430D01*
X1374Y15418D01*
X903Y15418D01*
X894Y15418D01*
X890Y15418D01*
X890Y15418D01*
X769Y15432D01*
X769Y15432D01*
X769Y15432D01*
X654Y15468D01*
X548Y15527D01*
X455Y15605D01*
X379Y15699D01*
X323Y15806D01*
X289Y15923D01*
X278Y16043D01*
X291Y16164D01*
X326Y16279D01*
X384Y16386D01*
X461Y16479D01*
X555Y16556D01*
X662Y16613D01*
X778Y16648D01*
X903Y16660D01*
X1374Y16660D01*
X1383Y16660D01*
X1388Y16659D01*
X1388Y16659D01*
X1508Y16646D01*
X1508Y16646D01*
X1509Y16646D01*
X1624Y16609D01*
X1730Y16551D01*
X1823Y16473D01*
X1899Y16378D01*
X1955Y16272D01*
X1989Y16155D01*
X2000Y16035D01*
X2000Y16035D01*
G37*
G36*
X3480Y339D02*
X3469Y-436D01*
X3317Y-1105D01*
X3041Y-1725D01*
X2646Y-2286D01*
X2154Y-2754D01*
X1575Y-3122D01*
X942Y-3367D01*
X266Y-3486D01*
X-412Y-3472D01*
X-1082Y-3325D01*
X-1704Y-3053D01*
X-2268Y-2661D01*
X-2739Y-2173D01*
X-3111Y-1596D01*
X-3361Y-965D01*
X-3484Y-290D01*
X-3475Y387D01*
X-3332Y1059D01*
X-3065Y1682D01*
X-2677Y2249D01*
X-2192Y2724D01*
X-1618Y3100D01*
X-989Y3354D01*
X-314Y3482D01*
X363Y3478D01*
X1036Y3339D01*
X1661Y3077D01*
X2230Y2693D01*
X2708Y2212D01*
X3088Y1639D01*
X3347Y1013D01*
X3480Y339D01*
X3480Y339D01*
G37*
G36*
X3610Y16983D02*
X3610Y16974D01*
X3610Y16970D01*
X3610Y16969D01*
X3596Y16849D01*
X3596Y16849D01*
X3596Y16849D01*
X3560Y16734D01*
X3501Y16627D01*
X3424Y16535D01*
X3329Y16459D01*
X3222Y16403D01*
X3105Y16368D01*
X2985Y16357D01*
X2864Y16370D01*
X2749Y16406D01*
X2642Y16464D01*
X2549Y16541D01*
X2472Y16635D01*
X2416Y16741D01*
X2381Y16857D01*
X2368Y16983D01*
X2368Y17454D01*
X2368Y17463D01*
X2369Y17467D01*
X2369Y17467D01*
X2382Y17588D01*
X2382Y17588D01*
X2382Y17588D01*
X2419Y17703D01*
X2477Y17810D01*
X2555Y17902D01*
X2650Y17978D01*
X2757Y18034D01*
X2873Y18068D01*
X2993Y18079D01*
X3114Y18067D01*
X3230Y18031D01*
X3336Y17973D01*
X3430Y17896D01*
X3506Y17802D01*
X3563Y17695D01*
X3598Y17579D01*
X3610Y17454D01*
X3610Y16983D01*
X3610Y16983D01*
G37*
G36*
X4414Y12719D02*
X4412Y12627D01*
X4393Y12541D01*
X4360Y12467D01*
X4309Y12395D01*
X4251Y12340D01*
X4177Y12292D01*
X4101Y12263D01*
X4015Y12248D01*
X3934Y12250D01*
X3848Y12269D01*
X3774Y12301D01*
X3702Y12351D01*
X3646Y12409D01*
X3598Y12483D01*
X3568Y12558D01*
X3552Y12645D01*
X3554Y12725D01*
X3572Y12812D01*
X3603Y12885D01*
X3654Y12959D01*
X3711Y13015D01*
X3785Y13063D01*
X3859Y13093D01*
X3946Y13110D01*
X4026Y13109D01*
X4113Y13091D01*
X4187Y13060D01*
X4261Y13011D01*
X4317Y12954D01*
X4366Y12880D01*
X4397Y12806D01*
X4414Y12719D01*
X4414Y12719D01*
G37*
G36*
X4414Y10160D02*
X4412Y10068D01*
X4393Y9982D01*
X4360Y9908D01*
X4309Y9836D01*
X4251Y9780D01*
X4177Y9733D01*
X4101Y9704D01*
X4015Y9689D01*
X3934Y9691D01*
X3848Y9709D01*
X3774Y9742D01*
X3702Y9792D01*
X3646Y9850D01*
X3598Y9924D01*
X3568Y9999D01*
X3552Y10086D01*
X3554Y10166D01*
X3572Y10253D01*
X3603Y10326D01*
X3654Y10400D01*
X3711Y10456D01*
X3785Y10504D01*
X3859Y10534D01*
X3946Y10551D01*
X4026Y10550D01*
X4113Y10532D01*
X4187Y10501D01*
X4261Y10452D01*
X4317Y10395D01*
X4366Y10321D01*
X4397Y10247D01*
X4414Y10160D01*
X4414Y10160D01*
G37*
G36*
X5171Y19073D02*
X5170Y19005D01*
X5156Y18940D01*
X5131Y18885D01*
X5093Y18831D01*
X5050Y18790D01*
X4994Y18754D01*
X4938Y18733D01*
X4872Y18721D01*
X4813Y18722D01*
X4748Y18737D01*
X4694Y18760D01*
X4638Y18799D01*
X4597Y18841D01*
X4561Y18898D01*
X4539Y18952D01*
X4527Y19019D01*
X4528Y19077D01*
X4542Y19143D01*
X4565Y19197D01*
X4603Y19253D01*
X4645Y19294D01*
X4702Y19331D01*
X4756Y19353D01*
X4822Y19366D01*
X4881Y19365D01*
X4947Y19352D01*
X5001Y19329D01*
X5057Y19291D01*
X5099Y19250D01*
X5136Y19193D01*
X5158Y19139D01*
X5171Y19073D01*
X5171Y19073D01*
G37*
G36*
X5171Y18285D02*
X5170Y18217D01*
X5156Y18152D01*
X5131Y18097D01*
X5093Y18043D01*
X5050Y18002D01*
X4994Y17966D01*
X4938Y17945D01*
X4872Y17933D01*
X4813Y17934D01*
X4748Y17949D01*
X4694Y17972D01*
X4638Y18011D01*
X4597Y18053D01*
X4561Y18110D01*
X4539Y18164D01*
X4527Y18231D01*
X4528Y18289D01*
X4542Y18355D01*
X4565Y18409D01*
X4603Y18465D01*
X4645Y18506D01*
X4702Y18543D01*
X4756Y18565D01*
X4822Y18578D01*
X4881Y18577D01*
X4947Y18564D01*
X5001Y18541D01*
X5057Y18503D01*
X5099Y18462D01*
X5136Y18405D01*
X5158Y18351D01*
X5171Y18285D01*
X5171Y18285D01*
G37*
G36*
X5400Y4156D02*
X5399Y4063D01*
X5380Y3977D01*
X5347Y3904D01*
X5296Y3832D01*
X5238Y3776D01*
X5163Y3729D01*
X5088Y3700D01*
X5001Y3684D01*
X4921Y3686D01*
X4835Y3705D01*
X4761Y3737D01*
X4688Y3788D01*
X4632Y3846D01*
X4585Y3920D01*
X4555Y3994D01*
X4539Y4082D01*
X4540Y4162D01*
X4559Y4248D01*
X4590Y4322D01*
X4640Y4395D01*
X4697Y4451D01*
X4772Y4500D01*
X4846Y4530D01*
X4933Y4546D01*
X5013Y4546D01*
X5100Y4528D01*
X5174Y4497D01*
X5247Y4447D01*
X5303Y4391D01*
X5353Y4316D01*
X5383Y4243D01*
X5400Y4156D01*
X5400Y4156D01*
G37*
G36*
X5400Y2404D02*
X5399Y2311D01*
X5380Y2226D01*
X5347Y2152D01*
X5296Y2080D01*
X5238Y2024D01*
X5163Y1977D01*
X5088Y1948D01*
X5001Y1933D01*
X4921Y1934D01*
X4835Y1953D01*
X4761Y1985D01*
X4688Y2036D01*
X4632Y2094D01*
X4585Y2168D01*
X4555Y2243D01*
X4539Y2330D01*
X4540Y2410D01*
X4559Y2496D01*
X4590Y2570D01*
X4640Y2643D01*
X4697Y2699D01*
X4772Y2748D01*
X4846Y2778D01*
X4933Y2794D01*
X5013Y2794D01*
X5100Y2776D01*
X5174Y2745D01*
X5247Y2695D01*
X5303Y2639D01*
X5353Y2564D01*
X5383Y2491D01*
X5400Y2404D01*
X5400Y2404D01*
G37*
G36*
X6080Y20702D02*
X6080Y20697D01*
X6079Y20692D01*
X6079Y20692D01*
X6072Y20628D01*
X6072Y20628D01*
X6072Y20628D01*
X6053Y20567D01*
X6022Y20510D01*
X5981Y20461D01*
X5930Y20421D01*
X5873Y20391D01*
X5811Y20373D01*
X5747Y20367D01*
X5683Y20374D01*
X5622Y20393D01*
X5565Y20423D01*
X5515Y20464D01*
X5475Y20514D01*
X5444Y20571D01*
X5426Y20633D01*
X5419Y20702D01*
X5419Y21097D01*
X5419Y21102D01*
X5420Y21107D01*
X5420Y21107D01*
X5427Y21171D01*
X5427Y21171D01*
X5427Y21171D01*
X5446Y21232D01*
X5477Y21289D01*
X5518Y21338D01*
X5569Y21378D01*
X5626Y21408D01*
X5688Y21426D01*
X5752Y21432D01*
X5816Y21425D01*
X5877Y21406D01*
X5934Y21376D01*
X5984Y21335D01*
X6024Y21285D01*
X6055Y21228D01*
X6073Y21166D01*
X6080Y21097D01*
X6080Y20702D01*
X6080Y20702D01*
G37*
G36*
X6146Y12719D02*
X6145Y12627D01*
X6125Y12541D01*
X6092Y12467D01*
X6042Y12395D01*
X5983Y12340D01*
X5909Y12292D01*
X5834Y12263D01*
X5747Y12248D01*
X5666Y12250D01*
X5580Y12269D01*
X5506Y12301D01*
X5434Y12351D01*
X5378Y12409D01*
X5330Y12483D01*
X5301Y12558D01*
X5285Y12645D01*
X5286Y12725D01*
X5304Y12812D01*
X5336Y12885D01*
X5386Y12959D01*
X5443Y13015D01*
X5517Y13063D01*
X5591Y13093D01*
X5679Y13110D01*
X5759Y13109D01*
X5846Y13091D01*
X5919Y13060D01*
X5993Y13011D01*
X6049Y12954D01*
X6098Y12880D01*
X6129Y12806D01*
X6146Y12719D01*
X6146Y12719D01*
G37*
G36*
X6166Y10160D02*
X6164Y10068D01*
X6145Y9982D01*
X6112Y9908D01*
X6061Y9836D01*
X6003Y9780D01*
X5929Y9733D01*
X5853Y9704D01*
X5767Y9689D01*
X5686Y9691D01*
X5600Y9709D01*
X5526Y9742D01*
X5454Y9792D01*
X5398Y9850D01*
X5350Y9924D01*
X5320Y9999D01*
X5304Y10086D01*
X5305Y10166D01*
X5324Y10253D01*
X5355Y10326D01*
X5406Y10400D01*
X5463Y10456D01*
X5537Y10504D01*
X5611Y10534D01*
X5698Y10551D01*
X5778Y10550D01*
X5865Y10532D01*
X5939Y10501D01*
X6013Y10452D01*
X6069Y10395D01*
X6118Y10321D01*
X6148Y10247D01*
X6166Y10160D01*
X6166Y10160D01*
G37*
G36*
X7080Y20702D02*
X7080Y20697D01*
X7079Y20692D01*
X7079Y20692D01*
X7072Y20628D01*
X7072Y20628D01*
X7072Y20628D01*
X7053Y20567D01*
X7022Y20510D01*
X6981Y20461D01*
X6930Y20421D01*
X6873Y20391D01*
X6811Y20373D01*
X6747Y20367D01*
X6683Y20374D01*
X6622Y20393D01*
X6565Y20423D01*
X6515Y20464D01*
X6475Y20514D01*
X6444Y20571D01*
X6426Y20633D01*
X6419Y20702D01*
X6419Y21097D01*
X6419Y21102D01*
X6420Y21107D01*
X6420Y21107D01*
X6427Y21171D01*
X6427Y21171D01*
X6427Y21171D01*
X6446Y21232D01*
X6477Y21289D01*
X6518Y21338D01*
X6569Y21378D01*
X6626Y21408D01*
X6688Y21426D01*
X6752Y21432D01*
X6816Y21425D01*
X6877Y21406D01*
X6934Y21376D01*
X6984Y21335D01*
X7024Y21285D01*
X7055Y21228D01*
X7073Y21166D01*
X7080Y21097D01*
X7080Y20702D01*
X7080Y20702D01*
G37*
G36*
X7959Y4156D02*
X7958Y4063D01*
X7939Y3977D01*
X7906Y3904D01*
X7855Y3832D01*
X7797Y3776D01*
X7722Y3729D01*
X7647Y3700D01*
X7560Y3684D01*
X7480Y3686D01*
X7394Y3705D01*
X7320Y3737D01*
X7247Y3788D01*
X7192Y3846D01*
X7144Y3920D01*
X7114Y3994D01*
X7098Y4082D01*
X7099Y4162D01*
X7118Y4248D01*
X7149Y4322D01*
X7199Y4395D01*
X7256Y4451D01*
X7331Y4500D01*
X7405Y4530D01*
X7492Y4546D01*
X7572Y4546D01*
X7659Y4528D01*
X7733Y4497D01*
X7806Y4447D01*
X7863Y4391D01*
X7912Y4316D01*
X7942Y4243D01*
X7959Y4156D01*
X7959Y4156D01*
G37*
G36*
X7959Y2424D02*
X7958Y2331D01*
X7939Y2245D01*
X7906Y2171D01*
X7855Y2100D01*
X7797Y2044D01*
X7722Y1997D01*
X7647Y1968D01*
X7560Y1952D01*
X7480Y1954D01*
X7394Y1973D01*
X7320Y2005D01*
X7247Y2055D01*
X7192Y2113D01*
X7144Y2188D01*
X7114Y2262D01*
X7098Y2349D01*
X7099Y2429D01*
X7118Y2516D01*
X7149Y2590D01*
X7199Y2663D01*
X7256Y2719D01*
X7331Y2768D01*
X7405Y2797D01*
X7492Y2814D01*
X7572Y2814D01*
X7659Y2796D01*
X7733Y2765D01*
X7806Y2715D01*
X7863Y2658D01*
X7912Y2584D01*
X7942Y2511D01*
X7959Y2424D01*
X7959Y2424D01*
G37*
G36*
X8080Y20702D02*
X8080Y20697D01*
X8079Y20692D01*
X8079Y20692D01*
X8072Y20628D01*
X8072Y20628D01*
X8072Y20628D01*
X8053Y20567D01*
X8022Y20510D01*
X7981Y20461D01*
X7930Y20421D01*
X7873Y20391D01*
X7811Y20373D01*
X7747Y20367D01*
X7683Y20374D01*
X7622Y20393D01*
X7565Y20423D01*
X7515Y20464D01*
X7475Y20514D01*
X7444Y20571D01*
X7426Y20633D01*
X7419Y20702D01*
X7419Y21097D01*
X7419Y21102D01*
X7420Y21107D01*
X7420Y21107D01*
X7427Y21171D01*
X7427Y21171D01*
X7427Y21171D01*
X7446Y21232D01*
X7477Y21289D01*
X7518Y21338D01*
X7569Y21378D01*
X7626Y21408D01*
X7688Y21426D01*
X7752Y21432D01*
X7816Y21425D01*
X7877Y21406D01*
X7934Y21376D01*
X7984Y21335D01*
X8024Y21285D01*
X8055Y21228D01*
X8073Y21166D01*
X8080Y21097D01*
X8080Y20702D01*
X8080Y20702D01*
G37*
G36*
X8330Y17535D02*
X8329Y17453D01*
X8311Y17377D01*
X8283Y17312D01*
X8237Y17248D01*
X8186Y17200D01*
X8120Y17158D01*
X8054Y17132D01*
X7977Y17118D01*
X7906Y17120D01*
X7830Y17137D01*
X7765Y17165D01*
X7700Y17210D01*
X7651Y17261D01*
X7609Y17327D01*
X7583Y17392D01*
X7569Y17470D01*
X7570Y17540D01*
X7586Y17617D01*
X7614Y17682D01*
X7658Y17747D01*
X7708Y17796D01*
X7774Y17839D01*
X7839Y17865D01*
X7917Y17880D01*
X7987Y17880D01*
X8065Y17864D01*
X8129Y17837D01*
X8195Y17792D01*
X8244Y17743D01*
X8288Y17677D01*
X8315Y17612D01*
X8330Y17535D01*
X8330Y17535D01*
G37*
G36*
X8330Y14535D02*
X8329Y14453D01*
X8311Y14377D01*
X8283Y14312D01*
X8237Y14248D01*
X8186Y14200D01*
X8120Y14158D01*
X8054Y14132D01*
X7977Y14118D01*
X7906Y14120D01*
X7830Y14137D01*
X7765Y14165D01*
X7700Y14210D01*
X7651Y14261D01*
X7609Y14327D01*
X7583Y14392D01*
X7569Y14470D01*
X7570Y14540D01*
X7586Y14617D01*
X7614Y14682D01*
X7658Y14747D01*
X7708Y14796D01*
X7774Y14839D01*
X7839Y14865D01*
X7917Y14880D01*
X7987Y14880D01*
X8065Y14864D01*
X8129Y14837D01*
X8195Y14792D01*
X8244Y14743D01*
X8288Y14677D01*
X8315Y14612D01*
X8330Y14535D01*
X8330Y14535D01*
G37*
G36*
X9080Y20702D02*
X9080Y20697D01*
X9079Y20692D01*
X9079Y20692D01*
X9072Y20628D01*
X9072Y20628D01*
X9072Y20628D01*
X9053Y20567D01*
X9022Y20510D01*
X8981Y20461D01*
X8930Y20421D01*
X8873Y20391D01*
X8811Y20373D01*
X8747Y20367D01*
X8683Y20374D01*
X8622Y20393D01*
X8565Y20423D01*
X8515Y20464D01*
X8475Y20514D01*
X8444Y20571D01*
X8426Y20633D01*
X8419Y20702D01*
X8419Y21097D01*
X8419Y21102D01*
X8420Y21107D01*
X8420Y21107D01*
X8427Y21171D01*
X8427Y21171D01*
X8427Y21171D01*
X8446Y21232D01*
X8477Y21289D01*
X8518Y21338D01*
X8569Y21378D01*
X8626Y21408D01*
X8688Y21426D01*
X8752Y21432D01*
X8816Y21425D01*
X8877Y21406D01*
X8934Y21376D01*
X8984Y21335D01*
X9024Y21285D01*
X9055Y21228D01*
X9073Y21166D01*
X9080Y21097D01*
X9080Y20702D01*
X9080Y20702D01*
G37*
G36*
X9680Y1369D02*
X9019Y1369D01*
X9019Y2430D01*
X9680Y2430D01*
X9680Y1369D01*
X9680Y1369D01*
G37*
G36*
X10080Y20702D02*
X10080Y20697D01*
X10079Y20692D01*
X10079Y20692D01*
X10072Y20628D01*
X10072Y20628D01*
X10072Y20628D01*
X10053Y20567D01*
X10022Y20510D01*
X9981Y20461D01*
X9930Y20421D01*
X9873Y20391D01*
X9811Y20373D01*
X9747Y20367D01*
X9683Y20374D01*
X9622Y20393D01*
X9565Y20423D01*
X9515Y20464D01*
X9475Y20514D01*
X9444Y20571D01*
X9426Y20633D01*
X9419Y20702D01*
X9419Y21097D01*
X9419Y21102D01*
X9420Y21107D01*
X9420Y21107D01*
X9427Y21171D01*
X9427Y21171D01*
X9427Y21171D01*
X9446Y21232D01*
X9477Y21289D01*
X9518Y21338D01*
X9569Y21378D01*
X9626Y21408D01*
X9688Y21426D01*
X9752Y21432D01*
X9816Y21425D01*
X9877Y21406D01*
X9934Y21376D01*
X9984Y21335D01*
X10024Y21285D01*
X10055Y21228D01*
X10073Y21166D01*
X10080Y21097D01*
X10080Y20702D01*
X10080Y20702D01*
G37*
G36*
X10180Y18702D02*
X10180Y18697D01*
X10179Y18692D01*
X10179Y18692D01*
X10172Y18628D01*
X10172Y18628D01*
X10172Y18628D01*
X10153Y18567D01*
X10122Y18510D01*
X10081Y18461D01*
X10030Y18421D01*
X9973Y18391D01*
X9911Y18373D01*
X9847Y18367D01*
X9783Y18374D01*
X9722Y18393D01*
X9665Y18423D01*
X9615Y18464D01*
X9575Y18514D01*
X9544Y18571D01*
X9526Y18633D01*
X9519Y18702D01*
X9519Y19097D01*
X9519Y19102D01*
X9520Y19107D01*
X9520Y19107D01*
X9527Y19171D01*
X9527Y19171D01*
X9527Y19171D01*
X9546Y19232D01*
X9577Y19289D01*
X9618Y19338D01*
X9669Y19378D01*
X9726Y19408D01*
X9788Y19426D01*
X9852Y19432D01*
X9916Y19425D01*
X9977Y19406D01*
X10034Y19376D01*
X10084Y19335D01*
X10124Y19285D01*
X10155Y19228D01*
X10173Y19166D01*
X10180Y19097D01*
X10180Y18702D01*
X10180Y18702D01*
G37*
G36*
X10180Y3702D02*
X10180Y3697D01*
X10179Y3692D01*
X10179Y3692D01*
X10172Y3628D01*
X10172Y3628D01*
X10172Y3628D01*
X10153Y3567D01*
X10122Y3510D01*
X10081Y3461D01*
X10030Y3421D01*
X9973Y3391D01*
X9911Y3373D01*
X9847Y3367D01*
X9783Y3374D01*
X9722Y3393D01*
X9665Y3423D01*
X9615Y3464D01*
X9575Y3514D01*
X9544Y3571D01*
X9526Y3633D01*
X9519Y3702D01*
X9519Y4097D01*
X9519Y4102D01*
X9520Y4107D01*
X9520Y4107D01*
X9527Y4171D01*
X9527Y4171D01*
X9527Y4171D01*
X9546Y4232D01*
X9577Y4289D01*
X9618Y4338D01*
X9669Y4378D01*
X9726Y4408D01*
X9788Y4426D01*
X9852Y4432D01*
X9916Y4425D01*
X9977Y4406D01*
X10034Y4376D01*
X10084Y4335D01*
X10124Y4285D01*
X10155Y4228D01*
X10173Y4166D01*
X10180Y4097D01*
X10180Y3702D01*
X10180Y3702D01*
G37*
G36*
X10680Y1702D02*
X10680Y1697D01*
X10679Y1692D01*
X10679Y1692D01*
X10672Y1628D01*
X10672Y1628D01*
X10672Y1628D01*
X10653Y1567D01*
X10622Y1510D01*
X10581Y1461D01*
X10530Y1421D01*
X10473Y1391D01*
X10411Y1373D01*
X10347Y1367D01*
X10283Y1374D01*
X10222Y1393D01*
X10165Y1423D01*
X10115Y1464D01*
X10075Y1514D01*
X10044Y1571D01*
X10026Y1633D01*
X10019Y1702D01*
X10019Y2097D01*
X10019Y2102D01*
X10020Y2107D01*
X10020Y2107D01*
X10027Y2171D01*
X10027Y2171D01*
X10027Y2171D01*
X10046Y2232D01*
X10077Y2289D01*
X10118Y2338D01*
X10169Y2378D01*
X10226Y2408D01*
X10288Y2426D01*
X10352Y2432D01*
X10416Y2425D01*
X10477Y2406D01*
X10534Y2376D01*
X10584Y2335D01*
X10624Y2285D01*
X10655Y2228D01*
X10673Y2166D01*
X10680Y2097D01*
X10680Y1702D01*
X10680Y1702D01*
G37*
G36*
X11080Y20702D02*
X11080Y20697D01*
X11079Y20692D01*
X11079Y20692D01*
X11072Y20628D01*
X11072Y20628D01*
X11072Y20628D01*
X11053Y20567D01*
X11022Y20510D01*
X10981Y20461D01*
X10930Y20421D01*
X10873Y20391D01*
X10811Y20373D01*
X10747Y20367D01*
X10683Y20374D01*
X10622Y20393D01*
X10565Y20423D01*
X10515Y20464D01*
X10475Y20514D01*
X10444Y20571D01*
X10426Y20633D01*
X10419Y20702D01*
X10419Y21097D01*
X10419Y21102D01*
X10420Y21107D01*
X10420Y21107D01*
X10427Y21171D01*
X10427Y21171D01*
X10427Y21171D01*
X10446Y21232D01*
X10477Y21289D01*
X10518Y21338D01*
X10569Y21378D01*
X10626Y21408D01*
X10688Y21426D01*
X10752Y21432D01*
X10816Y21425D01*
X10877Y21406D01*
X10934Y21376D01*
X10984Y21335D01*
X11024Y21285D01*
X11055Y21228D01*
X11073Y21166D01*
X11080Y21097D01*
X11080Y20702D01*
X11080Y20702D01*
G37*
G36*
X11180Y18702D02*
X11180Y18697D01*
X11179Y18692D01*
X11179Y18692D01*
X11172Y18628D01*
X11172Y18628D01*
X11172Y18628D01*
X11153Y18567D01*
X11122Y18510D01*
X11081Y18461D01*
X11030Y18421D01*
X10973Y18391D01*
X10911Y18373D01*
X10847Y18367D01*
X10783Y18374D01*
X10722Y18393D01*
X10665Y18423D01*
X10615Y18464D01*
X10575Y18514D01*
X10544Y18571D01*
X10526Y18633D01*
X10519Y18702D01*
X10519Y19097D01*
X10519Y19102D01*
X10520Y19107D01*
X10520Y19107D01*
X10527Y19171D01*
X10527Y19171D01*
X10527Y19171D01*
X10546Y19232D01*
X10577Y19289D01*
X10618Y19338D01*
X10669Y19378D01*
X10726Y19408D01*
X10788Y19426D01*
X10852Y19432D01*
X10916Y19425D01*
X10977Y19406D01*
X11034Y19376D01*
X11084Y19335D01*
X11124Y19285D01*
X11155Y19228D01*
X11173Y19166D01*
X11180Y19097D01*
X11180Y18702D01*
X11180Y18702D01*
G37*
G36*
X11180Y3702D02*
X11180Y3697D01*
X11179Y3692D01*
X11179Y3692D01*
X11172Y3628D01*
X11172Y3628D01*
X11172Y3628D01*
X11153Y3567D01*
X11122Y3510D01*
X11081Y3461D01*
X11030Y3421D01*
X10973Y3391D01*
X10911Y3373D01*
X10847Y3367D01*
X10783Y3374D01*
X10722Y3393D01*
X10665Y3423D01*
X10615Y3464D01*
X10575Y3514D01*
X10544Y3571D01*
X10526Y3633D01*
X10519Y3702D01*
X10519Y4097D01*
X10519Y4102D01*
X10520Y4107D01*
X10520Y4107D01*
X10527Y4171D01*
X10527Y4171D01*
X10527Y4171D01*
X10546Y4232D01*
X10577Y4289D01*
X10618Y4338D01*
X10669Y4378D01*
X10726Y4408D01*
X10788Y4426D01*
X10852Y4432D01*
X10916Y4425D01*
X10977Y4406D01*
X11034Y4376D01*
X11084Y4335D01*
X11124Y4285D01*
X11155Y4228D01*
X11173Y4166D01*
X11180Y4097D01*
X11180Y3702D01*
X11180Y3702D01*
G37*
G36*
X11680Y1702D02*
X11680Y1697D01*
X11679Y1692D01*
X11679Y1692D01*
X11672Y1628D01*
X11672Y1628D01*
X11672Y1628D01*
X11653Y1567D01*
X11622Y1510D01*
X11581Y1461D01*
X11530Y1421D01*
X11473Y1391D01*
X11411Y1373D01*
X11347Y1367D01*
X11283Y1374D01*
X11222Y1393D01*
X11165Y1423D01*
X11115Y1464D01*
X11075Y1514D01*
X11044Y1571D01*
X11026Y1633D01*
X11019Y1702D01*
X11019Y2097D01*
X11019Y2102D01*
X11020Y2107D01*
X11020Y2107D01*
X11027Y2171D01*
X11027Y2171D01*
X11027Y2171D01*
X11046Y2232D01*
X11077Y2289D01*
X11118Y2338D01*
X11169Y2378D01*
X11226Y2408D01*
X11288Y2426D01*
X11352Y2432D01*
X11416Y2425D01*
X11477Y2406D01*
X11534Y2376D01*
X11584Y2335D01*
X11624Y2285D01*
X11655Y2228D01*
X11673Y2166D01*
X11680Y2097D01*
X11680Y1702D01*
X11680Y1702D01*
G37*
G36*
X12080Y20702D02*
X12080Y20697D01*
X12079Y20692D01*
X12079Y20692D01*
X12072Y20628D01*
X12072Y20628D01*
X12072Y20628D01*
X12053Y20567D01*
X12022Y20510D01*
X11981Y20461D01*
X11930Y20421D01*
X11873Y20391D01*
X11811Y20373D01*
X11747Y20367D01*
X11683Y20374D01*
X11622Y20393D01*
X11565Y20423D01*
X11515Y20464D01*
X11475Y20514D01*
X11444Y20571D01*
X11426Y20633D01*
X11419Y20702D01*
X11419Y21097D01*
X11419Y21102D01*
X11420Y21107D01*
X11420Y21107D01*
X11427Y21171D01*
X11427Y21171D01*
X11427Y21171D01*
X11446Y21232D01*
X11477Y21289D01*
X11518Y21338D01*
X11569Y21378D01*
X11626Y21408D01*
X11688Y21426D01*
X11752Y21432D01*
X11816Y21425D01*
X11877Y21406D01*
X11934Y21376D01*
X11984Y21335D01*
X12024Y21285D01*
X12055Y21228D01*
X12073Y21166D01*
X12080Y21097D01*
X12080Y20702D01*
X12080Y20702D01*
G37*
G36*
X12180Y3702D02*
X12180Y3697D01*
X12179Y3692D01*
X12179Y3692D01*
X12172Y3628D01*
X12172Y3628D01*
X12172Y3628D01*
X12153Y3567D01*
X12122Y3510D01*
X12081Y3461D01*
X12030Y3421D01*
X11973Y3391D01*
X11911Y3373D01*
X11847Y3367D01*
X11783Y3374D01*
X11722Y3393D01*
X11665Y3423D01*
X11615Y3464D01*
X11575Y3514D01*
X11544Y3571D01*
X11526Y3633D01*
X11519Y3702D01*
X11519Y4097D01*
X11519Y4102D01*
X11520Y4107D01*
X11520Y4107D01*
X11527Y4171D01*
X11527Y4171D01*
X11527Y4171D01*
X11546Y4232D01*
X11577Y4289D01*
X11618Y4338D01*
X11669Y4378D01*
X11726Y4408D01*
X11788Y4426D01*
X11852Y4432D01*
X11916Y4425D01*
X11977Y4406D01*
X12034Y4376D01*
X12084Y4335D01*
X12124Y4285D01*
X12155Y4228D01*
X12173Y4166D01*
X12180Y4097D01*
X12180Y3702D01*
X12180Y3702D01*
G37*
G36*
X12680Y1702D02*
X12680Y1697D01*
X12679Y1692D01*
X12679Y1692D01*
X12672Y1628D01*
X12672Y1628D01*
X12672Y1628D01*
X12653Y1567D01*
X12622Y1510D01*
X12581Y1461D01*
X12530Y1421D01*
X12473Y1391D01*
X12411Y1373D01*
X12347Y1367D01*
X12283Y1374D01*
X12222Y1393D01*
X12165Y1423D01*
X12115Y1464D01*
X12075Y1514D01*
X12044Y1571D01*
X12026Y1633D01*
X12019Y1702D01*
X12019Y2097D01*
X12019Y2102D01*
X12020Y2107D01*
X12020Y2107D01*
X12027Y2171D01*
X12027Y2171D01*
X12027Y2171D01*
X12046Y2232D01*
X12077Y2289D01*
X12118Y2338D01*
X12169Y2378D01*
X12226Y2408D01*
X12288Y2426D01*
X12352Y2432D01*
X12416Y2425D01*
X12477Y2406D01*
X12534Y2376D01*
X12584Y2335D01*
X12624Y2285D01*
X12655Y2228D01*
X12673Y2166D01*
X12680Y2097D01*
X12680Y1702D01*
X12680Y1702D01*
G37*
G36*
X13080Y20702D02*
X13080Y20697D01*
X13079Y20692D01*
X13079Y20692D01*
X13072Y20628D01*
X13072Y20628D01*
X13072Y20628D01*
X13053Y20567D01*
X13022Y20510D01*
X12981Y20461D01*
X12930Y20421D01*
X12873Y20391D01*
X12811Y20373D01*
X12747Y20367D01*
X12683Y20374D01*
X12622Y20393D01*
X12565Y20423D01*
X12515Y20464D01*
X12475Y20514D01*
X12444Y20571D01*
X12426Y20633D01*
X12419Y20702D01*
X12419Y21097D01*
X12419Y21102D01*
X12420Y21107D01*
X12420Y21107D01*
X12427Y21171D01*
X12427Y21171D01*
X12427Y21171D01*
X12446Y21232D01*
X12477Y21289D01*
X12518Y21338D01*
X12569Y21378D01*
X12626Y21408D01*
X12688Y21426D01*
X12752Y21432D01*
X12816Y21425D01*
X12877Y21406D01*
X12934Y21376D01*
X12984Y21335D01*
X13024Y21285D01*
X13055Y21228D01*
X13073Y21166D01*
X13080Y21097D01*
X13080Y20702D01*
X13080Y20702D01*
G37*
G36*
X13180Y3702D02*
X13180Y3697D01*
X13179Y3692D01*
X13179Y3692D01*
X13172Y3628D01*
X13172Y3628D01*
X13172Y3628D01*
X13153Y3567D01*
X13122Y3510D01*
X13081Y3461D01*
X13030Y3421D01*
X12973Y3391D01*
X12911Y3373D01*
X12847Y3367D01*
X12783Y3374D01*
X12722Y3393D01*
X12665Y3423D01*
X12615Y3464D01*
X12575Y3514D01*
X12544Y3571D01*
X12526Y3633D01*
X12519Y3702D01*
X12519Y4097D01*
X12519Y4102D01*
X12520Y4107D01*
X12520Y4107D01*
X12527Y4171D01*
X12527Y4171D01*
X12527Y4171D01*
X12546Y4232D01*
X12577Y4289D01*
X12618Y4338D01*
X12669Y4378D01*
X12726Y4408D01*
X12788Y4426D01*
X12852Y4432D01*
X12916Y4425D01*
X12977Y4406D01*
X13034Y4376D01*
X13084Y4335D01*
X13124Y4285D01*
X13155Y4228D01*
X13173Y4166D01*
X13180Y4097D01*
X13180Y3702D01*
X13180Y3702D01*
G37*
G36*
X13680Y1702D02*
X13680Y1697D01*
X13679Y1692D01*
X13679Y1692D01*
X13672Y1628D01*
X13672Y1628D01*
X13672Y1628D01*
X13653Y1567D01*
X13622Y1510D01*
X13581Y1461D01*
X13530Y1421D01*
X13473Y1391D01*
X13411Y1373D01*
X13347Y1367D01*
X13283Y1374D01*
X13222Y1393D01*
X13165Y1423D01*
X13115Y1464D01*
X13075Y1514D01*
X13044Y1571D01*
X13026Y1633D01*
X13019Y1702D01*
X13019Y2097D01*
X13019Y2102D01*
X13020Y2107D01*
X13020Y2107D01*
X13027Y2171D01*
X13027Y2171D01*
X13027Y2171D01*
X13046Y2232D01*
X13077Y2289D01*
X13118Y2338D01*
X13169Y2378D01*
X13226Y2408D01*
X13288Y2426D01*
X13352Y2432D01*
X13416Y2425D01*
X13477Y2406D01*
X13534Y2376D01*
X13584Y2335D01*
X13624Y2285D01*
X13655Y2228D01*
X13673Y2166D01*
X13680Y2097D01*
X13680Y1702D01*
X13680Y1702D01*
G37*
G36*
X14080Y20702D02*
X14080Y20697D01*
X14079Y20692D01*
X14079Y20692D01*
X14072Y20628D01*
X14072Y20628D01*
X14072Y20628D01*
X14053Y20567D01*
X14022Y20510D01*
X13981Y20461D01*
X13930Y20421D01*
X13873Y20391D01*
X13811Y20373D01*
X13747Y20367D01*
X13683Y20374D01*
X13622Y20393D01*
X13565Y20423D01*
X13515Y20464D01*
X13475Y20514D01*
X13444Y20571D01*
X13426Y20633D01*
X13419Y20702D01*
X13419Y21097D01*
X13419Y21102D01*
X13420Y21107D01*
X13420Y21107D01*
X13427Y21171D01*
X13427Y21171D01*
X13427Y21171D01*
X13446Y21232D01*
X13477Y21289D01*
X13518Y21338D01*
X13569Y21378D01*
X13626Y21408D01*
X13688Y21426D01*
X13752Y21432D01*
X13816Y21425D01*
X13877Y21406D01*
X13934Y21376D01*
X13984Y21335D01*
X14024Y21285D01*
X14055Y21228D01*
X14073Y21166D01*
X14080Y21097D01*
X14080Y20702D01*
X14080Y20702D01*
G37*
G36*
X14180Y3702D02*
X14180Y3697D01*
X14179Y3692D01*
X14179Y3692D01*
X14172Y3628D01*
X14172Y3628D01*
X14172Y3628D01*
X14153Y3567D01*
X14122Y3510D01*
X14081Y3461D01*
X14030Y3421D01*
X13973Y3391D01*
X13911Y3373D01*
X13847Y3367D01*
X13783Y3374D01*
X13722Y3393D01*
X13665Y3423D01*
X13615Y3464D01*
X13575Y3514D01*
X13544Y3571D01*
X13526Y3633D01*
X13519Y3702D01*
X13519Y4097D01*
X13519Y4102D01*
X13520Y4107D01*
X13520Y4107D01*
X13527Y4171D01*
X13527Y4171D01*
X13527Y4171D01*
X13546Y4232D01*
X13577Y4289D01*
X13618Y4338D01*
X13669Y4378D01*
X13726Y4408D01*
X13788Y4426D01*
X13852Y4432D01*
X13916Y4425D01*
X13977Y4406D01*
X14034Y4376D01*
X14084Y4335D01*
X14124Y4285D01*
X14155Y4228D01*
X14173Y4166D01*
X14180Y4097D01*
X14180Y3702D01*
X14180Y3702D01*
G37*
G36*
X14680Y1702D02*
X14680Y1697D01*
X14679Y1692D01*
X14679Y1692D01*
X14672Y1628D01*
X14672Y1628D01*
X14672Y1628D01*
X14653Y1567D01*
X14622Y1510D01*
X14581Y1461D01*
X14530Y1421D01*
X14473Y1391D01*
X14411Y1373D01*
X14347Y1367D01*
X14283Y1374D01*
X14222Y1393D01*
X14165Y1423D01*
X14115Y1464D01*
X14075Y1514D01*
X14044Y1571D01*
X14026Y1633D01*
X14019Y1702D01*
X14019Y2097D01*
X14019Y2102D01*
X14020Y2107D01*
X14020Y2107D01*
X14027Y2171D01*
X14027Y2171D01*
X14027Y2171D01*
X14046Y2232D01*
X14077Y2289D01*
X14118Y2338D01*
X14169Y2378D01*
X14226Y2408D01*
X14288Y2426D01*
X14352Y2432D01*
X14416Y2425D01*
X14477Y2406D01*
X14534Y2376D01*
X14584Y2335D01*
X14624Y2285D01*
X14655Y2228D01*
X14673Y2166D01*
X14680Y2097D01*
X14680Y1702D01*
X14680Y1702D01*
G37*
G36*
X15080Y20369D02*
X14419Y20369D01*
X14419Y21430D01*
X15080Y21430D01*
X15080Y20369D01*
X15080Y20369D01*
G37*
G36*
X15180Y3702D02*
X15180Y3697D01*
X15179Y3692D01*
X15179Y3692D01*
X15172Y3628D01*
X15172Y3628D01*
X15172Y3628D01*
X15153Y3567D01*
X15122Y3510D01*
X15081Y3461D01*
X15030Y3421D01*
X14973Y3391D01*
X14911Y3373D01*
X14847Y3367D01*
X14783Y3374D01*
X14722Y3393D01*
X14665Y3423D01*
X14615Y3464D01*
X14575Y3514D01*
X14544Y3571D01*
X14526Y3633D01*
X14519Y3702D01*
X14519Y4097D01*
X14519Y4102D01*
X14520Y4107D01*
X14520Y4107D01*
X14527Y4171D01*
X14527Y4171D01*
X14527Y4171D01*
X14546Y4232D01*
X14577Y4289D01*
X14618Y4338D01*
X14669Y4378D01*
X14726Y4408D01*
X14788Y4426D01*
X14852Y4432D01*
X14916Y4425D01*
X14977Y4406D01*
X15034Y4376D01*
X15084Y4335D01*
X15124Y4285D01*
X15155Y4228D01*
X15173Y4166D01*
X15180Y4097D01*
X15180Y3702D01*
X15180Y3702D01*
G37*
G36*
X15680Y1702D02*
X15680Y1697D01*
X15679Y1692D01*
X15679Y1692D01*
X15672Y1628D01*
X15672Y1628D01*
X15672Y1628D01*
X15653Y1567D01*
X15622Y1510D01*
X15581Y1461D01*
X15530Y1421D01*
X15473Y1391D01*
X15411Y1373D01*
X15347Y1367D01*
X15283Y1374D01*
X15222Y1393D01*
X15165Y1423D01*
X15115Y1464D01*
X15075Y1514D01*
X15044Y1571D01*
X15026Y1633D01*
X15019Y1702D01*
X15019Y2097D01*
X15019Y2102D01*
X15020Y2107D01*
X15020Y2107D01*
X15027Y2171D01*
X15027Y2171D01*
X15027Y2171D01*
X15046Y2232D01*
X15077Y2289D01*
X15118Y2338D01*
X15169Y2378D01*
X15226Y2408D01*
X15288Y2426D01*
X15352Y2432D01*
X15416Y2425D01*
X15477Y2406D01*
X15534Y2376D01*
X15584Y2335D01*
X15624Y2285D01*
X15655Y2228D01*
X15673Y2166D01*
X15680Y2097D01*
X15680Y1702D01*
X15680Y1702D01*
G37*
G36*
X16180Y3702D02*
X16180Y3697D01*
X16179Y3692D01*
X16179Y3692D01*
X16172Y3628D01*
X16172Y3628D01*
X16172Y3628D01*
X16153Y3567D01*
X16122Y3510D01*
X16081Y3461D01*
X16030Y3421D01*
X15973Y3391D01*
X15911Y3373D01*
X15847Y3367D01*
X15783Y3374D01*
X15722Y3393D01*
X15665Y3423D01*
X15615Y3464D01*
X15575Y3514D01*
X15544Y3571D01*
X15526Y3633D01*
X15519Y3702D01*
X15519Y4097D01*
X15519Y4102D01*
X15520Y4107D01*
X15520Y4107D01*
X15527Y4171D01*
X15527Y4171D01*
X15527Y4171D01*
X15546Y4232D01*
X15577Y4289D01*
X15618Y4338D01*
X15669Y4378D01*
X15726Y4408D01*
X15788Y4426D01*
X15852Y4432D01*
X15916Y4425D01*
X15977Y4406D01*
X16034Y4376D01*
X16084Y4335D01*
X16124Y4285D01*
X16155Y4228D01*
X16173Y4166D01*
X16180Y4097D01*
X16180Y3702D01*
X16180Y3702D01*
G37*
G36*
X16680Y20702D02*
X16680Y20697D01*
X16679Y20692D01*
X16679Y20692D01*
X16672Y20628D01*
X16672Y20628D01*
X16672Y20628D01*
X16653Y20567D01*
X16622Y20510D01*
X16581Y20461D01*
X16530Y20421D01*
X16473Y20391D01*
X16411Y20373D01*
X16347Y20367D01*
X16283Y20374D01*
X16222Y20393D01*
X16165Y20423D01*
X16115Y20464D01*
X16075Y20514D01*
X16044Y20571D01*
X16026Y20633D01*
X16019Y20702D01*
X16019Y21097D01*
X16019Y21102D01*
X16020Y21107D01*
X16020Y21107D01*
X16027Y21171D01*
X16027Y21171D01*
X16027Y21171D01*
X16046Y21232D01*
X16077Y21289D01*
X16118Y21338D01*
X16169Y21378D01*
X16226Y21408D01*
X16288Y21426D01*
X16352Y21432D01*
X16416Y21425D01*
X16477Y21406D01*
X16534Y21376D01*
X16584Y21335D01*
X16624Y21285D01*
X16655Y21228D01*
X16673Y21166D01*
X16680Y21097D01*
X16680Y20702D01*
X16680Y20702D01*
G37*
G36*
X16680Y1702D02*
X16680Y1697D01*
X16679Y1692D01*
X16679Y1692D01*
X16672Y1628D01*
X16672Y1628D01*
X16672Y1628D01*
X16653Y1567D01*
X16622Y1510D01*
X16581Y1461D01*
X16530Y1421D01*
X16473Y1391D01*
X16411Y1373D01*
X16347Y1367D01*
X16283Y1374D01*
X16222Y1393D01*
X16165Y1423D01*
X16115Y1464D01*
X16075Y1514D01*
X16044Y1571D01*
X16026Y1633D01*
X16019Y1702D01*
X16019Y2097D01*
X16019Y2102D01*
X16020Y2107D01*
X16020Y2107D01*
X16027Y2171D01*
X16027Y2171D01*
X16027Y2171D01*
X16046Y2232D01*
X16077Y2289D01*
X16118Y2338D01*
X16169Y2378D01*
X16226Y2408D01*
X16288Y2426D01*
X16352Y2432D01*
X16416Y2425D01*
X16477Y2406D01*
X16534Y2376D01*
X16584Y2335D01*
X16624Y2285D01*
X16655Y2228D01*
X16673Y2166D01*
X16680Y2097D01*
X16680Y1702D01*
X16680Y1702D01*
G37*
G36*
X17180Y3702D02*
X17180Y3697D01*
X17179Y3692D01*
X17179Y3692D01*
X17172Y3628D01*
X17172Y3628D01*
X17172Y3628D01*
X17153Y3567D01*
X17122Y3510D01*
X17081Y3461D01*
X17030Y3421D01*
X16973Y3391D01*
X16911Y3373D01*
X16847Y3367D01*
X16783Y3374D01*
X16722Y3393D01*
X16665Y3423D01*
X16615Y3464D01*
X16575Y3514D01*
X16544Y3571D01*
X16526Y3633D01*
X16519Y3702D01*
X16519Y4097D01*
X16519Y4102D01*
X16520Y4107D01*
X16520Y4107D01*
X16527Y4171D01*
X16527Y4171D01*
X16527Y4171D01*
X16546Y4232D01*
X16577Y4289D01*
X16618Y4338D01*
X16669Y4378D01*
X16726Y4408D01*
X16788Y4426D01*
X16852Y4432D01*
X16916Y4425D01*
X16977Y4406D01*
X17034Y4376D01*
X17084Y4335D01*
X17124Y4285D01*
X17155Y4228D01*
X17173Y4166D01*
X17180Y4097D01*
X17180Y3702D01*
X17180Y3702D01*
G37*
G36*
X17680Y20702D02*
X17680Y20697D01*
X17679Y20692D01*
X17679Y20692D01*
X17672Y20628D01*
X17672Y20628D01*
X17672Y20628D01*
X17653Y20567D01*
X17622Y20510D01*
X17581Y20461D01*
X17530Y20421D01*
X17473Y20391D01*
X17411Y20373D01*
X17347Y20367D01*
X17283Y20374D01*
X17222Y20393D01*
X17165Y20423D01*
X17115Y20464D01*
X17075Y20514D01*
X17044Y20571D01*
X17026Y20633D01*
X17019Y20702D01*
X17019Y21097D01*
X17019Y21102D01*
X17020Y21107D01*
X17020Y21107D01*
X17027Y21171D01*
X17027Y21171D01*
X17027Y21171D01*
X17046Y21232D01*
X17077Y21289D01*
X17118Y21338D01*
X17169Y21378D01*
X17226Y21408D01*
X17288Y21426D01*
X17352Y21432D01*
X17416Y21425D01*
X17477Y21406D01*
X17534Y21376D01*
X17584Y21335D01*
X17624Y21285D01*
X17655Y21228D01*
X17673Y21166D01*
X17680Y21097D01*
X17680Y20702D01*
X17680Y20702D01*
G37*
G36*
X18180Y3702D02*
X18180Y3697D01*
X18179Y3692D01*
X18179Y3692D01*
X18172Y3628D01*
X18172Y3628D01*
X18172Y3628D01*
X18153Y3567D01*
X18122Y3510D01*
X18081Y3461D01*
X18030Y3421D01*
X17973Y3391D01*
X17911Y3373D01*
X17847Y3367D01*
X17783Y3374D01*
X17722Y3393D01*
X17665Y3423D01*
X17615Y3464D01*
X17575Y3514D01*
X17544Y3571D01*
X17526Y3633D01*
X17519Y3702D01*
X17519Y4097D01*
X17519Y4102D01*
X17520Y4107D01*
X17520Y4107D01*
X17527Y4171D01*
X17527Y4171D01*
X17527Y4171D01*
X17546Y4232D01*
X17577Y4289D01*
X17618Y4338D01*
X17669Y4378D01*
X17726Y4408D01*
X17788Y4426D01*
X17852Y4432D01*
X17916Y4425D01*
X17977Y4406D01*
X18034Y4376D01*
X18084Y4335D01*
X18124Y4285D01*
X18155Y4228D01*
X18173Y4166D01*
X18180Y4097D01*
X18180Y3702D01*
X18180Y3702D01*
G37*
G36*
X18680Y20702D02*
X18680Y20697D01*
X18679Y20692D01*
X18679Y20692D01*
X18672Y20628D01*
X18672Y20628D01*
X18672Y20628D01*
X18653Y20567D01*
X18622Y20510D01*
X18581Y20461D01*
X18530Y20421D01*
X18473Y20391D01*
X18411Y20373D01*
X18347Y20367D01*
X18283Y20374D01*
X18222Y20393D01*
X18165Y20423D01*
X18115Y20464D01*
X18075Y20514D01*
X18044Y20571D01*
X18026Y20633D01*
X18019Y20702D01*
X18019Y21097D01*
X18019Y21102D01*
X18020Y21107D01*
X18020Y21107D01*
X18027Y21171D01*
X18027Y21171D01*
X18027Y21171D01*
X18046Y21232D01*
X18077Y21289D01*
X18118Y21338D01*
X18169Y21378D01*
X18226Y21408D01*
X18288Y21426D01*
X18352Y21432D01*
X18416Y21425D01*
X18477Y21406D01*
X18534Y21376D01*
X18584Y21335D01*
X18624Y21285D01*
X18655Y21228D01*
X18673Y21166D01*
X18680Y21097D01*
X18680Y20702D01*
X18680Y20702D01*
G37*
G36*
X18680Y1369D02*
X18019Y1369D01*
X18019Y2430D01*
X18680Y2430D01*
X18680Y1369D01*
X18680Y1369D01*
G37*
G36*
X19180Y3702D02*
X19180Y3697D01*
X19179Y3692D01*
X19179Y3692D01*
X19172Y3628D01*
X19172Y3628D01*
X19172Y3628D01*
X19153Y3567D01*
X19122Y3510D01*
X19081Y3461D01*
X19030Y3421D01*
X18973Y3391D01*
X18911Y3373D01*
X18847Y3367D01*
X18783Y3374D01*
X18722Y3393D01*
X18665Y3423D01*
X18615Y3464D01*
X18575Y3514D01*
X18544Y3571D01*
X18526Y3633D01*
X18519Y3702D01*
X18519Y4097D01*
X18519Y4102D01*
X18520Y4107D01*
X18520Y4107D01*
X18527Y4171D01*
X18527Y4171D01*
X18527Y4171D01*
X18546Y4232D01*
X18577Y4289D01*
X18618Y4338D01*
X18669Y4378D01*
X18726Y4408D01*
X18788Y4426D01*
X18852Y4432D01*
X18916Y4425D01*
X18977Y4406D01*
X19034Y4376D01*
X19084Y4335D01*
X19124Y4285D01*
X19155Y4228D01*
X19173Y4166D01*
X19180Y4097D01*
X19180Y3702D01*
X19180Y3702D01*
G37*
G36*
X19680Y20702D02*
X19680Y20697D01*
X19679Y20692D01*
X19679Y20692D01*
X19672Y20628D01*
X19672Y20628D01*
X19672Y20628D01*
X19653Y20567D01*
X19622Y20510D01*
X19581Y20461D01*
X19530Y20421D01*
X19473Y20391D01*
X19411Y20373D01*
X19347Y20367D01*
X19283Y20374D01*
X19222Y20393D01*
X19165Y20423D01*
X19115Y20464D01*
X19075Y20514D01*
X19044Y20571D01*
X19026Y20633D01*
X19019Y20702D01*
X19019Y21097D01*
X19019Y21102D01*
X19020Y21107D01*
X19020Y21107D01*
X19027Y21171D01*
X19027Y21171D01*
X19027Y21171D01*
X19046Y21232D01*
X19077Y21289D01*
X19118Y21338D01*
X19169Y21378D01*
X19226Y21408D01*
X19288Y21426D01*
X19352Y21432D01*
X19416Y21425D01*
X19477Y21406D01*
X19534Y21376D01*
X19584Y21335D01*
X19624Y21285D01*
X19655Y21228D01*
X19673Y21166D01*
X19680Y21097D01*
X19680Y20702D01*
X19680Y20702D01*
G37*
G36*
X19680Y1702D02*
X19680Y1697D01*
X19679Y1692D01*
X19679Y1692D01*
X19672Y1628D01*
X19672Y1628D01*
X19672Y1628D01*
X19653Y1567D01*
X19622Y1510D01*
X19581Y1461D01*
X19530Y1421D01*
X19473Y1391D01*
X19411Y1373D01*
X19347Y1367D01*
X19283Y1374D01*
X19222Y1393D01*
X19165Y1423D01*
X19115Y1464D01*
X19075Y1514D01*
X19044Y1571D01*
X19026Y1633D01*
X19019Y1702D01*
X19019Y2097D01*
X19019Y2102D01*
X19020Y2107D01*
X19020Y2107D01*
X19027Y2171D01*
X19027Y2171D01*
X19027Y2171D01*
X19046Y2232D01*
X19077Y2289D01*
X19118Y2338D01*
X19169Y2378D01*
X19226Y2408D01*
X19288Y2426D01*
X19352Y2432D01*
X19416Y2425D01*
X19477Y2406D01*
X19534Y2376D01*
X19584Y2335D01*
X19624Y2285D01*
X19655Y2228D01*
X19673Y2166D01*
X19680Y2097D01*
X19680Y1702D01*
X19680Y1702D01*
G37*
G36*
X20180Y3702D02*
X20180Y3697D01*
X20179Y3692D01*
X20179Y3692D01*
X20172Y3628D01*
X20172Y3628D01*
X20172Y3628D01*
X20153Y3567D01*
X20122Y3510D01*
X20081Y3461D01*
X20030Y3421D01*
X19973Y3391D01*
X19911Y3373D01*
X19847Y3367D01*
X19783Y3374D01*
X19722Y3393D01*
X19665Y3423D01*
X19615Y3464D01*
X19575Y3514D01*
X19544Y3571D01*
X19526Y3633D01*
X19519Y3702D01*
X19519Y4097D01*
X19519Y4102D01*
X19520Y4107D01*
X19520Y4107D01*
X19527Y4171D01*
X19527Y4171D01*
X19527Y4171D01*
X19546Y4232D01*
X19577Y4289D01*
X19618Y4338D01*
X19669Y4378D01*
X19726Y4408D01*
X19788Y4426D01*
X19852Y4432D01*
X19916Y4425D01*
X19977Y4406D01*
X20034Y4376D01*
X20084Y4335D01*
X20124Y4285D01*
X20155Y4228D01*
X20173Y4166D01*
X20180Y4097D01*
X20180Y3702D01*
X20180Y3702D01*
G37*
G36*
X20680Y20702D02*
X20680Y20697D01*
X20679Y20692D01*
X20679Y20692D01*
X20672Y20628D01*
X20672Y20628D01*
X20672Y20628D01*
X20653Y20567D01*
X20622Y20510D01*
X20581Y20461D01*
X20530Y20421D01*
X20473Y20391D01*
X20411Y20373D01*
X20347Y20367D01*
X20283Y20374D01*
X20222Y20393D01*
X20165Y20423D01*
X20115Y20464D01*
X20075Y20514D01*
X20044Y20571D01*
X20026Y20633D01*
X20019Y20702D01*
X20019Y21097D01*
X20019Y21102D01*
X20020Y21107D01*
X20020Y21107D01*
X20027Y21171D01*
X20027Y21171D01*
X20027Y21171D01*
X20046Y21232D01*
X20077Y21289D01*
X20118Y21338D01*
X20169Y21378D01*
X20226Y21408D01*
X20288Y21426D01*
X20352Y21432D01*
X20416Y21425D01*
X20477Y21406D01*
X20534Y21376D01*
X20584Y21335D01*
X20624Y21285D01*
X20655Y21228D01*
X20673Y21166D01*
X20680Y21097D01*
X20680Y20702D01*
X20680Y20702D01*
G37*
G36*
X20680Y1702D02*
X20680Y1697D01*
X20679Y1692D01*
X20679Y1692D01*
X20672Y1628D01*
X20672Y1628D01*
X20672Y1628D01*
X20653Y1567D01*
X20622Y1510D01*
X20581Y1461D01*
X20530Y1421D01*
X20473Y1391D01*
X20411Y1373D01*
X20347Y1367D01*
X20283Y1374D01*
X20222Y1393D01*
X20165Y1423D01*
X20115Y1464D01*
X20075Y1514D01*
X20044Y1571D01*
X20026Y1633D01*
X20019Y1702D01*
X20019Y2097D01*
X20019Y2102D01*
X20020Y2107D01*
X20020Y2107D01*
X20027Y2171D01*
X20027Y2171D01*
X20027Y2171D01*
X20046Y2232D01*
X20077Y2289D01*
X20118Y2338D01*
X20169Y2378D01*
X20226Y2408D01*
X20288Y2426D01*
X20352Y2432D01*
X20416Y2425D01*
X20477Y2406D01*
X20534Y2376D01*
X20584Y2335D01*
X20624Y2285D01*
X20655Y2228D01*
X20673Y2166D01*
X20680Y2097D01*
X20680Y1702D01*
X20680Y1702D01*
G37*
G36*
X21180Y3702D02*
X21180Y3697D01*
X21179Y3692D01*
X21179Y3692D01*
X21172Y3628D01*
X21172Y3628D01*
X21172Y3628D01*
X21153Y3567D01*
X21122Y3510D01*
X21081Y3461D01*
X21030Y3421D01*
X20973Y3391D01*
X20911Y3373D01*
X20847Y3367D01*
X20783Y3374D01*
X20722Y3393D01*
X20665Y3423D01*
X20615Y3464D01*
X20575Y3514D01*
X20544Y3571D01*
X20526Y3633D01*
X20519Y3702D01*
X20519Y4097D01*
X20519Y4102D01*
X20520Y4107D01*
X20520Y4107D01*
X20527Y4171D01*
X20527Y4171D01*
X20527Y4171D01*
X20546Y4232D01*
X20577Y4289D01*
X20618Y4338D01*
X20669Y4378D01*
X20726Y4408D01*
X20788Y4426D01*
X20852Y4432D01*
X20916Y4425D01*
X20977Y4406D01*
X21034Y4376D01*
X21084Y4335D01*
X21124Y4285D01*
X21155Y4228D01*
X21173Y4166D01*
X21180Y4097D01*
X21180Y3702D01*
X21180Y3702D01*
G37*
G36*
X21680Y20702D02*
X21680Y20697D01*
X21679Y20692D01*
X21679Y20692D01*
X21672Y20628D01*
X21672Y20628D01*
X21672Y20628D01*
X21653Y20567D01*
X21622Y20510D01*
X21581Y20461D01*
X21530Y20421D01*
X21473Y20391D01*
X21411Y20373D01*
X21347Y20367D01*
X21283Y20374D01*
X21222Y20393D01*
X21165Y20423D01*
X21115Y20464D01*
X21075Y20514D01*
X21044Y20571D01*
X21026Y20633D01*
X21019Y20702D01*
X21019Y21097D01*
X21019Y21102D01*
X21020Y21107D01*
X21020Y21107D01*
X21027Y21171D01*
X21027Y21171D01*
X21027Y21171D01*
X21046Y21232D01*
X21077Y21289D01*
X21118Y21338D01*
X21169Y21378D01*
X21226Y21408D01*
X21288Y21426D01*
X21352Y21432D01*
X21416Y21425D01*
X21477Y21406D01*
X21534Y21376D01*
X21584Y21335D01*
X21624Y21285D01*
X21655Y21228D01*
X21673Y21166D01*
X21680Y21097D01*
X21680Y20702D01*
X21680Y20702D01*
G37*
G36*
X21680Y1702D02*
X21680Y1697D01*
X21679Y1692D01*
X21679Y1692D01*
X21672Y1628D01*
X21672Y1628D01*
X21672Y1628D01*
X21653Y1567D01*
X21622Y1510D01*
X21581Y1461D01*
X21530Y1421D01*
X21473Y1391D01*
X21411Y1373D01*
X21347Y1367D01*
X21283Y1374D01*
X21222Y1393D01*
X21165Y1423D01*
X21115Y1464D01*
X21075Y1514D01*
X21044Y1571D01*
X21026Y1633D01*
X21019Y1702D01*
X21019Y2097D01*
X21019Y2102D01*
X21020Y2107D01*
X21020Y2107D01*
X21027Y2171D01*
X21027Y2171D01*
X21027Y2171D01*
X21046Y2232D01*
X21077Y2289D01*
X21118Y2338D01*
X21169Y2378D01*
X21226Y2408D01*
X21288Y2426D01*
X21352Y2432D01*
X21416Y2425D01*
X21477Y2406D01*
X21534Y2376D01*
X21584Y2335D01*
X21624Y2285D01*
X21655Y2228D01*
X21673Y2166D01*
X21680Y2097D01*
X21680Y1702D01*
X21680Y1702D01*
G37*
G36*
X22180Y18702D02*
X22180Y18697D01*
X22179Y18692D01*
X22179Y18692D01*
X22172Y18628D01*
X22172Y18628D01*
X22172Y18628D01*
X22153Y18567D01*
X22122Y18510D01*
X22081Y18461D01*
X22030Y18421D01*
X21973Y18391D01*
X21911Y18373D01*
X21847Y18367D01*
X21783Y18374D01*
X21722Y18393D01*
X21665Y18423D01*
X21615Y18464D01*
X21575Y18514D01*
X21544Y18571D01*
X21526Y18633D01*
X21519Y18702D01*
X21519Y19097D01*
X21519Y19102D01*
X21520Y19107D01*
X21520Y19107D01*
X21527Y19171D01*
X21527Y19171D01*
X21527Y19171D01*
X21546Y19232D01*
X21577Y19289D01*
X21618Y19338D01*
X21669Y19378D01*
X21726Y19408D01*
X21788Y19426D01*
X21852Y19432D01*
X21916Y19425D01*
X21977Y19406D01*
X22034Y19376D01*
X22084Y19335D01*
X22124Y19285D01*
X22155Y19228D01*
X22173Y19166D01*
X22180Y19097D01*
X22180Y18702D01*
X22180Y18702D01*
G37*
G36*
X22180Y3702D02*
X22180Y3697D01*
X22179Y3692D01*
X22179Y3692D01*
X22172Y3628D01*
X22172Y3628D01*
X22172Y3628D01*
X22153Y3567D01*
X22122Y3510D01*
X22081Y3461D01*
X22030Y3421D01*
X21973Y3391D01*
X21911Y3373D01*
X21847Y3367D01*
X21783Y3374D01*
X21722Y3393D01*
X21665Y3423D01*
X21615Y3464D01*
X21575Y3514D01*
X21544Y3571D01*
X21526Y3633D01*
X21519Y3702D01*
X21519Y4097D01*
X21519Y4102D01*
X21520Y4107D01*
X21520Y4107D01*
X21527Y4171D01*
X21527Y4171D01*
X21527Y4171D01*
X21546Y4232D01*
X21577Y4289D01*
X21618Y4338D01*
X21669Y4378D01*
X21726Y4408D01*
X21788Y4426D01*
X21852Y4432D01*
X21916Y4425D01*
X21977Y4406D01*
X22034Y4376D01*
X22084Y4335D01*
X22124Y4285D01*
X22155Y4228D01*
X22173Y4166D01*
X22180Y4097D01*
X22180Y3702D01*
X22180Y3702D01*
G37*
G36*
X22680Y20702D02*
X22680Y20697D01*
X22679Y20692D01*
X22679Y20692D01*
X22672Y20628D01*
X22672Y20628D01*
X22672Y20628D01*
X22653Y20567D01*
X22622Y20510D01*
X22581Y20461D01*
X22530Y20421D01*
X22473Y20391D01*
X22411Y20373D01*
X22347Y20367D01*
X22283Y20374D01*
X22222Y20393D01*
X22165Y20423D01*
X22115Y20464D01*
X22075Y20514D01*
X22044Y20571D01*
X22026Y20633D01*
X22019Y20702D01*
X22019Y21097D01*
X22019Y21102D01*
X22020Y21107D01*
X22020Y21107D01*
X22027Y21171D01*
X22027Y21171D01*
X22027Y21171D01*
X22046Y21232D01*
X22077Y21289D01*
X22118Y21338D01*
X22169Y21378D01*
X22226Y21408D01*
X22288Y21426D01*
X22352Y21432D01*
X22416Y21425D01*
X22477Y21406D01*
X22534Y21376D01*
X22584Y21335D01*
X22624Y21285D01*
X22655Y21228D01*
X22673Y21166D01*
X22680Y21097D01*
X22680Y20702D01*
X22680Y20702D01*
G37*
G36*
X22680Y1702D02*
X22680Y1697D01*
X22679Y1692D01*
X22679Y1692D01*
X22672Y1628D01*
X22672Y1628D01*
X22672Y1628D01*
X22653Y1567D01*
X22622Y1510D01*
X22581Y1461D01*
X22530Y1421D01*
X22473Y1391D01*
X22411Y1373D01*
X22347Y1367D01*
X22283Y1374D01*
X22222Y1393D01*
X22165Y1423D01*
X22115Y1464D01*
X22075Y1514D01*
X22044Y1571D01*
X22026Y1633D01*
X22019Y1702D01*
X22019Y2097D01*
X22019Y2102D01*
X22020Y2107D01*
X22020Y2107D01*
X22027Y2171D01*
X22027Y2171D01*
X22027Y2171D01*
X22046Y2232D01*
X22077Y2289D01*
X22118Y2338D01*
X22169Y2378D01*
X22226Y2408D01*
X22288Y2426D01*
X22352Y2432D01*
X22416Y2425D01*
X22477Y2406D01*
X22534Y2376D01*
X22584Y2335D01*
X22624Y2285D01*
X22655Y2228D01*
X22673Y2166D01*
X22680Y2097D01*
X22680Y1702D01*
X22680Y1702D01*
G37*
G36*
X23180Y18702D02*
X23180Y18697D01*
X23179Y18692D01*
X23179Y18692D01*
X23172Y18628D01*
X23172Y18628D01*
X23172Y18628D01*
X23153Y18567D01*
X23122Y18510D01*
X23081Y18461D01*
X23030Y18421D01*
X22973Y18391D01*
X22911Y18373D01*
X22847Y18367D01*
X22783Y18374D01*
X22722Y18393D01*
X22665Y18423D01*
X22615Y18464D01*
X22575Y18514D01*
X22544Y18571D01*
X22526Y18633D01*
X22519Y18702D01*
X22519Y19097D01*
X22519Y19102D01*
X22520Y19107D01*
X22520Y19107D01*
X22527Y19171D01*
X22527Y19171D01*
X22527Y19171D01*
X22546Y19232D01*
X22577Y19289D01*
X22618Y19338D01*
X22669Y19378D01*
X22726Y19408D01*
X22788Y19426D01*
X22852Y19432D01*
X22916Y19425D01*
X22977Y19406D01*
X23034Y19376D01*
X23084Y19335D01*
X23124Y19285D01*
X23155Y19228D01*
X23173Y19166D01*
X23180Y19097D01*
X23180Y18702D01*
X23180Y18702D01*
G37*
G36*
X23180Y3702D02*
X23180Y3697D01*
X23179Y3692D01*
X23179Y3692D01*
X23172Y3628D01*
X23172Y3628D01*
X23172Y3628D01*
X23153Y3567D01*
X23122Y3510D01*
X23081Y3461D01*
X23030Y3421D01*
X22973Y3391D01*
X22911Y3373D01*
X22847Y3367D01*
X22783Y3374D01*
X22722Y3393D01*
X22665Y3423D01*
X22615Y3464D01*
X22575Y3514D01*
X22544Y3571D01*
X22526Y3633D01*
X22519Y3702D01*
X22519Y4097D01*
X22519Y4102D01*
X22520Y4107D01*
X22520Y4107D01*
X22527Y4171D01*
X22527Y4171D01*
X22527Y4171D01*
X22546Y4232D01*
X22577Y4289D01*
X22618Y4338D01*
X22669Y4378D01*
X22726Y4408D01*
X22788Y4426D01*
X22852Y4432D01*
X22916Y4425D01*
X22977Y4406D01*
X23034Y4376D01*
X23084Y4335D01*
X23124Y4285D01*
X23155Y4228D01*
X23173Y4166D01*
X23180Y4097D01*
X23180Y3702D01*
X23180Y3702D01*
G37*
G36*
X23680Y20369D02*
X23019Y20369D01*
X23019Y21430D01*
X23680Y21430D01*
X23680Y20369D01*
X23680Y20369D01*
G37*
G36*
X23680Y1702D02*
X23680Y1697D01*
X23679Y1692D01*
X23679Y1692D01*
X23672Y1628D01*
X23672Y1628D01*
X23672Y1628D01*
X23653Y1567D01*
X23622Y1510D01*
X23581Y1461D01*
X23530Y1421D01*
X23473Y1391D01*
X23411Y1373D01*
X23347Y1367D01*
X23283Y1374D01*
X23222Y1393D01*
X23165Y1423D01*
X23115Y1464D01*
X23075Y1514D01*
X23044Y1571D01*
X23026Y1633D01*
X23019Y1702D01*
X23019Y2097D01*
X23019Y2102D01*
X23020Y2107D01*
X23020Y2107D01*
X23027Y2171D01*
X23027Y2171D01*
X23027Y2171D01*
X23046Y2232D01*
X23077Y2289D01*
X23118Y2338D01*
X23169Y2378D01*
X23226Y2408D01*
X23288Y2426D01*
X23352Y2432D01*
X23416Y2425D01*
X23477Y2406D01*
X23534Y2376D01*
X23584Y2335D01*
X23624Y2285D01*
X23655Y2228D01*
X23673Y2166D01*
X23680Y2097D01*
X23680Y1702D01*
X23680Y1702D01*
G37*
G36*
X25671Y9823D02*
X25670Y9755D01*
X25656Y9690D01*
X25631Y9635D01*
X25593Y9581D01*
X25550Y9540D01*
X25494Y9504D01*
X25438Y9483D01*
X25372Y9471D01*
X25313Y9472D01*
X25248Y9487D01*
X25194Y9510D01*
X25138Y9549D01*
X25097Y9591D01*
X25061Y9648D01*
X25039Y9702D01*
X25027Y9769D01*
X25028Y9827D01*
X25042Y9893D01*
X25065Y9947D01*
X25103Y10003D01*
X25145Y10044D01*
X25202Y10081D01*
X25256Y10103D01*
X25322Y10116D01*
X25381Y10115D01*
X25447Y10102D01*
X25501Y10079D01*
X25557Y10041D01*
X25599Y10000D01*
X25636Y9943D01*
X25658Y9889D01*
X25671Y9823D01*
X25671Y9823D01*
G37*
G36*
X25671Y9035D02*
X25670Y8967D01*
X25656Y8902D01*
X25631Y8847D01*
X25593Y8793D01*
X25550Y8752D01*
X25494Y8716D01*
X25438Y8695D01*
X25372Y8683D01*
X25313Y8684D01*
X25248Y8699D01*
X25194Y8722D01*
X25138Y8761D01*
X25097Y8803D01*
X25061Y8860D01*
X25039Y8914D01*
X25027Y8981D01*
X25028Y9039D01*
X25042Y9105D01*
X25065Y9159D01*
X25103Y9215D01*
X25145Y9256D01*
X25202Y9293D01*
X25256Y9315D01*
X25322Y9328D01*
X25381Y9327D01*
X25447Y9314D01*
X25501Y9291D01*
X25557Y9253D01*
X25599Y9212D01*
X25636Y9155D01*
X25658Y9101D01*
X25671Y9035D01*
X25671Y9035D01*
G37*
G36*
X26112Y21002D02*
X26112Y20997D01*
X26112Y20993D01*
X26112Y20993D01*
X26105Y20932D01*
X26105Y20932D01*
X26105Y20932D01*
X26087Y20874D01*
X26057Y20821D01*
X26018Y20774D01*
X25971Y20736D01*
X25917Y20708D01*
X25909Y20706D01*
X25900Y20702D01*
X25893Y20695D01*
X25889Y20686D01*
X25889Y20676D01*
X25893Y20667D01*
X25914Y20642D01*
X25939Y20594D01*
X25955Y20542D01*
X25961Y20483D01*
X25961Y20094D01*
X25961Y20090D01*
X25960Y20086D01*
X25960Y20086D01*
X25954Y20032D01*
X25954Y20032D01*
X25954Y20031D01*
X25938Y19980D01*
X25911Y19932D01*
X25877Y19891D01*
X25834Y19857D01*
X25787Y19832D01*
X25734Y19816D01*
X25680Y19812D01*
X25626Y19817D01*
X25575Y19833D01*
X25527Y19859D01*
X25485Y19894D01*
X25451Y19936D01*
X25425Y19984D01*
X25409Y20036D01*
X25404Y20094D01*
X25404Y20483D01*
X25404Y20487D01*
X25404Y20492D01*
X25404Y20492D01*
X25410Y20546D01*
X25410Y20546D01*
X25410Y20546D01*
X25427Y20597D01*
X25453Y20645D01*
X25487Y20687D01*
X25530Y20721D01*
X25572Y20743D01*
X25579Y20750D01*
X25583Y20759D01*
X25583Y20769D01*
X25579Y20778D01*
X25541Y20824D01*
X25512Y20878D01*
X25495Y20936D01*
X25488Y21002D01*
X25488Y21466D01*
X25488Y21471D01*
X25489Y21475D01*
X25489Y21475D01*
X25496Y21535D01*
X25496Y21535D01*
X25496Y21536D01*
X25514Y21593D01*
X25543Y21647D01*
X25582Y21693D01*
X25630Y21732D01*
X25683Y21760D01*
X25742Y21777D01*
X25802Y21782D01*
X25863Y21776D01*
X25921Y21758D01*
X25975Y21729D01*
X26021Y21690D01*
X26060Y21643D01*
X26088Y21590D01*
X26106Y21531D01*
X26112Y21466D01*
X26112Y21002D01*
X26112Y21002D01*
G37*
G36*
X27914Y12719D02*
X27912Y12627D01*
X27893Y12541D01*
X27860Y12467D01*
X27809Y12395D01*
X27751Y12340D01*
X27677Y12292D01*
X27601Y12263D01*
X27515Y12248D01*
X27434Y12250D01*
X27348Y12269D01*
X27274Y12301D01*
X27202Y12351D01*
X27146Y12409D01*
X27098Y12483D01*
X27068Y12558D01*
X27052Y12645D01*
X27054Y12725D01*
X27072Y12812D01*
X27103Y12885D01*
X27154Y12959D01*
X27211Y13015D01*
X27285Y13063D01*
X27359Y13093D01*
X27446Y13110D01*
X27526Y13109D01*
X27613Y13091D01*
X27687Y13060D01*
X27761Y13011D01*
X27817Y12954D01*
X27866Y12880D01*
X27897Y12806D01*
X27914Y12719D01*
X27914Y12719D01*
G37*
G36*
X27914Y10160D02*
X27912Y10068D01*
X27893Y9982D01*
X27860Y9908D01*
X27809Y9836D01*
X27751Y9780D01*
X27677Y9733D01*
X27601Y9704D01*
X27515Y9689D01*
X27434Y9691D01*
X27348Y9709D01*
X27274Y9742D01*
X27202Y9792D01*
X27146Y9850D01*
X27098Y9924D01*
X27068Y9999D01*
X27052Y10086D01*
X27054Y10166D01*
X27072Y10253D01*
X27103Y10326D01*
X27154Y10400D01*
X27211Y10456D01*
X27285Y10504D01*
X27359Y10534D01*
X27446Y10551D01*
X27526Y10550D01*
X27613Y10532D01*
X27687Y10501D01*
X27761Y10452D01*
X27817Y10395D01*
X27866Y10321D01*
X27897Y10247D01*
X27914Y10160D01*
X27914Y10160D01*
G37*
G36*
X28795Y20094D02*
X28795Y20090D01*
X28795Y20086D01*
X28795Y20086D01*
X28789Y20032D01*
X28789Y20032D01*
X28789Y20031D01*
X28772Y19980D01*
X28746Y19932D01*
X28712Y19891D01*
X28669Y19857D01*
X28621Y19832D01*
X28569Y19816D01*
X28515Y19812D01*
X28461Y19817D01*
X28409Y19833D01*
X28361Y19859D01*
X28320Y19894D01*
X28285Y19936D01*
X28260Y19984D01*
X28244Y20036D01*
X28238Y20094D01*
X28238Y20483D01*
X28238Y20487D01*
X28239Y20492D01*
X28239Y20492D01*
X28245Y20546D01*
X28245Y20546D01*
X28245Y20546D01*
X28261Y20597D01*
X28288Y20645D01*
X28306Y20667D01*
X28310Y20676D01*
X28310Y20686D01*
X28306Y20695D01*
X28299Y20702D01*
X28290Y20706D01*
X28278Y20710D01*
X28224Y20739D01*
X28178Y20777D01*
X28139Y20824D01*
X28111Y20878D01*
X28093Y20936D01*
X28087Y21002D01*
X28087Y21466D01*
X28087Y21471D01*
X28087Y21475D01*
X28087Y21475D01*
X28094Y21535D01*
X28094Y21535D01*
X28094Y21536D01*
X28112Y21593D01*
X28142Y21647D01*
X28181Y21693D01*
X28228Y21732D01*
X28282Y21760D01*
X28341Y21777D01*
X28401Y21782D01*
X28461Y21776D01*
X28519Y21758D01*
X28573Y21729D01*
X28620Y21690D01*
X28658Y21643D01*
X28687Y21590D01*
X28704Y21531D01*
X28711Y21466D01*
X28711Y21002D01*
X28711Y20997D01*
X28710Y20993D01*
X28710Y20993D01*
X28703Y20932D01*
X28703Y20932D01*
X28703Y20932D01*
X28685Y20874D01*
X28656Y20821D01*
X28620Y20778D01*
X28616Y20769D01*
X28616Y20759D01*
X28620Y20750D01*
X28627Y20743D01*
X28672Y20719D01*
X28714Y20684D01*
X28748Y20642D01*
X28774Y20594D01*
X28790Y20542D01*
X28795Y20483D01*
X28795Y20094D01*
X28795Y20094D01*
G37*
G36*
X29646Y12719D02*
X29645Y12627D01*
X29625Y12541D01*
X29592Y12467D01*
X29542Y12395D01*
X29483Y12340D01*
X29409Y12292D01*
X29334Y12263D01*
X29247Y12248D01*
X29166Y12250D01*
X29080Y12269D01*
X29006Y12301D01*
X28934Y12351D01*
X28878Y12409D01*
X28830Y12483D01*
X28801Y12558D01*
X28785Y12645D01*
X28786Y12725D01*
X28804Y12812D01*
X28836Y12885D01*
X28886Y12959D01*
X28943Y13015D01*
X29017Y13063D01*
X29091Y13093D01*
X29179Y13110D01*
X29259Y13109D01*
X29346Y13091D01*
X29419Y13060D01*
X29493Y13011D01*
X29549Y12954D01*
X29598Y12880D01*
X29629Y12806D01*
X29646Y12719D01*
X29646Y12719D01*
G37*
G36*
X29666Y10160D02*
X29664Y10068D01*
X29645Y9982D01*
X29612Y9908D01*
X29561Y9836D01*
X29503Y9780D01*
X29429Y9733D01*
X29353Y9704D01*
X29267Y9689D01*
X29186Y9691D01*
X29100Y9709D01*
X29026Y9742D01*
X28954Y9792D01*
X28898Y9850D01*
X28850Y9924D01*
X28820Y9999D01*
X28804Y10086D01*
X28805Y10166D01*
X28824Y10253D01*
X28855Y10326D01*
X28906Y10400D01*
X28963Y10456D01*
X29037Y10504D01*
X29111Y10534D01*
X29198Y10551D01*
X29278Y10550D01*
X29365Y10532D01*
X29439Y10501D01*
X29513Y10452D01*
X29569Y10395D01*
X29618Y10321D01*
X29648Y10247D01*
X29666Y10160D01*
X29666Y10160D01*
G37*
G36*
X30914Y15719D02*
X30912Y15627D01*
X30893Y15541D01*
X30860Y15467D01*
X30809Y15395D01*
X30751Y15340D01*
X30677Y15292D01*
X30601Y15263D01*
X30515Y15248D01*
X30434Y15250D01*
X30348Y15269D01*
X30274Y15301D01*
X30202Y15351D01*
X30146Y15409D01*
X30098Y15483D01*
X30068Y15558D01*
X30052Y15645D01*
X30054Y15725D01*
X30072Y15812D01*
X30103Y15885D01*
X30154Y15959D01*
X30211Y16015D01*
X30285Y16063D01*
X30359Y16093D01*
X30446Y16110D01*
X30526Y16109D01*
X30613Y16091D01*
X30687Y16060D01*
X30761Y16011D01*
X30817Y15954D01*
X30866Y15880D01*
X30897Y15806D01*
X30914Y15719D01*
X30914Y15719D01*
G37*
G36*
X30914Y13160D02*
X30912Y13068D01*
X30893Y12982D01*
X30860Y12908D01*
X30809Y12836D01*
X30751Y12780D01*
X30677Y12733D01*
X30601Y12704D01*
X30515Y12689D01*
X30434Y12691D01*
X30348Y12709D01*
X30274Y12742D01*
X30202Y12792D01*
X30146Y12850D01*
X30098Y12924D01*
X30068Y12999D01*
X30052Y13086D01*
X30054Y13166D01*
X30072Y13253D01*
X30103Y13326D01*
X30154Y13400D01*
X30211Y13456D01*
X30285Y13504D01*
X30359Y13534D01*
X30446Y13551D01*
X30526Y13550D01*
X30613Y13532D01*
X30687Y13501D01*
X30761Y13452D01*
X30817Y13395D01*
X30866Y13321D01*
X30897Y13247D01*
X30914Y13160D01*
X30914Y13160D01*
G37*
G36*
X30914Y9719D02*
X30912Y9627D01*
X30893Y9541D01*
X30860Y9467D01*
X30809Y9395D01*
X30751Y9340D01*
X30677Y9292D01*
X30601Y9263D01*
X30515Y9248D01*
X30434Y9250D01*
X30348Y9269D01*
X30274Y9301D01*
X30202Y9351D01*
X30146Y9409D01*
X30098Y9483D01*
X30068Y9558D01*
X30052Y9645D01*
X30054Y9725D01*
X30072Y9812D01*
X30103Y9885D01*
X30154Y9959D01*
X30211Y10015D01*
X30285Y10063D01*
X30359Y10093D01*
X30446Y10110D01*
X30526Y10109D01*
X30613Y10091D01*
X30687Y10060D01*
X30761Y10011D01*
X30817Y9954D01*
X30866Y9880D01*
X30897Y9806D01*
X30914Y9719D01*
X30914Y9719D01*
G37*
G36*
X30914Y7160D02*
X30912Y7068D01*
X30893Y6982D01*
X30860Y6908D01*
X30809Y6836D01*
X30751Y6780D01*
X30677Y6733D01*
X30601Y6704D01*
X30515Y6689D01*
X30434Y6691D01*
X30348Y6709D01*
X30274Y6742D01*
X30202Y6792D01*
X30146Y6850D01*
X30098Y6924D01*
X30068Y6999D01*
X30052Y7086D01*
X30054Y7166D01*
X30072Y7253D01*
X30103Y7326D01*
X30154Y7400D01*
X30211Y7456D01*
X30285Y7504D01*
X30359Y7534D01*
X30446Y7551D01*
X30526Y7550D01*
X30613Y7532D01*
X30687Y7501D01*
X30761Y7452D01*
X30817Y7395D01*
X30866Y7321D01*
X30897Y7247D01*
X30914Y7160D01*
X30914Y7160D01*
G37*
G36*
X32646Y15719D02*
X32645Y15627D01*
X32625Y15541D01*
X32592Y15467D01*
X32542Y15395D01*
X32483Y15340D01*
X32409Y15292D01*
X32334Y15263D01*
X32247Y15248D01*
X32166Y15250D01*
X32080Y15269D01*
X32006Y15301D01*
X31934Y15351D01*
X31878Y15409D01*
X31830Y15483D01*
X31801Y15558D01*
X31785Y15645D01*
X31786Y15725D01*
X31804Y15812D01*
X31836Y15885D01*
X31886Y15959D01*
X31943Y16015D01*
X32017Y16063D01*
X32091Y16093D01*
X32179Y16110D01*
X32259Y16109D01*
X32346Y16091D01*
X32419Y16060D01*
X32493Y16011D01*
X32549Y15954D01*
X32598Y15880D01*
X32629Y15806D01*
X32646Y15719D01*
X32646Y15719D01*
G37*
G36*
X32646Y9719D02*
X32645Y9627D01*
X32625Y9541D01*
X32592Y9467D01*
X32542Y9395D01*
X32483Y9340D01*
X32409Y9292D01*
X32334Y9263D01*
X32247Y9248D01*
X32166Y9250D01*
X32080Y9269D01*
X32006Y9301D01*
X31934Y9351D01*
X31878Y9409D01*
X31830Y9483D01*
X31801Y9558D01*
X31785Y9645D01*
X31786Y9725D01*
X31804Y9812D01*
X31836Y9885D01*
X31886Y9959D01*
X31943Y10015D01*
X32017Y10063D01*
X32091Y10093D01*
X32179Y10110D01*
X32259Y10109D01*
X32346Y10091D01*
X32419Y10060D01*
X32493Y10011D01*
X32549Y9954D01*
X32598Y9880D01*
X32629Y9806D01*
X32646Y9719D01*
X32646Y9719D01*
G37*
G36*
X32666Y13160D02*
X32664Y13068D01*
X32645Y12982D01*
X32612Y12908D01*
X32561Y12836D01*
X32503Y12780D01*
X32429Y12733D01*
X32353Y12704D01*
X32267Y12689D01*
X32186Y12691D01*
X32100Y12709D01*
X32026Y12742D01*
X31954Y12792D01*
X31898Y12850D01*
X31850Y12924D01*
X31820Y12999D01*
X31804Y13086D01*
X31805Y13166D01*
X31824Y13253D01*
X31855Y13326D01*
X31906Y13400D01*
X31963Y13456D01*
X32037Y13504D01*
X32111Y13534D01*
X32198Y13551D01*
X32278Y13550D01*
X32365Y13532D01*
X32439Y13501D01*
X32513Y13452D01*
X32569Y13395D01*
X32618Y13321D01*
X32648Y13247D01*
X32666Y13160D01*
X32666Y13160D01*
G37*
G36*
X32666Y7160D02*
X32664Y7068D01*
X32645Y6982D01*
X32612Y6908D01*
X32561Y6836D01*
X32503Y6780D01*
X32429Y6733D01*
X32353Y6704D01*
X32267Y6689D01*
X32186Y6691D01*
X32100Y6709D01*
X32026Y6742D01*
X31954Y6792D01*
X31898Y6850D01*
X31850Y6924D01*
X31820Y6999D01*
X31804Y7086D01*
X31805Y7166D01*
X31824Y7253D01*
X31855Y7326D01*
X31906Y7400D01*
X31963Y7456D01*
X32037Y7504D01*
X32111Y7534D01*
X32198Y7551D01*
X32278Y7550D01*
X32365Y7532D01*
X32439Y7501D01*
X32513Y7452D01*
X32569Y7395D01*
X32618Y7321D01*
X32648Y7247D01*
X32666Y7160D01*
X32666Y7160D01*
G37*
G36*
X33080Y4145D02*
X33078Y4041D01*
X33057Y3945D01*
X33020Y3863D01*
X32964Y3783D01*
X32898Y3720D01*
X32815Y3668D01*
X32731Y3635D01*
X32635Y3618D01*
X32544Y3620D01*
X32449Y3641D01*
X32366Y3677D01*
X32285Y3733D01*
X32223Y3798D01*
X32169Y3881D01*
X32136Y3965D01*
X32118Y4061D01*
X32120Y4151D01*
X32140Y4247D01*
X32176Y4330D01*
X32231Y4411D01*
X32295Y4474D01*
X32378Y4528D01*
X32461Y4562D01*
X32558Y4580D01*
X32648Y4580D01*
X32744Y4560D01*
X32827Y4525D01*
X32909Y4470D01*
X32972Y4406D01*
X33027Y4324D01*
X33061Y4241D01*
X33080Y4145D01*
X33080Y4145D01*
G37*
G36*
X33080Y-4054D02*
X33078Y-4158D01*
X33057Y-4254D01*
X33020Y-4336D01*
X32964Y-4416D01*
X32898Y-4479D01*
X32815Y-4531D01*
X32731Y-4564D01*
X32635Y-4581D01*
X32544Y-4579D01*
X32449Y-4558D01*
X32366Y-4522D01*
X32285Y-4466D01*
X32223Y-4401D01*
X32169Y-4318D01*
X32136Y-4234D01*
X32118Y-4138D01*
X32120Y-4048D01*
X32140Y-3952D01*
X32176Y-3869D01*
X32231Y-3788D01*
X32295Y-3725D01*
X32378Y-3671D01*
X32461Y-3637D01*
X32558Y-3619D01*
X32648Y-3619D01*
X32744Y-3639D01*
X32827Y-3674D01*
X32909Y-3729D01*
X32972Y-3793D01*
X33027Y-3875D01*
X33061Y-3958D01*
X33080Y-4054D01*
X33080Y-4054D01*
G37*
G36*
X33914Y12719D02*
X33912Y12627D01*
X33893Y12541D01*
X33860Y12467D01*
X33809Y12395D01*
X33751Y12340D01*
X33677Y12292D01*
X33601Y12263D01*
X33515Y12248D01*
X33434Y12250D01*
X33348Y12269D01*
X33274Y12301D01*
X33202Y12351D01*
X33146Y12409D01*
X33098Y12483D01*
X33068Y12558D01*
X33052Y12645D01*
X33054Y12725D01*
X33072Y12812D01*
X33103Y12885D01*
X33154Y12959D01*
X33211Y13015D01*
X33285Y13063D01*
X33359Y13093D01*
X33446Y13110D01*
X33526Y13109D01*
X33613Y13091D01*
X33687Y13060D01*
X33761Y13011D01*
X33817Y12954D01*
X33866Y12880D01*
X33897Y12806D01*
X33914Y12719D01*
X33914Y12719D01*
G37*
G36*
X33914Y10160D02*
X33912Y10068D01*
X33893Y9982D01*
X33860Y9908D01*
X33809Y9836D01*
X33751Y9780D01*
X33677Y9733D01*
X33601Y9704D01*
X33515Y9689D01*
X33434Y9691D01*
X33348Y9709D01*
X33274Y9742D01*
X33202Y9792D01*
X33146Y9850D01*
X33098Y9924D01*
X33068Y9999D01*
X33052Y10086D01*
X33054Y10166D01*
X33072Y10253D01*
X33103Y10326D01*
X33154Y10400D01*
X33211Y10456D01*
X33285Y10504D01*
X33359Y10534D01*
X33446Y10551D01*
X33526Y10550D01*
X33613Y10532D01*
X33687Y10501D01*
X33761Y10452D01*
X33817Y10395D01*
X33866Y10321D01*
X33897Y10247D01*
X33914Y10160D01*
X33914Y10160D01*
G37*
G36*
X34280Y4145D02*
X34278Y4041D01*
X34257Y3945D01*
X34220Y3863D01*
X34164Y3783D01*
X34098Y3720D01*
X34015Y3668D01*
X33931Y3635D01*
X33835Y3618D01*
X33744Y3620D01*
X33649Y3641D01*
X33566Y3677D01*
X33485Y3733D01*
X33423Y3798D01*
X33369Y3881D01*
X33336Y3965D01*
X33318Y4061D01*
X33320Y4151D01*
X33340Y4247D01*
X33376Y4330D01*
X33431Y4411D01*
X33495Y4474D01*
X33578Y4528D01*
X33661Y4562D01*
X33758Y4580D01*
X33848Y4580D01*
X33944Y4560D01*
X34027Y4525D01*
X34109Y4470D01*
X34172Y4406D01*
X34227Y4324D01*
X34261Y4241D01*
X34280Y4145D01*
X34280Y4145D01*
G37*
G36*
X34280Y-4054D02*
X34278Y-4158D01*
X34257Y-4254D01*
X34220Y-4336D01*
X34164Y-4416D01*
X34098Y-4479D01*
X34015Y-4531D01*
X33931Y-4564D01*
X33835Y-4581D01*
X33744Y-4579D01*
X33649Y-4558D01*
X33566Y-4522D01*
X33485Y-4466D01*
X33423Y-4401D01*
X33369Y-4318D01*
X33336Y-4234D01*
X33318Y-4138D01*
X33320Y-4048D01*
X33340Y-3952D01*
X33376Y-3869D01*
X33431Y-3788D01*
X33495Y-3725D01*
X33578Y-3671D01*
X33661Y-3637D01*
X33758Y-3619D01*
X33848Y-3619D01*
X33944Y-3639D01*
X34027Y-3674D01*
X34109Y-3729D01*
X34172Y-3793D01*
X34227Y-3875D01*
X34261Y-3958D01*
X34280Y-4054D01*
X34280Y-4054D01*
G37*
G36*
X35646Y12719D02*
X35645Y12627D01*
X35625Y12541D01*
X35592Y12467D01*
X35542Y12395D01*
X35483Y12340D01*
X35409Y12292D01*
X35334Y12263D01*
X35247Y12248D01*
X35166Y12250D01*
X35080Y12269D01*
X35006Y12301D01*
X34934Y12351D01*
X34878Y12409D01*
X34830Y12483D01*
X34801Y12558D01*
X34785Y12645D01*
X34786Y12725D01*
X34804Y12812D01*
X34836Y12885D01*
X34886Y12959D01*
X34943Y13015D01*
X35017Y13063D01*
X35091Y13093D01*
X35179Y13110D01*
X35259Y13109D01*
X35346Y13091D01*
X35419Y13060D01*
X35493Y13011D01*
X35549Y12954D01*
X35598Y12880D01*
X35629Y12806D01*
X35646Y12719D01*
X35646Y12719D01*
G37*
G36*
X35666Y10160D02*
X35664Y10068D01*
X35645Y9982D01*
X35612Y9908D01*
X35561Y9836D01*
X35503Y9780D01*
X35429Y9733D01*
X35353Y9704D01*
X35267Y9689D01*
X35186Y9691D01*
X35100Y9709D01*
X35026Y9742D01*
X34954Y9792D01*
X34898Y9850D01*
X34850Y9924D01*
X34820Y9999D01*
X34804Y10086D01*
X34805Y10166D01*
X34824Y10253D01*
X34855Y10326D01*
X34906Y10400D01*
X34963Y10456D01*
X35037Y10504D01*
X35111Y10534D01*
X35198Y10551D01*
X35278Y10550D01*
X35365Y10532D01*
X35439Y10501D01*
X35513Y10452D01*
X35569Y10395D01*
X35618Y10321D01*
X35648Y10247D01*
X35666Y10160D01*
X35666Y10160D01*
G37*
G36*
X36680Y339D02*
X36669Y-436D01*
X36517Y-1105D01*
X36241Y-1725D01*
X35846Y-2286D01*
X35354Y-2754D01*
X34775Y-3122D01*
X34142Y-3367D01*
X33466Y-3486D01*
X32787Y-3472D01*
X32117Y-3325D01*
X31495Y-3053D01*
X30931Y-2661D01*
X30460Y-2173D01*
X30088Y-1596D01*
X29838Y-965D01*
X29715Y-290D01*
X29724Y387D01*
X29867Y1059D01*
X30134Y1682D01*
X30522Y2249D01*
X31007Y2724D01*
X31581Y3100D01*
X32210Y3354D01*
X32885Y3482D01*
X33563Y3478D01*
X34236Y3339D01*
X34861Y3077D01*
X35430Y2693D01*
X35908Y2212D01*
X36288Y1639D01*
X36547Y1013D01*
X36680Y339D01*
X36680Y339D01*
G37*
M02*
