G04 (created by PCBNEW (2013-dec-23)-stable) date Wed 26 Feb 2014 13:07:50 CST*
%MOIN*%
G04 Gerber Fmt 3.4, Leading zero omitted, Abs format*
%FSLAX34Y34*%
G01*
G70*
G90*
G04 APERTURE LIST*
%ADD10C,0.00590551*%
%ADD11C,0.01*%
%ADD12C,0.008*%
%ADD13C,0.02*%
%ADD14C,0.012*%
%ADD15C,0.006*%
%ADD16C,0.00984252*%
%ADD17C,0.015*%
%ADD18C,0.005*%
%ADD19C,0.007*%
G04 APERTURE END LIST*
G54D10*
X4000Y-4000D02*
X106000Y-4000D01*
X106000Y-81000D01*
X4000Y-81000D01*
X4000Y-4000D01*
X4700Y-4700D02*
X105300Y-4700D01*
X105300Y-80300D01*
X4700Y-80300D01*
X4700Y-4700D01*
X24400Y-4000D02*
X24400Y-4700D01*
X14342Y-4552D02*
X14057Y-4552D01*
X14200Y-4552D02*
X14200Y-4052D01*
X14152Y-4123D01*
X14104Y-4171D01*
X14057Y-4195D01*
X24400Y-81000D02*
X24400Y-80300D01*
X14342Y-80852D02*
X14057Y-80852D01*
X14200Y-80852D02*
X14200Y-80352D01*
X14152Y-80423D01*
X14104Y-80471D01*
X14057Y-80495D01*
X44800Y-4000D02*
X44800Y-4700D01*
X34457Y-4100D02*
X34480Y-4076D01*
X34528Y-4052D01*
X34647Y-4052D01*
X34695Y-4076D01*
X34719Y-4100D01*
X34742Y-4147D01*
X34742Y-4195D01*
X34719Y-4266D01*
X34433Y-4552D01*
X34742Y-4552D01*
X44800Y-81000D02*
X44800Y-80300D01*
X34457Y-80400D02*
X34480Y-80376D01*
X34528Y-80352D01*
X34647Y-80352D01*
X34695Y-80376D01*
X34719Y-80400D01*
X34742Y-80447D01*
X34742Y-80495D01*
X34719Y-80566D01*
X34433Y-80852D01*
X34742Y-80852D01*
X65200Y-4000D02*
X65200Y-4700D01*
X54833Y-4052D02*
X55142Y-4052D01*
X54976Y-4242D01*
X55047Y-4242D01*
X55095Y-4266D01*
X55119Y-4290D01*
X55142Y-4338D01*
X55142Y-4457D01*
X55119Y-4504D01*
X55095Y-4528D01*
X55047Y-4552D01*
X54904Y-4552D01*
X54857Y-4528D01*
X54833Y-4504D01*
X65200Y-81000D02*
X65200Y-80300D01*
X54833Y-80352D02*
X55142Y-80352D01*
X54976Y-80542D01*
X55047Y-80542D01*
X55095Y-80566D01*
X55119Y-80590D01*
X55142Y-80638D01*
X55142Y-80757D01*
X55119Y-80804D01*
X55095Y-80828D01*
X55047Y-80852D01*
X54904Y-80852D01*
X54857Y-80828D01*
X54833Y-80804D01*
X85600Y-4000D02*
X85600Y-4700D01*
X75495Y-4219D02*
X75495Y-4552D01*
X75376Y-4028D02*
X75257Y-4385D01*
X75566Y-4385D01*
X85600Y-81000D02*
X85600Y-80300D01*
X75495Y-80519D02*
X75495Y-80852D01*
X75376Y-80328D02*
X75257Y-80685D01*
X75566Y-80685D01*
X95919Y-4052D02*
X95680Y-4052D01*
X95657Y-4290D01*
X95680Y-4266D01*
X95728Y-4242D01*
X95847Y-4242D01*
X95895Y-4266D01*
X95919Y-4290D01*
X95942Y-4338D01*
X95942Y-4457D01*
X95919Y-4504D01*
X95895Y-4528D01*
X95847Y-4552D01*
X95728Y-4552D01*
X95680Y-4528D01*
X95657Y-4504D01*
X95919Y-80352D02*
X95680Y-80352D01*
X95657Y-80590D01*
X95680Y-80566D01*
X95728Y-80542D01*
X95847Y-80542D01*
X95895Y-80566D01*
X95919Y-80590D01*
X95942Y-80638D01*
X95942Y-80757D01*
X95919Y-80804D01*
X95895Y-80828D01*
X95847Y-80852D01*
X95728Y-80852D01*
X95680Y-80828D01*
X95657Y-80804D01*
X4000Y-29660D02*
X4700Y-29660D01*
X4230Y-16889D02*
X4469Y-16889D01*
X4183Y-17032D02*
X4350Y-16532D01*
X4516Y-17032D01*
X106000Y-29660D02*
X105300Y-29660D01*
X105530Y-16889D02*
X105769Y-16889D01*
X105483Y-17032D02*
X105650Y-16532D01*
X105816Y-17032D01*
X4000Y-55320D02*
X4700Y-55320D01*
X4385Y-42430D02*
X4457Y-42454D01*
X4480Y-42478D01*
X4504Y-42525D01*
X4504Y-42597D01*
X4480Y-42644D01*
X4457Y-42668D01*
X4409Y-42692D01*
X4219Y-42692D01*
X4219Y-42192D01*
X4385Y-42192D01*
X4433Y-42216D01*
X4457Y-42240D01*
X4480Y-42287D01*
X4480Y-42335D01*
X4457Y-42382D01*
X4433Y-42406D01*
X4385Y-42430D01*
X4219Y-42430D01*
X106000Y-55320D02*
X105300Y-55320D01*
X105685Y-42430D02*
X105757Y-42454D01*
X105780Y-42478D01*
X105804Y-42525D01*
X105804Y-42597D01*
X105780Y-42644D01*
X105757Y-42668D01*
X105709Y-42692D01*
X105519Y-42692D01*
X105519Y-42192D01*
X105685Y-42192D01*
X105733Y-42216D01*
X105757Y-42240D01*
X105780Y-42287D01*
X105780Y-42335D01*
X105757Y-42382D01*
X105733Y-42406D01*
X105685Y-42430D01*
X105519Y-42430D01*
X4504Y-68304D02*
X4480Y-68328D01*
X4409Y-68352D01*
X4361Y-68352D01*
X4290Y-68328D01*
X4242Y-68280D01*
X4219Y-68233D01*
X4195Y-68138D01*
X4195Y-68066D01*
X4219Y-67971D01*
X4242Y-67923D01*
X4290Y-67876D01*
X4361Y-67852D01*
X4409Y-67852D01*
X4480Y-67876D01*
X4504Y-67900D01*
X105804Y-68304D02*
X105780Y-68328D01*
X105709Y-68352D01*
X105661Y-68352D01*
X105590Y-68328D01*
X105542Y-68280D01*
X105519Y-68233D01*
X105495Y-68138D01*
X105495Y-68066D01*
X105519Y-67971D01*
X105542Y-67923D01*
X105590Y-67876D01*
X105661Y-67852D01*
X105709Y-67852D01*
X105780Y-67876D01*
X105804Y-67900D01*
X72450Y-78742D02*
X72525Y-78142D01*
X72667Y-78142D01*
X72750Y-78171D01*
X72800Y-78228D01*
X72821Y-78285D01*
X72835Y-78400D01*
X72825Y-78485D01*
X72782Y-78600D01*
X72746Y-78657D01*
X72682Y-78714D01*
X72592Y-78742D01*
X72450Y-78742D01*
X73307Y-78742D02*
X73346Y-78428D01*
X73325Y-78371D01*
X73271Y-78342D01*
X73157Y-78342D01*
X73096Y-78371D01*
X73310Y-78714D02*
X73250Y-78742D01*
X73107Y-78742D01*
X73053Y-78714D01*
X73032Y-78657D01*
X73039Y-78600D01*
X73075Y-78542D01*
X73135Y-78514D01*
X73278Y-78514D01*
X73339Y-78485D01*
X73557Y-78342D02*
X73785Y-78342D01*
X73667Y-78142D02*
X73603Y-78657D01*
X73625Y-78714D01*
X73678Y-78742D01*
X73735Y-78742D01*
X74167Y-78714D02*
X74107Y-78742D01*
X73992Y-78742D01*
X73939Y-78714D01*
X73917Y-78657D01*
X73946Y-78428D01*
X73982Y-78371D01*
X74042Y-78342D01*
X74157Y-78342D01*
X74210Y-78371D01*
X74232Y-78428D01*
X74225Y-78485D01*
X73932Y-78542D01*
X74457Y-78685D02*
X74482Y-78714D01*
X74450Y-78742D01*
X74425Y-78714D01*
X74457Y-78685D01*
X74450Y-78742D01*
X74496Y-78371D02*
X74521Y-78400D01*
X74489Y-78428D01*
X74464Y-78400D01*
X74496Y-78371D01*
X74489Y-78428D01*
X75232Y-78200D02*
X75264Y-78171D01*
X75325Y-78142D01*
X75467Y-78142D01*
X75521Y-78171D01*
X75546Y-78200D01*
X75567Y-78257D01*
X75560Y-78314D01*
X75521Y-78400D01*
X75135Y-78742D01*
X75507Y-78742D01*
X76096Y-78142D02*
X75982Y-78142D01*
X75921Y-78171D01*
X75889Y-78200D01*
X75821Y-78285D01*
X75778Y-78400D01*
X75750Y-78628D01*
X75771Y-78685D01*
X75796Y-78714D01*
X75850Y-78742D01*
X75964Y-78742D01*
X76025Y-78714D01*
X76057Y-78685D01*
X76092Y-78628D01*
X76110Y-78485D01*
X76089Y-78428D01*
X76064Y-78400D01*
X76010Y-78371D01*
X75896Y-78371D01*
X75835Y-78400D01*
X75803Y-78428D01*
X75767Y-78485D01*
X76757Y-78342D02*
X76985Y-78342D01*
X76792Y-78742D02*
X76857Y-78228D01*
X76892Y-78171D01*
X76953Y-78142D01*
X77010Y-78142D01*
X77367Y-78714D02*
X77307Y-78742D01*
X77192Y-78742D01*
X77139Y-78714D01*
X77117Y-78657D01*
X77146Y-78428D01*
X77182Y-78371D01*
X77242Y-78342D01*
X77357Y-78342D01*
X77410Y-78371D01*
X77432Y-78428D01*
X77425Y-78485D01*
X77132Y-78542D01*
X77650Y-78742D02*
X77725Y-78142D01*
X77696Y-78371D02*
X77757Y-78342D01*
X77871Y-78342D01*
X77925Y-78371D01*
X77950Y-78400D01*
X77971Y-78457D01*
X77950Y-78628D01*
X77914Y-78685D01*
X77882Y-78714D01*
X77821Y-78742D01*
X77707Y-78742D01*
X77653Y-78714D01*
X78689Y-78200D02*
X78721Y-78171D01*
X78782Y-78142D01*
X78925Y-78142D01*
X78978Y-78171D01*
X79003Y-78200D01*
X79025Y-78257D01*
X79017Y-78314D01*
X78978Y-78400D01*
X78592Y-78742D01*
X78964Y-78742D01*
X79410Y-78142D02*
X79467Y-78142D01*
X79521Y-78171D01*
X79546Y-78200D01*
X79567Y-78257D01*
X79582Y-78371D01*
X79564Y-78514D01*
X79521Y-78628D01*
X79485Y-78685D01*
X79453Y-78714D01*
X79392Y-78742D01*
X79335Y-78742D01*
X79282Y-78714D01*
X79257Y-78685D01*
X79235Y-78628D01*
X79221Y-78514D01*
X79239Y-78371D01*
X79282Y-78257D01*
X79317Y-78200D01*
X79350Y-78171D01*
X79410Y-78142D01*
X80107Y-78742D02*
X79764Y-78742D01*
X79935Y-78742D02*
X80010Y-78142D01*
X79942Y-78228D01*
X79878Y-78285D01*
X79817Y-78314D01*
X80671Y-78342D02*
X80621Y-78742D01*
X80557Y-78114D02*
X80360Y-78542D01*
X80732Y-78542D01*
X64042Y-79942D02*
X64042Y-79342D01*
X64385Y-79942D02*
X64128Y-79600D01*
X64385Y-79342D02*
X64042Y-79685D01*
X64642Y-79942D02*
X64642Y-79542D01*
X64642Y-79342D02*
X64614Y-79371D01*
X64642Y-79400D01*
X64671Y-79371D01*
X64642Y-79342D01*
X64642Y-79400D01*
X65271Y-79885D02*
X65242Y-79914D01*
X65157Y-79942D01*
X65100Y-79942D01*
X65014Y-79914D01*
X64957Y-79857D01*
X64928Y-79800D01*
X64900Y-79685D01*
X64900Y-79600D01*
X64928Y-79485D01*
X64957Y-79428D01*
X65014Y-79371D01*
X65100Y-79342D01*
X65157Y-79342D01*
X65242Y-79371D01*
X65271Y-79400D01*
X65785Y-79942D02*
X65785Y-79628D01*
X65757Y-79571D01*
X65700Y-79542D01*
X65585Y-79542D01*
X65528Y-79571D01*
X65785Y-79914D02*
X65728Y-79942D01*
X65585Y-79942D01*
X65528Y-79914D01*
X65500Y-79857D01*
X65500Y-79800D01*
X65528Y-79742D01*
X65585Y-79714D01*
X65728Y-79714D01*
X65785Y-79685D01*
X66328Y-79942D02*
X66328Y-79342D01*
X66328Y-79914D02*
X66271Y-79942D01*
X66157Y-79942D01*
X66100Y-79914D01*
X66071Y-79885D01*
X66042Y-79828D01*
X66042Y-79657D01*
X66071Y-79600D01*
X66100Y-79571D01*
X66157Y-79542D01*
X66271Y-79542D01*
X66328Y-79571D01*
X67071Y-79628D02*
X67271Y-79628D01*
X67357Y-79942D02*
X67071Y-79942D01*
X67071Y-79342D01*
X67357Y-79342D01*
X67614Y-79885D02*
X67642Y-79914D01*
X67614Y-79942D01*
X67585Y-79914D01*
X67614Y-79885D01*
X67614Y-79942D01*
X67899Y-79942D02*
X67899Y-79342D01*
X68042Y-79342D01*
X68128Y-79371D01*
X68185Y-79428D01*
X68214Y-79485D01*
X68242Y-79600D01*
X68242Y-79685D01*
X68214Y-79800D01*
X68185Y-79857D01*
X68128Y-79914D01*
X68042Y-79942D01*
X67899Y-79942D01*
X68499Y-79885D02*
X68528Y-79914D01*
X68499Y-79942D01*
X68471Y-79914D01*
X68499Y-79885D01*
X68499Y-79942D01*
X68757Y-79771D02*
X69042Y-79771D01*
X68699Y-79942D02*
X68899Y-79342D01*
X69099Y-79942D01*
X69299Y-79885D02*
X69328Y-79914D01*
X69299Y-79942D01*
X69271Y-79914D01*
X69299Y-79885D01*
X69299Y-79942D01*
X97592Y-78742D02*
X97428Y-78457D01*
X97250Y-78742D02*
X97325Y-78142D01*
X97553Y-78142D01*
X97607Y-78171D01*
X97632Y-78200D01*
X97653Y-78257D01*
X97642Y-78342D01*
X97607Y-78400D01*
X97575Y-78428D01*
X97514Y-78457D01*
X97285Y-78457D01*
X98082Y-78714D02*
X98021Y-78742D01*
X97907Y-78742D01*
X97853Y-78714D01*
X97832Y-78657D01*
X97860Y-78428D01*
X97896Y-78371D01*
X97957Y-78342D01*
X98071Y-78342D01*
X98125Y-78371D01*
X98146Y-78428D01*
X98139Y-78485D01*
X97846Y-78542D01*
X98357Y-78342D02*
X98450Y-78742D01*
X98642Y-78342D01*
X98828Y-78685D02*
X98853Y-78714D01*
X98821Y-78742D01*
X98796Y-78714D01*
X98828Y-78685D01*
X98821Y-78742D01*
X98867Y-78371D02*
X98892Y-78400D01*
X98860Y-78428D01*
X98835Y-78400D01*
X98867Y-78371D01*
X98860Y-78428D01*
X99553Y-78142D02*
X99896Y-78142D01*
X99650Y-78742D02*
X99725Y-78142D01*
X100335Y-78742D02*
X99992Y-78742D01*
X100164Y-78742D02*
X100239Y-78142D01*
X100171Y-78228D01*
X100107Y-78285D01*
X100046Y-78314D01*
X64014Y-78714D02*
X64100Y-78742D01*
X64242Y-78742D01*
X64300Y-78714D01*
X64328Y-78685D01*
X64357Y-78628D01*
X64357Y-78571D01*
X64328Y-78514D01*
X64300Y-78485D01*
X64242Y-78457D01*
X64128Y-78428D01*
X64071Y-78400D01*
X64042Y-78371D01*
X64014Y-78314D01*
X64014Y-78257D01*
X64042Y-78200D01*
X64071Y-78171D01*
X64128Y-78142D01*
X64271Y-78142D01*
X64357Y-78171D01*
X64614Y-78742D02*
X64614Y-78342D01*
X64614Y-78142D02*
X64585Y-78171D01*
X64614Y-78200D01*
X64642Y-78171D01*
X64614Y-78142D01*
X64614Y-78200D01*
X64842Y-78342D02*
X65157Y-78342D01*
X64842Y-78742D01*
X65157Y-78742D01*
X65614Y-78714D02*
X65557Y-78742D01*
X65442Y-78742D01*
X65385Y-78714D01*
X65357Y-78657D01*
X65357Y-78428D01*
X65385Y-78371D01*
X65442Y-78342D01*
X65557Y-78342D01*
X65614Y-78371D01*
X65642Y-78428D01*
X65642Y-78485D01*
X65357Y-78542D01*
X65900Y-78685D02*
X65928Y-78714D01*
X65900Y-78742D01*
X65871Y-78714D01*
X65900Y-78685D01*
X65900Y-78742D01*
X65900Y-78371D02*
X65928Y-78400D01*
X65900Y-78428D01*
X65871Y-78400D01*
X65900Y-78371D01*
X65900Y-78428D01*
X66614Y-78571D02*
X66900Y-78571D01*
X66557Y-78742D02*
X66757Y-78142D01*
X66957Y-78742D01*
X97242Y-79942D02*
X97242Y-79342D01*
X97785Y-79942D02*
X97785Y-79342D01*
X97785Y-79914D02*
X97728Y-79942D01*
X97614Y-79942D01*
X97557Y-79914D01*
X97528Y-79885D01*
X97500Y-79828D01*
X97500Y-79657D01*
X97528Y-79600D01*
X97557Y-79571D01*
X97614Y-79542D01*
X97728Y-79542D01*
X97785Y-79571D01*
X98071Y-79885D02*
X98100Y-79914D01*
X98071Y-79942D01*
X98042Y-79914D01*
X98071Y-79885D01*
X98071Y-79942D01*
X98071Y-79571D02*
X98100Y-79600D01*
X98071Y-79628D01*
X98042Y-79600D01*
X98071Y-79571D01*
X98071Y-79628D01*
X99128Y-79942D02*
X98785Y-79942D01*
X98957Y-79942D02*
X98957Y-79342D01*
X98899Y-79428D01*
X98842Y-79485D01*
X98785Y-79514D01*
X99814Y-79314D02*
X99300Y-80085D01*
X100328Y-79942D02*
X99985Y-79942D01*
X100157Y-79942D02*
X100157Y-79342D01*
X100099Y-79428D01*
X100042Y-79485D01*
X99985Y-79514D01*
X64039Y-76942D02*
X64382Y-76942D01*
X64135Y-77542D02*
X64210Y-76942D01*
X64507Y-77542D02*
X64557Y-77142D01*
X64582Y-76942D02*
X64550Y-76971D01*
X64575Y-77000D01*
X64607Y-76971D01*
X64582Y-76942D01*
X64575Y-77000D01*
X64757Y-77142D02*
X64985Y-77142D01*
X64867Y-76942D02*
X64803Y-77457D01*
X64825Y-77514D01*
X64878Y-77542D01*
X64935Y-77542D01*
X65221Y-77542D02*
X65167Y-77514D01*
X65146Y-77457D01*
X65210Y-76942D01*
X65682Y-77514D02*
X65621Y-77542D01*
X65507Y-77542D01*
X65453Y-77514D01*
X65432Y-77457D01*
X65460Y-77228D01*
X65496Y-77171D01*
X65557Y-77142D01*
X65671Y-77142D01*
X65725Y-77171D01*
X65746Y-77228D01*
X65739Y-77285D01*
X65446Y-77342D01*
X65971Y-77485D02*
X65996Y-77514D01*
X65964Y-77542D01*
X65939Y-77514D01*
X65971Y-77485D01*
X65964Y-77542D01*
X66010Y-77171D02*
X66035Y-77200D01*
X66003Y-77228D01*
X65978Y-77200D01*
X66010Y-77171D01*
X66003Y-77228D01*
X66946Y-77228D02*
X67028Y-77257D01*
X67053Y-77285D01*
X67075Y-77342D01*
X67064Y-77428D01*
X67028Y-77485D01*
X66996Y-77514D01*
X66935Y-77542D01*
X66707Y-77542D01*
X66782Y-76942D01*
X66982Y-76942D01*
X67035Y-76971D01*
X67060Y-77000D01*
X67082Y-77057D01*
X67075Y-77114D01*
X67039Y-77171D01*
X67007Y-77200D01*
X66946Y-77228D01*
X66746Y-77228D01*
X67496Y-76942D02*
X67610Y-76942D01*
X67664Y-76971D01*
X67714Y-77028D01*
X67728Y-77142D01*
X67703Y-77342D01*
X67660Y-77457D01*
X67596Y-77514D01*
X67535Y-77542D01*
X67421Y-77542D01*
X67367Y-77514D01*
X67317Y-77457D01*
X67303Y-77342D01*
X67328Y-77142D01*
X67371Y-77028D01*
X67435Y-76971D01*
X67496Y-76942D01*
X67928Y-77371D02*
X68214Y-77371D01*
X67850Y-77542D02*
X68125Y-76942D01*
X68250Y-77542D01*
X68792Y-77542D02*
X68628Y-77257D01*
X68450Y-77542D02*
X68525Y-76942D01*
X68753Y-76942D01*
X68807Y-76971D01*
X68832Y-77000D01*
X68853Y-77057D01*
X68842Y-77142D01*
X68807Y-77200D01*
X68775Y-77228D01*
X68714Y-77257D01*
X68485Y-77257D01*
X69050Y-77542D02*
X69125Y-76942D01*
X69267Y-76942D01*
X69350Y-76971D01*
X69400Y-77028D01*
X69421Y-77085D01*
X69435Y-77200D01*
X69425Y-77285D01*
X69382Y-77400D01*
X69346Y-77457D01*
X69282Y-77514D01*
X69192Y-77542D01*
X69050Y-77542D01*
X69682Y-77514D02*
X69678Y-77542D01*
X69642Y-77600D01*
X69610Y-77628D01*
X70392Y-77542D02*
X70467Y-76942D01*
X70696Y-76942D01*
X70749Y-76971D01*
X70775Y-77000D01*
X70796Y-77057D01*
X70785Y-77142D01*
X70750Y-77200D01*
X70717Y-77228D01*
X70657Y-77257D01*
X70428Y-77257D01*
X71342Y-77485D02*
X71310Y-77514D01*
X71221Y-77542D01*
X71164Y-77542D01*
X71082Y-77514D01*
X71032Y-77457D01*
X71010Y-77400D01*
X70996Y-77285D01*
X71007Y-77200D01*
X71050Y-77085D01*
X71085Y-77028D01*
X71149Y-76971D01*
X71239Y-76942D01*
X71296Y-76942D01*
X71378Y-76971D01*
X71403Y-77000D01*
X71625Y-77514D02*
X71621Y-77542D01*
X71585Y-77600D01*
X71553Y-77628D01*
X72325Y-76942D02*
X72667Y-76942D01*
X72421Y-77542D02*
X72496Y-76942D01*
X72792Y-77542D02*
X72867Y-76942D01*
X72832Y-77228D02*
X73175Y-77228D01*
X73135Y-77542D02*
X73210Y-76942D01*
X73610Y-76942D02*
X73725Y-76942D01*
X73778Y-76971D01*
X73828Y-77028D01*
X73842Y-77142D01*
X73817Y-77342D01*
X73774Y-77457D01*
X73710Y-77514D01*
X73650Y-77542D01*
X73535Y-77542D01*
X73482Y-77514D01*
X73432Y-77457D01*
X73417Y-77342D01*
X73442Y-77142D01*
X73485Y-77028D01*
X73549Y-76971D01*
X73610Y-76942D01*
X74039Y-76942D02*
X74382Y-76942D01*
X74135Y-77542D02*
X74210Y-76942D01*
X74507Y-77542D02*
X74582Y-76942D01*
X74849Y-77542D02*
X74635Y-77200D01*
X74924Y-76942D02*
X74539Y-77285D01*
X75296Y-76942D02*
X75410Y-76942D01*
X75464Y-76971D01*
X75514Y-77028D01*
X75528Y-77142D01*
X75503Y-77342D01*
X75460Y-77457D01*
X75396Y-77514D01*
X75335Y-77542D01*
X75221Y-77542D01*
X75167Y-77514D01*
X75117Y-77457D01*
X75103Y-77342D01*
X75128Y-77142D01*
X75171Y-77028D01*
X75235Y-76971D01*
X75296Y-76942D01*
X75735Y-77542D02*
X75810Y-76942D01*
X76078Y-77542D01*
X76153Y-76942D01*
X77010Y-76942D02*
X77124Y-76942D01*
X77178Y-76971D01*
X77228Y-77028D01*
X77242Y-77142D01*
X77217Y-77342D01*
X77174Y-77457D01*
X77110Y-77514D01*
X77049Y-77542D01*
X76935Y-77542D01*
X76882Y-77514D01*
X76832Y-77457D01*
X76817Y-77342D01*
X76842Y-77142D01*
X76885Y-77028D01*
X76949Y-76971D01*
X77010Y-76942D01*
X77467Y-76942D02*
X77792Y-77542D01*
X77867Y-76942D02*
X77392Y-77542D01*
X78382Y-76942D02*
X78096Y-76942D01*
X78032Y-77228D01*
X78064Y-77200D01*
X78124Y-77171D01*
X78267Y-77171D01*
X78321Y-77200D01*
X78346Y-77228D01*
X78367Y-77285D01*
X78349Y-77428D01*
X78314Y-77485D01*
X78282Y-77514D01*
X78221Y-77542D01*
X78078Y-77542D01*
X78024Y-77514D01*
X77999Y-77485D01*
X64242Y-74828D02*
X64042Y-74828D01*
X64042Y-75142D02*
X64042Y-74542D01*
X64328Y-74542D01*
X64557Y-75142D02*
X64557Y-74742D01*
X64557Y-74542D02*
X64528Y-74571D01*
X64557Y-74600D01*
X64585Y-74571D01*
X64557Y-74542D01*
X64557Y-74600D01*
X64928Y-75142D02*
X64871Y-75114D01*
X64842Y-75057D01*
X64842Y-74542D01*
X65385Y-75114D02*
X65328Y-75142D01*
X65214Y-75142D01*
X65157Y-75114D01*
X65128Y-75057D01*
X65128Y-74828D01*
X65157Y-74771D01*
X65214Y-74742D01*
X65328Y-74742D01*
X65385Y-74771D01*
X65414Y-74828D01*
X65414Y-74885D01*
X65128Y-74942D01*
X65671Y-75085D02*
X65700Y-75114D01*
X65671Y-75142D01*
X65642Y-75114D01*
X65671Y-75085D01*
X65671Y-75142D01*
X65671Y-74771D02*
X65700Y-74800D01*
X65671Y-74828D01*
X65642Y-74800D01*
X65671Y-74771D01*
X65671Y-74828D01*
X66328Y-74742D02*
X66557Y-74742D01*
X66414Y-74542D02*
X66414Y-75057D01*
X66442Y-75114D01*
X66500Y-75142D01*
X66557Y-75142D01*
X66757Y-75142D02*
X66757Y-74542D01*
X67014Y-75142D02*
X67014Y-74828D01*
X66985Y-74771D01*
X66928Y-74742D01*
X66842Y-74742D01*
X66785Y-74771D01*
X66757Y-74800D01*
X67385Y-75142D02*
X67328Y-75114D01*
X67300Y-75085D01*
X67271Y-75028D01*
X67271Y-74857D01*
X67300Y-74800D01*
X67328Y-74771D01*
X67385Y-74742D01*
X67471Y-74742D01*
X67528Y-74771D01*
X67557Y-74800D01*
X67585Y-74857D01*
X67585Y-75028D01*
X67557Y-75085D01*
X67528Y-75114D01*
X67471Y-75142D01*
X67385Y-75142D01*
X67757Y-74742D02*
X67985Y-74742D01*
X67842Y-74542D02*
X67842Y-75057D01*
X67871Y-75114D01*
X67928Y-75142D01*
X67985Y-75142D01*
X68442Y-75114D02*
X68385Y-75142D01*
X68271Y-75142D01*
X68214Y-75114D01*
X68185Y-75085D01*
X68157Y-75028D01*
X68157Y-74857D01*
X68185Y-74800D01*
X68214Y-74771D01*
X68271Y-74742D01*
X68385Y-74742D01*
X68442Y-74771D01*
X68785Y-75142D02*
X68728Y-75114D01*
X68700Y-75085D01*
X68671Y-75028D01*
X68671Y-74857D01*
X68700Y-74800D01*
X68728Y-74771D01*
X68785Y-74742D01*
X68871Y-74742D01*
X68928Y-74771D01*
X68957Y-74800D01*
X68985Y-74857D01*
X68985Y-75028D01*
X68957Y-75085D01*
X68928Y-75114D01*
X68871Y-75142D01*
X68785Y-75142D01*
X69242Y-74742D02*
X69242Y-75142D01*
X69242Y-74800D02*
X69271Y-74771D01*
X69328Y-74742D01*
X69414Y-74742D01*
X69471Y-74771D01*
X69500Y-74828D01*
X69500Y-75142D01*
X69642Y-75200D02*
X70100Y-75200D01*
X70357Y-74542D02*
X70414Y-74542D01*
X70471Y-74571D01*
X70500Y-74600D01*
X70528Y-74657D01*
X70557Y-74771D01*
X70557Y-74914D01*
X70528Y-75028D01*
X70500Y-75085D01*
X70471Y-75114D01*
X70414Y-75142D01*
X70357Y-75142D01*
X70300Y-75114D01*
X70271Y-75085D01*
X70242Y-75028D01*
X70214Y-74914D01*
X70214Y-74771D01*
X70242Y-74657D01*
X70271Y-74600D01*
X70300Y-74571D01*
X70357Y-74542D01*
X70757Y-75142D02*
X71071Y-74742D01*
X70757Y-74742D02*
X71071Y-75142D01*
X71585Y-74542D02*
X71300Y-74542D01*
X71271Y-74828D01*
X71300Y-74800D01*
X71357Y-74771D01*
X71500Y-74771D01*
X71557Y-74800D01*
X71585Y-74828D01*
X71614Y-74885D01*
X71614Y-75028D01*
X71585Y-75085D01*
X71557Y-75114D01*
X71500Y-75142D01*
X71357Y-75142D01*
X71300Y-75114D01*
X71271Y-75085D01*
X71871Y-75085D02*
X71900Y-75114D01*
X71871Y-75142D01*
X71842Y-75114D01*
X71871Y-75085D01*
X71871Y-75142D01*
X72157Y-75142D02*
X72157Y-74542D01*
X72157Y-74771D02*
X72214Y-74742D01*
X72328Y-74742D01*
X72385Y-74771D01*
X72414Y-74800D01*
X72442Y-74857D01*
X72442Y-75028D01*
X72414Y-75085D01*
X72385Y-75114D01*
X72328Y-75142D01*
X72214Y-75142D01*
X72157Y-75114D01*
X72700Y-75142D02*
X72700Y-74742D01*
X72700Y-74857D02*
X72728Y-74800D01*
X72757Y-74771D01*
X72814Y-74742D01*
X72871Y-74742D01*
X73328Y-75142D02*
X73328Y-74542D01*
X73328Y-75114D02*
X73271Y-75142D01*
X73157Y-75142D01*
X73100Y-75114D01*
X73071Y-75085D01*
X73042Y-75028D01*
X73042Y-74857D01*
X73071Y-74800D01*
X73100Y-74771D01*
X73157Y-74742D01*
X73271Y-74742D01*
X73328Y-74771D01*
X64014Y-76314D02*
X64100Y-76342D01*
X64242Y-76342D01*
X64300Y-76314D01*
X64328Y-76285D01*
X64357Y-76228D01*
X64357Y-76171D01*
X64328Y-76114D01*
X64300Y-76085D01*
X64242Y-76057D01*
X64128Y-76028D01*
X64071Y-76000D01*
X64042Y-75971D01*
X64014Y-75914D01*
X64014Y-75857D01*
X64042Y-75800D01*
X64071Y-75771D01*
X64128Y-75742D01*
X64271Y-75742D01*
X64357Y-75771D01*
X64614Y-76342D02*
X64614Y-75742D01*
X64871Y-76342D02*
X64871Y-76028D01*
X64842Y-75971D01*
X64785Y-75942D01*
X64700Y-75942D01*
X64642Y-75971D01*
X64614Y-76000D01*
X65385Y-76314D02*
X65328Y-76342D01*
X65214Y-76342D01*
X65157Y-76314D01*
X65128Y-76257D01*
X65128Y-76028D01*
X65157Y-75971D01*
X65214Y-75942D01*
X65328Y-75942D01*
X65385Y-75971D01*
X65414Y-76028D01*
X65414Y-76085D01*
X65128Y-76142D01*
X65900Y-76314D02*
X65842Y-76342D01*
X65728Y-76342D01*
X65671Y-76314D01*
X65642Y-76257D01*
X65642Y-76028D01*
X65671Y-75971D01*
X65728Y-75942D01*
X65842Y-75942D01*
X65900Y-75971D01*
X65928Y-76028D01*
X65928Y-76085D01*
X65642Y-76142D01*
X66100Y-75942D02*
X66328Y-75942D01*
X66185Y-75742D02*
X66185Y-76257D01*
X66214Y-76314D01*
X66271Y-76342D01*
X66328Y-76342D01*
X66528Y-76285D02*
X66557Y-76314D01*
X66528Y-76342D01*
X66500Y-76314D01*
X66528Y-76285D01*
X66528Y-76342D01*
X66528Y-75971D02*
X66557Y-76000D01*
X66528Y-76028D01*
X66500Y-76000D01*
X66528Y-75971D01*
X66528Y-76028D01*
X64067Y-73342D02*
X64135Y-73942D01*
X64303Y-73514D01*
X64364Y-73942D01*
X64582Y-73342D01*
X64821Y-73942D02*
X64767Y-73914D01*
X64742Y-73885D01*
X64721Y-73828D01*
X64742Y-73657D01*
X64778Y-73600D01*
X64810Y-73571D01*
X64871Y-73542D01*
X64957Y-73542D01*
X65010Y-73571D01*
X65035Y-73600D01*
X65057Y-73657D01*
X65035Y-73828D01*
X65000Y-73885D01*
X64967Y-73914D01*
X64907Y-73942D01*
X64821Y-73942D01*
X65278Y-73942D02*
X65328Y-73542D01*
X65314Y-73657D02*
X65350Y-73600D01*
X65382Y-73571D01*
X65442Y-73542D01*
X65500Y-73542D01*
X65650Y-73942D02*
X65725Y-73342D01*
X65735Y-73714D02*
X65878Y-73942D01*
X65928Y-73542D02*
X65671Y-73771D01*
X66110Y-73914D02*
X66164Y-73942D01*
X66278Y-73942D01*
X66339Y-73914D01*
X66375Y-73857D01*
X66378Y-73828D01*
X66357Y-73771D01*
X66303Y-73742D01*
X66217Y-73742D01*
X66164Y-73714D01*
X66142Y-73657D01*
X66146Y-73628D01*
X66182Y-73571D01*
X66242Y-73542D01*
X66328Y-73542D01*
X66382Y-73571D01*
X66621Y-73942D02*
X66696Y-73342D01*
X66878Y-73942D02*
X66917Y-73628D01*
X66896Y-73571D01*
X66842Y-73542D01*
X66757Y-73542D01*
X66696Y-73571D01*
X66664Y-73600D01*
X67249Y-73942D02*
X67196Y-73914D01*
X67171Y-73885D01*
X67150Y-73828D01*
X67171Y-73657D01*
X67207Y-73600D01*
X67239Y-73571D01*
X67299Y-73542D01*
X67385Y-73542D01*
X67439Y-73571D01*
X67464Y-73600D01*
X67485Y-73657D01*
X67464Y-73828D01*
X67428Y-73885D01*
X67396Y-73914D01*
X67335Y-73942D01*
X67249Y-73942D01*
X67757Y-73542D02*
X67682Y-74142D01*
X67753Y-73571D02*
X67814Y-73542D01*
X67928Y-73542D01*
X67982Y-73571D01*
X68007Y-73600D01*
X68028Y-73657D01*
X68007Y-73828D01*
X67971Y-73885D01*
X67939Y-73914D01*
X67878Y-73942D01*
X67764Y-73942D01*
X67710Y-73914D01*
X68835Y-73600D02*
X68782Y-73571D01*
X68757Y-73542D01*
X68735Y-73485D01*
X68739Y-73457D01*
X68774Y-73400D01*
X68807Y-73371D01*
X68867Y-73342D01*
X68982Y-73342D01*
X69035Y-73371D01*
X69060Y-73400D01*
X69082Y-73457D01*
X69078Y-73485D01*
X69042Y-73542D01*
X69010Y-73571D01*
X68949Y-73600D01*
X68835Y-73600D01*
X68775Y-73628D01*
X68742Y-73657D01*
X68707Y-73714D01*
X68692Y-73828D01*
X68714Y-73885D01*
X68739Y-73914D01*
X68792Y-73942D01*
X68907Y-73942D01*
X68967Y-73914D01*
X68999Y-73885D01*
X69035Y-73828D01*
X69049Y-73714D01*
X69028Y-73657D01*
X69003Y-73628D01*
X68949Y-73600D01*
X69407Y-73600D02*
X69353Y-73571D01*
X69328Y-73542D01*
X69307Y-73485D01*
X69310Y-73457D01*
X69346Y-73400D01*
X69378Y-73371D01*
X69439Y-73342D01*
X69553Y-73342D01*
X69607Y-73371D01*
X69632Y-73400D01*
X69653Y-73457D01*
X69650Y-73485D01*
X69614Y-73542D01*
X69582Y-73571D01*
X69521Y-73600D01*
X69407Y-73600D01*
X69346Y-73628D01*
X69314Y-73657D01*
X69278Y-73714D01*
X69264Y-73828D01*
X69285Y-73885D01*
X69310Y-73914D01*
X69364Y-73942D01*
X69478Y-73942D01*
X69539Y-73914D01*
X69571Y-73885D01*
X69607Y-73828D01*
X69621Y-73714D01*
X69599Y-73657D01*
X69575Y-73628D01*
X69521Y-73600D01*
X64042Y-72742D02*
X64042Y-72142D01*
X64185Y-72142D01*
X64271Y-72171D01*
X64328Y-72228D01*
X64357Y-72285D01*
X64385Y-72400D01*
X64385Y-72485D01*
X64357Y-72600D01*
X64328Y-72657D01*
X64271Y-72714D01*
X64185Y-72742D01*
X64042Y-72742D01*
X64642Y-72742D02*
X64642Y-72342D01*
X64642Y-72457D02*
X64671Y-72400D01*
X64700Y-72371D01*
X64757Y-72342D01*
X64814Y-72342D01*
X65271Y-72742D02*
X65271Y-72428D01*
X65242Y-72371D01*
X65185Y-72342D01*
X65071Y-72342D01*
X65014Y-72371D01*
X65271Y-72714D02*
X65214Y-72742D01*
X65071Y-72742D01*
X65014Y-72714D01*
X64985Y-72657D01*
X64985Y-72600D01*
X65014Y-72542D01*
X65071Y-72514D01*
X65214Y-72514D01*
X65271Y-72485D01*
X65500Y-72342D02*
X65614Y-72742D01*
X65728Y-72457D01*
X65842Y-72742D01*
X65957Y-72342D01*
X66185Y-72342D02*
X66185Y-72742D01*
X66185Y-72400D02*
X66214Y-72371D01*
X66271Y-72342D01*
X66357Y-72342D01*
X66414Y-72371D01*
X66442Y-72428D01*
X66442Y-72742D01*
X66728Y-72685D02*
X66757Y-72714D01*
X66728Y-72742D01*
X66700Y-72714D01*
X66728Y-72685D01*
X66728Y-72742D01*
X66728Y-72371D02*
X66757Y-72400D01*
X66728Y-72428D01*
X66700Y-72400D01*
X66728Y-72371D01*
X66728Y-72428D01*
X67471Y-72742D02*
X67471Y-72142D01*
X67700Y-72142D01*
X67757Y-72171D01*
X67785Y-72200D01*
X67814Y-72257D01*
X67814Y-72342D01*
X67785Y-72400D01*
X67757Y-72428D01*
X67700Y-72457D01*
X67471Y-72457D01*
X68328Y-72742D02*
X68328Y-72428D01*
X68300Y-72371D01*
X68242Y-72342D01*
X68128Y-72342D01*
X68071Y-72371D01*
X68328Y-72714D02*
X68271Y-72742D01*
X68128Y-72742D01*
X68071Y-72714D01*
X68042Y-72657D01*
X68042Y-72600D01*
X68071Y-72542D01*
X68128Y-72514D01*
X68271Y-72514D01*
X68328Y-72485D01*
X68871Y-72342D02*
X68871Y-72742D01*
X68614Y-72342D02*
X68614Y-72657D01*
X68642Y-72714D01*
X68699Y-72742D01*
X68785Y-72742D01*
X68842Y-72714D01*
X68871Y-72685D01*
X69242Y-72742D02*
X69185Y-72714D01*
X69157Y-72657D01*
X69157Y-72142D01*
X70271Y-72742D02*
X70071Y-72457D01*
X69928Y-72742D02*
X69928Y-72142D01*
X70157Y-72142D01*
X70214Y-72171D01*
X70242Y-72200D01*
X70271Y-72257D01*
X70271Y-72342D01*
X70242Y-72400D01*
X70214Y-72428D01*
X70157Y-72457D01*
X69928Y-72457D01*
X70757Y-72714D02*
X70700Y-72742D01*
X70585Y-72742D01*
X70528Y-72714D01*
X70500Y-72657D01*
X70500Y-72428D01*
X70528Y-72371D01*
X70585Y-72342D01*
X70700Y-72342D01*
X70757Y-72371D01*
X70785Y-72428D01*
X70785Y-72485D01*
X70500Y-72542D01*
X71042Y-72742D02*
X71042Y-72342D01*
X71042Y-72142D02*
X71014Y-72171D01*
X71042Y-72200D01*
X71071Y-72171D01*
X71042Y-72142D01*
X71042Y-72200D01*
X71585Y-72714D02*
X71528Y-72742D01*
X71414Y-72742D01*
X71357Y-72714D01*
X71328Y-72685D01*
X71300Y-72628D01*
X71300Y-72457D01*
X71328Y-72400D01*
X71357Y-72371D01*
X71414Y-72342D01*
X71528Y-72342D01*
X71585Y-72371D01*
X71842Y-72742D02*
X71842Y-72142D01*
X72100Y-72742D02*
X72100Y-72428D01*
X72071Y-72371D01*
X72014Y-72342D01*
X71928Y-72342D01*
X71871Y-72371D01*
X71842Y-72400D01*
X64042Y-71542D02*
X64042Y-70942D01*
X64185Y-70942D01*
X64271Y-70971D01*
X64328Y-71028D01*
X64357Y-71085D01*
X64385Y-71200D01*
X64385Y-71285D01*
X64357Y-71400D01*
X64328Y-71457D01*
X64271Y-71514D01*
X64185Y-71542D01*
X64042Y-71542D01*
X64871Y-71514D02*
X64814Y-71542D01*
X64700Y-71542D01*
X64642Y-71514D01*
X64614Y-71457D01*
X64614Y-71228D01*
X64642Y-71171D01*
X64700Y-71142D01*
X64814Y-71142D01*
X64871Y-71171D01*
X64900Y-71228D01*
X64900Y-71285D01*
X64614Y-71342D01*
X65128Y-71514D02*
X65185Y-71542D01*
X65300Y-71542D01*
X65357Y-71514D01*
X65385Y-71457D01*
X65385Y-71428D01*
X65357Y-71371D01*
X65300Y-71342D01*
X65214Y-71342D01*
X65157Y-71314D01*
X65128Y-71257D01*
X65128Y-71228D01*
X65157Y-71171D01*
X65214Y-71142D01*
X65300Y-71142D01*
X65357Y-71171D01*
X65642Y-71542D02*
X65642Y-71142D01*
X65642Y-70942D02*
X65614Y-70971D01*
X65642Y-71000D01*
X65671Y-70971D01*
X65642Y-70942D01*
X65642Y-71000D01*
X66185Y-71142D02*
X66185Y-71628D01*
X66157Y-71685D01*
X66128Y-71714D01*
X66071Y-71742D01*
X65985Y-71742D01*
X65928Y-71714D01*
X66185Y-71514D02*
X66128Y-71542D01*
X66014Y-71542D01*
X65957Y-71514D01*
X65928Y-71485D01*
X65900Y-71428D01*
X65900Y-71257D01*
X65928Y-71200D01*
X65957Y-71171D01*
X66014Y-71142D01*
X66128Y-71142D01*
X66185Y-71171D01*
X66471Y-71142D02*
X66471Y-71542D01*
X66471Y-71200D02*
X66500Y-71171D01*
X66557Y-71142D01*
X66642Y-71142D01*
X66700Y-71171D01*
X66728Y-71228D01*
X66728Y-71542D01*
X67242Y-71514D02*
X67185Y-71542D01*
X67071Y-71542D01*
X67014Y-71514D01*
X66985Y-71457D01*
X66985Y-71228D01*
X67014Y-71171D01*
X67071Y-71142D01*
X67185Y-71142D01*
X67242Y-71171D01*
X67271Y-71228D01*
X67271Y-71285D01*
X66985Y-71342D01*
X67785Y-71542D02*
X67785Y-70942D01*
X67785Y-71514D02*
X67728Y-71542D01*
X67614Y-71542D01*
X67557Y-71514D01*
X67528Y-71485D01*
X67500Y-71428D01*
X67500Y-71257D01*
X67528Y-71200D01*
X67557Y-71171D01*
X67614Y-71142D01*
X67728Y-71142D01*
X67785Y-71171D01*
X68071Y-71485D02*
X68100Y-71514D01*
X68071Y-71542D01*
X68042Y-71514D01*
X68071Y-71485D01*
X68071Y-71542D01*
X68071Y-71171D02*
X68100Y-71200D01*
X68071Y-71228D01*
X68042Y-71200D01*
X68071Y-71171D01*
X68071Y-71228D01*
X68814Y-71542D02*
X68814Y-70942D01*
X69042Y-70942D01*
X69099Y-70971D01*
X69128Y-71000D01*
X69157Y-71057D01*
X69157Y-71142D01*
X69128Y-71200D01*
X69099Y-71228D01*
X69042Y-71257D01*
X68814Y-71257D01*
X69671Y-71542D02*
X69671Y-71228D01*
X69642Y-71171D01*
X69585Y-71142D01*
X69471Y-71142D01*
X69414Y-71171D01*
X69671Y-71514D02*
X69614Y-71542D01*
X69471Y-71542D01*
X69414Y-71514D01*
X69385Y-71457D01*
X69385Y-71400D01*
X69414Y-71342D01*
X69471Y-71314D01*
X69614Y-71314D01*
X69671Y-71285D01*
X70214Y-71142D02*
X70214Y-71542D01*
X69957Y-71142D02*
X69957Y-71457D01*
X69985Y-71514D01*
X70042Y-71542D01*
X70128Y-71542D01*
X70185Y-71514D01*
X70214Y-71485D01*
X70585Y-71542D02*
X70528Y-71514D01*
X70499Y-71457D01*
X70499Y-70942D01*
X71614Y-71542D02*
X71414Y-71257D01*
X71271Y-71542D02*
X71271Y-70942D01*
X71500Y-70942D01*
X71557Y-70971D01*
X71585Y-71000D01*
X71614Y-71057D01*
X71614Y-71142D01*
X71585Y-71200D01*
X71557Y-71228D01*
X71500Y-71257D01*
X71271Y-71257D01*
X72100Y-71514D02*
X72042Y-71542D01*
X71928Y-71542D01*
X71871Y-71514D01*
X71842Y-71457D01*
X71842Y-71228D01*
X71871Y-71171D01*
X71928Y-71142D01*
X72042Y-71142D01*
X72100Y-71171D01*
X72128Y-71228D01*
X72128Y-71285D01*
X71842Y-71342D01*
X72385Y-71542D02*
X72385Y-71142D01*
X72385Y-70942D02*
X72357Y-70971D01*
X72385Y-71000D01*
X72414Y-70971D01*
X72385Y-70942D01*
X72385Y-71000D01*
X72928Y-71514D02*
X72871Y-71542D01*
X72757Y-71542D01*
X72700Y-71514D01*
X72671Y-71485D01*
X72642Y-71428D01*
X72642Y-71257D01*
X72671Y-71200D01*
X72700Y-71171D01*
X72757Y-71142D01*
X72871Y-71142D01*
X72928Y-71171D01*
X73185Y-71542D02*
X73185Y-70942D01*
X73442Y-71542D02*
X73442Y-71228D01*
X73414Y-71171D01*
X73357Y-71142D01*
X73271Y-71142D01*
X73214Y-71171D01*
X73185Y-71200D01*
X64042Y-70342D02*
X64042Y-69742D01*
X64271Y-69742D01*
X64328Y-69771D01*
X64357Y-69800D01*
X64385Y-69857D01*
X64385Y-69942D01*
X64357Y-70000D01*
X64328Y-70028D01*
X64271Y-70057D01*
X64042Y-70057D01*
X64642Y-70342D02*
X64642Y-69942D01*
X64642Y-70057D02*
X64671Y-70000D01*
X64700Y-69971D01*
X64757Y-69942D01*
X64814Y-69942D01*
X65100Y-70342D02*
X65042Y-70314D01*
X65014Y-70285D01*
X64985Y-70228D01*
X64985Y-70057D01*
X65014Y-70000D01*
X65042Y-69971D01*
X65100Y-69942D01*
X65185Y-69942D01*
X65242Y-69971D01*
X65271Y-70000D01*
X65300Y-70057D01*
X65300Y-70228D01*
X65271Y-70285D01*
X65242Y-70314D01*
X65185Y-70342D01*
X65100Y-70342D01*
X65557Y-69942D02*
X65557Y-70457D01*
X65528Y-70514D01*
X65471Y-70542D01*
X65442Y-70542D01*
X65557Y-69742D02*
X65528Y-69771D01*
X65557Y-69800D01*
X65585Y-69771D01*
X65557Y-69742D01*
X65557Y-69800D01*
X66071Y-70314D02*
X66014Y-70342D01*
X65900Y-70342D01*
X65842Y-70314D01*
X65814Y-70257D01*
X65814Y-70028D01*
X65842Y-69971D01*
X65900Y-69942D01*
X66014Y-69942D01*
X66071Y-69971D01*
X66100Y-70028D01*
X66100Y-70085D01*
X65814Y-70142D01*
X66614Y-70314D02*
X66557Y-70342D01*
X66442Y-70342D01*
X66385Y-70314D01*
X66357Y-70285D01*
X66328Y-70228D01*
X66328Y-70057D01*
X66357Y-70000D01*
X66385Y-69971D01*
X66442Y-69942D01*
X66557Y-69942D01*
X66614Y-69971D01*
X66785Y-69942D02*
X67014Y-69942D01*
X66871Y-69742D02*
X66871Y-70257D01*
X66900Y-70314D01*
X66957Y-70342D01*
X67014Y-70342D01*
X67671Y-70342D02*
X67671Y-69742D01*
X67871Y-70171D01*
X68071Y-69742D01*
X68071Y-70342D01*
X68614Y-69942D02*
X68614Y-70428D01*
X68585Y-70485D01*
X68557Y-70514D01*
X68500Y-70542D01*
X68414Y-70542D01*
X68357Y-70514D01*
X68614Y-70314D02*
X68557Y-70342D01*
X68442Y-70342D01*
X68385Y-70314D01*
X68357Y-70285D01*
X68328Y-70228D01*
X68328Y-70057D01*
X68357Y-70000D01*
X68385Y-69971D01*
X68442Y-69942D01*
X68557Y-69942D01*
X68614Y-69971D01*
X68900Y-70342D02*
X68900Y-69942D01*
X68900Y-70057D02*
X68928Y-70000D01*
X68957Y-69971D01*
X69014Y-69942D01*
X69071Y-69942D01*
X69271Y-70285D02*
X69300Y-70314D01*
X69271Y-70342D01*
X69242Y-70314D01*
X69271Y-70285D01*
X69271Y-70342D01*
X69271Y-69971D02*
X69300Y-70000D01*
X69271Y-70028D01*
X69242Y-70000D01*
X69271Y-69971D01*
X69271Y-70028D01*
X70357Y-70342D02*
X70157Y-70057D01*
X70014Y-70342D02*
X70014Y-69742D01*
X70242Y-69742D01*
X70300Y-69771D01*
X70328Y-69800D01*
X70357Y-69857D01*
X70357Y-69942D01*
X70328Y-70000D01*
X70300Y-70028D01*
X70242Y-70057D01*
X70014Y-70057D01*
X70614Y-70285D02*
X70642Y-70314D01*
X70614Y-70342D01*
X70585Y-70314D01*
X70614Y-70285D01*
X70614Y-70342D01*
X71700Y-70342D02*
X71500Y-70057D01*
X71357Y-70342D02*
X71357Y-69742D01*
X71585Y-69742D01*
X71642Y-69771D01*
X71671Y-69800D01*
X71700Y-69857D01*
X71700Y-69942D01*
X71671Y-70000D01*
X71642Y-70028D01*
X71585Y-70057D01*
X71357Y-70057D01*
X71957Y-70342D02*
X71957Y-69942D01*
X71957Y-69742D02*
X71928Y-69771D01*
X71957Y-69800D01*
X71985Y-69771D01*
X71957Y-69742D01*
X71957Y-69800D01*
X72214Y-70314D02*
X72271Y-70342D01*
X72385Y-70342D01*
X72442Y-70314D01*
X72471Y-70257D01*
X72471Y-70228D01*
X72442Y-70171D01*
X72385Y-70142D01*
X72300Y-70142D01*
X72242Y-70114D01*
X72214Y-70057D01*
X72214Y-70028D01*
X72242Y-69971D01*
X72300Y-69942D01*
X72385Y-69942D01*
X72442Y-69971D01*
X72642Y-69942D02*
X72871Y-69942D01*
X72728Y-69742D02*
X72728Y-70257D01*
X72757Y-70314D01*
X72814Y-70342D01*
X72871Y-70342D01*
X73071Y-70342D02*
X73071Y-69942D01*
X73071Y-69742D02*
X73042Y-69771D01*
X73071Y-69800D01*
X73100Y-69771D01*
X73071Y-69742D01*
X73071Y-69800D01*
X73614Y-70314D02*
X73557Y-70342D01*
X73442Y-70342D01*
X73385Y-70314D01*
X73357Y-70285D01*
X73328Y-70228D01*
X73328Y-70057D01*
X73357Y-70000D01*
X73385Y-69971D01*
X73442Y-69942D01*
X73557Y-69942D01*
X73614Y-69971D01*
X73871Y-70342D02*
X73871Y-69742D01*
X74128Y-70342D02*
X74128Y-70028D01*
X74100Y-69971D01*
X74042Y-69942D01*
X73957Y-69942D01*
X73900Y-69971D01*
X73871Y-70000D01*
X64328Y-69142D02*
X64042Y-69142D01*
X64042Y-68542D01*
X64528Y-69142D02*
X64528Y-68542D01*
X65157Y-69085D02*
X65128Y-69114D01*
X65042Y-69142D01*
X64985Y-69142D01*
X64899Y-69114D01*
X64842Y-69057D01*
X64814Y-69000D01*
X64785Y-68885D01*
X64785Y-68800D01*
X64814Y-68685D01*
X64842Y-68628D01*
X64899Y-68571D01*
X64985Y-68542D01*
X65042Y-68542D01*
X65128Y-68571D01*
X65157Y-68600D01*
X65414Y-68828D02*
X65614Y-68828D01*
X65699Y-69142D02*
X65414Y-69142D01*
X65414Y-68542D01*
X65699Y-68542D01*
X65957Y-69142D02*
X65957Y-68542D01*
X66299Y-69142D01*
X66299Y-68542D01*
X66557Y-69114D02*
X66642Y-69142D01*
X66785Y-69142D01*
X66842Y-69114D01*
X66871Y-69085D01*
X66899Y-69028D01*
X66899Y-68971D01*
X66871Y-68914D01*
X66842Y-68885D01*
X66785Y-68857D01*
X66671Y-68828D01*
X66614Y-68800D01*
X66585Y-68771D01*
X66557Y-68714D01*
X66557Y-68657D01*
X66585Y-68600D01*
X66614Y-68571D01*
X66671Y-68542D01*
X66814Y-68542D01*
X66899Y-68571D01*
X67157Y-68828D02*
X67357Y-68828D01*
X67442Y-69142D02*
X67157Y-69142D01*
X67157Y-68542D01*
X67442Y-68542D01*
X67699Y-69085D02*
X67728Y-69114D01*
X67699Y-69142D01*
X67671Y-69114D01*
X67699Y-69085D01*
X67699Y-69142D01*
X67699Y-68771D02*
X67728Y-68800D01*
X67699Y-68828D01*
X67671Y-68800D01*
X67699Y-68771D01*
X67699Y-68828D01*
X68785Y-69085D02*
X68757Y-69114D01*
X68671Y-69142D01*
X68614Y-69142D01*
X68528Y-69114D01*
X68471Y-69057D01*
X68442Y-69000D01*
X68414Y-68885D01*
X68414Y-68800D01*
X68442Y-68685D01*
X68471Y-68628D01*
X68528Y-68571D01*
X68614Y-68542D01*
X68671Y-68542D01*
X68757Y-68571D01*
X68785Y-68600D01*
X69385Y-69085D02*
X69357Y-69114D01*
X69271Y-69142D01*
X69214Y-69142D01*
X69128Y-69114D01*
X69071Y-69057D01*
X69042Y-69000D01*
X69014Y-68885D01*
X69014Y-68800D01*
X69042Y-68685D01*
X69071Y-68628D01*
X69128Y-68571D01*
X69214Y-68542D01*
X69271Y-68542D01*
X69357Y-68571D01*
X69385Y-68600D01*
X69642Y-68914D02*
X70099Y-68914D01*
X70585Y-68828D02*
X70671Y-68857D01*
X70699Y-68885D01*
X70728Y-68942D01*
X70728Y-69028D01*
X70699Y-69085D01*
X70671Y-69114D01*
X70614Y-69142D01*
X70385Y-69142D01*
X70385Y-68542D01*
X70585Y-68542D01*
X70642Y-68571D01*
X70671Y-68600D01*
X70699Y-68657D01*
X70699Y-68714D01*
X70671Y-68771D01*
X70642Y-68800D01*
X70585Y-68828D01*
X70385Y-68828D01*
X71099Y-68857D02*
X71099Y-69142D01*
X70899Y-68542D02*
X71099Y-68857D01*
X71299Y-68542D01*
X71499Y-68914D02*
X71957Y-68914D01*
X72214Y-69114D02*
X72299Y-69142D01*
X72442Y-69142D01*
X72499Y-69114D01*
X72528Y-69085D01*
X72557Y-69028D01*
X72557Y-68971D01*
X72528Y-68914D01*
X72499Y-68885D01*
X72442Y-68857D01*
X72328Y-68828D01*
X72271Y-68800D01*
X72242Y-68771D01*
X72214Y-68714D01*
X72214Y-68657D01*
X72242Y-68600D01*
X72271Y-68571D01*
X72328Y-68542D01*
X72471Y-68542D01*
X72557Y-68571D01*
X72785Y-68971D02*
X73071Y-68971D01*
X72728Y-69142D02*
X72928Y-68542D01*
X73128Y-69142D01*
X73328Y-68914D02*
X73785Y-68914D01*
X74014Y-68542D02*
X74385Y-68542D01*
X74185Y-68771D01*
X74271Y-68771D01*
X74328Y-68800D01*
X74357Y-68828D01*
X74385Y-68885D01*
X74385Y-69028D01*
X74357Y-69085D01*
X74328Y-69114D01*
X74271Y-69142D01*
X74100Y-69142D01*
X74042Y-69114D01*
X74014Y-69085D01*
X74642Y-69085D02*
X74671Y-69114D01*
X74642Y-69142D01*
X74614Y-69114D01*
X74642Y-69085D01*
X74642Y-69142D01*
X75042Y-68542D02*
X75100Y-68542D01*
X75157Y-68571D01*
X75185Y-68600D01*
X75214Y-68657D01*
X75242Y-68771D01*
X75242Y-68914D01*
X75214Y-69028D01*
X75185Y-69085D01*
X75157Y-69114D01*
X75100Y-69142D01*
X75042Y-69142D01*
X74985Y-69114D01*
X74957Y-69085D01*
X74928Y-69028D01*
X74900Y-68914D01*
X74900Y-68771D01*
X74928Y-68657D01*
X74957Y-68600D01*
X74985Y-68571D01*
X75042Y-68542D01*
X63300Y-68300D02*
X63300Y-80300D01*
X63300Y-74300D02*
X105300Y-74300D01*
X63300Y-68300D02*
X105300Y-68300D01*
X63300Y-76700D02*
X105300Y-76700D01*
X96500Y-77900D02*
X96500Y-80300D01*
X63300Y-79100D02*
X105300Y-79100D01*
X63300Y-77900D02*
X105300Y-77900D01*
X69900Y-77900D02*
X69900Y-79100D01*
G54D11*
X47356Y-22766D02*
X47260Y-22800D01*
X47231Y-22833D01*
X47206Y-22900D01*
X47218Y-23000D01*
X47260Y-23066D01*
X47297Y-23100D01*
X47368Y-23133D01*
X47635Y-23133D01*
X47547Y-22433D01*
X47314Y-22433D01*
X47252Y-22466D01*
X47222Y-22500D01*
X47197Y-22566D01*
X47206Y-22633D01*
X47247Y-22700D01*
X47285Y-22733D01*
X47356Y-22766D01*
X47589Y-22766D01*
X46714Y-22433D02*
X46581Y-22433D01*
X46518Y-22466D01*
X46460Y-22533D01*
X46443Y-22666D01*
X46472Y-22900D01*
X46522Y-23033D01*
X46597Y-23100D01*
X46668Y-23133D01*
X46802Y-23133D01*
X46864Y-23100D01*
X46922Y-23033D01*
X46939Y-22900D01*
X46910Y-22666D01*
X46860Y-22533D01*
X46785Y-22466D01*
X46714Y-22433D01*
X45981Y-22433D02*
X45847Y-22433D01*
X45785Y-22466D01*
X45727Y-22533D01*
X45710Y-22666D01*
X45739Y-22900D01*
X45789Y-23033D01*
X45864Y-23100D01*
X45935Y-23133D01*
X46068Y-23133D01*
X46131Y-23100D01*
X46189Y-23033D01*
X46206Y-22900D01*
X46177Y-22666D01*
X46127Y-22533D01*
X46052Y-22466D01*
X45981Y-22433D01*
X45481Y-22433D02*
X45081Y-22433D01*
X45368Y-23133D02*
X45281Y-22433D01*
X45110Y-23200D02*
X44577Y-23200D01*
X44314Y-22433D02*
X44385Y-23000D01*
X44360Y-23066D01*
X44331Y-23100D01*
X44268Y-23133D01*
X44135Y-23133D01*
X44064Y-23100D01*
X44027Y-23066D01*
X43985Y-23000D01*
X43914Y-22433D01*
X43697Y-23100D02*
X43602Y-23133D01*
X43435Y-23133D01*
X43364Y-23100D01*
X43327Y-23066D01*
X43285Y-23000D01*
X43277Y-22933D01*
X43302Y-22866D01*
X43331Y-22833D01*
X43393Y-22800D01*
X43522Y-22766D01*
X43585Y-22733D01*
X43614Y-22700D01*
X43639Y-22633D01*
X43631Y-22566D01*
X43589Y-22500D01*
X43552Y-22466D01*
X43481Y-22433D01*
X43314Y-22433D01*
X43218Y-22466D01*
X42722Y-22766D02*
X42627Y-22800D01*
X42597Y-22833D01*
X42572Y-22900D01*
X42585Y-23000D01*
X42627Y-23066D01*
X42664Y-23100D01*
X42735Y-23133D01*
X43002Y-23133D01*
X42914Y-22433D01*
X42681Y-22433D01*
X42618Y-22466D01*
X42589Y-22500D01*
X42564Y-22566D01*
X42572Y-22633D01*
X42614Y-22700D01*
X42652Y-22733D01*
X42722Y-22766D01*
X42956Y-22766D01*
G54D12*
X41650Y-23428D02*
X41450Y-23428D01*
X41364Y-23742D02*
X41650Y-23742D01*
X41650Y-23142D01*
X41364Y-23142D01*
X41164Y-23142D02*
X40764Y-23742D01*
X40764Y-23142D02*
X41164Y-23742D01*
X40621Y-23142D02*
X40278Y-23142D01*
X40450Y-23742D02*
X40450Y-23142D01*
X40221Y-23800D02*
X39764Y-23800D01*
X39621Y-23742D02*
X39621Y-23142D01*
X39392Y-23142D01*
X39335Y-23171D01*
X39307Y-23200D01*
X39278Y-23257D01*
X39278Y-23342D01*
X39307Y-23400D01*
X39335Y-23428D01*
X39392Y-23457D01*
X39621Y-23457D01*
X38907Y-23142D02*
X38792Y-23142D01*
X38735Y-23171D01*
X38678Y-23228D01*
X38649Y-23342D01*
X38649Y-23542D01*
X38678Y-23657D01*
X38735Y-23714D01*
X38792Y-23742D01*
X38907Y-23742D01*
X38964Y-23714D01*
X39021Y-23657D01*
X39049Y-23542D01*
X39049Y-23342D01*
X39021Y-23228D01*
X38964Y-23171D01*
X38907Y-23142D01*
X38450Y-23142D02*
X38307Y-23742D01*
X38192Y-23314D01*
X38078Y-23742D01*
X37935Y-23142D01*
X37707Y-23428D02*
X37507Y-23428D01*
X37421Y-23742D02*
X37707Y-23742D01*
X37707Y-23142D01*
X37421Y-23142D01*
X36821Y-23742D02*
X37021Y-23457D01*
X37164Y-23742D02*
X37164Y-23142D01*
X36935Y-23142D01*
X36878Y-23171D01*
X36850Y-23200D01*
X36821Y-23257D01*
X36821Y-23342D01*
X36850Y-23400D01*
X36878Y-23428D01*
X36935Y-23457D01*
X37164Y-23457D01*
X43750Y-30250D02*
X37500Y-30250D01*
X43750Y-33500D02*
X43750Y-30250D01*
X37500Y-33500D02*
X43750Y-33500D01*
X37500Y-30250D02*
X37500Y-33500D01*
X40271Y-33264D02*
X40728Y-33264D01*
X40271Y-32014D02*
X40728Y-32014D01*
X40500Y-32242D02*
X40500Y-31785D01*
G54D13*
X38750Y-32900D02*
X38950Y-32900D01*
X42050Y-32900D02*
X42250Y-32900D01*
G54D14*
X38000Y-33000D02*
X43250Y-33000D01*
X42000Y-32500D02*
X42000Y-33000D01*
X39000Y-32500D02*
X39000Y-33000D01*
X39000Y-32500D02*
X42000Y-32500D01*
X42500Y-30550D02*
X43250Y-32050D01*
X41750Y-32050D02*
X42500Y-30550D01*
X43250Y-32050D02*
X41750Y-32050D01*
G54D11*
X42500Y-31735D02*
X42528Y-31764D01*
X42500Y-31792D01*
X42471Y-31764D01*
X42500Y-31735D01*
X42500Y-31792D01*
X42500Y-31564D02*
X42471Y-31221D01*
X42500Y-31192D01*
X42528Y-31221D01*
X42500Y-31564D01*
X42500Y-31192D01*
G54D15*
X66250Y-38500D02*
X66750Y-39000D01*
X48000Y-38500D02*
X47500Y-39000D01*
X48000Y-38500D02*
X66250Y-38500D01*
G54D12*
X47671Y-33542D02*
X47871Y-33257D01*
X48014Y-33542D02*
X48014Y-32942D01*
X47785Y-32942D01*
X47728Y-32971D01*
X47700Y-33000D01*
X47671Y-33057D01*
X47671Y-33142D01*
X47700Y-33200D01*
X47728Y-33228D01*
X47785Y-33257D01*
X48014Y-33257D01*
X47414Y-33228D02*
X47214Y-33228D01*
X47128Y-33542D02*
X47414Y-33542D01*
X47414Y-32942D01*
X47128Y-32942D01*
X46900Y-33514D02*
X46814Y-33542D01*
X46671Y-33542D01*
X46614Y-33514D01*
X46585Y-33485D01*
X46557Y-33428D01*
X46557Y-33371D01*
X46585Y-33314D01*
X46614Y-33285D01*
X46671Y-33257D01*
X46785Y-33228D01*
X46842Y-33200D01*
X46871Y-33171D01*
X46900Y-33114D01*
X46900Y-33057D01*
X46871Y-33000D01*
X46842Y-32971D01*
X46785Y-32942D01*
X46642Y-32942D01*
X46557Y-32971D01*
X46300Y-33228D02*
X46100Y-33228D01*
X46014Y-33542D02*
X46300Y-33542D01*
X46300Y-32942D01*
X46014Y-32942D01*
X45842Y-32942D02*
X45500Y-32942D01*
X45671Y-33542D02*
X45671Y-32942D01*
G54D14*
X65662Y-26962D02*
X67662Y-26962D01*
X66612Y-27212D02*
X66612Y-26712D01*
X66612Y-26712D02*
X65612Y-26962D01*
X65612Y-26962D02*
X66612Y-27212D01*
X66537Y-27062D02*
X66162Y-27062D01*
X66612Y-26862D02*
X66112Y-26862D01*
X77512Y-27112D02*
X78012Y-27112D01*
X77587Y-26912D02*
X77962Y-26912D01*
X78512Y-27012D02*
X77512Y-26762D01*
X77512Y-27262D02*
X78512Y-27012D01*
X77512Y-26762D02*
X77512Y-27262D01*
X78462Y-27012D02*
X76462Y-27012D01*
X72012Y-20287D02*
X72012Y-22287D01*
X71762Y-21237D02*
X72262Y-21237D01*
X72262Y-21237D02*
X72012Y-20237D01*
X72012Y-20237D02*
X71762Y-21237D01*
X71912Y-21162D02*
X71912Y-20787D01*
X72112Y-21237D02*
X72112Y-20737D01*
X71997Y-33537D02*
X71997Y-31537D01*
X72247Y-32587D02*
X71747Y-32587D01*
X71747Y-32587D02*
X71997Y-33587D01*
X71997Y-33587D02*
X72247Y-32587D01*
X72097Y-32662D02*
X72097Y-33037D01*
X71897Y-32587D02*
X71897Y-33087D01*
G54D13*
X39788Y-29619D02*
X39311Y-29619D01*
X39883Y-29904D02*
X39550Y-28904D01*
X39216Y-29904D01*
X45428Y-29380D02*
X45285Y-29428D01*
X45238Y-29476D01*
X45190Y-29571D01*
X45190Y-29714D01*
X45238Y-29809D01*
X45285Y-29857D01*
X45380Y-29904D01*
X45761Y-29904D01*
X45761Y-28904D01*
X45428Y-28904D01*
X45333Y-28952D01*
X45285Y-29000D01*
X45238Y-29095D01*
X45238Y-29190D01*
X45285Y-29285D01*
X45333Y-29333D01*
X45428Y-29380D01*
X45761Y-29380D01*
G54D15*
X79250Y-46250D02*
X78000Y-47500D01*
X66750Y-46250D02*
X66750Y-39000D01*
X68000Y-47500D02*
X66750Y-46250D01*
X78000Y-47500D02*
X68000Y-47500D01*
X79250Y-16750D02*
X79250Y-46250D01*
X36250Y-47500D02*
X35000Y-46250D01*
X47500Y-46250D02*
X47500Y-39000D01*
X46250Y-47500D02*
X47500Y-46250D01*
X36250Y-47500D02*
X46250Y-47500D01*
X35000Y-16750D02*
X35000Y-46250D01*
G54D11*
X40750Y-31078D02*
X40664Y-31107D01*
X40635Y-31135D01*
X40607Y-31192D01*
X40607Y-31278D01*
X40635Y-31335D01*
X40664Y-31364D01*
X40721Y-31392D01*
X40950Y-31392D01*
X40950Y-30792D01*
X40750Y-30792D01*
X40692Y-30821D01*
X40664Y-30850D01*
X40635Y-30907D01*
X40635Y-30964D01*
X40664Y-31021D01*
X40692Y-31050D01*
X40750Y-31078D01*
X40950Y-31078D01*
X40035Y-31392D02*
X40378Y-31392D01*
X40207Y-31392D02*
X40207Y-30792D01*
X40264Y-30878D01*
X40321Y-30935D01*
X40378Y-30964D01*
X39749Y-31364D02*
X39749Y-31392D01*
X39778Y-31450D01*
X39807Y-31478D01*
X38835Y-31078D02*
X38750Y-31107D01*
X38721Y-31135D01*
X38692Y-31192D01*
X38692Y-31278D01*
X38721Y-31335D01*
X38750Y-31364D01*
X38807Y-31392D01*
X39035Y-31392D01*
X39035Y-30792D01*
X38835Y-30792D01*
X38778Y-30821D01*
X38750Y-30850D01*
X38721Y-30907D01*
X38721Y-30964D01*
X38750Y-31021D01*
X38778Y-31050D01*
X38835Y-31078D01*
X39035Y-31078D01*
X38464Y-30850D02*
X38435Y-30821D01*
X38378Y-30792D01*
X38235Y-30792D01*
X38178Y-30821D01*
X38150Y-30850D01*
X38121Y-30907D01*
X38121Y-30964D01*
X38150Y-31050D01*
X38492Y-31392D01*
X38121Y-31392D01*
G54D12*
X50133Y-37338D02*
X50133Y-37738D01*
X50285Y-37738D01*
X50323Y-37719D01*
X50342Y-37700D01*
X50361Y-37661D01*
X50361Y-37604D01*
X50342Y-37566D01*
X50323Y-37547D01*
X50285Y-37528D01*
X50133Y-37528D01*
X50590Y-37338D02*
X50552Y-37357D01*
X50533Y-37376D01*
X50514Y-37414D01*
X50514Y-37528D01*
X50533Y-37566D01*
X50552Y-37585D01*
X50590Y-37604D01*
X50647Y-37604D01*
X50685Y-37585D01*
X50704Y-37566D01*
X50723Y-37528D01*
X50723Y-37414D01*
X50704Y-37376D01*
X50685Y-37357D01*
X50647Y-37338D01*
X50590Y-37338D01*
X50857Y-37604D02*
X50933Y-37338D01*
X51009Y-37528D01*
X51085Y-37338D01*
X51161Y-37604D01*
X51466Y-37357D02*
X51428Y-37338D01*
X51352Y-37338D01*
X51314Y-37357D01*
X51295Y-37395D01*
X51295Y-37547D01*
X51314Y-37585D01*
X51352Y-37604D01*
X51428Y-37604D01*
X51466Y-37585D01*
X51485Y-37547D01*
X51485Y-37509D01*
X51295Y-37471D01*
X51657Y-37338D02*
X51657Y-37604D01*
X51657Y-37528D02*
X51676Y-37566D01*
X51695Y-37585D01*
X51733Y-37604D01*
X51771Y-37604D01*
X52057Y-37357D02*
X52019Y-37338D01*
X51942Y-37338D01*
X51904Y-37357D01*
X51885Y-37395D01*
X51885Y-37547D01*
X51904Y-37585D01*
X51942Y-37604D01*
X52019Y-37604D01*
X52057Y-37585D01*
X52076Y-37547D01*
X52076Y-37509D01*
X51885Y-37471D01*
X52419Y-37338D02*
X52419Y-37738D01*
X52419Y-37357D02*
X52380Y-37338D01*
X52304Y-37338D01*
X52266Y-37357D01*
X52247Y-37376D01*
X52228Y-37414D01*
X52228Y-37528D01*
X52247Y-37566D01*
X52266Y-37585D01*
X52304Y-37604D01*
X52380Y-37604D01*
X52419Y-37585D01*
X52914Y-37338D02*
X52914Y-37738D01*
X52914Y-37585D02*
X52952Y-37604D01*
X53028Y-37604D01*
X53066Y-37585D01*
X53085Y-37566D01*
X53104Y-37528D01*
X53104Y-37414D01*
X53085Y-37376D01*
X53066Y-37357D01*
X53028Y-37338D01*
X52952Y-37338D01*
X52914Y-37357D01*
X53238Y-37604D02*
X53333Y-37338D01*
X53428Y-37604D02*
X53333Y-37338D01*
X53295Y-37242D01*
X53276Y-37223D01*
X53238Y-37204D01*
X53885Y-37338D02*
X53885Y-37738D01*
X54114Y-37338D02*
X53942Y-37566D01*
X54114Y-37738D02*
X53885Y-37509D01*
X54285Y-37338D02*
X54285Y-37604D01*
X54285Y-37738D02*
X54266Y-37719D01*
X54285Y-37700D01*
X54304Y-37719D01*
X54285Y-37738D01*
X54285Y-37700D01*
X54704Y-37376D02*
X54685Y-37357D01*
X54628Y-37338D01*
X54590Y-37338D01*
X54533Y-37357D01*
X54495Y-37395D01*
X54476Y-37433D01*
X54457Y-37509D01*
X54457Y-37566D01*
X54476Y-37642D01*
X54495Y-37680D01*
X54533Y-37719D01*
X54590Y-37738D01*
X54628Y-37738D01*
X54685Y-37719D01*
X54704Y-37700D01*
X55047Y-37338D02*
X55047Y-37547D01*
X55028Y-37585D01*
X54990Y-37604D01*
X54914Y-37604D01*
X54876Y-37585D01*
X55047Y-37357D02*
X55009Y-37338D01*
X54914Y-37338D01*
X54876Y-37357D01*
X54857Y-37395D01*
X54857Y-37433D01*
X54876Y-37471D01*
X54914Y-37490D01*
X55009Y-37490D01*
X55047Y-37509D01*
X55409Y-37338D02*
X55409Y-37738D01*
X55409Y-37357D02*
X55371Y-37338D01*
X55295Y-37338D01*
X55257Y-37357D01*
X55238Y-37376D01*
X55219Y-37414D01*
X55219Y-37528D01*
X55238Y-37566D01*
X55257Y-37585D01*
X55295Y-37604D01*
X55371Y-37604D01*
X55409Y-37585D01*
X55904Y-37547D02*
X56038Y-37547D01*
X56095Y-37338D02*
X55904Y-37338D01*
X55904Y-37738D01*
X56095Y-37738D01*
X56266Y-37338D02*
X56266Y-37738D01*
X56361Y-37738D01*
X56419Y-37719D01*
X56457Y-37680D01*
X56476Y-37642D01*
X56495Y-37566D01*
X56495Y-37509D01*
X56476Y-37433D01*
X56457Y-37395D01*
X56419Y-37357D01*
X56361Y-37338D01*
X56266Y-37338D01*
X56647Y-37452D02*
X56838Y-37452D01*
X56609Y-37338D02*
X56742Y-37738D01*
X56876Y-37338D01*
X57619Y-37604D02*
X57314Y-37490D01*
X57619Y-37376D01*
X57771Y-37604D02*
X57847Y-37338D01*
X57923Y-37528D01*
X57999Y-37338D01*
X58076Y-37604D01*
X58190Y-37604D02*
X58266Y-37338D01*
X58342Y-37528D01*
X58419Y-37338D01*
X58495Y-37604D01*
X58609Y-37604D02*
X58685Y-37338D01*
X58761Y-37528D01*
X58838Y-37338D01*
X58914Y-37604D01*
X59066Y-37376D02*
X59085Y-37357D01*
X59066Y-37338D01*
X59047Y-37357D01*
X59066Y-37376D01*
X59066Y-37338D01*
X59257Y-37338D02*
X59257Y-37738D01*
X59295Y-37490D02*
X59409Y-37338D01*
X59409Y-37604D02*
X59257Y-37452D01*
X59580Y-37338D02*
X59580Y-37604D01*
X59580Y-37738D02*
X59561Y-37719D01*
X59580Y-37700D01*
X59600Y-37719D01*
X59580Y-37738D01*
X59580Y-37700D01*
X59942Y-37357D02*
X59904Y-37338D01*
X59828Y-37338D01*
X59790Y-37357D01*
X59771Y-37376D01*
X59752Y-37414D01*
X59752Y-37528D01*
X59771Y-37566D01*
X59790Y-37585D01*
X59828Y-37604D01*
X59904Y-37604D01*
X59942Y-37585D01*
X60285Y-37338D02*
X60285Y-37547D01*
X60266Y-37585D01*
X60228Y-37604D01*
X60152Y-37604D01*
X60114Y-37585D01*
X60285Y-37357D02*
X60247Y-37338D01*
X60152Y-37338D01*
X60114Y-37357D01*
X60095Y-37395D01*
X60095Y-37433D01*
X60114Y-37471D01*
X60152Y-37490D01*
X60247Y-37490D01*
X60285Y-37509D01*
X60647Y-37338D02*
X60647Y-37738D01*
X60647Y-37357D02*
X60609Y-37338D01*
X60533Y-37338D01*
X60495Y-37357D01*
X60476Y-37376D01*
X60457Y-37414D01*
X60457Y-37528D01*
X60476Y-37566D01*
X60495Y-37585D01*
X60533Y-37604D01*
X60609Y-37604D01*
X60647Y-37585D01*
X60838Y-37490D02*
X61142Y-37490D01*
X61333Y-37604D02*
X61333Y-37204D01*
X61333Y-37585D02*
X61371Y-37604D01*
X61447Y-37604D01*
X61485Y-37585D01*
X61504Y-37566D01*
X61523Y-37528D01*
X61523Y-37414D01*
X61504Y-37376D01*
X61485Y-37357D01*
X61447Y-37338D01*
X61371Y-37338D01*
X61333Y-37357D01*
X61866Y-37357D02*
X61828Y-37338D01*
X61752Y-37338D01*
X61714Y-37357D01*
X61695Y-37376D01*
X61676Y-37414D01*
X61676Y-37528D01*
X61695Y-37566D01*
X61714Y-37585D01*
X61752Y-37604D01*
X61828Y-37604D01*
X61866Y-37585D01*
X62038Y-37338D02*
X62038Y-37738D01*
X62038Y-37585D02*
X62076Y-37604D01*
X62152Y-37604D01*
X62190Y-37585D01*
X62209Y-37566D01*
X62228Y-37528D01*
X62228Y-37414D01*
X62209Y-37376D01*
X62190Y-37357D01*
X62152Y-37338D01*
X62076Y-37338D01*
X62038Y-37357D01*
X62400Y-37376D02*
X62419Y-37357D01*
X62400Y-37338D01*
X62380Y-37357D01*
X62400Y-37376D01*
X62400Y-37338D01*
X62647Y-37338D02*
X62609Y-37357D01*
X62590Y-37376D01*
X62571Y-37414D01*
X62571Y-37528D01*
X62590Y-37566D01*
X62609Y-37585D01*
X62647Y-37604D01*
X62704Y-37604D01*
X62742Y-37585D01*
X62761Y-37566D01*
X62780Y-37528D01*
X62780Y-37414D01*
X62761Y-37376D01*
X62742Y-37357D01*
X62704Y-37338D01*
X62647Y-37338D01*
X62952Y-37338D02*
X62952Y-37604D01*
X62952Y-37528D02*
X62971Y-37566D01*
X62990Y-37585D01*
X63028Y-37604D01*
X63066Y-37604D01*
X63371Y-37604D02*
X63371Y-37280D01*
X63352Y-37242D01*
X63333Y-37223D01*
X63295Y-37204D01*
X63238Y-37204D01*
X63200Y-37223D01*
X63371Y-37357D02*
X63333Y-37338D01*
X63257Y-37338D01*
X63219Y-37357D01*
X63200Y-37376D01*
X63180Y-37414D01*
X63180Y-37528D01*
X63200Y-37566D01*
X63219Y-37585D01*
X63257Y-37604D01*
X63333Y-37604D01*
X63371Y-37585D01*
X63561Y-37604D02*
X63866Y-37490D01*
X63561Y-37376D01*
G54D15*
X34500Y-12750D02*
G75*
G03X34500Y-12750I-1000J0D01*
G74*
G01*
X32000Y-12750D02*
X35000Y-12750D01*
X33500Y-11250D02*
X33500Y-14250D01*
X81500Y-49000D02*
G75*
G03X81500Y-49000I-1000J0D01*
G74*
G01*
X79000Y-49000D02*
X82000Y-49000D01*
X80500Y-47500D02*
X80500Y-50500D01*
X79250Y-16750D02*
X79000Y-16500D01*
X35000Y-16750D02*
X35250Y-16500D01*
X79000Y-16500D02*
X35250Y-16500D01*
G54D16*
X49900Y-31150D02*
X64100Y-31150D01*
X64100Y-31150D02*
X64100Y-21350D01*
X64100Y-21350D02*
X49900Y-21350D01*
X49900Y-21350D02*
X49900Y-30950D01*
X49900Y-30950D02*
X49900Y-31150D01*
G54D17*
X50000Y-19500D02*
X49250Y-20250D01*
X49250Y-20250D02*
X49250Y-34500D01*
X49250Y-34500D02*
X50000Y-34500D01*
X64000Y-19500D02*
X64750Y-19500D01*
X64750Y-19500D02*
X64750Y-34500D01*
X64750Y-34500D02*
X64000Y-34500D01*
X52000Y-19500D02*
X62000Y-19500D01*
G54D16*
X57000Y-26750D02*
X57000Y-25750D01*
X56500Y-26250D02*
X57500Y-26250D01*
X72324Y-24000D02*
G75*
G03X72324Y-24000I-324J0D01*
G74*
G01*
X71685Y-22818D02*
X72314Y-22818D01*
X71685Y-25181D02*
X72314Y-25181D01*
X70818Y-24708D02*
X70818Y-23291D01*
X73181Y-24708D02*
X73181Y-23291D01*
X39824Y-27000D02*
G75*
G03X39824Y-27000I-324J0D01*
G74*
G01*
X39185Y-25818D02*
X39814Y-25818D01*
X39185Y-28181D02*
X39814Y-28181D01*
X38318Y-27708D02*
X38318Y-26291D01*
X40681Y-27708D02*
X40681Y-26291D01*
X48600Y-23050D02*
X49100Y-23050D01*
X49100Y-23050D02*
X49100Y-21800D01*
X49100Y-21750D02*
X48600Y-21750D01*
X48600Y-21500D02*
X48600Y-21750D01*
X48600Y-21750D02*
X48100Y-21750D01*
X48100Y-21750D02*
X48100Y-23050D01*
X48100Y-23050D02*
X48600Y-23050D01*
X48600Y-23050D02*
X48600Y-23300D01*
G54D17*
X36265Y-22183D02*
X35213Y-22183D01*
X35213Y-22183D02*
X35213Y-16671D01*
X35213Y-16671D02*
X39386Y-16671D01*
X39386Y-16671D02*
X39386Y-19900D01*
X39465Y-22065D02*
X39465Y-22183D01*
X39465Y-22183D02*
X38441Y-22183D01*
X35213Y-18181D02*
X39386Y-18181D01*
G54D16*
X40750Y-18200D02*
X40750Y-18800D01*
X40850Y-19200D02*
X40850Y-19800D01*
X40950Y-18900D02*
X40950Y-20100D01*
G54D14*
X42734Y-19500D02*
G75*
G03X42734Y-19500I-984J0D01*
G74*
G01*
G54D17*
X59250Y-32050D02*
X59250Y-32550D01*
X59250Y-31950D02*
X59450Y-32550D01*
X59450Y-32550D02*
X59100Y-32550D01*
G54D18*
X59100Y-32550D02*
X59050Y-32550D01*
G54D17*
X59050Y-32550D02*
X59250Y-31950D01*
G54D14*
X56750Y-31750D02*
X59750Y-31750D01*
X59750Y-29750D02*
X56750Y-29750D01*
X56750Y-29750D02*
X56750Y-31750D01*
X59750Y-31750D02*
X59750Y-29750D01*
X36149Y-36400D02*
G75*
G02X36149Y-40399I-1999J-1999D01*
G74*
G01*
X37650Y-42400D02*
X39150Y-42400D01*
X36150Y-35900D02*
X37650Y-34400D01*
X36150Y-36400D02*
X36150Y-35900D01*
X37650Y-34400D02*
X39150Y-34400D01*
X36150Y-40900D02*
X37650Y-42400D01*
X36150Y-40400D02*
X36150Y-40900D01*
X43150Y-42400D02*
X42150Y-42400D01*
X44650Y-35900D02*
X43150Y-34400D01*
X44650Y-40900D02*
X44650Y-35900D01*
X43150Y-42400D02*
X44650Y-40900D01*
X42150Y-34400D02*
X43150Y-34400D01*
X78350Y-40399D02*
G75*
G02X78350Y-36400I1999J1999D01*
G74*
G01*
X76850Y-34400D02*
X75350Y-34400D01*
X78350Y-40900D02*
X76850Y-42400D01*
X78350Y-40400D02*
X78350Y-40900D01*
X76850Y-42400D02*
X75350Y-42400D01*
X78350Y-35900D02*
X76850Y-34400D01*
X78350Y-36400D02*
X78350Y-35900D01*
X71350Y-34400D02*
X72350Y-34400D01*
X69850Y-40900D02*
X71350Y-42400D01*
X69850Y-35900D02*
X69850Y-40900D01*
X71350Y-34400D02*
X69850Y-35900D01*
X72350Y-42400D02*
X71350Y-42400D01*
G54D16*
X64700Y-29500D02*
X65300Y-29500D01*
X65700Y-29400D02*
X66300Y-29400D01*
X65400Y-29300D02*
X66600Y-29300D01*
G54D17*
X66984Y-28500D02*
G75*
G03X66984Y-28500I-984J0D01*
G74*
G01*
G54D16*
X45824Y-27000D02*
G75*
G03X45824Y-27000I-324J0D01*
G74*
G01*
X45185Y-25818D02*
X45814Y-25818D01*
X45185Y-28181D02*
X45814Y-28181D01*
X44318Y-27708D02*
X44318Y-26291D01*
X46681Y-27708D02*
X46681Y-26291D01*
X47074Y-35250D02*
G75*
G03X47074Y-35250I-324J0D01*
G74*
G01*
X47931Y-34935D02*
X47931Y-35564D01*
X45568Y-34935D02*
X45568Y-35564D01*
X46041Y-34068D02*
X47458Y-34068D01*
X46041Y-36431D02*
X47458Y-36431D01*
X72324Y-30000D02*
G75*
G03X72324Y-30000I-324J0D01*
G74*
G01*
X71685Y-28818D02*
X72314Y-28818D01*
X71685Y-31181D02*
X72314Y-31181D01*
X70818Y-30708D02*
X70818Y-29291D01*
X73181Y-30708D02*
X73181Y-29291D01*
X75324Y-27000D02*
G75*
G03X75324Y-27000I-324J0D01*
G74*
G01*
X74685Y-25818D02*
X75314Y-25818D01*
X74685Y-28181D02*
X75314Y-28181D01*
X73818Y-27708D02*
X73818Y-26291D01*
X76181Y-27708D02*
X76181Y-26291D01*
X69324Y-27000D02*
G75*
G03X69324Y-27000I-324J0D01*
G74*
G01*
X68685Y-25818D02*
X69314Y-25818D01*
X68685Y-28181D02*
X69314Y-28181D01*
X67818Y-27708D02*
X67818Y-26291D01*
X70181Y-27708D02*
X70181Y-26291D01*
G54D14*
X49221Y-25573D02*
X49221Y-24773D01*
X49030Y-24773D01*
X48916Y-24811D01*
X48840Y-24888D01*
X48802Y-24964D01*
X48764Y-25116D01*
X48764Y-25230D01*
X48802Y-25383D01*
X48840Y-25459D01*
X48916Y-25535D01*
X49030Y-25573D01*
X49221Y-25573D01*
X48459Y-25535D02*
X48345Y-25573D01*
X48154Y-25573D01*
X48078Y-25535D01*
X48040Y-25497D01*
X48002Y-25421D01*
X48002Y-25345D01*
X48040Y-25269D01*
X48078Y-25230D01*
X48154Y-25192D01*
X48307Y-25154D01*
X48383Y-25116D01*
X48421Y-25078D01*
X48459Y-25002D01*
X48459Y-24926D01*
X48421Y-24850D01*
X48383Y-24811D01*
X48307Y-24773D01*
X48116Y-24773D01*
X48002Y-24811D01*
X47240Y-25573D02*
X47697Y-25573D01*
X47469Y-25573D02*
X47469Y-24773D01*
X47545Y-24888D01*
X47621Y-24964D01*
X47697Y-25002D01*
G54D12*
X70380Y-22478D02*
X70309Y-22502D01*
X70190Y-22502D01*
X70142Y-22478D01*
X70119Y-22454D01*
X70095Y-22407D01*
X70095Y-22359D01*
X70119Y-22311D01*
X70142Y-22288D01*
X70190Y-22264D01*
X70285Y-22240D01*
X70333Y-22216D01*
X70357Y-22192D01*
X70380Y-22145D01*
X70380Y-22097D01*
X70357Y-22050D01*
X70333Y-22026D01*
X70285Y-22002D01*
X70166Y-22002D01*
X70095Y-22026D01*
X69666Y-22169D02*
X69666Y-22502D01*
X69785Y-21978D02*
X69904Y-22335D01*
X69595Y-22335D01*
G54D14*
X47135Y-21992D02*
X47335Y-21707D01*
X47478Y-21992D02*
X47478Y-21392D01*
X47250Y-21392D01*
X47192Y-21421D01*
X47164Y-21450D01*
X47135Y-21507D01*
X47135Y-21592D01*
X47164Y-21650D01*
X47192Y-21678D01*
X47250Y-21707D01*
X47478Y-21707D01*
X46564Y-21992D02*
X46907Y-21992D01*
X46735Y-21992D02*
X46735Y-21392D01*
X46792Y-21478D01*
X46850Y-21535D01*
X46907Y-21564D01*
X46050Y-21592D02*
X46050Y-21992D01*
X46192Y-21364D02*
X46335Y-21792D01*
X45964Y-21792D01*
X41333Y-21654D02*
X41333Y-22369D01*
X41380Y-22511D01*
X41476Y-22607D01*
X41619Y-22654D01*
X41714Y-22654D01*
X40380Y-21654D02*
X40857Y-21654D01*
X40904Y-22130D01*
X40857Y-22083D01*
X40761Y-22035D01*
X40523Y-22035D01*
X40428Y-22083D01*
X40380Y-22130D01*
X40333Y-22226D01*
X40333Y-22464D01*
X40380Y-22559D01*
X40428Y-22607D01*
X40523Y-22654D01*
X40761Y-22654D01*
X40857Y-22607D01*
X40904Y-22559D01*
G54D12*
X43583Y-19654D02*
X43607Y-19678D01*
X43678Y-19702D01*
X43726Y-19702D01*
X43797Y-19678D01*
X43845Y-19630D01*
X43869Y-19583D01*
X43892Y-19488D01*
X43892Y-19416D01*
X43869Y-19321D01*
X43845Y-19273D01*
X43797Y-19226D01*
X43726Y-19202D01*
X43678Y-19202D01*
X43607Y-19226D01*
X43583Y-19250D01*
X43107Y-19702D02*
X43392Y-19702D01*
X43250Y-19702D02*
X43250Y-19202D01*
X43297Y-19273D01*
X43345Y-19321D01*
X43392Y-19345D01*
G54D19*
X60495Y-29861D02*
X60495Y-29461D01*
X60342Y-29461D01*
X60304Y-29480D01*
X60285Y-29500D01*
X60266Y-29538D01*
X60266Y-29595D01*
X60285Y-29633D01*
X60304Y-29652D01*
X60342Y-29671D01*
X60495Y-29671D01*
X60114Y-29500D02*
X60095Y-29480D01*
X60057Y-29461D01*
X59961Y-29461D01*
X59923Y-29480D01*
X59904Y-29500D01*
X59885Y-29538D01*
X59885Y-29576D01*
X59904Y-29633D01*
X60133Y-29861D01*
X59885Y-29861D01*
G54D17*
X45554Y-43780D02*
X45411Y-43828D01*
X45364Y-43876D01*
X45316Y-43971D01*
X45316Y-44114D01*
X45364Y-44209D01*
X45411Y-44257D01*
X45507Y-44304D01*
X45888Y-44304D01*
X45888Y-43304D01*
X45554Y-43304D01*
X45459Y-43352D01*
X45411Y-43400D01*
X45364Y-43495D01*
X45364Y-43590D01*
X45411Y-43685D01*
X45459Y-43733D01*
X45554Y-43780D01*
X45888Y-43780D01*
X44935Y-43400D02*
X44888Y-43352D01*
X44792Y-43304D01*
X44554Y-43304D01*
X44459Y-43352D01*
X44411Y-43400D01*
X44364Y-43495D01*
X44364Y-43590D01*
X44411Y-43733D01*
X44983Y-44304D01*
X44364Y-44304D01*
X77754Y-43780D02*
X77611Y-43828D01*
X77564Y-43876D01*
X77516Y-43971D01*
X77516Y-44114D01*
X77564Y-44209D01*
X77611Y-44257D01*
X77707Y-44304D01*
X78088Y-44304D01*
X78088Y-43304D01*
X77754Y-43304D01*
X77659Y-43352D01*
X77611Y-43400D01*
X77564Y-43495D01*
X77564Y-43590D01*
X77611Y-43685D01*
X77659Y-43733D01*
X77754Y-43780D01*
X78088Y-43780D01*
X76564Y-44304D02*
X77135Y-44304D01*
X76850Y-44304D02*
X76850Y-43304D01*
X76945Y-43447D01*
X77040Y-43542D01*
X77135Y-43590D01*
G54D12*
X68021Y-29754D02*
X68045Y-29778D01*
X68116Y-29802D01*
X68164Y-29802D01*
X68235Y-29778D01*
X68283Y-29730D01*
X68307Y-29683D01*
X68330Y-29588D01*
X68330Y-29516D01*
X68307Y-29421D01*
X68283Y-29373D01*
X68235Y-29326D01*
X68164Y-29302D01*
X68116Y-29302D01*
X68045Y-29326D01*
X68021Y-29350D01*
X67545Y-29802D02*
X67830Y-29802D01*
X67688Y-29802D02*
X67688Y-29302D01*
X67735Y-29373D01*
X67783Y-29421D01*
X67830Y-29445D01*
X67235Y-29302D02*
X67188Y-29302D01*
X67140Y-29326D01*
X67116Y-29350D01*
X67092Y-29397D01*
X67069Y-29492D01*
X67069Y-29611D01*
X67092Y-29707D01*
X67116Y-29754D01*
X67140Y-29778D01*
X67188Y-29802D01*
X67235Y-29802D01*
X67283Y-29778D01*
X67307Y-29754D01*
X67330Y-29707D01*
X67354Y-29611D01*
X67354Y-29492D01*
X67330Y-29397D01*
X67307Y-29350D01*
X67283Y-29326D01*
X67235Y-29302D01*
X47180Y-37278D02*
X47109Y-37302D01*
X46990Y-37302D01*
X46942Y-37278D01*
X46919Y-37254D01*
X46895Y-37207D01*
X46895Y-37159D01*
X46919Y-37111D01*
X46942Y-37088D01*
X46990Y-37064D01*
X47085Y-37040D01*
X47133Y-37016D01*
X47157Y-36992D01*
X47180Y-36945D01*
X47180Y-36897D01*
X47157Y-36850D01*
X47133Y-36826D01*
X47085Y-36802D01*
X46966Y-36802D01*
X46895Y-36826D01*
X46728Y-36802D02*
X46419Y-36802D01*
X46585Y-36992D01*
X46514Y-36992D01*
X46466Y-37016D01*
X46442Y-37040D01*
X46419Y-37088D01*
X46419Y-37207D01*
X46442Y-37254D01*
X46466Y-37278D01*
X46514Y-37302D01*
X46657Y-37302D01*
X46704Y-37278D01*
X46728Y-37254D01*
X70580Y-29778D02*
X70509Y-29802D01*
X70390Y-29802D01*
X70342Y-29778D01*
X70319Y-29754D01*
X70295Y-29707D01*
X70295Y-29659D01*
X70319Y-29611D01*
X70342Y-29588D01*
X70390Y-29564D01*
X70485Y-29540D01*
X70533Y-29516D01*
X70557Y-29492D01*
X70580Y-29445D01*
X70580Y-29397D01*
X70557Y-29350D01*
X70533Y-29326D01*
X70485Y-29302D01*
X70366Y-29302D01*
X70295Y-29326D01*
X69866Y-29302D02*
X69961Y-29302D01*
X70009Y-29326D01*
X70033Y-29350D01*
X70080Y-29421D01*
X70104Y-29516D01*
X70104Y-29707D01*
X70080Y-29754D01*
X70057Y-29778D01*
X70009Y-29802D01*
X69914Y-29802D01*
X69866Y-29778D01*
X69842Y-29754D01*
X69819Y-29707D01*
X69819Y-29588D01*
X69842Y-29540D01*
X69866Y-29516D01*
X69914Y-29492D01*
X70009Y-29492D01*
X70057Y-29516D01*
X70080Y-29540D01*
X70104Y-29588D01*
X76980Y-25178D02*
X76909Y-25202D01*
X76790Y-25202D01*
X76742Y-25178D01*
X76719Y-25154D01*
X76695Y-25107D01*
X76695Y-25059D01*
X76719Y-25011D01*
X76742Y-24988D01*
X76790Y-24964D01*
X76885Y-24940D01*
X76933Y-24916D01*
X76957Y-24892D01*
X76980Y-24845D01*
X76980Y-24797D01*
X76957Y-24750D01*
X76933Y-24726D01*
X76885Y-24702D01*
X76766Y-24702D01*
X76695Y-24726D01*
X76528Y-24702D02*
X76195Y-24702D01*
X76409Y-25202D01*
X67680Y-25178D02*
X67609Y-25202D01*
X67490Y-25202D01*
X67442Y-25178D01*
X67419Y-25154D01*
X67395Y-25107D01*
X67395Y-25059D01*
X67419Y-25011D01*
X67442Y-24988D01*
X67490Y-24964D01*
X67585Y-24940D01*
X67633Y-24916D01*
X67657Y-24892D01*
X67680Y-24845D01*
X67680Y-24797D01*
X67657Y-24750D01*
X67633Y-24726D01*
X67585Y-24702D01*
X67466Y-24702D01*
X67395Y-24726D01*
X66942Y-24702D02*
X67180Y-24702D01*
X67204Y-24940D01*
X67180Y-24916D01*
X67133Y-24892D01*
X67014Y-24892D01*
X66966Y-24916D01*
X66942Y-24940D01*
X66919Y-24988D01*
X66919Y-25107D01*
X66942Y-25154D01*
X66966Y-25178D01*
X67014Y-25202D01*
X67133Y-25202D01*
X67180Y-25178D01*
X67204Y-25154D01*
G54D10*
G36*
X64475Y-31475D02*
X59825Y-31475D01*
X59825Y-29675D01*
X56675Y-29675D01*
X56675Y-31475D01*
X49525Y-31475D01*
X49525Y-21025D01*
X64475Y-21025D01*
X64475Y-31475D01*
X64475Y-31475D01*
G37*
G54D18*
X64475Y-31475D02*
X59825Y-31475D01*
X59825Y-29675D01*
X56675Y-29675D01*
X56675Y-31475D01*
X49525Y-31475D01*
X49525Y-21025D01*
X64475Y-21025D01*
X64475Y-31475D01*
M02*
