G04 (created by PCBNEW (2013-dec-23)-stable) date Wed 26 Feb 2014 13:08:31 CST*
%MOIN*%
G04 Gerber Fmt 3.4, Leading zero omitted, Abs format*
%FSLAX34Y34*%
G01*
G70*
G90*
G04 APERTURE LIST*
%ADD10C,0.005*%
%ADD11C,0.006*%
%ADD12C,0.00787402*%
%ADD13C,0.011811*%
G04 APERTURE END LIST*
G54D10*
G54D11*
X66250Y-38500D02*
X66750Y-39000D01*
X48000Y-38500D02*
X47500Y-39000D01*
X48000Y-38500D02*
X66250Y-38500D01*
X79250Y-46250D02*
X78000Y-47500D01*
X66750Y-46250D02*
X66750Y-39000D01*
X68000Y-47500D02*
X66750Y-46250D01*
X78000Y-47500D02*
X68000Y-47500D01*
X79250Y-16750D02*
X79250Y-46250D01*
X36250Y-47500D02*
X35000Y-46250D01*
X47500Y-46250D02*
X47500Y-39000D01*
X46250Y-47500D02*
X47500Y-46250D01*
X36250Y-47500D02*
X46250Y-47500D01*
X35000Y-16750D02*
X35000Y-46250D01*
X79250Y-16750D02*
X79000Y-16500D01*
X35000Y-16750D02*
X35250Y-16500D01*
X79000Y-16500D02*
X35250Y-16500D01*
G54D12*
X51600Y-32050D02*
X51800Y-32250D01*
X51800Y-32050D02*
X51600Y-32250D01*
X52200Y-21650D02*
X52400Y-21850D01*
X52400Y-21650D02*
X52200Y-21850D01*
X52250Y-28850D02*
X52450Y-29050D01*
X52450Y-28850D02*
X52250Y-29050D01*
X52850Y-35500D02*
X53050Y-35700D01*
X53050Y-35500D02*
X52850Y-35700D01*
X52950Y-23150D02*
X53150Y-23350D01*
X53150Y-23150D02*
X52950Y-23350D01*
X53050Y-25900D02*
X53250Y-26100D01*
X53250Y-25900D02*
X53050Y-26100D01*
X53150Y-21650D02*
X53350Y-21850D01*
X53350Y-21650D02*
X53150Y-21850D01*
X53300Y-33350D02*
X53500Y-33550D01*
X53500Y-33350D02*
X53300Y-33550D01*
X53900Y-35100D02*
X54100Y-35300D01*
X54100Y-35100D02*
X53900Y-35300D01*
X54200Y-19050D02*
X54400Y-19250D01*
X54400Y-19050D02*
X54200Y-19250D01*
X54900Y-35100D02*
X55100Y-35300D01*
X55100Y-35100D02*
X54900Y-35300D01*
X55250Y-22700D02*
X55450Y-22900D01*
X55450Y-22700D02*
X55250Y-22900D01*
X55650Y-19050D02*
X55850Y-19250D01*
X55850Y-19050D02*
X55650Y-19250D01*
X55900Y-21600D02*
X56100Y-21800D01*
X56100Y-21600D02*
X55900Y-21800D01*
X56000Y-23750D02*
X56200Y-23950D01*
X56200Y-23750D02*
X56000Y-23950D01*
X56350Y-22700D02*
X56550Y-22900D01*
X56550Y-22700D02*
X56350Y-22900D01*
X56550Y-32550D02*
X56750Y-32750D01*
X56750Y-32550D02*
X56550Y-32750D01*
X56950Y-28450D02*
X57150Y-28650D01*
X57150Y-28450D02*
X56950Y-28650D01*
X57050Y-23900D02*
X57250Y-24100D01*
X57250Y-23900D02*
X57050Y-24100D01*
X57250Y-35700D02*
X57450Y-35900D01*
X57450Y-35700D02*
X57250Y-35900D01*
X57400Y-35250D02*
X57600Y-35450D01*
X57600Y-35250D02*
X57400Y-35450D01*
X57550Y-28050D02*
X57750Y-28250D01*
X57750Y-28050D02*
X57550Y-28250D01*
X57800Y-20250D02*
X58000Y-20450D01*
X58000Y-20250D02*
X57800Y-20450D01*
X57800Y-24100D02*
X58000Y-24300D01*
X58000Y-24100D02*
X57800Y-24300D01*
X58000Y-22700D02*
X58200Y-22900D01*
X58200Y-22700D02*
X58000Y-22900D01*
X58100Y-24900D02*
X58300Y-25100D01*
X58300Y-24900D02*
X58100Y-25100D01*
X58350Y-20250D02*
X58550Y-20450D01*
X58550Y-20250D02*
X58350Y-20450D01*
X58700Y-29050D02*
X58900Y-29250D01*
X58900Y-29050D02*
X58700Y-29250D01*
X59050Y-18450D02*
X59250Y-18650D01*
X59250Y-18450D02*
X59050Y-18650D01*
X59100Y-22700D02*
X59300Y-22900D01*
X59300Y-22700D02*
X59100Y-22900D01*
X59400Y-18100D02*
X59600Y-18300D01*
X59600Y-18100D02*
X59400Y-18300D01*
X60050Y-31800D02*
X60250Y-32000D01*
X60250Y-31800D02*
X60050Y-32000D01*
X60200Y-24400D02*
X60400Y-24600D01*
X60400Y-24400D02*
X60200Y-24600D01*
X60550Y-31800D02*
X60750Y-32000D01*
X60750Y-31800D02*
X60550Y-32000D01*
X60600Y-27650D02*
X60800Y-27850D01*
X60800Y-27650D02*
X60600Y-27850D01*
X60650Y-19950D02*
X60850Y-20150D01*
X60850Y-19950D02*
X60650Y-20150D01*
X60900Y-24600D02*
X61100Y-24800D01*
X61100Y-24600D02*
X60900Y-24800D01*
X61050Y-18450D02*
X61250Y-18650D01*
X61250Y-18450D02*
X61050Y-18650D01*
X61200Y-30450D02*
X61400Y-30650D01*
X61400Y-30450D02*
X61200Y-30650D01*
X61200Y-30900D02*
X61400Y-31100D01*
X61400Y-30900D02*
X61200Y-31100D01*
X61200Y-31350D02*
X61400Y-31550D01*
X61400Y-31350D02*
X61200Y-31550D01*
X61200Y-31800D02*
X61400Y-32000D01*
X61400Y-31800D02*
X61200Y-32000D01*
X61350Y-24450D02*
X61550Y-24650D01*
X61550Y-24450D02*
X61350Y-24650D01*
X61400Y-18100D02*
X61600Y-18300D01*
X61600Y-18100D02*
X61400Y-18300D01*
X61400Y-27650D02*
X61600Y-27850D01*
X61600Y-27650D02*
X61400Y-27850D01*
X61500Y-22950D02*
X61700Y-23150D01*
X61700Y-22950D02*
X61500Y-23150D01*
X61800Y-18450D02*
X62000Y-18650D01*
X62000Y-18450D02*
X61800Y-18650D01*
X61800Y-19050D02*
X62000Y-19250D01*
X62000Y-19050D02*
X61800Y-19250D01*
X61800Y-23800D02*
X62000Y-24000D01*
X62000Y-23800D02*
X61800Y-24000D01*
X62250Y-29050D02*
X62450Y-29250D01*
X62450Y-29050D02*
X62250Y-29250D01*
X62250Y-29500D02*
X62450Y-29700D01*
X62450Y-29500D02*
X62250Y-29700D01*
X62600Y-23700D02*
X62800Y-23900D01*
X62800Y-23700D02*
X62600Y-23900D01*
X62600Y-26350D02*
X62800Y-26550D01*
X62800Y-26350D02*
X62600Y-26550D01*
X62600Y-27300D02*
X62800Y-27500D01*
X62800Y-27300D02*
X62600Y-27500D01*
X62600Y-27850D02*
X62800Y-28050D01*
X62800Y-27850D02*
X62600Y-28050D01*
X63150Y-23700D02*
X63350Y-23900D01*
X63350Y-23700D02*
X63150Y-23900D01*
X63150Y-24150D02*
X63350Y-24350D01*
X63350Y-24150D02*
X63150Y-24350D01*
X63150Y-24650D02*
X63350Y-24850D01*
X63350Y-24650D02*
X63150Y-24850D01*
X63450Y-29500D02*
X63650Y-29700D01*
X63650Y-29500D02*
X63450Y-29700D01*
X63800Y-23700D02*
X64000Y-23900D01*
X64000Y-23700D02*
X63800Y-23900D01*
X63950Y-29050D02*
X64150Y-29250D01*
X64150Y-29050D02*
X63950Y-29250D01*
X64300Y-25900D02*
X64500Y-26100D01*
X64500Y-25900D02*
X64300Y-26100D01*
X64300Y-26350D02*
X64500Y-26550D01*
X64500Y-26350D02*
X64300Y-26550D01*
X64300Y-26800D02*
X64500Y-27000D01*
X64500Y-26800D02*
X64300Y-27000D01*
X64300Y-32500D02*
X64500Y-32700D01*
X64500Y-32500D02*
X64300Y-32700D01*
X64500Y-34750D02*
X64700Y-34950D01*
X64700Y-34750D02*
X64500Y-34950D01*
X65100Y-34750D02*
X65300Y-34950D01*
X65300Y-34750D02*
X65100Y-34950D01*
X65850Y-34750D02*
X66050Y-34950D01*
X66050Y-34750D02*
X65850Y-34950D01*
X66500Y-32500D02*
X66700Y-32700D01*
X66700Y-32500D02*
X66500Y-32700D01*
X66650Y-34750D02*
X66850Y-34950D01*
X66850Y-34750D02*
X66650Y-34950D01*
X67320Y-21750D02*
X67520Y-21950D01*
X67520Y-21750D02*
X67320Y-21950D01*
X67450Y-19350D02*
X67650Y-19550D01*
X67650Y-19350D02*
X67450Y-19550D01*
X67500Y-30700D02*
X67700Y-30900D01*
X67700Y-30700D02*
X67500Y-30900D01*
X67500Y-31850D02*
X67700Y-32050D01*
X67700Y-31850D02*
X67500Y-32050D01*
X67500Y-32500D02*
X67700Y-32700D01*
X67700Y-32500D02*
X67500Y-32700D01*
X67600Y-20800D02*
X67800Y-21000D01*
X67800Y-20800D02*
X67600Y-21000D01*
X68050Y-20800D02*
X68250Y-21000D01*
X68250Y-20800D02*
X68050Y-21000D01*
X66442Y-18110D02*
G75*
G03X66442Y-18110I-110J0D01*
G74*
G01*
X66261Y-17913D02*
X66261Y-18307D01*
X66403Y-17913D02*
X66403Y-18307D01*
X66261Y-18307D02*
G75*
G03X66403Y-18307I70J0D01*
G74*
G01*
X66403Y-17913D02*
G75*
G03X66261Y-17913I-70J0D01*
G74*
G01*
X69277Y-18110D02*
G75*
G03X69277Y-18110I-110J0D01*
G74*
G01*
X69096Y-17913D02*
X69096Y-18307D01*
X69238Y-17913D02*
X69238Y-18307D01*
X69096Y-18307D02*
G75*
G03X69238Y-18307I70J0D01*
G74*
G01*
X69238Y-17913D02*
G75*
G03X69096Y-17913I-70J0D01*
G74*
G01*
X66450Y-17025D02*
X66450Y-17305D01*
X66311Y-17165D02*
X66590Y-17165D01*
X66350Y-16931D02*
X66350Y-17400D01*
X66551Y-16931D02*
X66551Y-17400D01*
X66350Y-17400D02*
G75*
G03X66551Y-17400I100J0D01*
G74*
G01*
X66551Y-16931D02*
G75*
G03X66350Y-16931I-100J0D01*
G74*
G01*
X69049Y-17025D02*
X69049Y-17305D01*
X68909Y-17165D02*
X69188Y-17165D01*
X68948Y-16931D02*
X68948Y-17400D01*
X69149Y-16931D02*
X69149Y-17400D01*
X68948Y-17400D02*
G75*
G03X69149Y-17400I100J0D01*
G74*
G01*
X69149Y-16931D02*
G75*
G03X68948Y-16931I-100J0D01*
G74*
G01*
X50606Y-19606D02*
X50606Y-19393D01*
X50393Y-19393D01*
X50393Y-19606D01*
X50606Y-19606D01*
X50606Y-34606D02*
X50606Y-34393D01*
X50393Y-34393D01*
X50393Y-34606D01*
X50606Y-34606D01*
X51606Y-19606D02*
X51606Y-19393D01*
X51393Y-19393D01*
X51393Y-19606D01*
X51606Y-19606D01*
X51606Y-34606D02*
X51606Y-34393D01*
X51393Y-34393D01*
X51393Y-34606D01*
X51606Y-34606D01*
X52606Y-34606D02*
X52606Y-34393D01*
X52393Y-34393D01*
X52393Y-34606D01*
X52606Y-34606D01*
X53606Y-34606D02*
X53606Y-34393D01*
X53393Y-34393D01*
X53393Y-34606D01*
X53606Y-34606D01*
X54606Y-34606D02*
X54606Y-34393D01*
X54393Y-34393D01*
X54393Y-34606D01*
X54606Y-34606D01*
X55606Y-34606D02*
X55606Y-34393D01*
X55393Y-34393D01*
X55393Y-34606D01*
X55606Y-34606D01*
X56606Y-34606D02*
X56606Y-34393D01*
X56393Y-34393D01*
X56393Y-34606D01*
X56606Y-34606D01*
X57606Y-34606D02*
X57606Y-34393D01*
X57393Y-34393D01*
X57393Y-34606D01*
X57606Y-34606D01*
X58606Y-34606D02*
X58606Y-34393D01*
X58393Y-34393D01*
X58393Y-34606D01*
X58606Y-34606D01*
X59606Y-34606D02*
X59606Y-34393D01*
X59393Y-34393D01*
X59393Y-34606D01*
X59606Y-34606D01*
X60606Y-34606D02*
X60606Y-34393D01*
X60393Y-34393D01*
X60393Y-34606D01*
X60606Y-34606D01*
X61606Y-34606D02*
X61606Y-34393D01*
X61393Y-34393D01*
X61393Y-34606D01*
X61606Y-34606D01*
X62606Y-19606D02*
X62606Y-19393D01*
X62393Y-19393D01*
X62393Y-19606D01*
X62606Y-19606D01*
X62606Y-34606D02*
X62606Y-34393D01*
X62393Y-34393D01*
X62393Y-34606D01*
X62606Y-34606D01*
X63606Y-19606D02*
X63606Y-19393D01*
X63393Y-19393D01*
X63393Y-19606D01*
X63606Y-19606D01*
X63606Y-34606D02*
X63606Y-34393D01*
X63393Y-34393D01*
X63393Y-34606D01*
X63606Y-34606D01*
X41356Y-19657D02*
X41513Y-19500D01*
X41356Y-19342D01*
X41198Y-19500D01*
X41356Y-19657D01*
X42144Y-19657D02*
X42301Y-19500D01*
X42144Y-19342D01*
X41986Y-19500D01*
X42144Y-19657D01*
X66000Y-28263D02*
X66157Y-28106D01*
X66000Y-27948D01*
X65842Y-28106D01*
X66000Y-28263D01*
X66000Y-29051D02*
X66157Y-28894D01*
X66000Y-28736D01*
X65842Y-28894D01*
X66000Y-29051D01*
X46240Y-17340D02*
X46560Y-17660D01*
X46560Y-17340D02*
X46240Y-17660D01*
X46560Y-17500D02*
G75*
G03X46560Y-17500I-160J0D01*
G74*
G01*
X47240Y-17340D02*
X47560Y-17660D01*
X47560Y-17340D02*
X47240Y-17660D01*
X47560Y-17500D02*
G75*
G03X47560Y-17500I-160J0D01*
G74*
G01*
X48240Y-17340D02*
X48560Y-17660D01*
X48560Y-17340D02*
X48240Y-17660D01*
X48560Y-17500D02*
G75*
G03X48560Y-17500I-160J0D01*
G74*
G01*
X48440Y-20740D02*
X48760Y-21060D01*
X48760Y-20740D02*
X48440Y-21060D01*
X48760Y-20900D02*
G75*
G03X48760Y-20900I-160J0D01*
G74*
G01*
X48440Y-23740D02*
X48760Y-24060D01*
X48760Y-23740D02*
X48440Y-24060D01*
X48760Y-23900D02*
G75*
G03X48760Y-23900I-160J0D01*
G74*
G01*
X49240Y-17340D02*
X49560Y-17660D01*
X49560Y-17340D02*
X49240Y-17660D01*
X49560Y-17500D02*
G75*
G03X49560Y-17500I-160J0D01*
G74*
G01*
X49840Y-36340D02*
X50160Y-36660D01*
X50160Y-36340D02*
X49840Y-36660D01*
X50160Y-36500D02*
G75*
G03X50160Y-36500I-160J0D01*
G74*
G01*
X50240Y-17340D02*
X50560Y-17660D01*
X50560Y-17340D02*
X50240Y-17660D01*
X50560Y-17500D02*
G75*
G03X50560Y-17500I-160J0D01*
G74*
G01*
X50840Y-36340D02*
X51160Y-36660D01*
X51160Y-36340D02*
X50840Y-36660D01*
X51160Y-36500D02*
G75*
G03X51160Y-36500I-160J0D01*
G74*
G01*
X51240Y-17340D02*
X51560Y-17660D01*
X51560Y-17340D02*
X51240Y-17660D01*
X51560Y-17500D02*
G75*
G03X51560Y-17500I-160J0D01*
G74*
G01*
X51840Y-36340D02*
X52160Y-36660D01*
X52160Y-36340D02*
X51840Y-36660D01*
X52160Y-36500D02*
G75*
G03X52160Y-36500I-160J0D01*
G74*
G01*
X52240Y-17340D02*
X52560Y-17660D01*
X52560Y-17340D02*
X52240Y-17660D01*
X52560Y-17500D02*
G75*
G03X52560Y-17500I-160J0D01*
G74*
G01*
X52840Y-36340D02*
X53160Y-36660D01*
X53160Y-36340D02*
X52840Y-36660D01*
X53160Y-36500D02*
G75*
G03X53160Y-36500I-160J0D01*
G74*
G01*
X53240Y-17340D02*
X53560Y-17660D01*
X53560Y-17340D02*
X53240Y-17660D01*
X53560Y-17500D02*
G75*
G03X53560Y-17500I-160J0D01*
G74*
G01*
X53840Y-36340D02*
X54160Y-36660D01*
X54160Y-36340D02*
X53840Y-36660D01*
X54160Y-36500D02*
G75*
G03X54160Y-36500I-160J0D01*
G74*
G01*
X54240Y-17340D02*
X54560Y-17660D01*
X54560Y-17340D02*
X54240Y-17660D01*
X54560Y-17500D02*
G75*
G03X54560Y-17500I-160J0D01*
G74*
G01*
X54840Y-36340D02*
X55160Y-36660D01*
X55160Y-36340D02*
X54840Y-36660D01*
X55160Y-36500D02*
G75*
G03X55160Y-36500I-160J0D01*
G74*
G01*
X55240Y-17340D02*
X55560Y-17660D01*
X55560Y-17340D02*
X55240Y-17660D01*
X55560Y-17500D02*
G75*
G03X55560Y-17500I-160J0D01*
G74*
G01*
X55840Y-36340D02*
X56160Y-36660D01*
X56160Y-36340D02*
X55840Y-36660D01*
X56160Y-36500D02*
G75*
G03X56160Y-36500I-160J0D01*
G74*
G01*
X56840Y-36340D02*
X57160Y-36660D01*
X57160Y-36340D02*
X56840Y-36660D01*
X57160Y-36500D02*
G75*
G03X57160Y-36500I-160J0D01*
G74*
G01*
X56825Y-17325D02*
X57175Y-17675D01*
X57175Y-17325D02*
X56825Y-17675D01*
X57000Y-17325D02*
X57000Y-17675D01*
X56825Y-17500D02*
X57175Y-17500D01*
X57825Y-17325D02*
X58175Y-17675D01*
X58175Y-17325D02*
X57825Y-17675D01*
X58000Y-17325D02*
X58000Y-17675D01*
X57825Y-17500D02*
X58175Y-17500D01*
X58825Y-17325D02*
X59175Y-17675D01*
X59175Y-17325D02*
X58825Y-17675D01*
X59000Y-17325D02*
X59000Y-17675D01*
X58825Y-17500D02*
X59175Y-17500D01*
X58825Y-36325D02*
X59175Y-36675D01*
X59175Y-36325D02*
X58825Y-36675D01*
X59000Y-36325D02*
X59000Y-36675D01*
X58825Y-36500D02*
X59175Y-36500D01*
X59825Y-17325D02*
X60175Y-17675D01*
X60175Y-17325D02*
X59825Y-17675D01*
X60000Y-17325D02*
X60000Y-17675D01*
X59825Y-17500D02*
X60175Y-17500D01*
X59825Y-36325D02*
X60175Y-36675D01*
X60175Y-36325D02*
X59825Y-36675D01*
X60000Y-36325D02*
X60000Y-36675D01*
X59825Y-36500D02*
X60175Y-36500D01*
X60825Y-17325D02*
X61175Y-17675D01*
X61175Y-17325D02*
X60825Y-17675D01*
X61000Y-17325D02*
X61000Y-17675D01*
X60825Y-17500D02*
X61175Y-17500D01*
X60825Y-36325D02*
X61175Y-36675D01*
X61175Y-36325D02*
X60825Y-36675D01*
X61000Y-36325D02*
X61000Y-36675D01*
X60825Y-36500D02*
X61175Y-36500D01*
X61825Y-17325D02*
X62175Y-17675D01*
X62175Y-17325D02*
X61825Y-17675D01*
X62000Y-17325D02*
X62000Y-17675D01*
X61825Y-17500D02*
X62175Y-17500D01*
X61825Y-36325D02*
X62175Y-36675D01*
X62175Y-36325D02*
X61825Y-36675D01*
X62000Y-36325D02*
X62000Y-36675D01*
X61825Y-36500D02*
X62175Y-36500D01*
X62825Y-17325D02*
X63175Y-17675D01*
X63175Y-17325D02*
X62825Y-17675D01*
X63000Y-17325D02*
X63000Y-17675D01*
X62825Y-17500D02*
X63175Y-17500D01*
X62825Y-36325D02*
X63175Y-36675D01*
X63175Y-36325D02*
X62825Y-36675D01*
X63000Y-36325D02*
X63000Y-36675D01*
X62825Y-36500D02*
X63175Y-36500D01*
X63825Y-17325D02*
X64175Y-17675D01*
X64175Y-17325D02*
X63825Y-17675D01*
X64000Y-17325D02*
X64000Y-17675D01*
X63825Y-17500D02*
X64175Y-17500D01*
X63825Y-36325D02*
X64175Y-36675D01*
X64175Y-36325D02*
X63825Y-36675D01*
X64000Y-36325D02*
X64000Y-36675D01*
X63825Y-36500D02*
X64175Y-36500D01*
X39865Y-42315D02*
X40235Y-42685D01*
X40235Y-42315D02*
X39865Y-42685D01*
X40180Y-42630D02*
X40180Y-42369D01*
X39919Y-42369D01*
X39919Y-42630D01*
X40180Y-42630D01*
X74265Y-34115D02*
X74635Y-34485D01*
X74635Y-34115D02*
X74265Y-34485D01*
X74580Y-34430D02*
X74580Y-34169D01*
X74319Y-34169D01*
X74319Y-34430D01*
X74580Y-34430D01*
X39860Y-34110D02*
X40240Y-34490D01*
X40240Y-34110D02*
X39860Y-34490D01*
X40050Y-34490D02*
X40240Y-34300D01*
X40050Y-34110D01*
X39860Y-34300D01*
X40050Y-34490D01*
X40460Y-38210D02*
X40840Y-38590D01*
X40840Y-38210D02*
X40460Y-38590D01*
X40650Y-38590D02*
X40840Y-38400D01*
X40650Y-38210D01*
X40460Y-38400D01*
X40650Y-38590D01*
X41060Y-34110D02*
X41440Y-34490D01*
X41440Y-34110D02*
X41060Y-34490D01*
X41250Y-34490D02*
X41440Y-34300D01*
X41250Y-34110D01*
X41060Y-34300D01*
X41250Y-34490D01*
X41060Y-42310D02*
X41440Y-42690D01*
X41440Y-42310D02*
X41060Y-42690D01*
X41250Y-42690D02*
X41440Y-42500D01*
X41250Y-42310D01*
X41060Y-42500D01*
X41250Y-42690D01*
X73060Y-34110D02*
X73440Y-34490D01*
X73440Y-34110D02*
X73060Y-34490D01*
X73250Y-34490D02*
X73440Y-34300D01*
X73250Y-34110D01*
X73060Y-34300D01*
X73250Y-34490D01*
X73060Y-42310D02*
X73440Y-42690D01*
X73440Y-42310D02*
X73060Y-42690D01*
X73250Y-42690D02*
X73440Y-42500D01*
X73250Y-42310D01*
X73060Y-42500D01*
X73250Y-42690D01*
X73660Y-38210D02*
X74040Y-38590D01*
X74040Y-38210D02*
X73660Y-38590D01*
X73850Y-38590D02*
X74040Y-38400D01*
X73850Y-38210D01*
X73660Y-38400D01*
X73850Y-38590D01*
X74260Y-42310D02*
X74640Y-42690D01*
X74640Y-42310D02*
X74260Y-42690D01*
X74450Y-42690D02*
X74640Y-42500D01*
X74450Y-42310D01*
X74260Y-42500D01*
X74450Y-42690D01*
X37339Y-19703D02*
X37339Y-20096D01*
X37142Y-19900D02*
X37536Y-19900D01*
X37536Y-19900D02*
G75*
G03X37536Y-19900I-196J0D01*
G74*
G01*
X37575Y-19742D02*
X37103Y-19742D01*
X37575Y-20057D02*
X37103Y-20057D01*
X37103Y-19742D02*
G75*
G03X37103Y-20057I0J-157D01*
G74*
G01*
X37575Y-20057D02*
G75*
G03X37575Y-19742I0J157D01*
G74*
G01*
X37339Y-22063D02*
X37339Y-22457D01*
X37142Y-22260D02*
X37536Y-22260D01*
X37536Y-22260D02*
G75*
G03X37536Y-22260I-196J0D01*
G74*
G01*
X37575Y-22103D02*
X37103Y-22103D01*
X37575Y-22418D02*
X37103Y-22418D01*
X37103Y-22103D02*
G75*
G03X37103Y-22418I0J-157D01*
G74*
G01*
X37575Y-22418D02*
G75*
G03X37575Y-22103I0J157D01*
G74*
G01*
X39189Y-20884D02*
X39189Y-21277D01*
X38992Y-21081D02*
X39386Y-21081D01*
X39386Y-21081D02*
G75*
G03X39386Y-21081I-196J0D01*
G74*
G01*
X39032Y-20844D02*
X39032Y-21317D01*
X39347Y-20844D02*
X39347Y-21317D01*
X39032Y-21317D02*
G75*
G03X39347Y-21317I157J0D01*
G74*
G01*
X39347Y-20844D02*
G75*
G03X39032Y-20844I-157J0D01*
G74*
G01*
X38775Y-25861D02*
X38775Y-25579D01*
X38492Y-25579D01*
X38492Y-25861D01*
X38775Y-25861D01*
X38833Y-25720D02*
G75*
G03X38833Y-25720I-200J0D01*
G74*
G01*
X38775Y-28420D02*
X38775Y-28138D01*
X38492Y-28138D01*
X38492Y-28420D01*
X38775Y-28420D01*
X38833Y-28279D02*
G75*
G03X38833Y-28279I-200J0D01*
G74*
G01*
X40507Y-25861D02*
X40507Y-25579D01*
X40224Y-25579D01*
X40224Y-25861D01*
X40507Y-25861D01*
X40566Y-25720D02*
G75*
G03X40566Y-25720I-200J0D01*
G74*
G01*
X40527Y-28420D02*
X40527Y-28138D01*
X40244Y-28138D01*
X40244Y-28420D01*
X40527Y-28420D01*
X40585Y-28279D02*
G75*
G03X40585Y-28279I-200J0D01*
G74*
G01*
X44775Y-25861D02*
X44775Y-25579D01*
X44492Y-25579D01*
X44492Y-25861D01*
X44775Y-25861D01*
X44833Y-25720D02*
G75*
G03X44833Y-25720I-200J0D01*
G74*
G01*
X44775Y-28420D02*
X44775Y-28138D01*
X44492Y-28138D01*
X44492Y-28420D01*
X44775Y-28420D01*
X44833Y-28279D02*
G75*
G03X44833Y-28279I-200J0D01*
G74*
G01*
X45611Y-34525D02*
X45611Y-34242D01*
X45329Y-34242D01*
X45329Y-34525D01*
X45611Y-34525D01*
X45670Y-34383D02*
G75*
G03X45670Y-34383I-200J0D01*
G74*
G01*
X45611Y-36277D02*
X45611Y-35994D01*
X45329Y-35994D01*
X45329Y-36277D01*
X45611Y-36277D01*
X45670Y-36135D02*
G75*
G03X45670Y-36135I-200J0D01*
G74*
G01*
X46507Y-25861D02*
X46507Y-25579D01*
X46224Y-25579D01*
X46224Y-25861D01*
X46507Y-25861D01*
X46566Y-25720D02*
G75*
G03X46566Y-25720I-200J0D01*
G74*
G01*
X46527Y-28420D02*
X46527Y-28138D01*
X46244Y-28138D01*
X46244Y-28420D01*
X46527Y-28420D01*
X46585Y-28279D02*
G75*
G03X46585Y-28279I-200J0D01*
G74*
G01*
X48170Y-34525D02*
X48170Y-34242D01*
X47888Y-34242D01*
X47888Y-34525D01*
X48170Y-34525D01*
X48229Y-34383D02*
G75*
G03X48229Y-34383I-200J0D01*
G74*
G01*
X48170Y-36257D02*
X48170Y-35974D01*
X47888Y-35974D01*
X47888Y-36257D01*
X48170Y-36257D01*
X48229Y-36116D02*
G75*
G03X48229Y-36116I-200J0D01*
G74*
G01*
X57391Y-30391D02*
X57391Y-30108D01*
X57108Y-30108D01*
X57108Y-30391D01*
X57391Y-30391D01*
X57450Y-30250D02*
G75*
G03X57450Y-30250I-200J0D01*
G74*
G01*
X57391Y-31391D02*
X57391Y-31108D01*
X57108Y-31108D01*
X57108Y-31391D01*
X57391Y-31391D01*
X57450Y-31250D02*
G75*
G03X57450Y-31250I-200J0D01*
G74*
G01*
X58391Y-30391D02*
X58391Y-30108D01*
X58108Y-30108D01*
X58108Y-30391D01*
X58391Y-30391D01*
X58450Y-30250D02*
G75*
G03X58450Y-30250I-200J0D01*
G74*
G01*
X58391Y-31391D02*
X58391Y-31108D01*
X58108Y-31108D01*
X58108Y-31391D01*
X58391Y-31391D01*
X58450Y-31250D02*
G75*
G03X58450Y-31250I-200J0D01*
G74*
G01*
X59391Y-30391D02*
X59391Y-30108D01*
X59108Y-30108D01*
X59108Y-30391D01*
X59391Y-30391D01*
X59450Y-30250D02*
G75*
G03X59450Y-30250I-200J0D01*
G74*
G01*
X59391Y-31391D02*
X59391Y-31108D01*
X59108Y-31108D01*
X59108Y-31391D01*
X59391Y-31391D01*
X59450Y-31250D02*
G75*
G03X59450Y-31250I-200J0D01*
G74*
G01*
X68275Y-25861D02*
X68275Y-25579D01*
X67992Y-25579D01*
X67992Y-25861D01*
X68275Y-25861D01*
X68333Y-25720D02*
G75*
G03X68333Y-25720I-200J0D01*
G74*
G01*
X68275Y-28420D02*
X68275Y-28138D01*
X67992Y-28138D01*
X67992Y-28420D01*
X68275Y-28420D01*
X68333Y-28279D02*
G75*
G03X68333Y-28279I-200J0D01*
G74*
G01*
X70007Y-25861D02*
X70007Y-25579D01*
X69724Y-25579D01*
X69724Y-25861D01*
X70007Y-25861D01*
X70066Y-25720D02*
G75*
G03X70066Y-25720I-200J0D01*
G74*
G01*
X70027Y-28420D02*
X70027Y-28138D01*
X69744Y-28138D01*
X69744Y-28420D01*
X70027Y-28420D01*
X70085Y-28279D02*
G75*
G03X70085Y-28279I-200J0D01*
G74*
G01*
X71275Y-22861D02*
X71275Y-22579D01*
X70992Y-22579D01*
X70992Y-22861D01*
X71275Y-22861D01*
X71333Y-22720D02*
G75*
G03X71333Y-22720I-200J0D01*
G74*
G01*
X71275Y-25420D02*
X71275Y-25138D01*
X70992Y-25138D01*
X70992Y-25420D01*
X71275Y-25420D01*
X71333Y-25279D02*
G75*
G03X71333Y-25279I-200J0D01*
G74*
G01*
X71275Y-28861D02*
X71275Y-28579D01*
X70992Y-28579D01*
X70992Y-28861D01*
X71275Y-28861D01*
X71333Y-28720D02*
G75*
G03X71333Y-28720I-200J0D01*
G74*
G01*
X71275Y-31420D02*
X71275Y-31138D01*
X70992Y-31138D01*
X70992Y-31420D01*
X71275Y-31420D01*
X71333Y-31279D02*
G75*
G03X71333Y-31279I-200J0D01*
G74*
G01*
X73007Y-22861D02*
X73007Y-22579D01*
X72724Y-22579D01*
X72724Y-22861D01*
X73007Y-22861D01*
X73066Y-22720D02*
G75*
G03X73066Y-22720I-200J0D01*
G74*
G01*
X73007Y-28861D02*
X73007Y-28579D01*
X72724Y-28579D01*
X72724Y-28861D01*
X73007Y-28861D01*
X73066Y-28720D02*
G75*
G03X73066Y-28720I-200J0D01*
G74*
G01*
X73027Y-25420D02*
X73027Y-25138D01*
X72744Y-25138D01*
X72744Y-25420D01*
X73027Y-25420D01*
X73085Y-25279D02*
G75*
G03X73085Y-25279I-200J0D01*
G74*
G01*
X73027Y-31420D02*
X73027Y-31138D01*
X72744Y-31138D01*
X72744Y-31420D01*
X73027Y-31420D01*
X73085Y-31279D02*
G75*
G03X73085Y-31279I-200J0D01*
G74*
G01*
X74275Y-25861D02*
X74275Y-25579D01*
X73992Y-25579D01*
X73992Y-25861D01*
X74275Y-25861D01*
X74333Y-25720D02*
G75*
G03X74333Y-25720I-200J0D01*
G74*
G01*
X74275Y-28420D02*
X74275Y-28138D01*
X73992Y-28138D01*
X73992Y-28420D01*
X74275Y-28420D01*
X74333Y-28279D02*
G75*
G03X74333Y-28279I-200J0D01*
G74*
G01*
X76007Y-25861D02*
X76007Y-25579D01*
X75724Y-25579D01*
X75724Y-25861D01*
X76007Y-25861D01*
X76066Y-25720D02*
G75*
G03X76066Y-25720I-200J0D01*
G74*
G01*
X76027Y-28420D02*
X76027Y-28138D01*
X75744Y-28138D01*
X75744Y-28420D01*
X76027Y-28420D01*
X76085Y-28279D02*
G75*
G03X76085Y-28279I-200J0D01*
G74*
G01*
G54D13*
X36038Y-49307D02*
X36038Y-48126D01*
X36319Y-48126D01*
X36488Y-48182D01*
X36601Y-48294D01*
X36657Y-48407D01*
X36713Y-48632D01*
X36713Y-48801D01*
X36657Y-49026D01*
X36601Y-49138D01*
X36488Y-49251D01*
X36319Y-49307D01*
X36038Y-49307D01*
X37219Y-49307D02*
X37219Y-48519D01*
X37219Y-48744D02*
X37275Y-48632D01*
X37332Y-48576D01*
X37444Y-48519D01*
X37557Y-48519D01*
X37950Y-49307D02*
X37950Y-48519D01*
X37950Y-48126D02*
X37894Y-48182D01*
X37950Y-48238D01*
X38007Y-48182D01*
X37950Y-48126D01*
X37950Y-48238D01*
X38682Y-49307D02*
X38569Y-49251D01*
X38513Y-49138D01*
X38513Y-48126D01*
X39300Y-49307D02*
X39188Y-49251D01*
X39131Y-49138D01*
X39131Y-48126D01*
X40650Y-49307D02*
X40650Y-48126D01*
X41044Y-48969D01*
X41437Y-48126D01*
X41437Y-49307D01*
X42506Y-49307D02*
X42506Y-48688D01*
X42450Y-48576D01*
X42337Y-48519D01*
X42112Y-48519D01*
X42000Y-48576D01*
X42506Y-49251D02*
X42394Y-49307D01*
X42112Y-49307D01*
X42000Y-49251D01*
X41944Y-49138D01*
X41944Y-49026D01*
X42000Y-48913D01*
X42112Y-48857D01*
X42394Y-48857D01*
X42506Y-48801D01*
X43068Y-48519D02*
X43068Y-49700D01*
X43068Y-48576D02*
X43181Y-48519D01*
X43406Y-48519D01*
X43518Y-48576D01*
X43575Y-48632D01*
X43631Y-48744D01*
X43631Y-49082D01*
X43575Y-49194D01*
X43518Y-49251D01*
X43406Y-49307D01*
X43181Y-49307D01*
X43068Y-49251D01*
X44137Y-49194D02*
X44193Y-49251D01*
X44137Y-49307D01*
X44081Y-49251D01*
X44137Y-49194D01*
X44137Y-49307D01*
X44137Y-48576D02*
X44193Y-48632D01*
X44137Y-48688D01*
X44081Y-48632D01*
X44137Y-48576D01*
X44137Y-48688D01*
X34769Y-51209D02*
X34969Y-51409D01*
X34969Y-51209D02*
X34769Y-51409D01*
X36263Y-50606D02*
X36376Y-50606D01*
X36488Y-50662D01*
X36544Y-50718D01*
X36601Y-50831D01*
X36657Y-51056D01*
X36657Y-51337D01*
X36601Y-51562D01*
X36544Y-51675D01*
X36488Y-51731D01*
X36376Y-51787D01*
X36263Y-51787D01*
X36151Y-51731D01*
X36094Y-51675D01*
X36038Y-51562D01*
X35982Y-51337D01*
X35982Y-51056D01*
X36038Y-50831D01*
X36094Y-50718D01*
X36151Y-50662D01*
X36263Y-50606D01*
X37163Y-51675D02*
X37219Y-51731D01*
X37163Y-51787D01*
X37107Y-51731D01*
X37163Y-51675D01*
X37163Y-51787D01*
X38288Y-50606D02*
X37725Y-50606D01*
X37669Y-51168D01*
X37725Y-51112D01*
X37838Y-51056D01*
X38119Y-51056D01*
X38232Y-51112D01*
X38288Y-51168D01*
X38344Y-51281D01*
X38344Y-51562D01*
X38288Y-51675D01*
X38232Y-51731D01*
X38119Y-51787D01*
X37838Y-51787D01*
X37725Y-51731D01*
X37669Y-51675D01*
X39469Y-51787D02*
X38794Y-51787D01*
X39131Y-51787D02*
X39131Y-50606D01*
X39019Y-50775D01*
X38907Y-50887D01*
X38794Y-50943D01*
X39975Y-51787D02*
X39975Y-51000D01*
X39975Y-51112D02*
X40031Y-51056D01*
X40144Y-51000D01*
X40313Y-51000D01*
X40425Y-51056D01*
X40481Y-51168D01*
X40481Y-51787D01*
X40481Y-51168D02*
X40538Y-51056D01*
X40650Y-51000D01*
X40819Y-51000D01*
X40931Y-51056D01*
X40987Y-51168D01*
X40987Y-51787D01*
X41550Y-51787D02*
X41550Y-51000D01*
X41550Y-51112D02*
X41606Y-51056D01*
X41719Y-51000D01*
X41887Y-51000D01*
X42000Y-51056D01*
X42056Y-51168D01*
X42056Y-51787D01*
X42056Y-51168D02*
X42112Y-51056D01*
X42225Y-51000D01*
X42394Y-51000D01*
X42506Y-51056D01*
X42562Y-51168D01*
X42562Y-51787D01*
X44868Y-50550D02*
X43856Y-52068D01*
X46387Y-50606D02*
X46499Y-50606D01*
X46612Y-50662D01*
X46668Y-50718D01*
X46724Y-50831D01*
X46781Y-51056D01*
X46781Y-51337D01*
X46724Y-51562D01*
X46668Y-51675D01*
X46612Y-51731D01*
X46499Y-51787D01*
X46387Y-51787D01*
X46274Y-51731D01*
X46218Y-51675D01*
X46162Y-51562D01*
X46106Y-51337D01*
X46106Y-51056D01*
X46162Y-50831D01*
X46218Y-50718D01*
X46274Y-50662D01*
X46387Y-50606D01*
X47287Y-51675D02*
X47343Y-51731D01*
X47287Y-51787D01*
X47230Y-51731D01*
X47287Y-51675D01*
X47287Y-51787D01*
X48074Y-50606D02*
X48187Y-50606D01*
X48299Y-50662D01*
X48355Y-50718D01*
X48412Y-50831D01*
X48468Y-51056D01*
X48468Y-51337D01*
X48412Y-51562D01*
X48355Y-51675D01*
X48299Y-51731D01*
X48187Y-51787D01*
X48074Y-51787D01*
X47962Y-51731D01*
X47905Y-51675D01*
X47849Y-51562D01*
X47793Y-51337D01*
X47793Y-51056D01*
X47849Y-50831D01*
X47905Y-50718D01*
X47962Y-50662D01*
X48074Y-50606D01*
X48918Y-50718D02*
X48974Y-50662D01*
X49086Y-50606D01*
X49368Y-50606D01*
X49480Y-50662D01*
X49536Y-50718D01*
X49593Y-50831D01*
X49593Y-50943D01*
X49536Y-51112D01*
X48862Y-51787D01*
X49593Y-51787D01*
X50324Y-50606D02*
X50436Y-50606D01*
X50549Y-50662D01*
X50605Y-50718D01*
X50661Y-50831D01*
X50718Y-51056D01*
X50718Y-51337D01*
X50661Y-51562D01*
X50605Y-51675D01*
X50549Y-51731D01*
X50436Y-51787D01*
X50324Y-51787D01*
X50211Y-51731D01*
X50155Y-51675D01*
X50099Y-51562D01*
X50043Y-51337D01*
X50043Y-51056D01*
X50099Y-50831D01*
X50155Y-50718D01*
X50211Y-50662D01*
X50324Y-50606D01*
X51167Y-50606D02*
X51167Y-50831D01*
X51617Y-50606D02*
X51617Y-50831D01*
X53361Y-52237D02*
X53305Y-52181D01*
X53192Y-52012D01*
X53136Y-51900D01*
X53080Y-51731D01*
X53023Y-51450D01*
X53023Y-51225D01*
X53080Y-50943D01*
X53136Y-50775D01*
X53192Y-50662D01*
X53305Y-50494D01*
X53361Y-50437D01*
X53698Y-50606D02*
X54486Y-50606D01*
X53980Y-51787D01*
X54823Y-50606D02*
X55611Y-50606D01*
X55104Y-51787D01*
X56961Y-51787D02*
X56961Y-50606D01*
X57467Y-51787D02*
X57467Y-51168D01*
X57410Y-51056D01*
X57298Y-51000D01*
X57129Y-51000D01*
X57017Y-51056D01*
X56961Y-51112D01*
X58198Y-51787D02*
X58085Y-51731D01*
X58029Y-51675D01*
X57973Y-51562D01*
X57973Y-51225D01*
X58029Y-51112D01*
X58085Y-51056D01*
X58198Y-51000D01*
X58367Y-51000D01*
X58479Y-51056D01*
X58535Y-51112D01*
X58592Y-51225D01*
X58592Y-51562D01*
X58535Y-51675D01*
X58479Y-51731D01*
X58367Y-51787D01*
X58198Y-51787D01*
X59266Y-51787D02*
X59154Y-51731D01*
X59098Y-51618D01*
X59098Y-50606D01*
X60166Y-51731D02*
X60054Y-51787D01*
X59829Y-51787D01*
X59716Y-51731D01*
X59660Y-51618D01*
X59660Y-51168D01*
X59716Y-51056D01*
X59829Y-51000D01*
X60054Y-51000D01*
X60166Y-51056D01*
X60223Y-51168D01*
X60223Y-51281D01*
X59660Y-51393D01*
X60673Y-51731D02*
X60785Y-51787D01*
X61010Y-51787D01*
X61122Y-51731D01*
X61179Y-51618D01*
X61179Y-51562D01*
X61122Y-51450D01*
X61010Y-51393D01*
X60841Y-51393D01*
X60729Y-51337D01*
X60673Y-51225D01*
X60673Y-51168D01*
X60729Y-51056D01*
X60841Y-51000D01*
X61010Y-51000D01*
X61122Y-51056D01*
X61572Y-52237D02*
X61629Y-52181D01*
X61741Y-52012D01*
X61797Y-51900D01*
X61854Y-51731D01*
X61910Y-51450D01*
X61910Y-51225D01*
X61854Y-50943D01*
X61797Y-50775D01*
X61741Y-50662D01*
X61629Y-50494D01*
X61572Y-50437D01*
G54D12*
X34969Y-52868D02*
G75*
G03X34969Y-52868I-110J0D01*
G74*
G01*
G54D13*
X36263Y-52165D02*
X36376Y-52165D01*
X36488Y-52221D01*
X36544Y-52278D01*
X36601Y-52390D01*
X36657Y-52615D01*
X36657Y-52896D01*
X36601Y-53121D01*
X36544Y-53234D01*
X36488Y-53290D01*
X36376Y-53346D01*
X36263Y-53346D01*
X36151Y-53290D01*
X36094Y-53234D01*
X36038Y-53121D01*
X35982Y-52896D01*
X35982Y-52615D01*
X36038Y-52390D01*
X36094Y-52278D01*
X36151Y-52221D01*
X36263Y-52165D01*
X37163Y-53234D02*
X37219Y-53290D01*
X37163Y-53346D01*
X37107Y-53290D01*
X37163Y-53234D01*
X37163Y-53346D01*
X38288Y-52165D02*
X37725Y-52165D01*
X37669Y-52727D01*
X37725Y-52671D01*
X37838Y-52615D01*
X38119Y-52615D01*
X38232Y-52671D01*
X38288Y-52727D01*
X38344Y-52840D01*
X38344Y-53121D01*
X38288Y-53234D01*
X38232Y-53290D01*
X38119Y-53346D01*
X37838Y-53346D01*
X37725Y-53290D01*
X37669Y-53234D01*
X39356Y-52165D02*
X39131Y-52165D01*
X39019Y-52221D01*
X38963Y-52278D01*
X38850Y-52446D01*
X38794Y-52671D01*
X38794Y-53121D01*
X38850Y-53234D01*
X38907Y-53290D01*
X39019Y-53346D01*
X39244Y-53346D01*
X39356Y-53290D01*
X39413Y-53234D01*
X39469Y-53121D01*
X39469Y-52840D01*
X39413Y-52727D01*
X39356Y-52671D01*
X39244Y-52615D01*
X39019Y-52615D01*
X38907Y-52671D01*
X38850Y-52727D01*
X38794Y-52840D01*
X39975Y-53346D02*
X39975Y-52559D01*
X39975Y-52671D02*
X40031Y-52615D01*
X40144Y-52559D01*
X40313Y-52559D01*
X40425Y-52615D01*
X40481Y-52727D01*
X40481Y-53346D01*
X40481Y-52727D02*
X40538Y-52615D01*
X40650Y-52559D01*
X40819Y-52559D01*
X40931Y-52615D01*
X40987Y-52727D01*
X40987Y-53346D01*
X41550Y-53346D02*
X41550Y-52559D01*
X41550Y-52671D02*
X41606Y-52615D01*
X41719Y-52559D01*
X41887Y-52559D01*
X42000Y-52615D01*
X42056Y-52727D01*
X42056Y-53346D01*
X42056Y-52727D02*
X42112Y-52615D01*
X42225Y-52559D01*
X42394Y-52559D01*
X42506Y-52615D01*
X42562Y-52727D01*
X42562Y-53346D01*
X44868Y-52109D02*
X43856Y-53627D01*
X46387Y-52165D02*
X46499Y-52165D01*
X46612Y-52221D01*
X46668Y-52278D01*
X46724Y-52390D01*
X46781Y-52615D01*
X46781Y-52896D01*
X46724Y-53121D01*
X46668Y-53234D01*
X46612Y-53290D01*
X46499Y-53346D01*
X46387Y-53346D01*
X46274Y-53290D01*
X46218Y-53234D01*
X46162Y-53121D01*
X46106Y-52896D01*
X46106Y-52615D01*
X46162Y-52390D01*
X46218Y-52278D01*
X46274Y-52221D01*
X46387Y-52165D01*
X47287Y-53234D02*
X47343Y-53290D01*
X47287Y-53346D01*
X47230Y-53290D01*
X47287Y-53234D01*
X47287Y-53346D01*
X48074Y-52165D02*
X48187Y-52165D01*
X48299Y-52221D01*
X48355Y-52278D01*
X48412Y-52390D01*
X48468Y-52615D01*
X48468Y-52896D01*
X48412Y-53121D01*
X48355Y-53234D01*
X48299Y-53290D01*
X48187Y-53346D01*
X48074Y-53346D01*
X47962Y-53290D01*
X47905Y-53234D01*
X47849Y-53121D01*
X47793Y-52896D01*
X47793Y-52615D01*
X47849Y-52390D01*
X47905Y-52278D01*
X47962Y-52221D01*
X48074Y-52165D01*
X48918Y-52278D02*
X48974Y-52221D01*
X49086Y-52165D01*
X49368Y-52165D01*
X49480Y-52221D01*
X49536Y-52278D01*
X49593Y-52390D01*
X49593Y-52503D01*
X49536Y-52671D01*
X48862Y-53346D01*
X49593Y-53346D01*
X50043Y-52278D02*
X50099Y-52221D01*
X50211Y-52165D01*
X50493Y-52165D01*
X50605Y-52221D01*
X50661Y-52278D01*
X50718Y-52390D01*
X50718Y-52503D01*
X50661Y-52671D01*
X49986Y-53346D01*
X50718Y-53346D01*
X51167Y-52165D02*
X51167Y-52390D01*
X51617Y-52165D02*
X51617Y-52390D01*
X53361Y-53796D02*
X53305Y-53740D01*
X53192Y-53571D01*
X53136Y-53459D01*
X53080Y-53290D01*
X53023Y-53009D01*
X53023Y-52784D01*
X53080Y-52503D01*
X53136Y-52334D01*
X53192Y-52221D01*
X53305Y-52053D01*
X53361Y-51996D01*
X54036Y-52165D02*
X54148Y-52165D01*
X54261Y-52221D01*
X54317Y-52278D01*
X54373Y-52390D01*
X54430Y-52615D01*
X54430Y-52896D01*
X54373Y-53121D01*
X54317Y-53234D01*
X54261Y-53290D01*
X54148Y-53346D01*
X54036Y-53346D01*
X53923Y-53290D01*
X53867Y-53234D01*
X53811Y-53121D01*
X53755Y-52896D01*
X53755Y-52615D01*
X53811Y-52390D01*
X53867Y-52278D01*
X53923Y-52221D01*
X54036Y-52165D01*
X55836Y-53346D02*
X55836Y-52165D01*
X56342Y-53346D02*
X56342Y-52727D01*
X56286Y-52615D01*
X56173Y-52559D01*
X56004Y-52559D01*
X55892Y-52615D01*
X55836Y-52671D01*
X57073Y-53346D02*
X56961Y-53290D01*
X56904Y-53234D01*
X56848Y-53121D01*
X56848Y-52784D01*
X56904Y-52671D01*
X56961Y-52615D01*
X57073Y-52559D01*
X57242Y-52559D01*
X57354Y-52615D01*
X57410Y-52671D01*
X57467Y-52784D01*
X57467Y-53121D01*
X57410Y-53234D01*
X57354Y-53290D01*
X57242Y-53346D01*
X57073Y-53346D01*
X58142Y-53346D02*
X58029Y-53290D01*
X57973Y-53177D01*
X57973Y-52165D01*
X59041Y-53290D02*
X58929Y-53346D01*
X58704Y-53346D01*
X58592Y-53290D01*
X58535Y-53177D01*
X58535Y-52727D01*
X58592Y-52615D01*
X58704Y-52559D01*
X58929Y-52559D01*
X59041Y-52615D01*
X59098Y-52727D01*
X59098Y-52840D01*
X58535Y-52952D01*
X59548Y-53290D02*
X59660Y-53346D01*
X59885Y-53346D01*
X59998Y-53290D01*
X60054Y-53177D01*
X60054Y-53121D01*
X59998Y-53009D01*
X59885Y-52952D01*
X59716Y-52952D01*
X59604Y-52896D01*
X59548Y-52784D01*
X59548Y-52727D01*
X59604Y-52615D01*
X59716Y-52559D01*
X59885Y-52559D01*
X59998Y-52615D01*
X61460Y-52896D02*
X62360Y-52896D01*
X61910Y-53346D02*
X61910Y-52446D01*
X63766Y-52278D02*
X63822Y-52221D01*
X63935Y-52165D01*
X64216Y-52165D01*
X64328Y-52221D01*
X64385Y-52278D01*
X64441Y-52390D01*
X64441Y-52503D01*
X64385Y-52671D01*
X63710Y-53346D01*
X64441Y-53346D01*
X65791Y-53290D02*
X65903Y-53346D01*
X66128Y-53346D01*
X66241Y-53290D01*
X66297Y-53177D01*
X66297Y-53121D01*
X66241Y-53009D01*
X66128Y-52952D01*
X65959Y-52952D01*
X65847Y-52896D01*
X65791Y-52784D01*
X65791Y-52727D01*
X65847Y-52615D01*
X65959Y-52559D01*
X66128Y-52559D01*
X66241Y-52615D01*
X66972Y-53346D02*
X66859Y-53290D01*
X66803Y-53177D01*
X66803Y-52165D01*
X67590Y-53346D02*
X67478Y-53290D01*
X67422Y-53234D01*
X67365Y-53121D01*
X67365Y-52784D01*
X67422Y-52671D01*
X67478Y-52615D01*
X67590Y-52559D01*
X67759Y-52559D01*
X67872Y-52615D01*
X67928Y-52671D01*
X67984Y-52784D01*
X67984Y-53121D01*
X67928Y-53234D01*
X67872Y-53290D01*
X67759Y-53346D01*
X67590Y-53346D01*
X68322Y-52559D02*
X68772Y-52559D01*
X68490Y-52165D02*
X68490Y-53177D01*
X68547Y-53290D01*
X68659Y-53346D01*
X68772Y-53346D01*
X69109Y-53290D02*
X69221Y-53346D01*
X69446Y-53346D01*
X69559Y-53290D01*
X69615Y-53177D01*
X69615Y-53121D01*
X69559Y-53009D01*
X69446Y-52952D01*
X69278Y-52952D01*
X69165Y-52896D01*
X69109Y-52784D01*
X69109Y-52727D01*
X69165Y-52615D01*
X69278Y-52559D01*
X69446Y-52559D01*
X69559Y-52615D01*
X70009Y-53796D02*
X70065Y-53740D01*
X70178Y-53571D01*
X70234Y-53459D01*
X70290Y-53290D01*
X70346Y-53009D01*
X70346Y-52784D01*
X70290Y-52503D01*
X70234Y-52334D01*
X70178Y-52221D01*
X70065Y-52053D01*
X70009Y-51996D01*
X34830Y-54287D02*
X34830Y-54567D01*
X34690Y-54427D02*
X34969Y-54427D01*
X36263Y-53724D02*
X36376Y-53724D01*
X36488Y-53780D01*
X36544Y-53837D01*
X36601Y-53949D01*
X36657Y-54174D01*
X36657Y-54455D01*
X36601Y-54680D01*
X36544Y-54793D01*
X36488Y-54849D01*
X36376Y-54905D01*
X36263Y-54905D01*
X36151Y-54849D01*
X36094Y-54793D01*
X36038Y-54680D01*
X35982Y-54455D01*
X35982Y-54174D01*
X36038Y-53949D01*
X36094Y-53837D01*
X36151Y-53780D01*
X36263Y-53724D01*
X37163Y-54793D02*
X37219Y-54849D01*
X37163Y-54905D01*
X37107Y-54849D01*
X37163Y-54793D01*
X37163Y-54905D01*
X37613Y-53724D02*
X38400Y-53724D01*
X37894Y-54905D01*
X39469Y-54905D02*
X38794Y-54905D01*
X39131Y-54905D02*
X39131Y-53724D01*
X39019Y-53893D01*
X38907Y-54005D01*
X38794Y-54062D01*
X39975Y-54905D02*
X39975Y-54118D01*
X39975Y-54230D02*
X40031Y-54174D01*
X40144Y-54118D01*
X40313Y-54118D01*
X40425Y-54174D01*
X40481Y-54287D01*
X40481Y-54905D01*
X40481Y-54287D02*
X40538Y-54174D01*
X40650Y-54118D01*
X40819Y-54118D01*
X40931Y-54174D01*
X40987Y-54287D01*
X40987Y-54905D01*
X41550Y-54905D02*
X41550Y-54118D01*
X41550Y-54230D02*
X41606Y-54174D01*
X41719Y-54118D01*
X41887Y-54118D01*
X42000Y-54174D01*
X42056Y-54287D01*
X42056Y-54905D01*
X42056Y-54287D02*
X42112Y-54174D01*
X42225Y-54118D01*
X42394Y-54118D01*
X42506Y-54174D01*
X42562Y-54287D01*
X42562Y-54905D01*
X44868Y-53668D02*
X43856Y-55186D01*
X46387Y-53724D02*
X46499Y-53724D01*
X46612Y-53780D01*
X46668Y-53837D01*
X46724Y-53949D01*
X46781Y-54174D01*
X46781Y-54455D01*
X46724Y-54680D01*
X46668Y-54793D01*
X46612Y-54849D01*
X46499Y-54905D01*
X46387Y-54905D01*
X46274Y-54849D01*
X46218Y-54793D01*
X46162Y-54680D01*
X46106Y-54455D01*
X46106Y-54174D01*
X46162Y-53949D01*
X46218Y-53837D01*
X46274Y-53780D01*
X46387Y-53724D01*
X47287Y-54793D02*
X47343Y-54849D01*
X47287Y-54905D01*
X47230Y-54849D01*
X47287Y-54793D01*
X47287Y-54905D01*
X48074Y-53724D02*
X48187Y-53724D01*
X48299Y-53780D01*
X48355Y-53837D01*
X48412Y-53949D01*
X48468Y-54174D01*
X48468Y-54455D01*
X48412Y-54680D01*
X48355Y-54793D01*
X48299Y-54849D01*
X48187Y-54905D01*
X48074Y-54905D01*
X47962Y-54849D01*
X47905Y-54793D01*
X47849Y-54680D01*
X47793Y-54455D01*
X47793Y-54174D01*
X47849Y-53949D01*
X47905Y-53837D01*
X47962Y-53780D01*
X48074Y-53724D01*
X48918Y-53837D02*
X48974Y-53780D01*
X49086Y-53724D01*
X49368Y-53724D01*
X49480Y-53780D01*
X49536Y-53837D01*
X49593Y-53949D01*
X49593Y-54062D01*
X49536Y-54230D01*
X48862Y-54905D01*
X49593Y-54905D01*
X50268Y-54230D02*
X50155Y-54174D01*
X50099Y-54118D01*
X50043Y-54005D01*
X50043Y-53949D01*
X50099Y-53837D01*
X50155Y-53780D01*
X50268Y-53724D01*
X50493Y-53724D01*
X50605Y-53780D01*
X50661Y-53837D01*
X50718Y-53949D01*
X50718Y-54005D01*
X50661Y-54118D01*
X50605Y-54174D01*
X50493Y-54230D01*
X50268Y-54230D01*
X50155Y-54287D01*
X50099Y-54343D01*
X50043Y-54455D01*
X50043Y-54680D01*
X50099Y-54793D01*
X50155Y-54849D01*
X50268Y-54905D01*
X50493Y-54905D01*
X50605Y-54849D01*
X50661Y-54793D01*
X50718Y-54680D01*
X50718Y-54455D01*
X50661Y-54343D01*
X50605Y-54287D01*
X50493Y-54230D01*
X51167Y-53724D02*
X51167Y-53949D01*
X51617Y-53724D02*
X51617Y-53949D01*
X53361Y-55355D02*
X53305Y-55299D01*
X53192Y-55130D01*
X53136Y-55018D01*
X53080Y-54849D01*
X53023Y-54568D01*
X53023Y-54343D01*
X53080Y-54062D01*
X53136Y-53893D01*
X53192Y-53780D01*
X53305Y-53612D01*
X53361Y-53555D01*
X54036Y-53724D02*
X54148Y-53724D01*
X54261Y-53780D01*
X54317Y-53837D01*
X54373Y-53949D01*
X54430Y-54174D01*
X54430Y-54455D01*
X54373Y-54680D01*
X54317Y-54793D01*
X54261Y-54849D01*
X54148Y-54905D01*
X54036Y-54905D01*
X53923Y-54849D01*
X53867Y-54793D01*
X53811Y-54680D01*
X53755Y-54455D01*
X53755Y-54174D01*
X53811Y-53949D01*
X53867Y-53837D01*
X53923Y-53780D01*
X54036Y-53724D01*
X55836Y-54905D02*
X55836Y-53724D01*
X56342Y-54905D02*
X56342Y-54287D01*
X56286Y-54174D01*
X56173Y-54118D01*
X56004Y-54118D01*
X55892Y-54174D01*
X55836Y-54230D01*
X57073Y-54905D02*
X56961Y-54849D01*
X56904Y-54793D01*
X56848Y-54680D01*
X56848Y-54343D01*
X56904Y-54230D01*
X56961Y-54174D01*
X57073Y-54118D01*
X57242Y-54118D01*
X57354Y-54174D01*
X57410Y-54230D01*
X57467Y-54343D01*
X57467Y-54680D01*
X57410Y-54793D01*
X57354Y-54849D01*
X57242Y-54905D01*
X57073Y-54905D01*
X58142Y-54905D02*
X58029Y-54849D01*
X57973Y-54736D01*
X57973Y-53724D01*
X59041Y-54849D02*
X58929Y-54905D01*
X58704Y-54905D01*
X58592Y-54849D01*
X58535Y-54736D01*
X58535Y-54287D01*
X58592Y-54174D01*
X58704Y-54118D01*
X58929Y-54118D01*
X59041Y-54174D01*
X59098Y-54287D01*
X59098Y-54399D01*
X58535Y-54512D01*
X59548Y-54849D02*
X59660Y-54905D01*
X59885Y-54905D01*
X59998Y-54849D01*
X60054Y-54736D01*
X60054Y-54680D01*
X59998Y-54568D01*
X59885Y-54512D01*
X59716Y-54512D01*
X59604Y-54455D01*
X59548Y-54343D01*
X59548Y-54287D01*
X59604Y-54174D01*
X59716Y-54118D01*
X59885Y-54118D01*
X59998Y-54174D01*
X61460Y-54455D02*
X62360Y-54455D01*
X61910Y-54905D02*
X61910Y-54005D01*
X63766Y-53837D02*
X63822Y-53780D01*
X63935Y-53724D01*
X64216Y-53724D01*
X64328Y-53780D01*
X64385Y-53837D01*
X64441Y-53949D01*
X64441Y-54062D01*
X64385Y-54230D01*
X63710Y-54905D01*
X64441Y-54905D01*
X65791Y-54849D02*
X65903Y-54905D01*
X66128Y-54905D01*
X66241Y-54849D01*
X66297Y-54736D01*
X66297Y-54680D01*
X66241Y-54568D01*
X66128Y-54512D01*
X65959Y-54512D01*
X65847Y-54455D01*
X65791Y-54343D01*
X65791Y-54287D01*
X65847Y-54174D01*
X65959Y-54118D01*
X66128Y-54118D01*
X66241Y-54174D01*
X66972Y-54905D02*
X66859Y-54849D01*
X66803Y-54736D01*
X66803Y-53724D01*
X67590Y-54905D02*
X67478Y-54849D01*
X67422Y-54793D01*
X67365Y-54680D01*
X67365Y-54343D01*
X67422Y-54230D01*
X67478Y-54174D01*
X67590Y-54118D01*
X67759Y-54118D01*
X67872Y-54174D01*
X67928Y-54230D01*
X67984Y-54343D01*
X67984Y-54680D01*
X67928Y-54793D01*
X67872Y-54849D01*
X67759Y-54905D01*
X67590Y-54905D01*
X68322Y-54118D02*
X68772Y-54118D01*
X68490Y-53724D02*
X68490Y-54736D01*
X68547Y-54849D01*
X68659Y-54905D01*
X68772Y-54905D01*
X69109Y-54849D02*
X69221Y-54905D01*
X69446Y-54905D01*
X69559Y-54849D01*
X69615Y-54736D01*
X69615Y-54680D01*
X69559Y-54568D01*
X69446Y-54512D01*
X69278Y-54512D01*
X69165Y-54455D01*
X69109Y-54343D01*
X69109Y-54287D01*
X69165Y-54174D01*
X69278Y-54118D01*
X69446Y-54118D01*
X69559Y-54174D01*
X70009Y-55355D02*
X70065Y-55299D01*
X70178Y-55130D01*
X70234Y-55018D01*
X70290Y-54849D01*
X70346Y-54568D01*
X70346Y-54343D01*
X70290Y-54062D01*
X70234Y-53893D01*
X70178Y-53780D01*
X70065Y-53612D01*
X70009Y-53555D01*
G54D12*
X34926Y-56092D02*
X34926Y-55880D01*
X34713Y-55880D01*
X34713Y-56092D01*
X34926Y-56092D01*
G54D13*
X36263Y-55283D02*
X36376Y-55283D01*
X36488Y-55339D01*
X36544Y-55396D01*
X36601Y-55508D01*
X36657Y-55733D01*
X36657Y-56014D01*
X36601Y-56239D01*
X36544Y-56352D01*
X36488Y-56408D01*
X36376Y-56464D01*
X36263Y-56464D01*
X36151Y-56408D01*
X36094Y-56352D01*
X36038Y-56239D01*
X35982Y-56014D01*
X35982Y-55733D01*
X36038Y-55508D01*
X36094Y-55396D01*
X36151Y-55339D01*
X36263Y-55283D01*
X37163Y-56352D02*
X37219Y-56408D01*
X37163Y-56464D01*
X37107Y-56408D01*
X37163Y-56352D01*
X37163Y-56464D01*
X37613Y-55283D02*
X38400Y-55283D01*
X37894Y-56464D01*
X39356Y-55283D02*
X39131Y-55283D01*
X39019Y-55339D01*
X38963Y-55396D01*
X38850Y-55564D01*
X38794Y-55789D01*
X38794Y-56239D01*
X38850Y-56352D01*
X38907Y-56408D01*
X39019Y-56464D01*
X39244Y-56464D01*
X39356Y-56408D01*
X39413Y-56352D01*
X39469Y-56239D01*
X39469Y-55958D01*
X39413Y-55846D01*
X39356Y-55789D01*
X39244Y-55733D01*
X39019Y-55733D01*
X38907Y-55789D01*
X38850Y-55846D01*
X38794Y-55958D01*
X39975Y-56464D02*
X39975Y-55677D01*
X39975Y-55789D02*
X40031Y-55733D01*
X40144Y-55677D01*
X40313Y-55677D01*
X40425Y-55733D01*
X40481Y-55846D01*
X40481Y-56464D01*
X40481Y-55846D02*
X40538Y-55733D01*
X40650Y-55677D01*
X40819Y-55677D01*
X40931Y-55733D01*
X40987Y-55846D01*
X40987Y-56464D01*
X41550Y-56464D02*
X41550Y-55677D01*
X41550Y-55789D02*
X41606Y-55733D01*
X41719Y-55677D01*
X41887Y-55677D01*
X42000Y-55733D01*
X42056Y-55846D01*
X42056Y-56464D01*
X42056Y-55846D02*
X42112Y-55733D01*
X42225Y-55677D01*
X42394Y-55677D01*
X42506Y-55733D01*
X42562Y-55846D01*
X42562Y-56464D01*
X44868Y-55227D02*
X43856Y-56745D01*
X46387Y-55283D02*
X46499Y-55283D01*
X46612Y-55339D01*
X46668Y-55396D01*
X46724Y-55508D01*
X46781Y-55733D01*
X46781Y-56014D01*
X46724Y-56239D01*
X46668Y-56352D01*
X46612Y-56408D01*
X46499Y-56464D01*
X46387Y-56464D01*
X46274Y-56408D01*
X46218Y-56352D01*
X46162Y-56239D01*
X46106Y-56014D01*
X46106Y-55733D01*
X46162Y-55508D01*
X46218Y-55396D01*
X46274Y-55339D01*
X46387Y-55283D01*
X47287Y-56352D02*
X47343Y-56408D01*
X47287Y-56464D01*
X47230Y-56408D01*
X47287Y-56352D01*
X47287Y-56464D01*
X48074Y-55283D02*
X48187Y-55283D01*
X48299Y-55339D01*
X48355Y-55396D01*
X48412Y-55508D01*
X48468Y-55733D01*
X48468Y-56014D01*
X48412Y-56239D01*
X48355Y-56352D01*
X48299Y-56408D01*
X48187Y-56464D01*
X48074Y-56464D01*
X47962Y-56408D01*
X47905Y-56352D01*
X47849Y-56239D01*
X47793Y-56014D01*
X47793Y-55733D01*
X47849Y-55508D01*
X47905Y-55396D01*
X47962Y-55339D01*
X48074Y-55283D01*
X48862Y-55283D02*
X49593Y-55283D01*
X49199Y-55733D01*
X49368Y-55733D01*
X49480Y-55789D01*
X49536Y-55846D01*
X49593Y-55958D01*
X49593Y-56239D01*
X49536Y-56352D01*
X49480Y-56408D01*
X49368Y-56464D01*
X49030Y-56464D01*
X48918Y-56408D01*
X48862Y-56352D01*
X50324Y-55283D02*
X50436Y-55283D01*
X50549Y-55339D01*
X50605Y-55396D01*
X50661Y-55508D01*
X50718Y-55733D01*
X50718Y-56014D01*
X50661Y-56239D01*
X50605Y-56352D01*
X50549Y-56408D01*
X50436Y-56464D01*
X50324Y-56464D01*
X50211Y-56408D01*
X50155Y-56352D01*
X50099Y-56239D01*
X50043Y-56014D01*
X50043Y-55733D01*
X50099Y-55508D01*
X50155Y-55396D01*
X50211Y-55339D01*
X50324Y-55283D01*
X51167Y-55283D02*
X51167Y-55508D01*
X51617Y-55283D02*
X51617Y-55508D01*
X53361Y-56914D02*
X53305Y-56858D01*
X53192Y-56689D01*
X53136Y-56577D01*
X53080Y-56408D01*
X53023Y-56127D01*
X53023Y-55902D01*
X53080Y-55621D01*
X53136Y-55452D01*
X53192Y-55339D01*
X53305Y-55171D01*
X53361Y-55114D01*
X54430Y-56464D02*
X53755Y-56464D01*
X54092Y-56464D02*
X54092Y-55283D01*
X53980Y-55452D01*
X53867Y-55564D01*
X53755Y-55621D01*
X55104Y-55789D02*
X54992Y-55733D01*
X54936Y-55677D01*
X54880Y-55564D01*
X54880Y-55508D01*
X54936Y-55396D01*
X54992Y-55339D01*
X55104Y-55283D01*
X55329Y-55283D01*
X55442Y-55339D01*
X55498Y-55396D01*
X55554Y-55508D01*
X55554Y-55564D01*
X55498Y-55677D01*
X55442Y-55733D01*
X55329Y-55789D01*
X55104Y-55789D01*
X54992Y-55846D01*
X54936Y-55902D01*
X54880Y-56014D01*
X54880Y-56239D01*
X54936Y-56352D01*
X54992Y-56408D01*
X55104Y-56464D01*
X55329Y-56464D01*
X55442Y-56408D01*
X55498Y-56352D01*
X55554Y-56239D01*
X55554Y-56014D01*
X55498Y-55902D01*
X55442Y-55846D01*
X55329Y-55789D01*
X56961Y-56464D02*
X56961Y-55283D01*
X57467Y-56464D02*
X57467Y-55846D01*
X57410Y-55733D01*
X57298Y-55677D01*
X57129Y-55677D01*
X57017Y-55733D01*
X56961Y-55789D01*
X58198Y-56464D02*
X58085Y-56408D01*
X58029Y-56352D01*
X57973Y-56239D01*
X57973Y-55902D01*
X58029Y-55789D01*
X58085Y-55733D01*
X58198Y-55677D01*
X58367Y-55677D01*
X58479Y-55733D01*
X58535Y-55789D01*
X58592Y-55902D01*
X58592Y-56239D01*
X58535Y-56352D01*
X58479Y-56408D01*
X58367Y-56464D01*
X58198Y-56464D01*
X59266Y-56464D02*
X59154Y-56408D01*
X59098Y-56296D01*
X59098Y-55283D01*
X60166Y-56408D02*
X60054Y-56464D01*
X59829Y-56464D01*
X59716Y-56408D01*
X59660Y-56296D01*
X59660Y-55846D01*
X59716Y-55733D01*
X59829Y-55677D01*
X60054Y-55677D01*
X60166Y-55733D01*
X60223Y-55846D01*
X60223Y-55958D01*
X59660Y-56071D01*
X60673Y-56408D02*
X60785Y-56464D01*
X61010Y-56464D01*
X61122Y-56408D01*
X61179Y-56296D01*
X61179Y-56239D01*
X61122Y-56127D01*
X61010Y-56071D01*
X60841Y-56071D01*
X60729Y-56014D01*
X60673Y-55902D01*
X60673Y-55846D01*
X60729Y-55733D01*
X60841Y-55677D01*
X61010Y-55677D01*
X61122Y-55733D01*
X61572Y-56914D02*
X61629Y-56858D01*
X61741Y-56689D01*
X61797Y-56577D01*
X61854Y-56408D01*
X61910Y-56127D01*
X61910Y-55902D01*
X61854Y-55621D01*
X61797Y-55452D01*
X61741Y-55339D01*
X61629Y-55171D01*
X61572Y-55114D01*
G54D12*
X34812Y-57703D02*
X34969Y-57545D01*
X34812Y-57388D01*
X34654Y-57545D01*
X34812Y-57703D01*
G54D13*
X36263Y-56842D02*
X36376Y-56842D01*
X36488Y-56898D01*
X36544Y-56955D01*
X36601Y-57067D01*
X36657Y-57292D01*
X36657Y-57573D01*
X36601Y-57798D01*
X36544Y-57911D01*
X36488Y-57967D01*
X36376Y-58023D01*
X36263Y-58023D01*
X36151Y-57967D01*
X36094Y-57911D01*
X36038Y-57798D01*
X35982Y-57573D01*
X35982Y-57292D01*
X36038Y-57067D01*
X36094Y-56955D01*
X36151Y-56898D01*
X36263Y-56842D01*
X37163Y-57911D02*
X37219Y-57967D01*
X37163Y-58023D01*
X37107Y-57967D01*
X37163Y-57911D01*
X37163Y-58023D01*
X37894Y-57348D02*
X37782Y-57292D01*
X37725Y-57236D01*
X37669Y-57123D01*
X37669Y-57067D01*
X37725Y-56955D01*
X37782Y-56898D01*
X37894Y-56842D01*
X38119Y-56842D01*
X38232Y-56898D01*
X38288Y-56955D01*
X38344Y-57067D01*
X38344Y-57123D01*
X38288Y-57236D01*
X38232Y-57292D01*
X38119Y-57348D01*
X37894Y-57348D01*
X37782Y-57405D01*
X37725Y-57461D01*
X37669Y-57573D01*
X37669Y-57798D01*
X37725Y-57911D01*
X37782Y-57967D01*
X37894Y-58023D01*
X38119Y-58023D01*
X38232Y-57967D01*
X38288Y-57911D01*
X38344Y-57798D01*
X38344Y-57573D01*
X38288Y-57461D01*
X38232Y-57405D01*
X38119Y-57348D01*
X39075Y-56842D02*
X39188Y-56842D01*
X39300Y-56898D01*
X39356Y-56955D01*
X39413Y-57067D01*
X39469Y-57292D01*
X39469Y-57573D01*
X39413Y-57798D01*
X39356Y-57911D01*
X39300Y-57967D01*
X39188Y-58023D01*
X39075Y-58023D01*
X38963Y-57967D01*
X38907Y-57911D01*
X38850Y-57798D01*
X38794Y-57573D01*
X38794Y-57292D01*
X38850Y-57067D01*
X38907Y-56955D01*
X38963Y-56898D01*
X39075Y-56842D01*
X39975Y-58023D02*
X39975Y-57236D01*
X39975Y-57348D02*
X40031Y-57292D01*
X40144Y-57236D01*
X40313Y-57236D01*
X40425Y-57292D01*
X40481Y-57405D01*
X40481Y-58023D01*
X40481Y-57405D02*
X40538Y-57292D01*
X40650Y-57236D01*
X40819Y-57236D01*
X40931Y-57292D01*
X40987Y-57405D01*
X40987Y-58023D01*
X41550Y-58023D02*
X41550Y-57236D01*
X41550Y-57348D02*
X41606Y-57292D01*
X41719Y-57236D01*
X41887Y-57236D01*
X42000Y-57292D01*
X42056Y-57405D01*
X42056Y-58023D01*
X42056Y-57405D02*
X42112Y-57292D01*
X42225Y-57236D01*
X42394Y-57236D01*
X42506Y-57292D01*
X42562Y-57405D01*
X42562Y-58023D01*
X44868Y-56786D02*
X43856Y-58305D01*
X46387Y-56842D02*
X46499Y-56842D01*
X46612Y-56898D01*
X46668Y-56955D01*
X46724Y-57067D01*
X46781Y-57292D01*
X46781Y-57573D01*
X46724Y-57798D01*
X46668Y-57911D01*
X46612Y-57967D01*
X46499Y-58023D01*
X46387Y-58023D01*
X46274Y-57967D01*
X46218Y-57911D01*
X46162Y-57798D01*
X46106Y-57573D01*
X46106Y-57292D01*
X46162Y-57067D01*
X46218Y-56955D01*
X46274Y-56898D01*
X46387Y-56842D01*
X47287Y-57911D02*
X47343Y-57967D01*
X47287Y-58023D01*
X47230Y-57967D01*
X47287Y-57911D01*
X47287Y-58023D01*
X48074Y-56842D02*
X48187Y-56842D01*
X48299Y-56898D01*
X48355Y-56955D01*
X48412Y-57067D01*
X48468Y-57292D01*
X48468Y-57573D01*
X48412Y-57798D01*
X48355Y-57911D01*
X48299Y-57967D01*
X48187Y-58023D01*
X48074Y-58023D01*
X47962Y-57967D01*
X47905Y-57911D01*
X47849Y-57798D01*
X47793Y-57573D01*
X47793Y-57292D01*
X47849Y-57067D01*
X47905Y-56955D01*
X47962Y-56898D01*
X48074Y-56842D01*
X48862Y-56842D02*
X49593Y-56842D01*
X49199Y-57292D01*
X49368Y-57292D01*
X49480Y-57348D01*
X49536Y-57405D01*
X49593Y-57517D01*
X49593Y-57798D01*
X49536Y-57911D01*
X49480Y-57967D01*
X49368Y-58023D01*
X49030Y-58023D01*
X48918Y-57967D01*
X48862Y-57911D01*
X50043Y-56955D02*
X50099Y-56898D01*
X50211Y-56842D01*
X50493Y-56842D01*
X50605Y-56898D01*
X50661Y-56955D01*
X50718Y-57067D01*
X50718Y-57180D01*
X50661Y-57348D01*
X49986Y-58023D01*
X50718Y-58023D01*
X51167Y-56842D02*
X51167Y-57067D01*
X51617Y-56842D02*
X51617Y-57067D01*
X53361Y-58473D02*
X53305Y-58417D01*
X53192Y-58248D01*
X53136Y-58136D01*
X53080Y-57967D01*
X53023Y-57686D01*
X53023Y-57461D01*
X53080Y-57180D01*
X53136Y-57011D01*
X53192Y-56898D01*
X53305Y-56730D01*
X53361Y-56673D01*
X54317Y-57236D02*
X54317Y-58023D01*
X54036Y-56786D02*
X53755Y-57630D01*
X54486Y-57630D01*
X55836Y-58023D02*
X55836Y-56842D01*
X56342Y-58023D02*
X56342Y-57405D01*
X56286Y-57292D01*
X56173Y-57236D01*
X56004Y-57236D01*
X55892Y-57292D01*
X55836Y-57348D01*
X57073Y-58023D02*
X56961Y-57967D01*
X56904Y-57911D01*
X56848Y-57798D01*
X56848Y-57461D01*
X56904Y-57348D01*
X56961Y-57292D01*
X57073Y-57236D01*
X57242Y-57236D01*
X57354Y-57292D01*
X57410Y-57348D01*
X57467Y-57461D01*
X57467Y-57798D01*
X57410Y-57911D01*
X57354Y-57967D01*
X57242Y-58023D01*
X57073Y-58023D01*
X58142Y-58023D02*
X58029Y-57967D01*
X57973Y-57855D01*
X57973Y-56842D01*
X59041Y-57967D02*
X58929Y-58023D01*
X58704Y-58023D01*
X58592Y-57967D01*
X58535Y-57855D01*
X58535Y-57405D01*
X58592Y-57292D01*
X58704Y-57236D01*
X58929Y-57236D01*
X59041Y-57292D01*
X59098Y-57405D01*
X59098Y-57517D01*
X58535Y-57630D01*
X59548Y-57967D02*
X59660Y-58023D01*
X59885Y-58023D01*
X59998Y-57967D01*
X60054Y-57855D01*
X60054Y-57798D01*
X59998Y-57686D01*
X59885Y-57630D01*
X59716Y-57630D01*
X59604Y-57573D01*
X59548Y-57461D01*
X59548Y-57405D01*
X59604Y-57292D01*
X59716Y-57236D01*
X59885Y-57236D01*
X59998Y-57292D01*
X60448Y-58473D02*
X60504Y-58417D01*
X60616Y-58248D01*
X60673Y-58136D01*
X60729Y-57967D01*
X60785Y-57686D01*
X60785Y-57461D01*
X60729Y-57180D01*
X60673Y-57011D01*
X60616Y-56898D01*
X60504Y-56730D01*
X60448Y-56673D01*
X34649Y-58944D02*
X34969Y-59264D01*
X34969Y-58944D02*
X34649Y-59264D01*
G54D12*
X34969Y-59104D02*
G75*
G03X34969Y-59104I-160J0D01*
G74*
G01*
G54D13*
X36263Y-58401D02*
X36376Y-58401D01*
X36488Y-58458D01*
X36544Y-58514D01*
X36601Y-58626D01*
X36657Y-58851D01*
X36657Y-59132D01*
X36601Y-59357D01*
X36544Y-59470D01*
X36488Y-59526D01*
X36376Y-59582D01*
X36263Y-59582D01*
X36151Y-59526D01*
X36094Y-59470D01*
X36038Y-59357D01*
X35982Y-59132D01*
X35982Y-58851D01*
X36038Y-58626D01*
X36094Y-58514D01*
X36151Y-58458D01*
X36263Y-58401D01*
X37163Y-59470D02*
X37219Y-59526D01*
X37163Y-59582D01*
X37107Y-59526D01*
X37163Y-59470D01*
X37163Y-59582D01*
X37894Y-58907D02*
X37782Y-58851D01*
X37725Y-58795D01*
X37669Y-58682D01*
X37669Y-58626D01*
X37725Y-58514D01*
X37782Y-58458D01*
X37894Y-58401D01*
X38119Y-58401D01*
X38232Y-58458D01*
X38288Y-58514D01*
X38344Y-58626D01*
X38344Y-58682D01*
X38288Y-58795D01*
X38232Y-58851D01*
X38119Y-58907D01*
X37894Y-58907D01*
X37782Y-58964D01*
X37725Y-59020D01*
X37669Y-59132D01*
X37669Y-59357D01*
X37725Y-59470D01*
X37782Y-59526D01*
X37894Y-59582D01*
X38119Y-59582D01*
X38232Y-59526D01*
X38288Y-59470D01*
X38344Y-59357D01*
X38344Y-59132D01*
X38288Y-59020D01*
X38232Y-58964D01*
X38119Y-58907D01*
X39469Y-59582D02*
X38794Y-59582D01*
X39131Y-59582D02*
X39131Y-58401D01*
X39019Y-58570D01*
X38907Y-58682D01*
X38794Y-58739D01*
X39975Y-59582D02*
X39975Y-58795D01*
X39975Y-58907D02*
X40031Y-58851D01*
X40144Y-58795D01*
X40313Y-58795D01*
X40425Y-58851D01*
X40481Y-58964D01*
X40481Y-59582D01*
X40481Y-58964D02*
X40538Y-58851D01*
X40650Y-58795D01*
X40819Y-58795D01*
X40931Y-58851D01*
X40987Y-58964D01*
X40987Y-59582D01*
X41550Y-59582D02*
X41550Y-58795D01*
X41550Y-58907D02*
X41606Y-58851D01*
X41719Y-58795D01*
X41887Y-58795D01*
X42000Y-58851D01*
X42056Y-58964D01*
X42056Y-59582D01*
X42056Y-58964D02*
X42112Y-58851D01*
X42225Y-58795D01*
X42394Y-58795D01*
X42506Y-58851D01*
X42562Y-58964D01*
X42562Y-59582D01*
X44868Y-58345D02*
X43856Y-59864D01*
X46387Y-58401D02*
X46499Y-58401D01*
X46612Y-58458D01*
X46668Y-58514D01*
X46724Y-58626D01*
X46781Y-58851D01*
X46781Y-59132D01*
X46724Y-59357D01*
X46668Y-59470D01*
X46612Y-59526D01*
X46499Y-59582D01*
X46387Y-59582D01*
X46274Y-59526D01*
X46218Y-59470D01*
X46162Y-59357D01*
X46106Y-59132D01*
X46106Y-58851D01*
X46162Y-58626D01*
X46218Y-58514D01*
X46274Y-58458D01*
X46387Y-58401D01*
X47287Y-59470D02*
X47343Y-59526D01*
X47287Y-59582D01*
X47230Y-59526D01*
X47287Y-59470D01*
X47287Y-59582D01*
X48074Y-58401D02*
X48187Y-58401D01*
X48299Y-58458D01*
X48355Y-58514D01*
X48412Y-58626D01*
X48468Y-58851D01*
X48468Y-59132D01*
X48412Y-59357D01*
X48355Y-59470D01*
X48299Y-59526D01*
X48187Y-59582D01*
X48074Y-59582D01*
X47962Y-59526D01*
X47905Y-59470D01*
X47849Y-59357D01*
X47793Y-59132D01*
X47793Y-58851D01*
X47849Y-58626D01*
X47905Y-58514D01*
X47962Y-58458D01*
X48074Y-58401D01*
X48862Y-58401D02*
X49593Y-58401D01*
X49199Y-58851D01*
X49368Y-58851D01*
X49480Y-58907D01*
X49536Y-58964D01*
X49593Y-59076D01*
X49593Y-59357D01*
X49536Y-59470D01*
X49480Y-59526D01*
X49368Y-59582D01*
X49030Y-59582D01*
X48918Y-59526D01*
X48862Y-59470D01*
X50043Y-58514D02*
X50099Y-58458D01*
X50211Y-58401D01*
X50493Y-58401D01*
X50605Y-58458D01*
X50661Y-58514D01*
X50718Y-58626D01*
X50718Y-58739D01*
X50661Y-58907D01*
X49986Y-59582D01*
X50718Y-59582D01*
X51167Y-58401D02*
X51167Y-58626D01*
X51617Y-58401D02*
X51617Y-58626D01*
X53361Y-60032D02*
X53305Y-59976D01*
X53192Y-59807D01*
X53136Y-59695D01*
X53080Y-59526D01*
X53023Y-59245D01*
X53023Y-59020D01*
X53080Y-58739D01*
X53136Y-58570D01*
X53192Y-58458D01*
X53305Y-58289D01*
X53361Y-58233D01*
X53755Y-58514D02*
X53811Y-58458D01*
X53923Y-58401D01*
X54205Y-58401D01*
X54317Y-58458D01*
X54373Y-58514D01*
X54430Y-58626D01*
X54430Y-58739D01*
X54373Y-58907D01*
X53698Y-59582D01*
X54430Y-59582D01*
X55161Y-58401D02*
X55273Y-58401D01*
X55386Y-58458D01*
X55442Y-58514D01*
X55498Y-58626D01*
X55554Y-58851D01*
X55554Y-59132D01*
X55498Y-59357D01*
X55442Y-59470D01*
X55386Y-59526D01*
X55273Y-59582D01*
X55161Y-59582D01*
X55048Y-59526D01*
X54992Y-59470D01*
X54936Y-59357D01*
X54880Y-59132D01*
X54880Y-58851D01*
X54936Y-58626D01*
X54992Y-58514D01*
X55048Y-58458D01*
X55161Y-58401D01*
X56961Y-59582D02*
X56961Y-58401D01*
X57467Y-59582D02*
X57467Y-58964D01*
X57410Y-58851D01*
X57298Y-58795D01*
X57129Y-58795D01*
X57017Y-58851D01*
X56961Y-58907D01*
X58198Y-59582D02*
X58085Y-59526D01*
X58029Y-59470D01*
X57973Y-59357D01*
X57973Y-59020D01*
X58029Y-58907D01*
X58085Y-58851D01*
X58198Y-58795D01*
X58367Y-58795D01*
X58479Y-58851D01*
X58535Y-58907D01*
X58592Y-59020D01*
X58592Y-59357D01*
X58535Y-59470D01*
X58479Y-59526D01*
X58367Y-59582D01*
X58198Y-59582D01*
X59266Y-59582D02*
X59154Y-59526D01*
X59098Y-59414D01*
X59098Y-58401D01*
X60166Y-59526D02*
X60054Y-59582D01*
X59829Y-59582D01*
X59716Y-59526D01*
X59660Y-59414D01*
X59660Y-58964D01*
X59716Y-58851D01*
X59829Y-58795D01*
X60054Y-58795D01*
X60166Y-58851D01*
X60223Y-58964D01*
X60223Y-59076D01*
X59660Y-59189D01*
X60673Y-59526D02*
X60785Y-59582D01*
X61010Y-59582D01*
X61122Y-59526D01*
X61179Y-59414D01*
X61179Y-59357D01*
X61122Y-59245D01*
X61010Y-59189D01*
X60841Y-59189D01*
X60729Y-59132D01*
X60673Y-59020D01*
X60673Y-58964D01*
X60729Y-58851D01*
X60841Y-58795D01*
X61010Y-58795D01*
X61122Y-58851D01*
X61572Y-60032D02*
X61629Y-59976D01*
X61741Y-59807D01*
X61797Y-59695D01*
X61854Y-59526D01*
X61910Y-59245D01*
X61910Y-59020D01*
X61854Y-58739D01*
X61797Y-58570D01*
X61741Y-58458D01*
X61629Y-58289D01*
X61572Y-58233D01*
X34619Y-60488D02*
X34969Y-60838D01*
X34969Y-60488D02*
X34619Y-60838D01*
X34794Y-60488D02*
X34794Y-60838D01*
X34619Y-60663D02*
X34969Y-60663D01*
X36263Y-59960D02*
X36376Y-59960D01*
X36488Y-60017D01*
X36544Y-60073D01*
X36601Y-60185D01*
X36657Y-60410D01*
X36657Y-60691D01*
X36601Y-60916D01*
X36544Y-61029D01*
X36488Y-61085D01*
X36376Y-61141D01*
X36263Y-61141D01*
X36151Y-61085D01*
X36094Y-61029D01*
X36038Y-60916D01*
X35982Y-60691D01*
X35982Y-60410D01*
X36038Y-60185D01*
X36094Y-60073D01*
X36151Y-60017D01*
X36263Y-59960D01*
X37163Y-61029D02*
X37219Y-61085D01*
X37163Y-61141D01*
X37107Y-61085D01*
X37163Y-61029D01*
X37163Y-61141D01*
X37894Y-60467D02*
X37782Y-60410D01*
X37725Y-60354D01*
X37669Y-60242D01*
X37669Y-60185D01*
X37725Y-60073D01*
X37782Y-60017D01*
X37894Y-59960D01*
X38119Y-59960D01*
X38232Y-60017D01*
X38288Y-60073D01*
X38344Y-60185D01*
X38344Y-60242D01*
X38288Y-60354D01*
X38232Y-60410D01*
X38119Y-60467D01*
X37894Y-60467D01*
X37782Y-60523D01*
X37725Y-60579D01*
X37669Y-60691D01*
X37669Y-60916D01*
X37725Y-61029D01*
X37782Y-61085D01*
X37894Y-61141D01*
X38119Y-61141D01*
X38232Y-61085D01*
X38288Y-61029D01*
X38344Y-60916D01*
X38344Y-60691D01*
X38288Y-60579D01*
X38232Y-60523D01*
X38119Y-60467D01*
X38907Y-61141D02*
X39131Y-61141D01*
X39244Y-61085D01*
X39300Y-61029D01*
X39413Y-60860D01*
X39469Y-60635D01*
X39469Y-60185D01*
X39413Y-60073D01*
X39356Y-60017D01*
X39244Y-59960D01*
X39019Y-59960D01*
X38907Y-60017D01*
X38850Y-60073D01*
X38794Y-60185D01*
X38794Y-60467D01*
X38850Y-60579D01*
X38907Y-60635D01*
X39019Y-60691D01*
X39244Y-60691D01*
X39356Y-60635D01*
X39413Y-60579D01*
X39469Y-60467D01*
X39975Y-61141D02*
X39975Y-60354D01*
X39975Y-60467D02*
X40031Y-60410D01*
X40144Y-60354D01*
X40313Y-60354D01*
X40425Y-60410D01*
X40481Y-60523D01*
X40481Y-61141D01*
X40481Y-60523D02*
X40538Y-60410D01*
X40650Y-60354D01*
X40819Y-60354D01*
X40931Y-60410D01*
X40987Y-60523D01*
X40987Y-61141D01*
X41550Y-61141D02*
X41550Y-60354D01*
X41550Y-60467D02*
X41606Y-60410D01*
X41719Y-60354D01*
X41887Y-60354D01*
X42000Y-60410D01*
X42056Y-60523D01*
X42056Y-61141D01*
X42056Y-60523D02*
X42112Y-60410D01*
X42225Y-60354D01*
X42394Y-60354D01*
X42506Y-60410D01*
X42562Y-60523D01*
X42562Y-61141D01*
X44868Y-59904D02*
X43856Y-61423D01*
X46387Y-59960D02*
X46499Y-59960D01*
X46612Y-60017D01*
X46668Y-60073D01*
X46724Y-60185D01*
X46781Y-60410D01*
X46781Y-60691D01*
X46724Y-60916D01*
X46668Y-61029D01*
X46612Y-61085D01*
X46499Y-61141D01*
X46387Y-61141D01*
X46274Y-61085D01*
X46218Y-61029D01*
X46162Y-60916D01*
X46106Y-60691D01*
X46106Y-60410D01*
X46162Y-60185D01*
X46218Y-60073D01*
X46274Y-60017D01*
X46387Y-59960D01*
X47287Y-61029D02*
X47343Y-61085D01*
X47287Y-61141D01*
X47230Y-61085D01*
X47287Y-61029D01*
X47287Y-61141D01*
X48074Y-59960D02*
X48187Y-59960D01*
X48299Y-60017D01*
X48355Y-60073D01*
X48412Y-60185D01*
X48468Y-60410D01*
X48468Y-60691D01*
X48412Y-60916D01*
X48355Y-61029D01*
X48299Y-61085D01*
X48187Y-61141D01*
X48074Y-61141D01*
X47962Y-61085D01*
X47905Y-61029D01*
X47849Y-60916D01*
X47793Y-60691D01*
X47793Y-60410D01*
X47849Y-60185D01*
X47905Y-60073D01*
X47962Y-60017D01*
X48074Y-59960D01*
X48862Y-59960D02*
X49593Y-59960D01*
X49199Y-60410D01*
X49368Y-60410D01*
X49480Y-60467D01*
X49536Y-60523D01*
X49593Y-60635D01*
X49593Y-60916D01*
X49536Y-61029D01*
X49480Y-61085D01*
X49368Y-61141D01*
X49030Y-61141D01*
X48918Y-61085D01*
X48862Y-61029D01*
X50661Y-59960D02*
X50099Y-59960D01*
X50043Y-60523D01*
X50099Y-60467D01*
X50211Y-60410D01*
X50493Y-60410D01*
X50605Y-60467D01*
X50661Y-60523D01*
X50718Y-60635D01*
X50718Y-60916D01*
X50661Y-61029D01*
X50605Y-61085D01*
X50493Y-61141D01*
X50211Y-61141D01*
X50099Y-61085D01*
X50043Y-61029D01*
X51167Y-59960D02*
X51167Y-60185D01*
X51617Y-59960D02*
X51617Y-60185D01*
X53361Y-61591D02*
X53305Y-61535D01*
X53192Y-61366D01*
X53136Y-61254D01*
X53080Y-61085D01*
X53023Y-60804D01*
X53023Y-60579D01*
X53080Y-60298D01*
X53136Y-60129D01*
X53192Y-60017D01*
X53305Y-59848D01*
X53361Y-59792D01*
X54430Y-61141D02*
X53755Y-61141D01*
X54092Y-61141D02*
X54092Y-59960D01*
X53980Y-60129D01*
X53867Y-60242D01*
X53755Y-60298D01*
X55442Y-60354D02*
X55442Y-61141D01*
X55161Y-59904D02*
X54880Y-60748D01*
X55611Y-60748D01*
X56961Y-61141D02*
X56961Y-59960D01*
X57467Y-61141D02*
X57467Y-60523D01*
X57410Y-60410D01*
X57298Y-60354D01*
X57129Y-60354D01*
X57017Y-60410D01*
X56961Y-60467D01*
X58198Y-61141D02*
X58085Y-61085D01*
X58029Y-61029D01*
X57973Y-60916D01*
X57973Y-60579D01*
X58029Y-60467D01*
X58085Y-60410D01*
X58198Y-60354D01*
X58367Y-60354D01*
X58479Y-60410D01*
X58535Y-60467D01*
X58592Y-60579D01*
X58592Y-60916D01*
X58535Y-61029D01*
X58479Y-61085D01*
X58367Y-61141D01*
X58198Y-61141D01*
X59266Y-61141D02*
X59154Y-61085D01*
X59098Y-60973D01*
X59098Y-59960D01*
X60166Y-61085D02*
X60054Y-61141D01*
X59829Y-61141D01*
X59716Y-61085D01*
X59660Y-60973D01*
X59660Y-60523D01*
X59716Y-60410D01*
X59829Y-60354D01*
X60054Y-60354D01*
X60166Y-60410D01*
X60223Y-60523D01*
X60223Y-60635D01*
X59660Y-60748D01*
X60673Y-61085D02*
X60785Y-61141D01*
X61010Y-61141D01*
X61122Y-61085D01*
X61179Y-60973D01*
X61179Y-60916D01*
X61122Y-60804D01*
X61010Y-60748D01*
X60841Y-60748D01*
X60729Y-60691D01*
X60673Y-60579D01*
X60673Y-60523D01*
X60729Y-60410D01*
X60841Y-60354D01*
X61010Y-60354D01*
X61122Y-60410D01*
X61572Y-61591D02*
X61629Y-61535D01*
X61741Y-61366D01*
X61797Y-61254D01*
X61854Y-61085D01*
X61910Y-60804D01*
X61910Y-60579D01*
X61854Y-60298D01*
X61797Y-60129D01*
X61741Y-60017D01*
X61629Y-59848D01*
X61572Y-59792D01*
X34599Y-62037D02*
X34969Y-62407D01*
X34969Y-62037D02*
X34599Y-62407D01*
G54D12*
X34915Y-62353D02*
X34915Y-62092D01*
X34654Y-62092D01*
X34654Y-62353D01*
X34915Y-62353D01*
G54D13*
X36263Y-61519D02*
X36376Y-61519D01*
X36488Y-61576D01*
X36544Y-61632D01*
X36601Y-61744D01*
X36657Y-61969D01*
X36657Y-62251D01*
X36601Y-62476D01*
X36544Y-62588D01*
X36488Y-62644D01*
X36376Y-62700D01*
X36263Y-62700D01*
X36151Y-62644D01*
X36094Y-62588D01*
X36038Y-62476D01*
X35982Y-62251D01*
X35982Y-61969D01*
X36038Y-61744D01*
X36094Y-61632D01*
X36151Y-61576D01*
X36263Y-61519D01*
X37163Y-62588D02*
X37219Y-62644D01*
X37163Y-62700D01*
X37107Y-62644D01*
X37163Y-62588D01*
X37163Y-62700D01*
X37782Y-62700D02*
X38007Y-62700D01*
X38119Y-62644D01*
X38175Y-62588D01*
X38288Y-62419D01*
X38344Y-62194D01*
X38344Y-61744D01*
X38288Y-61632D01*
X38232Y-61576D01*
X38119Y-61519D01*
X37894Y-61519D01*
X37782Y-61576D01*
X37725Y-61632D01*
X37669Y-61744D01*
X37669Y-62026D01*
X37725Y-62138D01*
X37782Y-62194D01*
X37894Y-62251D01*
X38119Y-62251D01*
X38232Y-62194D01*
X38288Y-62138D01*
X38344Y-62026D01*
X39356Y-61913D02*
X39356Y-62700D01*
X39075Y-61463D02*
X38794Y-62307D01*
X39525Y-62307D01*
X39975Y-62700D02*
X39975Y-61913D01*
X39975Y-62026D02*
X40031Y-61969D01*
X40144Y-61913D01*
X40313Y-61913D01*
X40425Y-61969D01*
X40481Y-62082D01*
X40481Y-62700D01*
X40481Y-62082D02*
X40538Y-61969D01*
X40650Y-61913D01*
X40819Y-61913D01*
X40931Y-61969D01*
X40987Y-62082D01*
X40987Y-62700D01*
X41550Y-62700D02*
X41550Y-61913D01*
X41550Y-62026D02*
X41606Y-61969D01*
X41719Y-61913D01*
X41887Y-61913D01*
X42000Y-61969D01*
X42056Y-62082D01*
X42056Y-62700D01*
X42056Y-62082D02*
X42112Y-61969D01*
X42225Y-61913D01*
X42394Y-61913D01*
X42506Y-61969D01*
X42562Y-62082D01*
X42562Y-62700D01*
X44868Y-61463D02*
X43856Y-62982D01*
X46387Y-61519D02*
X46499Y-61519D01*
X46612Y-61576D01*
X46668Y-61632D01*
X46724Y-61744D01*
X46781Y-61969D01*
X46781Y-62251D01*
X46724Y-62476D01*
X46668Y-62588D01*
X46612Y-62644D01*
X46499Y-62700D01*
X46387Y-62700D01*
X46274Y-62644D01*
X46218Y-62588D01*
X46162Y-62476D01*
X46106Y-62251D01*
X46106Y-61969D01*
X46162Y-61744D01*
X46218Y-61632D01*
X46274Y-61576D01*
X46387Y-61519D01*
X47287Y-62588D02*
X47343Y-62644D01*
X47287Y-62700D01*
X47230Y-62644D01*
X47287Y-62588D01*
X47287Y-62700D01*
X48074Y-61519D02*
X48187Y-61519D01*
X48299Y-61576D01*
X48355Y-61632D01*
X48412Y-61744D01*
X48468Y-61969D01*
X48468Y-62251D01*
X48412Y-62476D01*
X48355Y-62588D01*
X48299Y-62644D01*
X48187Y-62700D01*
X48074Y-62700D01*
X47962Y-62644D01*
X47905Y-62588D01*
X47849Y-62476D01*
X47793Y-62251D01*
X47793Y-61969D01*
X47849Y-61744D01*
X47905Y-61632D01*
X47962Y-61576D01*
X48074Y-61519D01*
X48862Y-61519D02*
X49593Y-61519D01*
X49199Y-61969D01*
X49368Y-61969D01*
X49480Y-62026D01*
X49536Y-62082D01*
X49593Y-62194D01*
X49593Y-62476D01*
X49536Y-62588D01*
X49480Y-62644D01*
X49368Y-62700D01*
X49030Y-62700D01*
X48918Y-62644D01*
X48862Y-62588D01*
X49986Y-61519D02*
X50774Y-61519D01*
X50268Y-62700D01*
X51167Y-61519D02*
X51167Y-61744D01*
X51617Y-61519D02*
X51617Y-61744D01*
X53361Y-63150D02*
X53305Y-63094D01*
X53192Y-62925D01*
X53136Y-62813D01*
X53080Y-62644D01*
X53023Y-62363D01*
X53023Y-62138D01*
X53080Y-61857D01*
X53136Y-61688D01*
X53192Y-61576D01*
X53305Y-61407D01*
X53361Y-61351D01*
X53755Y-61632D02*
X53811Y-61576D01*
X53923Y-61519D01*
X54205Y-61519D01*
X54317Y-61576D01*
X54373Y-61632D01*
X54430Y-61744D01*
X54430Y-61857D01*
X54373Y-62026D01*
X53698Y-62700D01*
X54430Y-62700D01*
X55836Y-62700D02*
X55836Y-61519D01*
X56342Y-62700D02*
X56342Y-62082D01*
X56286Y-61969D01*
X56173Y-61913D01*
X56004Y-61913D01*
X55892Y-61969D01*
X55836Y-62026D01*
X57073Y-62700D02*
X56961Y-62644D01*
X56904Y-62588D01*
X56848Y-62476D01*
X56848Y-62138D01*
X56904Y-62026D01*
X56961Y-61969D01*
X57073Y-61913D01*
X57242Y-61913D01*
X57354Y-61969D01*
X57410Y-62026D01*
X57467Y-62138D01*
X57467Y-62476D01*
X57410Y-62588D01*
X57354Y-62644D01*
X57242Y-62700D01*
X57073Y-62700D01*
X58142Y-62700D02*
X58029Y-62644D01*
X57973Y-62532D01*
X57973Y-61519D01*
X59041Y-62644D02*
X58929Y-62700D01*
X58704Y-62700D01*
X58592Y-62644D01*
X58535Y-62532D01*
X58535Y-62082D01*
X58592Y-61969D01*
X58704Y-61913D01*
X58929Y-61913D01*
X59041Y-61969D01*
X59098Y-62082D01*
X59098Y-62194D01*
X58535Y-62307D01*
X59548Y-62644D02*
X59660Y-62700D01*
X59885Y-62700D01*
X59998Y-62644D01*
X60054Y-62532D01*
X60054Y-62476D01*
X59998Y-62363D01*
X59885Y-62307D01*
X59716Y-62307D01*
X59604Y-62251D01*
X59548Y-62138D01*
X59548Y-62082D01*
X59604Y-61969D01*
X59716Y-61913D01*
X59885Y-61913D01*
X59998Y-61969D01*
X60448Y-63150D02*
X60504Y-63094D01*
X60616Y-62925D01*
X60673Y-62813D01*
X60729Y-62644D01*
X60785Y-62363D01*
X60785Y-62138D01*
X60729Y-61857D01*
X60673Y-61688D01*
X60616Y-61576D01*
X60504Y-61407D01*
X60448Y-61351D01*
X34589Y-63591D02*
X34969Y-63971D01*
X34969Y-63591D02*
X34589Y-63971D01*
G54D12*
X34779Y-63971D02*
X34969Y-63781D01*
X34779Y-63591D01*
X34589Y-63781D01*
X34779Y-63971D01*
G54D13*
X36263Y-63078D02*
X36376Y-63078D01*
X36488Y-63135D01*
X36544Y-63191D01*
X36601Y-63303D01*
X36657Y-63528D01*
X36657Y-63810D01*
X36601Y-64035D01*
X36544Y-64147D01*
X36488Y-64203D01*
X36376Y-64260D01*
X36263Y-64260D01*
X36151Y-64203D01*
X36094Y-64147D01*
X36038Y-64035D01*
X35982Y-63810D01*
X35982Y-63528D01*
X36038Y-63303D01*
X36094Y-63191D01*
X36151Y-63135D01*
X36263Y-63078D01*
X37163Y-64147D02*
X37219Y-64203D01*
X37163Y-64260D01*
X37107Y-64203D01*
X37163Y-64147D01*
X37163Y-64260D01*
X37782Y-64260D02*
X38007Y-64260D01*
X38119Y-64203D01*
X38175Y-64147D01*
X38288Y-63978D01*
X38344Y-63753D01*
X38344Y-63303D01*
X38288Y-63191D01*
X38232Y-63135D01*
X38119Y-63078D01*
X37894Y-63078D01*
X37782Y-63135D01*
X37725Y-63191D01*
X37669Y-63303D01*
X37669Y-63585D01*
X37725Y-63697D01*
X37782Y-63753D01*
X37894Y-63810D01*
X38119Y-63810D01*
X38232Y-63753D01*
X38288Y-63697D01*
X38344Y-63585D01*
X38738Y-63078D02*
X39525Y-63078D01*
X39019Y-64260D01*
X39975Y-64260D02*
X39975Y-63472D01*
X39975Y-63585D02*
X40031Y-63528D01*
X40144Y-63472D01*
X40313Y-63472D01*
X40425Y-63528D01*
X40481Y-63641D01*
X40481Y-64260D01*
X40481Y-63641D02*
X40538Y-63528D01*
X40650Y-63472D01*
X40819Y-63472D01*
X40931Y-63528D01*
X40987Y-63641D01*
X40987Y-64260D01*
X41550Y-64260D02*
X41550Y-63472D01*
X41550Y-63585D02*
X41606Y-63528D01*
X41719Y-63472D01*
X41887Y-63472D01*
X42000Y-63528D01*
X42056Y-63641D01*
X42056Y-64260D01*
X42056Y-63641D02*
X42112Y-63528D01*
X42225Y-63472D01*
X42394Y-63472D01*
X42506Y-63528D01*
X42562Y-63641D01*
X42562Y-64260D01*
X44868Y-63022D02*
X43856Y-64541D01*
X46387Y-63078D02*
X46499Y-63078D01*
X46612Y-63135D01*
X46668Y-63191D01*
X46724Y-63303D01*
X46781Y-63528D01*
X46781Y-63810D01*
X46724Y-64035D01*
X46668Y-64147D01*
X46612Y-64203D01*
X46499Y-64260D01*
X46387Y-64260D01*
X46274Y-64203D01*
X46218Y-64147D01*
X46162Y-64035D01*
X46106Y-63810D01*
X46106Y-63528D01*
X46162Y-63303D01*
X46218Y-63191D01*
X46274Y-63135D01*
X46387Y-63078D01*
X47287Y-64147D02*
X47343Y-64203D01*
X47287Y-64260D01*
X47230Y-64203D01*
X47287Y-64147D01*
X47287Y-64260D01*
X48074Y-63078D02*
X48187Y-63078D01*
X48299Y-63135D01*
X48355Y-63191D01*
X48412Y-63303D01*
X48468Y-63528D01*
X48468Y-63810D01*
X48412Y-64035D01*
X48355Y-64147D01*
X48299Y-64203D01*
X48187Y-64260D01*
X48074Y-64260D01*
X47962Y-64203D01*
X47905Y-64147D01*
X47849Y-64035D01*
X47793Y-63810D01*
X47793Y-63528D01*
X47849Y-63303D01*
X47905Y-63191D01*
X47962Y-63135D01*
X48074Y-63078D01*
X48862Y-63078D02*
X49593Y-63078D01*
X49199Y-63528D01*
X49368Y-63528D01*
X49480Y-63585D01*
X49536Y-63641D01*
X49593Y-63753D01*
X49593Y-64035D01*
X49536Y-64147D01*
X49480Y-64203D01*
X49368Y-64260D01*
X49030Y-64260D01*
X48918Y-64203D01*
X48862Y-64147D01*
X50268Y-63585D02*
X50155Y-63528D01*
X50099Y-63472D01*
X50043Y-63360D01*
X50043Y-63303D01*
X50099Y-63191D01*
X50155Y-63135D01*
X50268Y-63078D01*
X50493Y-63078D01*
X50605Y-63135D01*
X50661Y-63191D01*
X50718Y-63303D01*
X50718Y-63360D01*
X50661Y-63472D01*
X50605Y-63528D01*
X50493Y-63585D01*
X50268Y-63585D01*
X50155Y-63641D01*
X50099Y-63697D01*
X50043Y-63810D01*
X50043Y-64035D01*
X50099Y-64147D01*
X50155Y-64203D01*
X50268Y-64260D01*
X50493Y-64260D01*
X50605Y-64203D01*
X50661Y-64147D01*
X50718Y-64035D01*
X50718Y-63810D01*
X50661Y-63697D01*
X50605Y-63641D01*
X50493Y-63585D01*
X51167Y-63078D02*
X51167Y-63303D01*
X51617Y-63078D02*
X51617Y-63303D01*
X53361Y-64709D02*
X53305Y-64653D01*
X53192Y-64485D01*
X53136Y-64372D01*
X53080Y-64203D01*
X53023Y-63922D01*
X53023Y-63697D01*
X53080Y-63416D01*
X53136Y-63247D01*
X53192Y-63135D01*
X53305Y-62966D01*
X53361Y-62910D01*
X53980Y-63585D02*
X53867Y-63528D01*
X53811Y-63472D01*
X53755Y-63360D01*
X53755Y-63303D01*
X53811Y-63191D01*
X53867Y-63135D01*
X53980Y-63078D01*
X54205Y-63078D01*
X54317Y-63135D01*
X54373Y-63191D01*
X54430Y-63303D01*
X54430Y-63360D01*
X54373Y-63472D01*
X54317Y-63528D01*
X54205Y-63585D01*
X53980Y-63585D01*
X53867Y-63641D01*
X53811Y-63697D01*
X53755Y-63810D01*
X53755Y-64035D01*
X53811Y-64147D01*
X53867Y-64203D01*
X53980Y-64260D01*
X54205Y-64260D01*
X54317Y-64203D01*
X54373Y-64147D01*
X54430Y-64035D01*
X54430Y-63810D01*
X54373Y-63697D01*
X54317Y-63641D01*
X54205Y-63585D01*
X55836Y-64260D02*
X55836Y-63078D01*
X56342Y-64260D02*
X56342Y-63641D01*
X56286Y-63528D01*
X56173Y-63472D01*
X56004Y-63472D01*
X55892Y-63528D01*
X55836Y-63585D01*
X57073Y-64260D02*
X56961Y-64203D01*
X56904Y-64147D01*
X56848Y-64035D01*
X56848Y-63697D01*
X56904Y-63585D01*
X56961Y-63528D01*
X57073Y-63472D01*
X57242Y-63472D01*
X57354Y-63528D01*
X57410Y-63585D01*
X57467Y-63697D01*
X57467Y-64035D01*
X57410Y-64147D01*
X57354Y-64203D01*
X57242Y-64260D01*
X57073Y-64260D01*
X58142Y-64260D02*
X58029Y-64203D01*
X57973Y-64091D01*
X57973Y-63078D01*
X59041Y-64203D02*
X58929Y-64260D01*
X58704Y-64260D01*
X58592Y-64203D01*
X58535Y-64091D01*
X58535Y-63641D01*
X58592Y-63528D01*
X58704Y-63472D01*
X58929Y-63472D01*
X59041Y-63528D01*
X59098Y-63641D01*
X59098Y-63753D01*
X58535Y-63866D01*
X59548Y-64203D02*
X59660Y-64260D01*
X59885Y-64260D01*
X59998Y-64203D01*
X60054Y-64091D01*
X60054Y-64035D01*
X59998Y-63922D01*
X59885Y-63866D01*
X59716Y-63866D01*
X59604Y-63810D01*
X59548Y-63697D01*
X59548Y-63641D01*
X59604Y-63528D01*
X59716Y-63472D01*
X59885Y-63472D01*
X59998Y-63528D01*
X60448Y-64709D02*
X60504Y-64653D01*
X60616Y-64485D01*
X60673Y-64372D01*
X60729Y-64203D01*
X60785Y-63922D01*
X60785Y-63697D01*
X60729Y-63416D01*
X60673Y-63247D01*
X60616Y-63135D01*
X60504Y-62966D01*
X60448Y-62910D01*
X34773Y-65144D02*
X34773Y-65537D01*
X34576Y-65341D02*
X34969Y-65341D01*
G54D12*
X34969Y-65341D02*
G75*
G03X34969Y-65341I-196J0D01*
G74*
G01*
G54D13*
X36657Y-65819D02*
X35982Y-65819D01*
X36319Y-65819D02*
X36319Y-64637D01*
X36207Y-64806D01*
X36094Y-64919D01*
X35982Y-64975D01*
X37163Y-65706D02*
X37219Y-65762D01*
X37163Y-65819D01*
X37107Y-65762D01*
X37163Y-65706D01*
X37163Y-65819D01*
X37950Y-64637D02*
X38063Y-64637D01*
X38175Y-64694D01*
X38232Y-64750D01*
X38288Y-64862D01*
X38344Y-65087D01*
X38344Y-65369D01*
X38288Y-65594D01*
X38232Y-65706D01*
X38175Y-65762D01*
X38063Y-65819D01*
X37950Y-65819D01*
X37838Y-65762D01*
X37782Y-65706D01*
X37725Y-65594D01*
X37669Y-65369D01*
X37669Y-65087D01*
X37725Y-64862D01*
X37782Y-64750D01*
X37838Y-64694D01*
X37950Y-64637D01*
X39075Y-64637D02*
X39188Y-64637D01*
X39300Y-64694D01*
X39356Y-64750D01*
X39413Y-64862D01*
X39469Y-65087D01*
X39469Y-65369D01*
X39413Y-65594D01*
X39356Y-65706D01*
X39300Y-65762D01*
X39188Y-65819D01*
X39075Y-65819D01*
X38963Y-65762D01*
X38907Y-65706D01*
X38850Y-65594D01*
X38794Y-65369D01*
X38794Y-65087D01*
X38850Y-64862D01*
X38907Y-64750D01*
X38963Y-64694D01*
X39075Y-64637D01*
X39975Y-65819D02*
X39975Y-65031D01*
X39975Y-65144D02*
X40031Y-65087D01*
X40144Y-65031D01*
X40313Y-65031D01*
X40425Y-65087D01*
X40481Y-65200D01*
X40481Y-65819D01*
X40481Y-65200D02*
X40538Y-65087D01*
X40650Y-65031D01*
X40819Y-65031D01*
X40931Y-65087D01*
X40987Y-65200D01*
X40987Y-65819D01*
X41550Y-65819D02*
X41550Y-65031D01*
X41550Y-65144D02*
X41606Y-65087D01*
X41719Y-65031D01*
X41887Y-65031D01*
X42000Y-65087D01*
X42056Y-65200D01*
X42056Y-65819D01*
X42056Y-65200D02*
X42112Y-65087D01*
X42225Y-65031D01*
X42394Y-65031D01*
X42506Y-65087D01*
X42562Y-65200D01*
X42562Y-65819D01*
X44868Y-64581D02*
X43856Y-66100D01*
X46387Y-64637D02*
X46499Y-64637D01*
X46612Y-64694D01*
X46668Y-64750D01*
X46724Y-64862D01*
X46781Y-65087D01*
X46781Y-65369D01*
X46724Y-65594D01*
X46668Y-65706D01*
X46612Y-65762D01*
X46499Y-65819D01*
X46387Y-65819D01*
X46274Y-65762D01*
X46218Y-65706D01*
X46162Y-65594D01*
X46106Y-65369D01*
X46106Y-65087D01*
X46162Y-64862D01*
X46218Y-64750D01*
X46274Y-64694D01*
X46387Y-64637D01*
X47287Y-65706D02*
X47343Y-65762D01*
X47287Y-65819D01*
X47230Y-65762D01*
X47287Y-65706D01*
X47287Y-65819D01*
X48074Y-64637D02*
X48187Y-64637D01*
X48299Y-64694D01*
X48355Y-64750D01*
X48412Y-64862D01*
X48468Y-65087D01*
X48468Y-65369D01*
X48412Y-65594D01*
X48355Y-65706D01*
X48299Y-65762D01*
X48187Y-65819D01*
X48074Y-65819D01*
X47962Y-65762D01*
X47905Y-65706D01*
X47849Y-65594D01*
X47793Y-65369D01*
X47793Y-65087D01*
X47849Y-64862D01*
X47905Y-64750D01*
X47962Y-64694D01*
X48074Y-64637D01*
X48862Y-64637D02*
X49593Y-64637D01*
X49199Y-65087D01*
X49368Y-65087D01*
X49480Y-65144D01*
X49536Y-65200D01*
X49593Y-65312D01*
X49593Y-65594D01*
X49536Y-65706D01*
X49480Y-65762D01*
X49368Y-65819D01*
X49030Y-65819D01*
X48918Y-65762D01*
X48862Y-65706D01*
X50155Y-65819D02*
X50380Y-65819D01*
X50493Y-65762D01*
X50549Y-65706D01*
X50661Y-65537D01*
X50718Y-65312D01*
X50718Y-64862D01*
X50661Y-64750D01*
X50605Y-64694D01*
X50493Y-64637D01*
X50268Y-64637D01*
X50155Y-64694D01*
X50099Y-64750D01*
X50043Y-64862D01*
X50043Y-65144D01*
X50099Y-65256D01*
X50155Y-65312D01*
X50268Y-65369D01*
X50493Y-65369D01*
X50605Y-65312D01*
X50661Y-65256D01*
X50718Y-65144D01*
X51167Y-64637D02*
X51167Y-64862D01*
X51617Y-64637D02*
X51617Y-64862D01*
X53361Y-66269D02*
X53305Y-66212D01*
X53192Y-66044D01*
X53136Y-65931D01*
X53080Y-65762D01*
X53023Y-65481D01*
X53023Y-65256D01*
X53080Y-64975D01*
X53136Y-64806D01*
X53192Y-64694D01*
X53305Y-64525D01*
X53361Y-64469D01*
X54036Y-64637D02*
X54148Y-64637D01*
X54261Y-64694D01*
X54317Y-64750D01*
X54373Y-64862D01*
X54430Y-65087D01*
X54430Y-65369D01*
X54373Y-65594D01*
X54317Y-65706D01*
X54261Y-65762D01*
X54148Y-65819D01*
X54036Y-65819D01*
X53923Y-65762D01*
X53867Y-65706D01*
X53811Y-65594D01*
X53755Y-65369D01*
X53755Y-65087D01*
X53811Y-64862D01*
X53867Y-64750D01*
X53923Y-64694D01*
X54036Y-64637D01*
X55836Y-65819D02*
X55836Y-64637D01*
X56342Y-65819D02*
X56342Y-65200D01*
X56286Y-65087D01*
X56173Y-65031D01*
X56004Y-65031D01*
X55892Y-65087D01*
X55836Y-65144D01*
X57073Y-65819D02*
X56961Y-65762D01*
X56904Y-65706D01*
X56848Y-65594D01*
X56848Y-65256D01*
X56904Y-65144D01*
X56961Y-65087D01*
X57073Y-65031D01*
X57242Y-65031D01*
X57354Y-65087D01*
X57410Y-65144D01*
X57467Y-65256D01*
X57467Y-65594D01*
X57410Y-65706D01*
X57354Y-65762D01*
X57242Y-65819D01*
X57073Y-65819D01*
X58142Y-65819D02*
X58029Y-65762D01*
X57973Y-65650D01*
X57973Y-64637D01*
X59041Y-65762D02*
X58929Y-65819D01*
X58704Y-65819D01*
X58592Y-65762D01*
X58535Y-65650D01*
X58535Y-65200D01*
X58592Y-65087D01*
X58704Y-65031D01*
X58929Y-65031D01*
X59041Y-65087D01*
X59098Y-65200D01*
X59098Y-65312D01*
X58535Y-65425D01*
X59548Y-65762D02*
X59660Y-65819D01*
X59885Y-65819D01*
X59998Y-65762D01*
X60054Y-65650D01*
X60054Y-65594D01*
X59998Y-65481D01*
X59885Y-65425D01*
X59716Y-65425D01*
X59604Y-65369D01*
X59548Y-65256D01*
X59548Y-65200D01*
X59604Y-65087D01*
X59716Y-65031D01*
X59885Y-65031D01*
X59998Y-65087D01*
X61460Y-65369D02*
X62360Y-65369D01*
X61910Y-65819D02*
X61910Y-64919D01*
X63710Y-64637D02*
X64441Y-64637D01*
X64047Y-65087D01*
X64216Y-65087D01*
X64328Y-65144D01*
X64385Y-65200D01*
X64441Y-65312D01*
X64441Y-65594D01*
X64385Y-65706D01*
X64328Y-65762D01*
X64216Y-65819D01*
X63878Y-65819D01*
X63766Y-65762D01*
X63710Y-65706D01*
X65791Y-65762D02*
X65903Y-65819D01*
X66128Y-65819D01*
X66241Y-65762D01*
X66297Y-65650D01*
X66297Y-65594D01*
X66241Y-65481D01*
X66128Y-65425D01*
X65959Y-65425D01*
X65847Y-65369D01*
X65791Y-65256D01*
X65791Y-65200D01*
X65847Y-65087D01*
X65959Y-65031D01*
X66128Y-65031D01*
X66241Y-65087D01*
X66972Y-65819D02*
X66859Y-65762D01*
X66803Y-65650D01*
X66803Y-64637D01*
X67590Y-65819D02*
X67478Y-65762D01*
X67422Y-65706D01*
X67365Y-65594D01*
X67365Y-65256D01*
X67422Y-65144D01*
X67478Y-65087D01*
X67590Y-65031D01*
X67759Y-65031D01*
X67872Y-65087D01*
X67928Y-65144D01*
X67984Y-65256D01*
X67984Y-65594D01*
X67928Y-65706D01*
X67872Y-65762D01*
X67759Y-65819D01*
X67590Y-65819D01*
X68322Y-65031D02*
X68772Y-65031D01*
X68490Y-64637D02*
X68490Y-65650D01*
X68547Y-65762D01*
X68659Y-65819D01*
X68772Y-65819D01*
X69109Y-65762D02*
X69221Y-65819D01*
X69446Y-65819D01*
X69559Y-65762D01*
X69615Y-65650D01*
X69615Y-65594D01*
X69559Y-65481D01*
X69446Y-65425D01*
X69278Y-65425D01*
X69165Y-65369D01*
X69109Y-65256D01*
X69109Y-65200D01*
X69165Y-65087D01*
X69278Y-65031D01*
X69446Y-65031D01*
X69559Y-65087D01*
X70009Y-66269D02*
X70065Y-66212D01*
X70178Y-66044D01*
X70234Y-65931D01*
X70290Y-65762D01*
X70346Y-65481D01*
X70346Y-65256D01*
X70290Y-64975D01*
X70234Y-64806D01*
X70178Y-64694D01*
X70065Y-64525D01*
X70009Y-64469D01*
G54D12*
X34911Y-67041D02*
X34911Y-66758D01*
X34628Y-66758D01*
X34628Y-67041D01*
X34911Y-67041D01*
X34969Y-66900D02*
G75*
G03X34969Y-66900I-200J0D01*
G74*
G01*
G54D13*
X36657Y-67378D02*
X35982Y-67378D01*
X36319Y-67378D02*
X36319Y-66197D01*
X36207Y-66365D01*
X36094Y-66478D01*
X35982Y-66534D01*
X37163Y-67265D02*
X37219Y-67321D01*
X37163Y-67378D01*
X37107Y-67321D01*
X37163Y-67265D01*
X37163Y-67378D01*
X37950Y-66197D02*
X38063Y-66197D01*
X38175Y-66253D01*
X38232Y-66309D01*
X38288Y-66422D01*
X38344Y-66646D01*
X38344Y-66928D01*
X38288Y-67153D01*
X38232Y-67265D01*
X38175Y-67321D01*
X38063Y-67378D01*
X37950Y-67378D01*
X37838Y-67321D01*
X37782Y-67265D01*
X37725Y-67153D01*
X37669Y-66928D01*
X37669Y-66646D01*
X37725Y-66422D01*
X37782Y-66309D01*
X37838Y-66253D01*
X37950Y-66197D01*
X38794Y-66309D02*
X38850Y-66253D01*
X38963Y-66197D01*
X39244Y-66197D01*
X39356Y-66253D01*
X39413Y-66309D01*
X39469Y-66422D01*
X39469Y-66534D01*
X39413Y-66703D01*
X38738Y-67378D01*
X39469Y-67378D01*
X39975Y-67378D02*
X39975Y-66590D01*
X39975Y-66703D02*
X40031Y-66646D01*
X40144Y-66590D01*
X40313Y-66590D01*
X40425Y-66646D01*
X40481Y-66759D01*
X40481Y-67378D01*
X40481Y-66759D02*
X40538Y-66646D01*
X40650Y-66590D01*
X40819Y-66590D01*
X40931Y-66646D01*
X40987Y-66759D01*
X40987Y-67378D01*
X41550Y-67378D02*
X41550Y-66590D01*
X41550Y-66703D02*
X41606Y-66646D01*
X41719Y-66590D01*
X41887Y-66590D01*
X42000Y-66646D01*
X42056Y-66759D01*
X42056Y-67378D01*
X42056Y-66759D02*
X42112Y-66646D01*
X42225Y-66590D01*
X42394Y-66590D01*
X42506Y-66646D01*
X42562Y-66759D01*
X42562Y-67378D01*
X44868Y-66140D02*
X43856Y-67659D01*
X46387Y-66197D02*
X46499Y-66197D01*
X46612Y-66253D01*
X46668Y-66309D01*
X46724Y-66422D01*
X46781Y-66646D01*
X46781Y-66928D01*
X46724Y-67153D01*
X46668Y-67265D01*
X46612Y-67321D01*
X46499Y-67378D01*
X46387Y-67378D01*
X46274Y-67321D01*
X46218Y-67265D01*
X46162Y-67153D01*
X46106Y-66928D01*
X46106Y-66646D01*
X46162Y-66422D01*
X46218Y-66309D01*
X46274Y-66253D01*
X46387Y-66197D01*
X47287Y-67265D02*
X47343Y-67321D01*
X47287Y-67378D01*
X47230Y-67321D01*
X47287Y-67265D01*
X47287Y-67378D01*
X48074Y-66197D02*
X48187Y-66197D01*
X48299Y-66253D01*
X48355Y-66309D01*
X48412Y-66422D01*
X48468Y-66646D01*
X48468Y-66928D01*
X48412Y-67153D01*
X48355Y-67265D01*
X48299Y-67321D01*
X48187Y-67378D01*
X48074Y-67378D01*
X47962Y-67321D01*
X47905Y-67265D01*
X47849Y-67153D01*
X47793Y-66928D01*
X47793Y-66646D01*
X47849Y-66422D01*
X47905Y-66309D01*
X47962Y-66253D01*
X48074Y-66197D01*
X49480Y-66590D02*
X49480Y-67378D01*
X49199Y-66140D02*
X48918Y-66984D01*
X49649Y-66984D01*
X50324Y-66197D02*
X50436Y-66197D01*
X50549Y-66253D01*
X50605Y-66309D01*
X50661Y-66422D01*
X50718Y-66646D01*
X50718Y-66928D01*
X50661Y-67153D01*
X50605Y-67265D01*
X50549Y-67321D01*
X50436Y-67378D01*
X50324Y-67378D01*
X50211Y-67321D01*
X50155Y-67265D01*
X50099Y-67153D01*
X50043Y-66928D01*
X50043Y-66646D01*
X50099Y-66422D01*
X50155Y-66309D01*
X50211Y-66253D01*
X50324Y-66197D01*
X51167Y-66197D02*
X51167Y-66422D01*
X51617Y-66197D02*
X51617Y-66422D01*
X53361Y-67828D02*
X53305Y-67771D01*
X53192Y-67603D01*
X53136Y-67490D01*
X53080Y-67321D01*
X53023Y-67040D01*
X53023Y-66815D01*
X53080Y-66534D01*
X53136Y-66365D01*
X53192Y-66253D01*
X53305Y-66084D01*
X53361Y-66028D01*
X53698Y-66197D02*
X54430Y-66197D01*
X54036Y-66646D01*
X54205Y-66646D01*
X54317Y-66703D01*
X54373Y-66759D01*
X54430Y-66871D01*
X54430Y-67153D01*
X54373Y-67265D01*
X54317Y-67321D01*
X54205Y-67378D01*
X53867Y-67378D01*
X53755Y-67321D01*
X53698Y-67265D01*
X55442Y-66590D02*
X55442Y-67378D01*
X55161Y-66140D02*
X54880Y-66984D01*
X55611Y-66984D01*
X56961Y-67378D02*
X56961Y-66197D01*
X57467Y-67378D02*
X57467Y-66759D01*
X57410Y-66646D01*
X57298Y-66590D01*
X57129Y-66590D01*
X57017Y-66646D01*
X56961Y-66703D01*
X58198Y-67378D02*
X58085Y-67321D01*
X58029Y-67265D01*
X57973Y-67153D01*
X57973Y-66815D01*
X58029Y-66703D01*
X58085Y-66646D01*
X58198Y-66590D01*
X58367Y-66590D01*
X58479Y-66646D01*
X58535Y-66703D01*
X58592Y-66815D01*
X58592Y-67153D01*
X58535Y-67265D01*
X58479Y-67321D01*
X58367Y-67378D01*
X58198Y-67378D01*
X59266Y-67378D02*
X59154Y-67321D01*
X59098Y-67209D01*
X59098Y-66197D01*
X60166Y-67321D02*
X60054Y-67378D01*
X59829Y-67378D01*
X59716Y-67321D01*
X59660Y-67209D01*
X59660Y-66759D01*
X59716Y-66646D01*
X59829Y-66590D01*
X60054Y-66590D01*
X60166Y-66646D01*
X60223Y-66759D01*
X60223Y-66871D01*
X59660Y-66984D01*
X60673Y-67321D02*
X60785Y-67378D01*
X61010Y-67378D01*
X61122Y-67321D01*
X61179Y-67209D01*
X61179Y-67153D01*
X61122Y-67040D01*
X61010Y-66984D01*
X60841Y-66984D01*
X60729Y-66928D01*
X60673Y-66815D01*
X60673Y-66759D01*
X60729Y-66646D01*
X60841Y-66590D01*
X61010Y-66590D01*
X61122Y-66646D01*
X61572Y-67828D02*
X61629Y-67771D01*
X61741Y-67603D01*
X61797Y-67490D01*
X61854Y-67321D01*
X61910Y-67040D01*
X61910Y-66815D01*
X61854Y-66534D01*
X61797Y-66365D01*
X61741Y-66253D01*
X61629Y-66084D01*
X61572Y-66028D01*
M02*
